<svg width="42" height="42" viewBox="0 0 42 42" fill="none" xmlns="http://www.w3.org/2000/svg">
<path d="M35.5041 14.175C35.5039 13.6189 35.385 13.1275 35.1445 12.7058C34.9082 12.2911 34.5544 11.9435 34.0798 11.6687C30.1625 9.40993 26.2414 7.15807 22.3253 4.89701C21.2695 4.2875 20.2459 4.30972 19.198 4.92797C17.6387 5.8475 9.83226 10.3201 7.50601 11.6674C6.54802 12.222 6.08182 13.0708 6.0816 14.1739C6.08011 18.7165 6.0816 23.2589 6.08011 27.8015C6.08033 28.3454 6.19417 28.8272 6.42412 29.2426C6.66048 29.6698 7.01925 30.027 7.50474 30.308C9.8311 31.6554 17.6386 36.1276 19.1975 37.0474C20.2459 37.666 21.2695 37.6881 22.3257 37.0784C26.2418 34.8172 30.1632 32.5654 34.0811 30.3066C34.5667 30.0257 34.9254 29.6684 35.1617 29.2414C35.3914 28.8261 35.5054 28.3443 35.5056 27.8002C35.5056 27.8002 35.5056 18.7176 35.5041 14.175Z" fill="#5C8DBC"/>
<path d="M20.8379 20.9435L6.42412 29.2426C6.66048 29.6698 7.01925 30.027 7.50474 30.308C9.8311 31.6555 17.6386 36.1276 19.1975 37.0474C20.2459 37.666 21.2695 37.6881 22.3256 37.0784C26.2418 34.8172 30.1632 32.5654 34.0811 30.3066C34.5667 30.0257 34.9254 29.6684 35.1617 29.2415L20.8379 20.9435Z" fill="#1A4674"/>
<path d="M16.5687 23.4017C17.4075 24.866 18.9842 25.8536 20.7929 25.8536C22.6127 25.8536 24.1985 24.8534 25.0329 23.3736L20.8379 20.9435L16.5687 23.4017Z" fill="#1A4674"/>
<path d="M35.5041 14.175C35.5039 13.6189 35.385 13.1275 35.1445 12.7058L20.8379 20.9435L35.1617 29.2415C35.3914 28.8261 35.5054 28.3443 35.5056 27.8002C35.5056 27.8002 35.5056 18.7176 35.5041 14.175Z" fill="#1B598E"/>
<path d="M34.7165 21.5366H33.5972V22.6562H32.4777V21.5366H31.3585V20.4174H32.4777V19.2981H33.5972V20.4174H34.7165V21.5366Z" fill="white"/>
<path d="M30.6323 21.5366H29.5131V22.6562H28.3938V21.5366H27.2745V20.4174H28.3938V19.2981H29.5131V20.4174H30.6323V21.5366Z" fill="white"/>
<path d="M25.0329 23.3735C24.1985 24.8534 22.6127 25.8536 20.7929 25.8536C18.9842 25.8536 17.4075 24.866 16.5687 23.4017C16.1473 22.667 15.9261 21.8346 15.927 20.9877C15.927 18.3004 18.1056 16.1219 20.7929 16.1219C22.59 16.1219 24.1584 17.0971 25.0013 18.5464L29.2544 16.0973C27.5639 13.1792 24.4078 11.216 20.7929 11.216C15.396 11.216 11.0211 15.591 11.0211 20.9877C11.0211 22.7582 11.4921 24.4185 12.3153 25.8506C14.0015 28.7841 17.1666 30.7595 20.7929 30.7595C24.4259 30.7595 27.5959 28.7762 29.2797 25.834L25.0329 23.3735Z" fill="white"/>
</svg>
