<svg width="42" height="42" viewBox="0 0 42 42" fill="none" xmlns="http://www.w3.org/2000/svg">
<path d="M38.5525 18.0442C37.8057 17.5221 36.0946 17.3263 34.7569 17.5873C34.6015 16.282 33.8859 15.14 32.6414 14.1284L31.9259 13.6062L31.428 14.3568C30.8059 15.3358 30.4948 16.7064 30.588 18.0117C30.6192 18.4684 30.7747 19.2842 31.2414 20.0022C30.8059 20.2632 29.9037 20.5896 28.7215 20.5896H6.22849L6.16632 20.8506C5.94847 22.1558 5.94847 26.2348 8.49959 29.3674C10.4284 31.7495 13.2906 32.957 17.055 32.957C25.2059 32.957 31.2414 29.0083 34.0725 21.8621C35.1925 21.8948 37.588 21.8621 38.8014 19.4147C38.8325 19.3494 38.8947 19.2189 39.1124 18.7295L39.2368 18.4684L38.5525 18.0442ZM24.2103 8.8421H20.7883V12.1053H24.2103V8.8421ZM24.2103 12.7579H20.7883V16.0211H24.2103V12.7579ZM20.166 12.7579H16.744V16.0211H20.166V12.7579ZM16.1216 12.7579H12.6995V16.0211H16.1216V12.7579ZM12.0773 16.6737H8.65515V19.9369H12.0772L12.0773 16.6737ZM16.1216 16.6737H12.6995V19.9369H16.1216V16.6737ZM20.166 16.6737H16.744V19.9369H20.166V16.6737ZM24.2105 16.6737H20.7882V19.9369H24.2105V16.6737ZM28.2548 16.6737H24.8326V19.9369H28.2548V16.6737Z" fill="#2396ED"/>
</svg>
