<svg width="42" height="42" viewBox="0 0 42 42" fill="none" xmlns="http://www.w3.org/2000/svg">
<mask id="mask0_1_678" style="mask-type:alpha" maskUnits="userSpaceOnUse" x="7" y="5" width="28" height="32">
<path d="M21.5918 5.72194C21.3665 5.59373 21.1118 5.52631 20.8526 5.52631C20.5934 5.52631 20.3387 5.59373 20.1134 5.72194L7.9091 12.7658C7.44505 13.0267 7.18421 13.5196 7.18421 14.0413V28.1592C7.18421 28.6809 7.47418 29.1737 7.9091 29.4346L20.1134 36.479C20.3387 36.6072 20.5934 36.6746 20.8526 36.6746C21.1118 36.6746 21.3665 36.6072 21.5918 36.479L33.7964 29.4346C34.2601 29.1737 34.5212 28.6809 34.5212 28.1592V14.0415C34.5212 13.5198 34.2311 13.027 33.7964 12.7661L21.5918 5.72194Z" fill="white"/>
</mask>
<g mask="url(#mask0_1_678)">
<path d="M21.5918 5.72194C21.3665 5.59373 21.1118 5.52631 20.8526 5.52631C20.5934 5.52631 20.3387 5.59373 20.1134 5.72194L7.9091 12.7658C7.44505 13.0267 7.18421 13.5196 7.18421 14.0413V28.1592C7.18421 28.6809 7.47418 29.1737 7.9091 29.4346L20.1134 36.479C20.3387 36.6072 20.5934 36.6746 20.8526 36.6746C21.1118 36.6746 21.3665 36.6072 21.5918 36.479L33.7964 29.4346C34.2601 29.1737 34.5212 28.6809 34.5212 28.1592V14.0415C34.5212 13.5198 34.2311 13.027 33.7964 12.7661L21.5918 5.72194Z" fill="url(#paint0_linear_1_678)"/>
<path d="M33.8253 12.7661L21.563 5.72192C21.4425 5.66108 21.3162 5.61255 21.186 5.57697L7.44511 29.1163C7.5589 29.2552 7.69639 29.373 7.85118 29.4642L20.1135 36.5086C20.4614 36.7115 20.8672 36.7694 21.2439 36.6533L34.1443 13.0563C34.0573 12.9404 33.9411 12.8529 33.8253 12.7661Z" fill="url(#paint1_linear_1_678)"/>
<path fill-rule="evenodd" clip-rule="evenodd" d="M33.8543 29.4349C34.2023 29.2319 34.4631 28.884 34.5792 28.5073L21.1278 5.54785C20.7799 5.48994 20.4029 5.51878 20.0843 5.72171L7.90888 12.7373L21.0407 36.6821C21.2317 36.6509 21.4172 36.5923 21.5915 36.5083L33.8543 29.4349Z" fill="url(#paint2_linear_1_678)"/>
<path fill-rule="evenodd" clip-rule="evenodd" d="M33.8543 29.4349L21.6209 36.4792C21.4482 36.5673 21.2621 36.626 21.0701 36.6531L21.3021 37.088L34.8689 29.2322V29.0581L34.521 28.4782C34.463 28.8841 34.2022 29.2319 33.8543 29.4349Z" fill="url(#paint3_linear_1_678)"/>
<path fill-rule="evenodd" clip-rule="evenodd" d="M33.8543 29.4349L21.6209 36.4792C21.4482 36.5673 21.2621 36.626 21.0701 36.6531L21.3021 37.088L34.8689 29.2322V29.0581L34.521 28.4782C34.463 28.8841 34.2022 29.2319 33.8543 29.4349Z" fill="url(#paint4_linear_1_678)"/>
</g>
<defs>
<linearGradient id="paint0_linear_1_678" x1="25.8248" y1="10.9732" x2="12.4476" y2="31.9927" gradientUnits="userSpaceOnUse">
<stop stop-color="#41873F"/>
<stop offset="0.3288" stop-color="#418B3D"/>
<stop offset="0.6352" stop-color="#419637"/>
<stop offset="0.9319" stop-color="#3FA92D"/>
<stop offset="1" stop-color="#3FAE2A"/>
</linearGradient>
<linearGradient id="paint1_linear_1_678" x1="18.9997" y1="22.7541" x2="52.5021" y2="4.55216" gradientUnits="userSpaceOnUse">
<stop offset="0.1376" stop-color="#41873F"/>
<stop offset="0.4032" stop-color="#54A044"/>
<stop offset="0.7136" stop-color="#66B848"/>
<stop offset="0.9081" stop-color="#6CC04A"/>
</linearGradient>
<linearGradient id="paint2_linear_1_678" x1="6.73829" y1="21.1009" x2="34.979" y2="21.1009" gradientUnits="userSpaceOnUse">
<stop offset="0.09192" stop-color="#6CC04A"/>
<stop offset="0.2864" stop-color="#66B848"/>
<stop offset="0.5968" stop-color="#54A044"/>
<stop offset="0.8624" stop-color="#41873F"/>
</linearGradient>
<linearGradient id="paint3_linear_1_678" x1="6.73846" y1="32.8068" x2="34.9789" y2="32.8068" gradientUnits="userSpaceOnUse">
<stop offset="0.09192" stop-color="#6CC04A"/>
<stop offset="0.2864" stop-color="#66B848"/>
<stop offset="0.5968" stop-color="#54A044"/>
<stop offset="0.8624" stop-color="#41873F"/>
</linearGradient>
<linearGradient id="paint4_linear_1_678" x1="39.0931" y1="10.3056" x2="31.9387" y2="47.7945" gradientUnits="userSpaceOnUse">
<stop stop-color="#41873F"/>
<stop offset="0.3288" stop-color="#418B3D"/>
<stop offset="0.6352" stop-color="#419637"/>
<stop offset="0.9319" stop-color="#3FA92D"/>
<stop offset="1" stop-color="#3FAE2A"/>
</linearGradient>
</defs>
</svg>
