<svg width="42" height="42" viewBox="0 0 42 42" fill="none" xmlns="http://www.w3.org/2000/svg">
<path d="M21 23.7622C22.6351 23.7622 23.9605 22.4367 23.9605 20.8016C23.9605 19.1666 22.6351 17.8411 21 17.8411C19.3649 17.8411 18.0395 19.1666 18.0395 20.8016C18.0395 22.4367 19.3649 23.7622 21 23.7622Z" fill="#00D8FF"/>
<path d="M21 27.5895C17.4416 27.6756 13.8921 27.1959 10.4842 26.1684C8.90997 25.6694 7.44168 24.8833 6.15355 23.8497C5.66204 23.4967 5.25269 23.0415 4.95364 22.5153C4.65459 21.9892 4.4729 21.4046 4.42105 20.8016C4.42105 18.8441 6.57156 16.9257 10.1739 15.6704C13.673 14.5581 17.3289 14.0191 21 14.0741C24.6222 14.0235 28.2291 14.5528 31.684 15.642C33.2001 16.1253 34.6186 16.8735 35.8737 17.8518C36.3568 18.1883 36.76 18.627 37.0547 19.1368C37.3494 19.6466 37.5284 20.215 37.5789 20.8016C37.5789 22.836 35.175 24.8977 31.3027 26.1791C27.9607 27.1731 24.4861 27.6487 21 27.5895ZM21 15.4904C17.4877 15.4434 13.9905 15.9559 10.6393 17.0085C7.32353 18.1655 5.83739 19.7477 5.83739 20.7981C5.83739 21.897 7.43488 23.6248 10.9425 24.8244C14.2027 25.8023 17.5973 26.2576 21 26.1732C24.3352 26.2328 27.6599 25.7815 30.8586 24.835C34.5 23.6283 36.1579 21.8982 36.1579 20.8016C36.0982 20.4253 35.961 20.0654 35.7551 19.7448C35.5493 19.4242 35.2792 19.1498 34.9618 18.9388C33.8389 18.071 32.5718 17.4079 31.2185 16.9801C27.9135 15.9425 24.4638 15.4396 21 15.4904Z" fill="#00D8FF"/>
<path d="M14.2737 35.5675C13.7212 35.5802 13.1753 35.4461 12.6916 35.1791C10.9958 34.2009 10.4084 31.3802 11.1201 27.6321C11.9048 24.0452 13.2645 20.6089 15.1465 17.4562C16.9118 14.2933 19.1718 11.4332 21.8408 8.98432C23.0169 7.91227 24.3736 7.05708 25.8482 6.45841C26.3815 6.20846 26.9633 6.07892 27.5522 6.07892C28.1412 6.07892 28.723 6.20846 29.2563 6.45841C31.0196 7.47448 31.6034 10.5866 30.7804 14.5809C29.9715 17.9732 28.6471 21.2213 26.8535 24.2121C25.1503 27.3377 22.9615 30.1728 20.3688 32.6117C19.15 33.7258 17.7355 34.6047 16.1969 35.2039C15.5808 35.4326 14.9306 35.5555 14.2737 35.5675ZM16.3733 18.1596C14.5781 21.1785 13.275 24.464 12.5127 27.8926C11.8579 31.3446 12.4867 33.4205 13.4009 33.9487C14.3483 34.497 16.648 33.9771 19.4404 31.5377C21.9154 29.2011 24.0046 26.4872 25.6303 23.4969C27.3485 20.6376 28.6189 17.5322 29.3972 14.2884C30.1717 10.5285 29.5026 8.22644 28.5529 7.67934C28.1969 7.54295 27.8165 7.48188 27.4358 7.50007C27.055 7.51819 26.6822 7.61512 26.3408 7.78473C25.0283 8.32631 23.8217 9.09524 22.7763 10.056C20.2263 12.4017 18.0675 15.1398 16.3816 18.1667L16.3733 18.1596Z" fill="#00D8FF"/>
<path d="M27.7228 35.5829C26.1181 35.5829 24.0801 34.6119 21.958 32.787C19.2423 30.3159 16.9441 27.4218 15.1524 24.2169C13.2941 21.1075 11.9451 17.7209 11.1569 14.1854C10.815 12.6299 10.7516 11.0261 10.9697 9.44855C11.0202 8.86337 11.1984 8.29631 11.4918 7.78745C11.7852 7.27858 12.1867 6.84029 12.6679 6.50346C14.4288 5.48383 17.4166 6.53187 20.4659 9.23899C23.0009 11.6337 25.1535 14.4029 26.8488 17.4503C28.706 20.487 30.0691 23.7994 30.887 27.2638C31.2436 28.8764 31.2986 30.541 31.0492 32.1736C30.9899 32.7756 30.8011 33.3578 30.4957 33.88C30.1903 34.4022 29.7756 34.8522 29.28 35.1992C28.8042 35.463 28.2667 35.5954 27.7228 35.5829ZM16.378 23.504C18.0968 26.5669 20.2922 29.3367 22.8817 31.7094C25.545 34.0008 27.6577 34.4934 28.5659 33.9594C29.5133 33.4087 30.212 31.1611 29.492 27.5244C28.7031 24.2168 27.3958 21.0549 25.6185 18.1561C24.0006 15.2395 21.9459 12.5878 19.5257 10.2929C16.6552 7.74451 14.327 7.17491 13.3784 7.72434C13.0828 7.96462 12.8402 8.26354 12.6659 8.6023C12.4916 8.94106 12.3895 9.31227 12.3659 9.69253C12.1776 11.0995 12.239 12.5286 12.5471 13.9143C13.3054 17.2953 14.599 20.5335 16.3792 23.5063L16.378 23.504Z" fill="#00D8FF"/>
</svg>
