<svg width="42" height="42" viewBox="0 0 42 42" fill="none" xmlns="http://www.w3.org/2000/svg">
<path d="M33.3679 22.7823C32.3125 22.7837 31.2712 23.0252 30.3229 23.4885C30.0096 22.8685 29.6962 22.3158 29.641 21.9102C29.5802 21.4377 29.5061 21.1492 29.5802 20.5839C29.6537 20.0191 29.9853 19.215 29.9786 19.1531C29.9731 19.0923 29.9051 18.8033 29.2298 18.7972C28.5545 18.7912 27.9709 18.926 27.9035 19.1039C27.7861 19.4305 27.6917 19.765 27.6211 20.1048C27.5045 20.7193 26.2699 22.911 25.5642 24.0594C25.3365 23.6118 25.1403 23.2183 25.0972 22.9049C25.0359 22.4324 24.9624 22.1434 25.0359 21.5786C25.11 21.0138 25.441 20.2098 25.4349 20.1479C25.4288 20.0871 25.3614 19.7981 24.6861 19.792C24.0102 19.7859 23.4272 19.9207 23.3598 20.0992C23.2918 20.2772 23.2183 20.6944 23.0774 21.0995C22.9359 21.5051 21.2962 25.1647 20.8668 26.1102C20.6929 26.493 20.5105 26.8718 20.3197 27.2464C20.3197 27.2464 20.3142 27.2647 20.2954 27.2956C20.2357 27.4128 20.1738 27.5294 20.1114 27.6454V27.6515C20.0191 27.8173 19.9207 27.9709 19.8721 27.9709C19.8351 27.9709 19.7671 27.5288 19.8843 26.927C20.1296 25.6559 20.7132 23.6786 20.7071 23.6112C20.7071 23.5742 20.8177 23.2304 20.3258 23.0525C19.8472 22.8746 19.6754 23.1691 19.6323 23.1691C19.5892 23.1691 19.5588 23.2736 19.5588 23.2736C19.5588 23.2736 20.0932 21.0509 18.5392 21.0509C17.5693 21.0509 16.2308 22.113 15.5677 23.0707C14.8136 23.4811 14.0602 23.8926 13.3074 24.3053C12.946 24.5076 12.5713 24.7104 12.2209 24.9005C12.1966 24.8762 12.1717 24.8452 12.1474 24.8209C10.2685 22.8132 6.79298 21.3946 6.94053 18.6989C6.99579 17.7168 7.3329 15.1377 13.6147 12.0065C18.7851 9.45776 22.8989 10.164 23.6118 11.7302C24.6308 13.965 21.4062 18.1153 16.065 18.7177C14.0258 18.9442 12.9576 18.1584 12.6879 17.8638C12.4055 17.5566 12.3618 17.5383 12.2579 17.5997C12.0861 17.692 12.1966 17.9683 12.2579 18.128C12.4177 18.5452 13.0742 19.2824 14.1861 19.6444C15.1681 19.9638 17.5571 20.1418 20.4491 19.0244C23.6847 17.7716 26.2147 14.2905 25.4719 11.3737C24.7286 8.41384 19.8168 7.4379 15.1681 9.08916C12.405 10.0717 9.40858 11.6191 7.25332 13.6334C4.69298 16.028 4.28734 18.1098 4.45313 18.9813C5.04887 22.076 9.31629 24.0903 11.0239 25.5824C10.9377 25.6316 10.8581 25.6747 10.7902 25.7112C9.9369 26.1351 6.68245 27.8361 5.87174 29.6349C4.95106 31.6736 6.01929 33.1353 6.72556 33.3314C8.91729 33.9393 11.1709 32.8462 12.3806 31.0408C13.5903 29.2359 13.4428 26.8905 12.8841 25.8157C12.878 25.8035 12.8719 25.7913 12.8598 25.7786C13.0808 25.6499 13.3074 25.515 13.5284 25.3863C13.9352 25.1459 14.3463 24.9143 14.763 24.6922C14.5541 25.263 14.4011 25.9444 14.327 26.927C14.2353 28.082 14.7078 29.5796 15.3278 30.1693C15.6041 30.4274 15.9302 30.4334 16.1385 30.4334C16.863 30.4334 17.1885 29.8311 17.5511 29.1193C17.9932 28.2472 18.3922 27.2343 18.3922 27.2343C18.3922 27.2343 17.8948 29.9726 19.2454 29.9726C19.7373 29.9726 20.2346 29.3343 20.4557 29.0088V29.0143C20.4557 29.0143 20.4673 28.9961 20.4922 28.9535L20.5717 28.8242V28.812C21.0245 28.0169 21.4566 27.2101 21.8677 26.3926C22.7148 24.7226 23.5311 22.6347 23.5311 22.6347C23.5311 22.6347 23.6051 23.1448 23.8571 23.992C24.0047 24.4893 24.3114 25.0359 24.5568 25.5637C24.3606 25.84 24.2379 25.9936 24.2379 25.9936L24.2434 25.9997C24.0843 26.2086 23.9118 26.4363 23.7217 26.6573C23.0525 27.4553 22.2545 28.3705 22.144 28.6341C22.0147 28.9474 22.0456 29.1746 22.2915 29.3586C22.4695 29.494 22.7889 29.5122 23.1138 29.494C23.7162 29.4509 24.1395 29.3033 24.3479 29.2116C24.7274 29.0778 25.0854 28.8894 25.4106 28.6523C26.0677 28.1671 26.4661 27.4736 26.4296 26.5589C26.4114 26.0555 26.2456 25.5515 26.0428 25.079C26.1041 24.9928 26.1594 24.9071 26.2207 24.8209C27.2586 23.3039 28.0632 21.64 28.0632 21.64C28.0632 21.64 28.1367 22.1495 28.3887 22.9972C28.5114 23.4272 28.7634 23.8936 28.9839 24.3479C28.0079 25.1403 27.4061 26.061 27.1912 26.6634C26.8043 27.7808 27.105 28.2843 27.6764 28.4009C27.9339 28.4561 28.3025 28.3329 28.5727 28.2163C28.9797 28.0828 29.3631 27.886 29.7089 27.6333C30.366 27.1481 30.9982 26.4727 30.9612 25.5581C30.943 25.1403 30.8324 24.7292 30.6794 24.3296C31.5083 23.9859 32.576 23.7958 33.9393 23.9549C36.8628 24.2987 37.4392 26.1224 37.3286 26.8905C37.2181 27.6576 36.6047 28.0754 36.4019 28.2041C36.1991 28.3334 36.1311 28.376 36.1499 28.4683C36.1742 28.6031 36.2726 28.5971 36.445 28.5727C36.6843 28.5296 37.9796 27.9527 38.0349 26.5402C38.1272 24.7347 36.4074 22.764 33.3679 22.7823ZM10.8206 30.3843C9.85069 31.4398 8.4995 31.8393 7.91648 31.5017C7.29034 31.1392 7.53571 29.5796 8.72719 28.4622C9.45113 27.7808 10.3851 27.1481 11.0051 26.7612C11.1466 26.6756 11.3549 26.5523 11.6075 26.3992C11.6501 26.3744 11.6744 26.3622 11.6744 26.3622L11.8219 26.2699C12.2579 27.8665 11.8396 29.2729 10.8206 30.3843ZM17.8826 25.5819C17.5444 26.4053 16.8382 28.5108 16.4088 28.3948C16.0402 28.2964 15.813 26.6999 16.3353 25.1221C16.5989 24.3296 17.1576 23.3841 17.4831 23.0155C18.0114 22.4264 18.595 22.2296 18.7359 22.4695C18.9138 22.7823 18.091 25.0663 17.8826 25.5819ZM23.7096 28.3699C23.5681 28.444 23.4333 28.4932 23.3719 28.4561C23.3288 28.4313 23.4333 28.3334 23.4333 28.3334C23.4333 28.3334 24.1638 27.5471 24.4523 27.1912C24.6181 26.9823 24.8148 26.7369 25.0237 26.4606V26.5402C25.0237 27.4796 24.1147 28.1124 23.7096 28.3699ZM28.2041 27.3448C28.0997 27.2707 28.1185 27.0254 28.4683 26.2578C28.6031 25.9566 28.9226 25.4531 29.4691 24.9685C29.5304 25.1647 29.5741 25.3553 29.5675 25.5333C29.5614 26.7181 28.7142 27.1602 28.2041 27.3448Z" fill="#CD6799"/>
</svg>
