<svg width="42" height="42" viewBox="0 0 42 42" fill="none" xmlns="http://www.w3.org/2000/svg">
<path fill-rule="evenodd" clip-rule="evenodd" d="M32.4609 20.4021C32.4609 26.9715 27.2541 32.2975 20.8318 32.2975C14.4095 32.2975 9.20374 26.9715 9.20374 20.4021C9.20374 13.8327 14.4095 8.50671 20.8318 8.50671C27.2541 8.50671 32.4609 13.8327 32.4609 20.4021Z" fill="#D33833"/>
<path d="M9.67624 23.348C9.67624 23.348 8.83486 10.9438 20.2639 10.5895L19.4661 9.26001L13.2635 11.3324L11.502 13.3706L9.95184 16.3392L9.06592 19.7949L9.33223 22.0984" fill="#EF3D3A"/>
<path d="M12.8666 12.2888C10.8254 14.3767 9.56329 17.2593 9.56329 20.4477C9.56329 23.636 10.8274 26.5197 12.8666 28.6056C14.9059 30.6914 17.7212 31.9804 20.8318 31.9804C23.9424 31.9804 26.7557 30.6924 28.7969 28.6056C30.8382 26.5187 32.1003 23.635 32.1003 20.4477C32.1003 17.2604 30.8361 14.3756 28.7969 12.2888C26.7577 10.2019 23.9424 8.91392 20.8318 8.91392C17.7212 8.91392 14.9079 10.2019 12.8666 12.2888ZM12.3506 29.1112C10.1819 26.8938 8.8421 23.8287 8.8421 20.4487C8.8421 17.0687 10.1829 14.0037 12.3506 11.7862C14.5183 9.56879 17.5191 8.19274 20.8318 8.19379C24.1445 8.19478 27.1453 9.56879 29.313 11.7862C31.4807 14.0037 32.8225 17.0687 32.8225 20.4487C32.8225 23.8287 31.4817 26.8938 29.313 29.1112C27.1442 31.3287 24.1445 32.7037 20.8318 32.7037C17.5191 32.7037 14.5183 31.3287 12.3506 29.1112Z" fill="#231F20"/>
<path fill-rule="evenodd" clip-rule="evenodd" d="M25.7267 20.4684L23.9652 20.7347L21.5716 21.001L20.0215 21.0456L18.5149 21.001L17.3626 20.6466L16.3441 19.5379L15.5462 17.2791L15.3701 16.792L14.3069 16.4377L13.6852 15.4191L13.2345 13.957L13.7215 12.6722L14.8737 12.2732L15.8042 12.7167L16.2477 13.6907L16.7793 13.6016L16.9554 13.3799L16.7793 12.3613L16.7347 11.0764L17.001 9.31492L16.9906 8.30255L17.7989 7.01149L19.2164 5.99294L21.6949 4.9184L24.4408 5.31733L26.8344 7.04465L27.9431 8.80616L28.6518 10.091L28.828 13.2804L28.2964 16.0263L27.3224 18.4613L26.392 19.7462" fill="#F0D6B7"/>
<path fill-rule="evenodd" clip-rule="evenodd" d="M24.2201 28.132L17.8849 28.3983V29.4614L18.4164 33.1814L18.1501 33.4922L13.7215 31.9866L13.4107 31.455L12.9672 26.4503L11.9486 23.4381L11.7268 22.7294L15.2706 20.2943L16.3793 19.8508L17.3533 21.0466L18.1947 21.7999L19.1687 22.1108L19.6112 22.2434L20.1428 24.5468L20.5416 25.0339L21.5603 24.6794L20.8515 26.0524L24.7061 27.8689L24.2191 28.1351" fill="#335061"/>
<path fill-rule="evenodd" clip-rule="evenodd" d="M13.7215 12.6721L14.8738 12.2732L15.8042 12.7167L16.2477 13.6907L16.7793 13.6016L16.9119 13.07L16.6456 12.0515L16.9119 9.61438L16.6902 8.28497L17.488 7.35445L19.2153 5.98149L18.7284 5.31836L16.2913 6.51412L15.2727 7.31195L14.6966 8.55228L13.8106 9.74806L13.5443 11.1656L13.7205 12.6721" fill="#6D6B6D"/>
<path fill-rule="evenodd" clip-rule="evenodd" d="M15.5369 8.50671C15.5369 8.50671 16.2001 6.86749 18.8599 6.0717C21.5198 5.2759 18.9926 5.49557 18.9926 5.49557L16.112 6.60427L15.0033 7.71302L14.5163 8.59894L15.5348 8.5098L15.5369 8.50671ZM14.2085 12.3613C14.2085 12.3613 13.278 9.26 16.8228 8.81756L16.6902 8.28599L14.2551 8.8621L13.5464 11.1656L13.7226 12.6722L14.2095 12.3613" fill="#DCD9D8"/>
<path fill-rule="evenodd" clip-rule="evenodd" d="M15.626 16.4812L16.2062 15.9196C16.2121 16.0023 16.2453 16.0807 16.3006 16.1425C16.356 16.2042 16.4303 16.2457 16.512 16.2605C16.5565 16.5713 16.6881 19.3618 18.5843 20.8684C18.7584 21.0062 17.1668 20.6467 17.1668 20.6467L15.7493 18.4313L15.626 16.4812ZM23.7673 15.6388C23.7673 15.6388 23.8709 14.2959 24.2336 14.3995C24.5962 14.5031 24.5962 14.8658 24.5962 14.8658C24.5962 14.8658 23.7176 15.4336 23.7694 15.6409" fill="#F7E4CD"/>
<path d="M27.4551 10.7211C27.4551 10.7211 26.7245 10.8765 26.6572 11.5189C26.5899 12.1613 27.4551 11.6515 27.5877 11.608L27.4551 10.7211ZM22.1042 10.7656C22.1042 10.7656 21.1302 10.8982 21.1302 11.5189C21.1302 12.1396 22.2389 12.095 22.5477 11.8298" fill="#F7E4CD"/>
<path fill-rule="evenodd" clip-rule="evenodd" d="M16.0684 13.6462C16.0684 13.6462 14.3847 12.6266 14.2085 13.6016C14.0324 14.5767 13.6324 15.2854 14.4748 16.304L13.8987 16.1278L13.3671 14.7549L13.191 13.4254L14.2095 12.3623L15.3618 12.4514L16.0249 12.983L16.0695 13.6462H16.0684ZM16.8674 10.8547C16.8674 10.8547 17.6207 6.95655 21.4307 6.19188C24.5672 5.57221 26.2147 6.32451 26.8355 7.03326C26.8355 7.03326 24.0439 3.71123 21.3851 4.7298C18.7262 5.74839 16.7782 7.63109 16.8197 8.81549L16.8642 10.8537L16.8674 10.8547ZM27.1432 7.48603C27.1432 7.48603 25.8583 7.44149 25.8137 8.59477C25.8183 8.71768 25.8483 8.83837 25.9018 8.94912C25.9018 8.94912 26.9214 7.79688 27.5411 8.4176L27.1432 7.48603ZM21.5178 9.06832C21.5178 9.06832 21.297 7.30057 19.7894 8.32846C18.8154 8.99162 18.9034 9.92418 19.0807 10.09C19.2578 10.2558 19.2101 10.6236 19.3449 10.3801C19.4795 10.1366 19.435 9.33773 19.923 9.11596C20.4111 8.89424 21.2079 8.64655 21.5188 9.05898" fill="#F7E4CD"/>
<path fill-rule="evenodd" clip-rule="evenodd" d="M17.3533 21.0445L13.1878 22.9055C13.1878 22.9055 14.9152 29.7723 14.0292 31.8996L13.4075 31.6779L13.363 29.0635L12.2149 24.1116L11.7279 22.7387L16.0799 19.8146L17.3647 21.0549L17.3533 21.0445ZM17.7834 24.8421L18.374 25.5633V28.2212H17.6652L17.5771 26.1488C17.5771 25.927 17.6652 25.1302 17.6652 25.1302L17.7834 24.8421ZM17.7968 28.619L15.8032 28.7071L16.3793 29.106L17.7968 29.3278" fill="#49728B"/>
<path fill-rule="evenodd" clip-rule="evenodd" d="M24.619 28.1766L26.2583 28.132L26.6572 32.2084L24.9734 32.4301L24.619 28.1776" fill="#335061"/>
<path fill-rule="evenodd" clip-rule="evenodd" d="M25.0625 28.1766L27.5432 28.044L28.5617 25.3416C28.5617 25.209 29.4477 21.6217 29.4477 21.6217L27.454 19.539L27.0551 19.1846L25.992 20.2477V24.3676L25.0615 28.1777" fill="#335061"/>
<path fill-rule="evenodd" clip-rule="evenodd" d="M26.1702 27.8668L24.6201 28.1777L24.8418 29.418C25.4179 29.6843 26.392 28.9745 26.392 28.9745L26.1702 27.8668ZM26.2137 20.1151L29.315 22.4186L29.4041 21.3554L27.0562 19.1846L26.2148 20.1151" fill="#49728B"/>
<path fill-rule="evenodd" clip-rule="evenodd" d="M19.3345 36.9044L18.4175 33.1824L17.9616 30.4365L17.8859 28.3983L22.0369 28.1776H24.6201L24.3849 32.8404L24.7838 36.4287L24.7392 37.0919L21.3716 37.3582L19.3335 36.9147" fill="white"/>
<path fill-rule="evenodd" clip-rule="evenodd" d="M24.0419 28.1321C24.0419 28.1321 23.8201 32.74 24.4854 36.0071C24.4854 36.0071 23.1559 36.8484 21.2069 37.0702L24.9268 36.9376L25.3703 36.6713L24.8387 29.4056L24.7061 27.8544" fill="#DCD9D8"/>
<path fill-rule="evenodd" clip-rule="evenodd" d="M26.7328 31.854L28.4602 31.367L31.7387 31.1909L32.2257 29.6843L31.3397 27.0699L30.3212 26.9373L28.9037 27.3808L27.5432 28.044L26.8209 27.9113L26.2583 28.1321" fill="white"/>
<path fill-rule="evenodd" clip-rule="evenodd" d="M26.7018 30.967C26.7018 30.967 27.854 30.4354 28.0312 30.48L27.5442 28.0429L28.1203 27.8212L28.5192 30.3909L31.2216 30.5235C31.2216 30.5235 31.7532 29.505 31.6205 28.4512L32.1075 29.8687L32.1521 30.6666L31.4434 31.7297L30.6455 31.9058L29.3161 31.8612L28.8726 31.2851L27.3224 31.5069L26.8354 31.683" fill="#DCD9D8"/>
<path d="M24.9599 27.8212L23.9859 25.3406L22.9674 23.8795C22.9674 23.8795 23.1891 23.2578 23.499 23.2578H24.5175L25.4915 23.6122L25.4034 25.2514L24.9599 27.8212Z" fill="white"/>
<path fill-rule="evenodd" clip-rule="evenodd" d="M25.1506 26.9819C25.1506 26.9819 23.9103 24.5883 23.9103 24.236C23.9103 24.236 24.132 23.7044 24.4418 23.837C24.7517 23.9696 25.4159 24.3241 25.4159 24.3241V23.4827L23.9093 23.1718L22.8907 23.3044L24.618 27.3808L24.9724 27.4254" fill="#DCD9D8"/>
<path d="M19.7314 21.1326L18.5045 20.9979L17.3523 20.6436V21.0425L17.9149 21.6642L19.6764 22.462" fill="white"/>
<path fill-rule="evenodd" clip-rule="evenodd" d="M17.7522 21.2663C17.7522 21.2663 19.1252 21.8424 19.5687 21.7098L19.6132 22.2413L18.3729 21.976L17.6196 21.4445L17.7522 21.2683" fill="#DCD9D8"/>
<path fill-rule="evenodd" clip-rule="evenodd" d="M26.7277 23.4101C25.9764 23.3894 25.2978 23.2993 24.7019 23.1304C24.7434 22.8869 24.6667 22.6475 24.7278 22.4714C24.8936 22.3522 25.1713 22.3543 25.4221 22.3263C25.2045 22.2196 24.9009 22.1781 24.6512 22.2393C24.6449 22.0704 24.5683 21.9657 24.5237 21.8331C24.9465 21.6818 25.9433 20.6933 26.5049 21.0207C26.7722 21.1761 26.8862 22.0672 26.9069 22.4983C26.9245 22.8568 26.8759 23.2195 26.7277 23.4101Z" fill="#D33833"/>
<path d="M26.7277 23.4101C25.9764 23.3894 25.2978 23.2993 24.7019 23.1304C24.7434 22.8869 24.6667 22.6475 24.7278 22.4714C24.8936 22.3522 25.1713 22.3543 25.4221 22.3263C25.2045 22.2196 24.9009 22.1781 24.6512 22.2393C24.6449 22.0704 24.5683 21.9657 24.5237 21.8331C24.9465 21.6818 25.9433 20.6933 26.5049 21.0207C26.7722 21.1761 26.8862 22.0672 26.9069 22.4983C26.9245 22.8568 26.8759 23.2195 26.7277 23.4101Z" stroke="#D33833" stroke-width="0.514"/>
<path fill-rule="evenodd" clip-rule="evenodd" d="M23.1331 22.1813L23.1269 22.3533C22.8917 22.5087 22.5135 22.5056 22.2565 22.6351C22.6358 22.6517 22.9353 22.7429 23.1943 22.8734L23.1777 23.3034C22.7477 23.5977 22.355 24.0371 21.8483 24.3127C21.6099 24.4432 20.7685 24.779 20.5137 24.7199C20.3686 24.6867 20.3562 24.5075 20.2992 24.3386C20.1769 23.9759 19.8951 23.4029 19.8691 22.8589C19.8381 22.1719 19.7687 21.0218 20.5085 21.1627C21.1203 21.2925 21.7106 21.5084 22.2617 21.8041C22.5446 21.9595 22.7073 22.1492 23.1362 22.1823" fill="#D33833"/>
<path d="M23.1331 22.1813L23.1269 22.3533C22.8917 22.5087 22.5135 22.5056 22.2565 22.6351C22.6358 22.6517 22.9353 22.7429 23.1943 22.8734L23.1777 23.3034C22.7477 23.5977 22.355 24.0371 21.8483 24.3127C21.6099 24.4432 20.7685 24.779 20.5137 24.7199C20.3686 24.6867 20.3562 24.5075 20.2992 24.3386C20.1769 23.9759 19.8951 23.4029 19.8691 22.8589C19.8381 22.1719 19.7687 21.0218 20.5085 21.1627C21.1203 21.2925 21.7106 21.5084 22.2617 21.8041C22.5446 21.9595 22.7073 22.1492 23.1362 22.1823L23.1331 22.1813Z" stroke="#D33833" stroke-width="0.514"/>
<path fill-rule="evenodd" clip-rule="evenodd" d="M23.5601 23.0009C23.4948 22.6279 23.4181 22.5201 23.4482 22.1927C24.446 21.5275 24.6325 23.3345 23.5601 23.0009Z" fill="#D33833"/>
<path d="M23.5601 23.0009C23.4948 22.6279 23.4181 22.5201 23.4482 22.1927C24.446 21.5275 24.6325 23.3345 23.5601 23.0009Z" stroke="#D33833" stroke-width="0.514"/>
<path fill-rule="evenodd" clip-rule="evenodd" d="M25.0055 23.3034C25.0055 23.3034 24.6947 22.8599 24.9164 22.7273C25.1382 22.5947 25.3599 22.7273 25.4926 22.5056C25.6252 22.2838 25.4926 22.1512 25.5371 21.8839C25.5816 21.6165 25.8034 21.573 26.0241 21.5295C26.2448 21.486 26.8655 21.3968 26.9546 21.6186L26.6883 20.8207L26.1568 20.6446L24.473 21.6186L24.3838 22.1056V23.0796L25.0055 23.3034ZM20.3427 24.7645L20.1707 22.6921C20.0671 21.661 20.4194 21.8403 21.3126 21.8403C21.4493 21.8403 22.1415 22.003 22.2037 22.1066C22.4451 22.5999 21.7892 22.49 22.4835 22.863C23.0596 23.177 24.0771 22.6724 23.844 21.974C23.7134 21.8185 23.1653 21.9253 22.9684 21.8237L21.9301 21.2849C21.4897 21.057 20.4722 20.7233 20.0028 21.0425C18.8133 21.8507 20.0774 23.8733 20.5023 24.7168" fill="#EF3D3A"/>
<path fill-rule="evenodd" clip-rule="evenodd" d="M21.5188 9.06933C20.3117 8.78959 19.7117 9.57499 19.3449 10.3905C19.0185 10.3118 19.1376 9.86722 19.2413 9.64031C19.4485 9.04551 20.3293 8.25492 21.0401 8.36163C21.3468 8.40827 21.7613 8.68801 21.5292 9.06933H21.5188ZM27.4022 10.434L27.4592 10.4361C27.7318 11.0029 27.9773 11.6039 28.312 12.094C28.0809 12.6307 26.5661 13.1063 26.5888 12.1416C26.9163 11.9987 27.482 12.1126 27.7732 11.9292C27.6053 11.4681 27.3629 11.0754 27.4002 10.4237L27.4022 10.434ZM22.1364 10.4589C22.3954 10.9335 22.4783 11.4329 22.8472 11.7904C23.013 11.952 23.3342 12.1489 23.1757 12.5986C23.0625 12.7717 22.9001 12.9071 22.7094 12.9872C22.1343 13.1571 20.7924 13.0224 21.2587 12.3054C21.7353 12.3261 22.3736 12.6141 22.7301 12.2691C22.4565 11.8339 21.9706 10.9687 22.1498 10.4599L22.1364 10.4589ZM27.1961 15.2833C26.3298 15.8398 25.3641 16.4439 23.9445 16.305C23.6409 16.0418 23.5259 15.4554 23.8201 15.0668C23.9735 15.33 23.8772 15.816 24.3051 15.8885C25.1102 16.0263 26.048 15.3963 26.6261 15.1756C26.9857 14.5694 26.5951 14.3466 26.2718 13.957C25.6086 13.1592 24.7206 12.1686 24.7527 10.9728C25.0201 10.7791 25.0428 11.2692 25.0822 11.3583C25.4283 12.1665 26.2987 13.2027 26.9339 13.897C27.0893 14.0679 27.3484 14.2316 27.3753 14.3446C27.4582 14.673 27.1608 15.0658 27.195 15.2844L27.1961 15.2833ZM15.7659 14.6969C15.4944 14.5414 15.4302 13.8597 15.1111 13.8399C14.6551 13.812 14.738 14.7259 14.7401 15.2595C14.4261 14.9746 14.3712 14.099 14.6013 13.6483C14.3391 13.5198 14.2209 13.7902 14.0759 13.8866C14.2624 12.5271 16.0653 13.2649 15.7649 14.6979L15.7659 14.6969ZM27.738 15.8377C27.3235 16.6045 26.764 17.45 25.5807 17.4749C25.5568 17.2262 25.5392 16.8501 25.5817 16.7008C26.4863 16.6138 27.0447 16.1537 27.7369 15.8377H27.738ZM22.069 16.3351C22.8234 16.732 24.2108 16.7744 25.2366 16.7444C25.2915 16.9692 25.2905 17.2469 25.2926 17.5215C23.9735 17.5868 22.4151 17.2625 22.0804 16.3351H22.069ZM21.9353 17.0749C22.4576 18.3857 24.2512 18.2354 25.764 18.1981C25.6977 18.3681 25.5526 18.5691 25.3734 18.6416C24.8885 18.8489 23.5518 18.9887 22.8793 18.6312C22.4524 18.4033 22.1788 17.8914 21.9447 17.5909C21.8411 17.4458 21.2691 17.0749 21.9364 17.0728" fill="#231F20"/>
<path fill-rule="evenodd" clip-rule="evenodd" d="M27.1235 24.3147L25.1983 27.3663C25.5029 26.4711 25.6335 24.9727 25.6791 23.8288C26.3163 23.5303 26.8624 23.8961 27.1235 24.3158" fill="#81B0C4"/>
<path fill-rule="evenodd" clip-rule="evenodd" d="M30.4185 28.0844C29.7326 28.2212 29.2508 28.8885 28.5824 28.8449C28.9503 28.3268 29.5937 28.1196 30.4185 28.0844ZM30.7211 29.1579C30.1616 29.2169 29.5057 29.3071 28.9389 29.2615C29.2083 28.8512 30.2414 28.9921 30.7211 29.1579ZM30.9149 30.0822C30.287 30.0956 29.5057 30.0832 28.9089 30.0334C29.2612 29.6542 30.5077 29.8925 30.9149 30.0822Z" fill="#231F20"/>
<path fill-rule="evenodd" clip-rule="evenodd" d="M25.9412 32.6146C26.0314 33.4021 26.3453 34.203 26.3039 35.0662C25.9568 35.1833 25.7568 35.2858 25.2915 35.2838L25.19 32.7275C25.418 32.7431 25.7568 32.5638 25.9402 32.6239" fill="#DCD9D8"/>
<path fill-rule="evenodd" clip-rule="evenodd" d="M24.9289 20.9886C24.6139 21.1959 24.3445 21.4518 24.0419 21.6725C23.3705 21.7057 23.0036 21.6259 22.5104 21.2404C22.5187 21.2093 22.5684 21.2228 22.5695 21.1855C23.2886 21.5067 24.2025 21.055 24.9289 20.9886Z" fill="#F0D6B7"/>
<path fill-rule="evenodd" clip-rule="evenodd" d="M21.154 25.8898C21.3509 25.0339 22.126 24.5904 22.8285 24.1179C23.5538 25.0401 23.9953 26.2213 24.4813 27.3653C23.3332 27.0192 22.1602 26.4576 21.1551 25.8888" fill="#81B0C4"/>
<path fill-rule="evenodd" clip-rule="evenodd" d="M25.192 32.7286C25.163 33.428 25.2605 34.5523 25.2936 35.2848C25.7599 35.2859 25.9588 35.1833 26.306 35.0673C26.3453 34.2031 26.0324 33.4042 25.9433 32.6156C25.7599 32.5669 25.4221 32.7452 25.1931 32.7192L25.192 32.7286ZM17.947 28.7496C18.2538 31.5702 18.6983 33.9306 19.5138 36.4381C21.323 36.9873 23.5031 37.035 25.103 36.5397C24.8097 35.1305 24.9372 33.4135 24.7662 31.9079L24.5258 28.4854C22.5882 28.0813 19.8495 28.3921 17.9481 28.7465L17.947 28.7496ZM24.9931 28.5061C24.9765 29.7185 25.047 30.9121 25.1403 32.1256L26.3526 31.9142C26.2127 30.7463 26.2282 29.4325 25.9433 28.3994C25.6117 28.4025 25.3216 28.3953 24.9921 28.5061H24.9931ZM27.3525 28.3113C27.1318 28.2595 26.8759 28.3092 26.6634 28.3134L27.0779 31.4271C27.4095 31.4375 27.5857 31.2821 27.8603 31.2282C27.8747 30.3184 27.7805 29.0646 27.3422 28.3113H27.3525ZM30.9253 31.5753C31.6174 31.4075 32.0516 30.5598 31.8578 29.6894C31.7283 29.105 31.4972 28.0036 31.2496 27.6295C31.0672 27.3529 30.5709 26.9902 30.1751 27.244C29.5306 27.6565 28.3959 27.7767 27.9266 28.2751C28.1618 29.0594 28.2353 30.1361 28.3328 31.1298C29.1378 31.1795 30.1274 30.908 30.7968 31.1961C30.3305 31.3473 29.7233 31.3484 29.3202 31.5691C29.6497 31.7287 30.4227 31.6965 30.9263 31.5743L30.9253 31.5753ZM24.4926 27.3684C24.0057 26.2255 23.5653 25.0411 22.8399 24.121C22.1374 24.5925 21.3634 25.036 21.1655 25.8929C22.1705 26.4628 23.3445 27.0223 24.4916 27.3694L24.4926 27.3684ZM25.6905 23.8298C25.6449 24.9727 25.5143 26.4721 25.2097 27.3674C25.935 26.4421 26.5225 25.3644 27.1349 24.3158C26.8738 23.8972 26.3267 23.5314 25.6905 23.8288V23.8298ZM24.3434 23.347C24.0678 23.3159 23.8357 23.663 23.4761 23.5128L23.2357 23.7905C24.0264 24.7438 24.3755 26.095 24.9972 27.214C25.3247 26.1385 25.2874 24.9603 25.3599 23.7863C24.9102 23.8154 24.6605 23.3791 24.3445 23.3459L24.3434 23.347ZM23.4699 22.1948C23.4409 22.5211 23.5166 22.6279 23.5818 23.003C24.6543 23.3387 24.4667 21.5316 23.4699 22.1948ZM22.2804 21.8041C21.7293 21.5085 21.139 21.2925 20.5272 21.1627C19.7873 21.0208 19.8568 22.1719 19.8878 22.8589C19.9127 23.4029 20.1956 23.978 20.3178 24.3386C20.3759 24.5075 20.3883 24.6857 20.5324 24.7199C20.7872 24.779 21.6276 24.4433 21.867 24.3127C22.3747 24.036 22.7664 23.5874 23.1964 23.3035L23.213 22.8734C22.9539 22.745 22.6555 22.6527 22.2752 22.6351C22.5343 22.5056 22.9114 22.5077 23.1456 22.3533L23.1518 22.1813C22.7228 22.1481 22.5612 21.9575 22.2773 21.8031L22.2804 21.8041ZM17.8663 21.0021C17.4828 21.3917 18.9418 21.9222 19.407 21.9512C19.4039 21.7046 19.548 21.4725 19.519 21.2954C18.9667 21.1979 18.2413 21.2622 17.8673 21.0021H17.8663ZM22.5913 21.1844C22.5892 21.2228 22.5394 21.2083 22.5322 21.2394C23.0254 21.6248 23.3922 21.7057 24.0637 21.6715L24.9507 20.9876C24.2253 21.0529 23.3103 21.5036 22.5913 21.1844ZM26.9287 22.5004C26.908 22.0673 26.794 21.1783 26.5267 21.0228C25.9651 20.6954 24.9672 21.6839 24.5455 21.8352C24.5911 21.9678 24.6678 22.0735 24.673 22.2413C24.9216 22.1792 25.2273 22.2206 25.4439 22.3284C25.1931 22.3564 24.9258 22.3543 24.7496 22.4735C24.6874 22.6496 24.7641 22.8879 24.7237 23.1325C25.3185 23.3004 25.9982 23.3894 26.7495 23.4123C26.8945 23.2227 26.9463 22.86 26.9287 22.5004ZM17.2197 21.3792C17.0995 21.2933 16.284 20.2333 16.1835 20.2767C14.709 20.857 13.3309 21.8621 12.0988 22.8154C13.2739 25.3354 13.7464 28.4243 13.8313 31.4002C15.1784 32.0292 16.3596 32.9369 18.1833 33.0311L17.659 28.7952C17.2 28.6015 16.542 28.8035 16.113 28.7352C16.1089 28.2171 16.7689 28.5072 16.8238 28.1611C16.8653 27.8979 16.4612 27.8782 16.5928 27.4637C16.9285 27.586 17.1047 27.8554 17.4632 27.9559C17.7906 27.241 17.459 25.9748 17.5046 25.3655C17.515 25.2536 17.5606 24.7438 17.8124 24.8329C18.0351 24.9116 17.7999 26.1903 17.8227 26.755C17.8434 27.2762 17.7605 27.7912 17.9709 28.1083C19.7355 27.8679 21.5281 27.7124 23.4368 27.6606C23.0171 27.4803 22.5177 27.3083 21.9706 27.0016C21.6742 26.8358 20.7396 26.4866 20.6546 26.2037C20.5178 25.7551 21.0132 25.5157 21.097 25.1313C20.2059 25.6183 20.0329 24.665 19.8226 23.9915C19.6319 23.3802 19.522 22.9242 19.4765 22.5719C18.7097 22.2061 17.889 21.8466 17.228 21.3668L17.2197 21.3792ZM26.1485 20.4052C27.3774 19.8094 27.5991 22.6331 27.1173 23.5408C27.1919 23.8122 27.4489 23.9158 27.5525 24.1594L25.4076 27.7477C25.9278 27.4233 26.6717 27.6896 27.2727 27.4368C27.4965 27.3487 27.6582 26.8358 27.8281 26.4265C28.2944 25.2992 28.7835 23.8775 29.0011 22.7999C29.0498 22.5543 29.1845 22.0207 29.1544 21.802C29.1005 21.4114 28.5711 21.1213 28.3006 20.8694L26.9743 19.6136C26.764 19.9244 26.3132 20.1317 26.1412 20.3845L26.1485 20.4052ZM14.3899 9.50977C13.8044 10.1543 13.9267 11.3604 13.9982 12.2194C15.0551 11.5542 16.4601 12.2712 16.4477 13.4038C16.9534 13.3903 16.6363 12.7717 16.5451 12.3748C16.2467 11.0754 17.0487 9.66417 16.5814 8.47568C15.6747 8.54404 14.9307 8.91503 14.3909 9.50977H14.3899ZM18.5781 5.77122C17.2518 6.14634 15.5545 7.10997 15.0105 8.29951C15.4322 8.23733 15.7255 8.02595 16.1399 7.98865C16.2974 7.97832 16.5026 8.05497 16.684 8.00937C17.0435 7.92029 17.3471 7.11306 17.6196 6.8126C17.8849 6.51937 18.203 6.39398 18.4206 6.12661C18.5605 6.0593 18.7677 6.06444 18.775 5.85411C18.7128 5.78884 18.6507 5.75049 18.5678 5.75049L18.5781 5.77122ZM25.476 6.12352C24.101 5.3495 21.7726 4.76613 20.3095 5.49456C19.1283 6.08312 17.5326 7.05713 16.9886 8.29227C17.4963 9.48385 16.8384 10.575 16.7959 11.7842C16.7731 12.4266 17.0984 12.9893 17.1233 13.6908C16.9492 13.9778 16.4187 14.012 16.0498 13.9933C15.9255 13.3737 15.7079 12.6774 15.0716 12.6069C14.1702 12.5085 13.5091 13.2556 13.4676 14.0369C13.419 14.9549 14.1722 16.4771 15.2416 16.3714C15.654 16.33 15.7555 15.9155 16.2053 15.9206C16.4488 16.4077 15.8291 16.56 15.7659 16.9071C15.7493 16.9973 15.8177 17.3485 15.8571 17.5133C16.0509 18.3153 16.484 19.3525 16.9099 19.9628C17.4507 20.7368 18.5118 20.8539 19.6557 20.9296C19.8599 20.4902 20.6111 20.5254 21.1012 20.6415C20.5147 20.4094 19.9687 19.8457 19.5159 19.3463C18.9978 18.7743 18.4693 18.1598 18.4434 17.4117C19.4247 18.7733 20.236 19.9628 22.0203 20.5617C23.3705 21.0145 24.9486 20.3545 25.9858 19.625C26.4168 19.3225 26.6738 18.8417 26.9805 18.4023C28.1255 16.7444 28.6591 14.4027 28.5431 12.1231C28.4944 11.1832 28.4965 10.2475 28.1804 9.61549C27.8509 8.95437 26.736 8.36168 26.0832 8.96062C25.962 8.31818 26.6261 7.92029 27.4053 8.15239C26.8499 7.43536 26.2655 6.57325 25.476 6.12766V6.12352ZM28.0385 27.3311C29.113 26.7964 31.1211 25.8929 31.7957 27.3332C32.0443 27.8637 32.3366 28.761 32.4651 29.3092C32.6474 30.0822 32.2578 31.7069 31.4734 31.967C30.7719 32.195 29.9523 32.1825 29.1068 32.0126C29.0073 31.9297 28.8964 31.7846 28.8187 31.6354C28.2146 31.6116 27.6499 31.6665 27.1732 31.9152C27.2188 32.3608 26.9163 32.4333 26.6344 32.5265C26.4241 33.3586 27.0541 34.4456 26.9038 35.204C26.7961 35.7449 26.1309 35.8278 25.6428 35.9294C25.6272 36.2402 25.6636 36.4806 25.6977 36.7345C25.5858 37.1458 25.0843 37.3811 24.6097 37.4391C23.0472 37.6256 20.6743 37.7116 19.1697 37.1697C18.7501 36.1408 18.4195 34.8901 18.0714 33.714C16.6052 33.8694 15.4188 33.0819 14.3018 32.5638C13.9142 32.3846 13.3692 32.284 13.2345 31.9773C13.0946 31.6789 13.1516 31.1069 13.1174 30.5681C13.0293 29.19 12.9516 27.8585 12.5993 26.4462C12.4356 25.8121 12.1507 25.2546 11.9517 24.6433C11.7683 24.0775 11.4471 23.3791 11.3632 22.8133C11.2388 21.9771 12.0263 21.9305 12.5299 21.5679C13.307 21.0083 13.9184 20.6975 14.7629 20.1918C15.0116 20.0415 15.7659 19.6737 15.8509 19.4872C16.0208 19.1411 15.5587 18.6531 15.4364 18.3816C15.2395 17.9526 15.139 17.5879 15.1111 17.164C14.4033 17.0521 13.8676 16.6315 13.5433 16.1569C13.0076 15.3715 12.6356 13.9187 13.0998 12.8131C13.1361 12.7261 13.307 12.5541 13.3443 12.4215C13.3961 12.1583 13.2449 11.8081 13.2355 11.5283C13.1868 10.0911 13.479 8.8549 14.4458 8.4197C14.8395 6.86543 16.2436 6.337 17.5678 5.55779C18.0631 5.26764 18.6082 5.08113 19.1718 4.87389C21.1924 4.12991 24.2947 4.26979 25.9723 5.53911C26.6832 6.07793 27.8209 7.21253 28.227 8.03634C29.3016 10.2071 29.2249 13.8358 28.4737 16.4771C28.3732 16.8315 28.225 17.3527 28.0219 17.7785C27.8789 18.0759 27.4365 18.6696 27.4903 18.9338C27.5453 19.2054 28.5006 19.9307 28.7058 20.1286C29.0747 20.484 29.7751 20.9575 29.8321 21.4052C29.8943 21.8818 29.6218 22.5367 29.4839 22.9978L28.054 27.329" fill="#231F20"/>
<path fill-rule="evenodd" clip-rule="evenodd" d="M20.8681 16.6822C20.9261 16.6045 21.2473 16.4853 21.697 16.7029C21.697 16.7029 21.1655 16.792 21.21 17.6769L20.9883 17.6323C20.9883 17.6323 20.7603 16.8283 20.8701 16.6812" fill="#F7E4CD"/>
<path fill-rule="evenodd" clip-rule="evenodd" d="M24.7527 24.3002C24.7527 24.4349 24.6439 24.5437 24.5092 24.5437C24.3745 24.5437 24.2657 24.4349 24.2657 24.3002C24.2657 24.1655 24.3745 24.0567 24.5092 24.0567C24.6439 24.0567 24.7527 24.1655 24.7527 24.3002ZM24.9952 25.44C24.9952 25.5747 24.8864 25.6835 24.7516 25.6835C24.617 25.6835 24.5082 25.5747 24.5082 25.44C24.5082 25.3053 24.617 25.1966 24.7516 25.1966C24.8864 25.1966 24.9952 25.3053 24.9952 25.44Z" fill="#1D1919"/>
</svg>
