<svg width="42" height="42" viewBox="0 0 42 42" fill="none" xmlns="http://www.w3.org/2000/svg">
<path d="M16.706 21C16.7051 20.4995 16.8028 20.0037 16.9938 19.5411C17.1847 19.0783 17.465 18.6579 17.8187 18.3037C18.1723 17.9495 18.5923 17.6685 19.0547 17.4769C19.5171 17.2852 20.0127 17.1866 20.5132 17.1867C22.6167 17.1867 24.3325 18.9025 24.3325 21C24.3325 23.0975 22.6167 24.8133 20.5132 24.8133C19.5035 24.8098 18.5362 24.4068 17.8228 23.6922C17.1093 22.9776 16.7078 22.0097 16.706 21ZM20.5142 4.97369C13.0339 4.97369 6.76765 10.1021 4.98873 17.0245C4.9737 17.0765 4.9737 17.1196 4.9737 17.1877C4.9737 17.6044 5.31326 17.96 5.73997 17.96H12.1986C12.3449 17.9624 12.4887 17.9208 12.6113 17.8409C12.7339 17.7609 12.8298 17.6461 12.8867 17.5113C14.2219 14.6266 17.1337 12.6072 20.5192 12.6072C25.1468 12.6072 28.913 16.3734 28.913 21.006C28.913 25.6386 25.1468 29.4048 20.5142 29.4048C17.1337 29.4048 14.2189 27.4015 12.8867 24.5008C12.7575 24.2453 12.501 24.052 12.1986 24.052H5.73997C5.63923 24.0516 5.53942 24.0711 5.44626 24.1095C5.35311 24.1479 5.26848 24.2043 5.19725 24.2756C5.12601 24.3468 5.06959 24.4314 5.03122 24.5246C4.99285 24.6177 4.9733 24.7176 4.9737 24.8183C4.9737 24.8704 4.99373 24.9184 4.99373 24.9796C6.75764 31.8979 13.0339 37.0263 20.5142 37.0263C29.3618 37.0263 36.5405 29.8475 36.5405 21C36.5405 12.1575 29.3618 4.97369 20.5142 4.97369Z" fill="#6B6B6B"/>
</svg>
