<svg width="42" height="42" viewBox="0 0 42 42" fill="none" xmlns="http://www.w3.org/2000/svg">
<path d="M33.2449 27.112C31.8588 27.835 24.679 30.7868 23.1504 31.5834C21.6217 32.38 20.7727 32.3725 19.565 31.7955C18.3572 31.2185 10.7168 28.1325 9.33964 27.4742C8.65107 27.1451 8.29025 26.8683 8.29025 26.6067V23.9813C8.29025 23.9813 18.2381 21.8158 19.8445 21.2395C21.451 20.6632 22.0067 20.6426 23.3742 21.1431C24.7417 21.6437 32.913 23.1179 34.2633 23.6129V26.2018C34.2633 26.4614 33.952 26.7526 33.2463 27.1134L33.2449 27.112Z" fill="#A41E11"/>
<path d="M33.2448 24.4859C31.8587 25.2089 24.6789 28.1607 23.1503 28.9573C21.6216 29.7539 20.7726 29.7463 19.5648 29.1694C18.3571 28.5924 10.7167 25.5064 9.33952 24.8481C7.96237 24.1899 7.93482 23.7375 9.28649 23.208L19.8437 19.1209C21.4495 18.5453 22.0058 18.5239 23.3734 19.0245C24.7409 19.5251 31.8772 22.3653 33.2269 22.8679C34.5765 23.3705 34.6295 23.7699 33.2434 24.4928L33.2448 24.4859Z" fill="#D82C20"/>
<path d="M33.2449 22.8307C31.8588 23.5536 24.679 26.5054 23.1504 27.302C21.6217 28.0987 20.7727 28.0911 19.565 27.5141C18.3572 26.9371 10.7168 23.8511 9.33964 23.1928C8.65107 22.8637 8.29025 22.5869 8.29025 22.3253V19.6999C8.29025 19.6999 18.2381 17.5345 19.8445 16.9582C21.451 16.3819 22.0067 16.3612 23.3742 16.8618C24.7417 17.3623 32.913 18.8365 34.2633 19.3315V21.9204C34.2633 22.18 33.952 22.4713 33.2463 22.832L33.2449 22.8307Z" fill="#A41E11"/>
<path d="M33.2448 20.2053C31.8587 20.9283 24.6789 23.8801 23.1503 24.6767C21.6216 25.4733 20.7726 25.4658 19.5648 24.8888C18.3571 24.3118 10.7167 21.2258 9.33952 20.5675C7.96237 19.9093 7.93482 19.4569 9.28649 18.9274L19.8437 14.841C21.4495 14.2647 22.0058 14.244 23.3734 14.7446C24.7409 15.2451 31.8772 18.086 33.2282 18.5797C34.5792 19.0734 34.6309 19.4817 33.2448 20.2047V20.2053Z" fill="#D82C20"/>
<path d="M33.2449 18.3911C31.8588 19.114 24.679 22.0658 23.1504 22.8631C21.6217 23.6604 20.7727 23.6521 19.565 23.0752C18.3572 22.4982 10.7168 19.4122 9.33964 18.7539C8.65107 18.4248 8.29025 18.148 8.29025 17.8864V15.2596C8.29025 15.2596 18.2381 13.0942 19.8445 12.5179C21.451 11.9415 22.0067 11.9209 23.3742 12.4215C24.7417 12.922 32.913 14.3962 34.2633 14.8912V17.4801C34.2633 17.7397 33.952 18.031 33.2463 18.3917L33.2449 18.3911Z" fill="#A41E11"/>
<path d="M33.2448 15.765C31.8587 16.4879 24.6789 19.4397 23.1503 20.2363C21.6216 21.033 20.7726 21.0254 19.5648 20.4484C18.3571 19.8714 10.7167 16.7854 9.33952 16.1271C7.96237 15.4689 7.93482 15.0165 9.28649 14.4871L19.8437 10.4006C21.4495 9.8243 22.0058 9.80364 23.3734 10.3042C24.7409 10.8048 31.8772 13.6457 33.2282 14.1393C34.5792 14.633 34.6309 15.0413 33.2448 15.7643V15.765Z" fill="#D82C20"/>
<path d="M21.9246 14.6826L21.1107 13.3296L18.512 13.0955L20.451 12.396L19.8692 11.3218L21.6843 12.031L23.3961 11.4706L22.9334 12.5805L24.6782 13.2346L22.4279 13.4687L21.9246 14.6826ZM17.5893 17.3761L23.6075 16.4521L21.7896 19.1181L17.5893 17.3761Z" fill="white"/>
<path d="M15.9671 16.4046C17.7438 16.4046 19.1841 15.8463 19.1841 15.1576C19.1841 14.469 17.7438 13.9107 15.9671 13.9107C14.1903 13.9107 12.75 14.469 12.75 15.1576C12.75 15.8463 14.1903 16.4046 15.9671 16.4046Z" fill="white"/>
<path d="M30.9008 14.9759L27.3409 16.3819L27.3382 13.5678L30.9008 14.9759Z" fill="#7A0C00"/>
<path d="M27.3416 16.3819L26.956 16.5334L23.3988 15.1274L27.3395 13.5685L27.3416 16.3819Z" fill="#AD2115"/>
</svg>
