<svg width="76" height="76" viewBox="0 0 76 76" fill="none" xmlns="http://www.w3.org/2000/svg">
<path d="M60.1574 49.0598C57.6492 50.3681 44.6573 55.7093 41.8912 57.1508C39.1251 58.5924 37.5887 58.5787 35.4033 57.5346C33.2178 56.4905 19.3923 50.9063 16.9003 49.7152C15.6543 49.1196 15.0014 48.6188 15.0014 48.1453V43.3946C15.0014 43.3946 33.0023 39.4762 35.9091 38.4334C38.816 37.3906 39.8216 37.3532 42.2961 38.259C44.7706 39.1647 59.5568 41.8323 62.0002 42.7281V47.4127C62.0002 47.8824 61.437 48.4095 60.1599 49.0623L60.1574 49.0598Z" fill="#A41E11"/>
<path d="M60.1572 44.3079C57.649 45.6161 44.657 50.9574 41.8909 52.3989C39.1248 53.8404 37.5885 53.8267 35.4031 52.7827C33.2176 51.7386 19.3921 46.1544 16.9001 44.9633C14.4081 43.7722 14.3582 42.9536 16.8041 41.9955L35.9077 34.5997C38.8133 33.5581 39.8201 33.5195 42.2946 34.4253C44.7692 35.331 57.6826 40.4705 60.1248 41.38C62.5669 42.2895 62.6629 43.0121 60.1547 44.3204L60.1572 44.3079Z" fill="#D82C20"/>
<path d="M60.1574 41.3127C57.6492 42.6209 44.6573 47.9622 41.8912 49.4037C39.1251 50.8452 37.5887 50.8315 35.4033 49.7875C33.2178 48.7434 19.3923 43.1592 16.9003 41.9681C15.6543 41.3725 15.0014 40.8717 15.0014 40.3982V35.6475C15.0014 35.6475 33.0023 31.7291 35.9091 30.6863C38.816 29.6434 39.8216 29.606 42.2961 30.5118C44.7706 31.4176 59.5568 34.0851 62.0002 34.9809V39.6656C62.0002 40.1353 61.437 40.6623 60.1599 41.3152L60.1574 41.3127Z" fill="#A41E11"/>
<path d="M60.1572 36.562C57.649 37.8703 44.657 43.2115 41.8909 44.653C39.1248 46.0946 37.5885 46.0809 35.4031 45.0368C33.2176 43.9927 19.3921 38.4085 16.9001 37.2174C14.4081 36.0263 14.3582 35.2077 16.8041 34.2496L35.9077 26.8551C38.8133 25.8122 39.8201 25.7749 42.2946 26.6807C44.7692 27.5864 57.6826 32.7271 60.1273 33.6204C62.5719 34.5137 62.6654 35.2526 60.1572 36.5608V36.562Z" fill="#D82C20"/>
<path d="M60.1574 33.279C57.6492 34.5873 44.6573 39.9285 41.8912 41.3713C39.1251 42.8141 37.5887 42.7991 35.4033 41.755C33.2178 40.711 19.3923 35.1267 16.9003 33.9356C15.6543 33.3401 15.0014 32.8392 15.0014 32.3658V27.6126C15.0014 27.6126 33.0023 23.6942 35.9091 22.6513C38.816 21.6085 39.8216 21.5711 42.2961 22.4769C44.7706 23.3827 59.5568 26.0502 62.0002 26.946V31.6307C62.0002 32.1004 61.437 32.6274 60.1599 33.2803L60.1574 33.279Z" fill="#A41E11"/>
<path d="M60.1572 28.5271C57.649 29.8353 44.657 35.1765 41.8909 36.6181C39.1248 38.0596 37.5885 38.0459 35.4031 37.0018C33.2176 35.9577 19.3921 30.3735 16.9001 29.1824C14.4081 27.9913 14.3582 27.1728 16.8041 26.2146L35.9077 18.8201C38.8133 17.7773 39.8201 17.7399 42.2946 18.6457C44.7692 19.5515 57.6826 24.6921 60.1273 25.5855C62.5719 26.4788 62.6654 27.2176 60.1572 28.5258V28.5271Z" fill="#D82C20"/>
<path d="M39.673 26.5685L38.2003 24.1202L33.4979 23.6966L37.0066 22.4308L35.9538 20.4871L39.2382 21.7704L42.3357 20.7562L41.4984 22.7647L44.6558 23.9483L40.5839 24.3719L39.673 26.5685ZM31.8283 31.4425L42.7182 29.7705L39.4288 34.5947L31.8283 31.4425Z" fill="white"/>
<path d="M28.8927 29.6845C32.1077 29.6845 34.714 28.6743 34.714 27.4281C34.714 26.182 32.1077 25.1718 28.8927 25.1718C25.6777 25.1718 23.0715 26.182 23.0715 27.4281C23.0715 28.6743 25.6777 29.6845 28.8927 29.6845Z" fill="white"/>
<path d="M55.9158 27.0992L49.474 29.6434L49.4691 24.5513L55.9158 27.0992Z" fill="#7A0C00"/>
<path d="M49.4753 29.6434L48.7776 29.9175L42.3408 27.3733L49.4716 24.5526L49.4753 29.6434Z" fill="#AD2115"/>
</svg>
