<svg width="42" height="42" viewBox="0 0 42 42" fill="none" xmlns="http://www.w3.org/2000/svg">
<path d="M4.42108 4.42108H37.579V37.579H4.42108V4.42108Z" fill="#F7DF1E"/>
<path d="M13.1395 32.1302L15.6768 30.5946C16.1664 31.4625 16.6117 32.1969 17.6799 32.1969C18.7038 32.1969 19.3494 31.7964 19.3494 30.2385V19.6438H22.4654V30.2825C22.4654 33.5099 20.5736 34.9789 17.8134 34.9789C15.3207 34.9789 13.874 33.6882 13.1395 32.1302Z" fill="black"/>
<path d="M24.1579 31.7963L26.695 30.3273C27.3629 31.4181 28.231 32.2193 29.7666 32.2193C31.0578 32.2193 31.8811 31.5737 31.8811 30.6834C31.8811 29.6151 31.0353 29.2367 29.6108 28.6136L28.832 28.2794C26.5838 27.3227 25.0927 26.1207 25.0927 23.5833C25.0927 21.2462 26.8732 19.4656 29.6555 19.4656C31.6364 19.4656 33.0609 20.1556 34.0846 21.9585L31.6584 23.5166C31.1241 22.5596 30.5457 22.1813 29.6554 22.1813C28.7427 22.1813 28.164 22.76 28.164 23.5166C28.164 24.4514 28.7427 24.83 30.0781 25.4087L30.8571 25.7425C33.5058 26.8777 34.997 28.0351 34.997 30.639C34.997 33.4437 32.7936 34.9793 29.8333 34.9793C26.9399 34.9793 25.0703 33.5992 24.1579 31.7963Z" fill="black"/>
</svg>
