<svg width="42" height="42" viewBox="0 0 42 42" fill="none" xmlns="http://www.w3.org/2000/svg">
<path d="M13.7652 18.2538C13.7652 18.6619 13.8095 18.9928 13.8866 19.2354C13.9845 19.5083 14.1025 19.7738 14.2394 20.0294C14.2946 20.1176 14.3166 20.2058 14.3166 20.2831C14.3166 20.3933 14.2505 20.5036 14.1071 20.6139L13.4124 21.077C13.3131 21.1432 13.2139 21.1763 13.1255 21.1763C13.0153 21.1763 12.905 21.1211 12.7947 21.0219C12.6461 20.8622 12.5132 20.6886 12.3978 20.5036C12.2875 20.3162 12.1772 20.1065 12.0559 19.853C11.1957 20.8674 10.1148 21.3748 8.81362 21.3748C7.88736 21.3748 7.14843 21.1101 6.60801 20.5808C6.06771 20.0514 5.79205 19.3456 5.79205 18.4634C5.79205 17.526 6.12286 16.7651 6.79558 16.1917C7.46818 15.6182 8.36157 15.3315 9.49745 15.3315C9.87235 15.3315 10.2584 15.3645 10.6663 15.4197C11.0744 15.4748 11.4935 15.563 11.9347 15.6623V14.8573C11.9347 14.0191 11.7581 13.4347 11.4162 13.0928C11.0634 12.7509 10.4678 12.5854 9.6187 12.5854C9.23268 12.5854 8.83578 12.6297 8.42766 12.7289C8.01966 12.8281 7.62259 12.9494 7.23663 13.1038C7.06023 13.181 6.92788 13.2251 6.85062 13.2472C6.77347 13.2693 6.71832 13.2803 6.67422 13.2803C6.51981 13.2803 6.44267 13.1699 6.44267 12.9384V12.398C6.44267 12.2216 6.46477 12.0893 6.51981 12.0121C6.57497 11.9348 6.67422 11.8577 6.82862 11.7805C7.21464 11.582 7.6778 11.4165 8.21805 11.2842C8.75864 11.1408 9.33205 11.0747 9.93856 11.0747C11.251 11.0747 12.2104 11.3724 12.828 11.968C13.4345 12.5634 13.7434 13.4677 13.7434 14.6809V18.2538H13.7652ZM9.28784 19.9301C9.65185 19.9301 10.0268 19.864 10.4237 19.7316C10.8208 19.5993 11.1737 19.3566 11.4714 19.0258C11.6479 18.8163 11.7802 18.5848 11.8463 18.3201C11.9125 18.0554 11.9566 17.7355 11.9566 17.3606V16.8974C11.6222 16.816 11.2834 16.7535 10.942 16.71C10.5982 16.6663 10.252 16.6442 9.9054 16.6438C9.16648 16.6438 8.62617 16.7871 8.26232 17.0849C7.8983 17.3827 7.7219 17.8018 7.7219 18.3531C7.7219 18.8714 7.8542 19.2574 8.12985 19.5222C8.39462 19.7978 8.78057 19.9301 9.28784 19.9301ZM18.1433 21.1211C17.9448 21.1211 17.8125 21.0881 17.7243 21.0108C17.6361 20.9447 17.5588 20.7903 17.4927 20.5808L14.9012 12.0562C14.8349 11.8355 14.8018 11.6922 14.8018 11.615C14.8018 11.4386 14.89 11.3392 15.0665 11.3392H16.1473C16.3567 11.3392 16.5002 11.3724 16.5774 11.4495C16.6656 11.5158 16.7318 11.6702 16.7979 11.8796L18.6506 19.1802L20.371 11.8796C20.4261 11.6591 20.4923 11.5158 20.5804 11.4495C20.6687 11.3835 20.8232 11.3393 21.0217 11.3393H21.9039C22.1133 11.3393 22.2568 11.3724 22.3449 11.4495C22.4332 11.5158 22.5104 11.6702 22.5545 11.8796L24.297 19.2684L26.2047 11.8796C26.2708 11.6591 26.3481 11.5158 26.4252 11.4495C26.5134 11.3835 26.6568 11.3393 26.8553 11.3393H27.8808C28.0574 11.3393 28.1567 11.4276 28.1567 11.615C28.1567 11.6702 28.1456 11.7254 28.1346 11.7914C28.1235 11.8577 28.1015 11.9459 28.0574 12.0673L25.3995 20.5918C25.3334 20.8124 25.2563 20.9558 25.168 21.0219C25.0798 21.0881 24.9364 21.1322 24.7491 21.1322H23.8007C23.5911 21.1322 23.4478 21.0991 23.3594 21.0219C23.2712 20.9447 23.194 20.8014 23.1499 20.5808L21.4405 13.4677L19.7422 20.5697C19.6872 20.7903 19.6209 20.9337 19.5327 21.0108C19.4445 21.0881 19.2901 21.1211 19.0917 21.1211H18.1433ZM32.3143 21.4189C31.7408 21.4189 31.1673 21.3527 30.616 21.2204C30.0645 21.0881 29.6346 20.9446 29.3478 20.7794C29.1713 20.68 29.0499 20.5698 29.006 20.4705C28.963 20.3732 28.9405 20.2681 28.9397 20.1617V19.5993C28.9397 19.3677 29.0279 19.2574 29.1934 19.2574C29.2609 19.2576 29.328 19.2688 29.3919 19.2905C29.458 19.3126 29.5573 19.3566 29.6676 19.4007C30.0571 19.5721 30.4637 19.7015 30.8806 19.7868C31.3126 19.8744 31.7523 19.9187 32.193 19.9191C32.8877 19.9191 33.4282 19.7978 33.8031 19.5552C34.178 19.3125 34.3765 18.9597 34.3765 18.5075C34.3765 18.1988 34.2773 17.9451 34.0788 17.7355C33.8802 17.526 33.5053 17.3386 32.965 17.1621L31.3659 16.6659C30.5608 16.4122 29.9654 16.0373 29.6014 15.5409C29.2375 15.0557 29.0501 14.5154 29.0501 13.942C29.0501 13.4788 29.1493 13.0707 29.3478 12.7177C29.5462 12.3649 29.811 12.0562 30.1418 11.8135C30.4726 11.5599 30.8476 11.3724 31.2887 11.2401C31.7298 11.1078 32.1929 11.0526 32.6781 11.0526C32.9208 11.0526 33.1745 11.0637 33.4171 11.0967C33.6708 11.1298 33.9024 11.1739 34.1339 11.218C34.3544 11.2731 34.564 11.3283 34.7626 11.3945C34.9611 11.4606 35.1153 11.5268 35.2257 11.5929C35.3801 11.6812 35.4903 11.7694 35.5565 11.8687C35.6227 11.9569 35.6558 12.0782 35.6558 12.2326V12.7509C35.6558 12.9825 35.5676 13.1038 35.4021 13.1038C35.3139 13.1038 35.1705 13.0596 34.9832 12.9714C34.3544 12.6847 33.6487 12.5413 32.8658 12.5413C32.2371 12.5413 31.7408 12.6406 31.3989 12.8502C31.0572 13.0596 30.8806 13.3795 30.8806 13.8316C30.8806 14.1405 30.991 14.4051 31.2115 14.6147C31.4321 14.8241 31.8401 15.0337 32.4246 15.2212L33.9906 15.7174C34.7845 15.9712 35.358 16.324 35.6999 16.7761C36.0418 17.2283 36.2072 17.7466 36.2072 18.3201C36.2072 18.7942 36.1079 19.2243 35.9204 19.5993C35.722 19.9742 35.4573 20.3051 35.1153 20.5698C34.7735 20.8455 34.3655 21.044 33.8913 21.1873C33.395 21.3418 32.8767 21.4189 32.3143 21.4189Z" fill="#6B6B6B"/>
<path d="M34.3986 26.7785C30.7704 29.4583 25.499 30.8809 20.9666 30.8809C14.6144 30.8809 8.89099 28.5319 4.56801 24.628C4.22612 24.3193 4.53483 23.9003 4.94281 24.1428C9.61869 26.8557 15.3864 28.4989 21.3526 28.4989C25.3778 28.4989 29.8 27.6608 33.8693 25.9404C34.4758 25.6646 34.9942 26.3375 34.3986 26.7785ZM35.9095 25.0581C35.4464 24.4626 32.8437 24.7714 31.6637 24.9147C31.3108 24.9589 31.2556 24.6501 31.5755 24.4185C33.6487 22.9628 37.0565 23.382 37.4534 23.8671C37.8504 24.3634 37.3431 27.771 35.4022 29.4031C35.1045 29.6569 34.8178 29.5246 34.9501 29.1937C35.3911 28.1018 36.3726 25.6426 35.9095 25.0581Z" fill="#FF9900"/>
</svg>
