<svg width="42" height="42" viewBox="0 0 42 42" fill="none" xmlns="http://www.w3.org/2000/svg">
<path d="M16.5928 14.2977L14.3966 14.6541L12.3928 15.5328L10.6907 16.6033L9.07145 18.5795L8.15629 19.5488L7.27153 19.8748L7.03776 19.3029L7.44671 18.7121L7.539 17.8793L7.81255 17.8903L8.11208 18.1639L8.0314 17.3156L7.69982 17.0923L7.70976 16.7691L6.92337 17.2139L6.21158 18.0539L6.06237 18.805L6.36742 19.4062L6.65148 20.4275L7.22898 20.701L7.83687 20.6712L8.41271 20.3363L8.02808 22.2854L8.41271 24.454L7.9894 25.4548L6.60395 26.948L6.85042 27.8399L7.5064 28.8733L8.74429 29.7443L9.40082 29.8344L10.1303 29.8587L9.67492 31.7282L11.3494 32.4141L13.4356 32.6887L14.1496 32.2223L14.2043 30.9595L15.0001 29.6421L15.0553 28.5987L16.9768 28.7368L18.7613 28.5722L16.9768 29.6426L17.2791 30.9325L18.4043 32.6898L19.5024 33.1557L20.3811 32.7992L20.7375 32.0852L22.5767 30.6854L22.9331 30.9872L25.8156 31.0977L26.392 30.6307L26.4473 29.8073L26.255 29.4503L26.1174 27.2271L25.1569 25.3056L25.3216 24.4545L25.898 24.7568L27.5172 26.266L28.313 26.3213L29.1917 25.9643L30.0703 25.3056L30.5097 23.8781L33.0899 24.0428L34.6544 23.4388L35.9172 22.2583L36.8229 20.5562L37.0423 18.553L36.85 16.2197L36.356 14.1336L35.8619 13.4748L35.1761 13.2549L33.9681 14.5723L32.87 14.957L31.9095 13.3648L30.9485 12.4862L30.4268 12.1573L28.3406 10.4276L26.6661 9.52185L24.9917 9.3848L23.0431 9.71416L21.341 10.3453L20.1611 11.3063L19.2277 12.4315L18.2672 12.7061L16.5928 14.2977Z" fill="#FFFF00"/>
<path d="M10.2237 19.2515C8.34253 21.4454 8.76031 24.1063 9.282 26.7136L8.44753 24.6048L8.13971 22.6711L8.22758 20.6944L9.01784 18.8055L10.2043 17.0481L12.0496 15.5107L14.0706 14.6762L16.443 14.3684L14.2463 16.8724C12.4823 17.4444 11.4428 17.8301 10.2237 19.2515Z" fill="#FFFFCC"/>
<path d="M19.0785 12.5668C17.771 13.8429 17.057 14.805 16.2247 16.2987C15.6295 17.3675 14.9619 18.3965 14.3358 19.4504C14.0192 19.9837 13.9893 20.4308 13.8948 21.0459L12.9719 19.9478L13.4113 18.6297L14.905 15.9495L18.0683 12.8304C18.4054 12.7426 18.7425 12.6552 19.0785 12.5668ZM25.5371 9.40412C24.4893 9.79649 22.7502 9.9258 22.6297 11.1283C22.5435 11.9816 22.6938 12.4104 23.2083 13.314C21.9373 11.9987 21.6228 12.2021 19.1669 12.611L20.2208 11.1173L22.0666 9.97498L24.4385 9.44777L25.5371 9.40412Z" fill="#FFFFCC"/>
<path d="M28.4274 25.6642C28.7755 25.8797 28.7683 26.0356 28.7098 26.1831C28.985 26.0726 29.2596 25.9626 29.5348 25.8532L30.0698 25.1348L30.466 24.1124L29.9593 23.7311L27.7432 24.0141L27.578 24.4617L27.6255 25.0983L27.8377 25.4758L28.1676 25.641L28.4274 25.6642ZM28.2207 21.8748C27.1099 22.1954 27.1187 22.2838 26.7905 23.3857C27.2237 22.6911 27.5443 22.3401 28.2207 21.8748ZM35.6066 13.6279C35.4093 13.7191 35.217 13.7627 35.0938 13.9435C34.8279 14.3325 34.5997 14.6591 34.1604 14.9327C33.9393 15.0697 33.7105 15.1592 33.4751 15.2322C33.2811 15.293 33.164 15.2383 32.9982 15.3576L33.2933 15.409H33.9437L34.7451 14.9144L35.2164 14.4193L35.6066 13.6279ZM17.9124 16.0926C17.4759 17.2885 17.0934 18.3142 16.4314 19.3963C17.2797 18.4822 17.7942 17.7052 18.2799 16.6718C18.4684 16.2706 18.5043 15.7997 19.0299 15.9749C19.0536 16.3761 19.1382 16.7762 19.1619 17.1769C19.446 15.1416 20.2468 14.29 22.1086 13.4997L20.5292 13.6881L19.0437 14.0181L18.3131 15.0791L17.9124 16.0926ZM21.5195 16.0457C21.9207 17.9357 22.4993 19.7494 22.7502 21.6692C22.9132 22.9165 22.9309 23.5156 22.3037 24.5921C21.6173 24.5479 21.1918 24.6253 20.5281 24.8425C17.8865 25.7084 16.3717 26.9811 14.5922 24.4164L16.2966 25.2194L17.5112 24.9806L19.6571 23.7317L21.331 23.4012L21.8726 21.1382L21.4719 18.144L21.425 16.7293L21.5195 16.0457ZM26.0693 27.7388C25.8477 29.2746 26.5805 30.0996 26.2771 30.5241C26.1909 30.6434 26.0743 30.8534 25.9444 30.9109C25.4802 31.1154 24.8419 30.8722 24.7966 30.9921H23.2641L22.6507 30.733L23.5941 29.6249L24.5136 27.6211L25.1027 25.5935H25.4094L26.0693 27.7388Z" fill="#CCCC00"/>
<path d="M23.494 23.2757C23.6184 23.9726 23.8344 24.1378 24.1627 24.8132C23.9444 25.914 23.5935 27.2226 23.1713 28.1947C22.9933 28.6042 22.8502 28.8302 22.5358 29.1469C22.0143 29.6721 21.4578 30.1614 20.8701 30.6114C20.438 30.9441 20.1362 30.7772 19.6024 30.7014C19.3758 31.1132 19.3128 31.3414 18.895 31.5503C18.2529 31.8708 17.6787 31.18 17.1741 30.7722L18.2661 32.4776L19.0205 33.185L19.6571 33.2789L20.5054 32.7606L20.9536 31.9117L21.8964 31.2043L23.0514 30.214L23.7825 29.1767L24.4423 27.951L25.2917 25.405L25.3619 24.4379L24.3009 23.9671C24.0417 23.7234 23.7532 23.5194 23.494 23.2757ZM15.036 28.187C16.2258 28.187 17.4825 28.1207 18.5728 27.6211C18.868 27.1784 19.199 26.7606 19.5626 26.3721C19.2194 27.0204 19.1117 27.3868 19.0205 28.1162L18.6668 28.6346L15.9793 28.7059L15.1067 28.6114C15.0755 28.5798 15.0442 28.5483 15.0128 28.5169L15.036 28.187ZM14.8713 27.3619L14.779 26.5247C14.5757 27.7482 14.6243 28.5683 14.0612 29.6647C13.6406 30.1516 13.1228 30.5953 12.5293 30.833C12.5796 31.1331 12.5945 31.3209 12.5652 31.5414C12.4607 32.3339 10.8758 31.9836 10.2231 31.9521L13.3621 32.7606L14.0694 32.4776L14.3054 31.1104L14.9653 29.8847L15.0835 29.1298L14.8713 27.3619ZM13.1029 20.454C13.0697 21.0492 13.0316 21.2973 13.2941 21.8229C13.6279 22.4904 14.0374 23.1182 14.3994 23.7781L14.5176 22.4578L13.1029 20.454ZM8.2635 24.9486L7.95734 25.6007C8.23808 26.5468 8.48787 27.1458 9.02282 27.9726C8.92942 28.3074 8.85979 28.4533 8.64537 28.7263C8.1936 28.6589 7.7371 28.6282 7.28037 28.6346L8.85979 29.8609L9.63734 29.7194L10.4154 28.9413L9.30742 27.2204L8.2635 24.9486ZM35.6099 13.3146C35.9304 14.7569 36.3449 16.0888 36.3062 17.5665C36.2587 19.3791 35.9056 21.6687 34.2261 22.7618C32.345 23.9859 30.1367 23.4067 28.0731 22.8823L30.5959 23.9196L32.9534 24.0378L34.5561 23.5664L35.8061 22.5286L36.7489 20.5485L37.1026 18.2617L36.8196 16.0219L36.3013 13.8058L35.6105 13.3146M7.54011 17.6146C6.68629 18.17 6.35084 18.4142 6.44424 19.4443L6.69955 20.37L7.06153 20.6148L7.50805 20.764L8.31655 20.5717L8.73103 19.2846L7.58266 19.8483H7.31684L7.01842 19.3913L7.38039 18.8591L7.57216 17.8489L7.81697 17.9229L8.11484 18.1567L8.07229 17.6251L7.87003 17.2847L7.66776 17.1144L7.54011 17.6146ZM26.6976 9.49808C27.4558 10.2016 28.3859 10.8133 28.9922 11.6732C29.2265 12.0059 29.4873 12.1761 28.9883 12.647C29.5155 12.4961 29.7117 12.5127 30.1339 12.5641C30.9021 12.6569 31.6216 13.7484 31.6674 14.5309C31.6586 14.6038 31.4541 14.7702 30.8606 14.9343C30.849 14.957 30.5252 14.8901 30.5334 14.9122C30.5948 15.0808 30.6771 15.1067 30.8037 15.1852C30.8308 15.3731 30.8479 15.6632 30.9761 15.8683C31.3473 15.8641 31.7178 15.8999 32.0814 15.9749C32.2041 16.1794 32.1858 16.3839 32.1753 16.5883L32.5997 16.5171L32.482 15.5505L32.8589 14.9144L32.3168 13.6881L31.2795 12.6978L31.18 12.6928L30.0129 11.9772L28.1102 10.4204L26.6976 9.49808ZM27.9742 15.3068C27.9344 15.3764 27.8742 15.4881 27.7968 15.5654C28.1124 15.8638 28.2682 16.0639 28.3809 16.4867L27.3105 17.0177L26.4042 17.8865C26.0068 17.6726 25.9079 17.5079 25.7156 17.1001C25.4918 17.1598 25.279 17.2167 25.0944 17.1487C25.2122 17.1498 25.284 17.1205 25.4012 17.0476L25.9776 16.4491L26.9955 15.6782L27.662 15.461C27.7471 15.4256 27.8897 15.3416 27.9748 15.3062" fill="#CCCC00"/>
<path d="M28.9596 16.3717C27.8239 16.9829 26.7369 17.5974 26.1566 18.7585C26.1566 17.2846 27.636 16.637 28.9596 16.3717ZM25.9311 13.4731C25.0878 14.0479 24.4921 15.2073 24.5667 16.338C24.292 15.3593 24.3898 14.4342 25.2326 13.7578L25.6592 13.5505L25.9311 13.4731Z" fill="#CCCC00"/>
<path d="M37.2756 16.1418C37.1225 15.1775 36.8694 14.2419 36.5173 13.5688C36.4676 13.478 36.4043 13.3954 36.3294 13.3239C36.1291 13.133 35.8901 12.9872 35.6287 12.8962C35.3452 12.7989 35.0468 12.779 34.8097 12.9028C34.7469 12.9357 34.6897 12.9783 34.6401 13.0288C34.4864 13.1836 34.3571 13.3731 34.2272 13.5621C34.0836 13.7732 33.9382 13.9849 33.7647 14.133C33.5635 14.3054 33.3115 14.4093 33.0744 14.5049C32.9745 14.2626 32.8543 14.0291 32.7152 13.8069C32.5492 13.5465 32.3653 13.298 32.1648 13.0631C32.016 12.8846 31.8473 12.7236 31.6619 12.5834C31.48 12.449 31.2919 12.3233 31.0982 12.2065C30.5379 11.855 30.0604 11.4367 29.5735 11.0095C29.3553 10.8161 29.1343 10.626 28.9104 10.4392C27.7515 9.48315 26.67 9.02005 25.5139 8.9471C24.365 8.87526 23.1525 9.19026 21.7206 9.79318C21.0298 10.0844 20.5159 10.4282 20.0694 10.8415C19.6422 11.2361 19.2791 11.6915 18.8812 12.2225C18.6491 12.2391 18.4441 12.2734 18.2346 12.3568C18.0025 12.4497 17.7704 12.5994 17.4919 12.8454C17.1197 13.1734 16.762 13.5175 16.4198 13.8766C15.1167 14.0866 14.0545 14.3176 13.1029 14.6856C12.1303 15.0625 11.2731 15.5809 10.3922 16.3618C10.0457 16.6679 9.72908 17.0072 9.44834 17.3753C9.18368 17.7237 8.95012 18.0946 8.75037 18.4839C8.57408 18.6789 8.39779 18.8757 8.20658 19.0475C8.02034 19.2155 7.82195 19.357 7.59924 19.4421C7.46992 19.4919 7.41687 19.5212 7.41079 19.5195C7.40416 19.5156 7.40084 19.4963 7.39145 19.4609C7.71087 19.1559 7.76171 18.7077 7.791 18.2628C7.82913 18.3087 7.86616 18.365 7.90429 18.4242C7.94629 18.4894 7.98939 18.5568 8.04134 18.622L8.25853 18.8956L8.33479 18.5546C8.39834 18.2683 8.44642 17.887 8.37182 17.5571C8.32374 17.3427 8.22426 17.1515 8.05129 17.0161L8.09826 16.8939C8.15297 16.7547 8.20879 16.6121 8.25687 16.4767L8.35082 16.2092L8.07063 16.2579C7.69871 16.3225 6.89905 16.7619 6.33537 17.3465C6.12592 17.5637 5.94632 17.8036 5.82805 18.0556C5.70537 18.3175 5.65011 18.5916 5.69818 18.8663C5.73963 19.1061 5.85955 19.3415 6.07729 19.5637C6.11708 19.724 6.15411 19.8627 6.19334 19.9881C6.23811 20.1307 6.28618 20.2584 6.34697 20.3838C6.51111 20.7248 6.7725 20.9331 7.07479 21.0304C7.31795 21.1083 7.58708 21.1122 7.85068 21.0547C7.79713 21.3688 7.76482 21.6862 7.75397 22.0047C7.73739 22.4495 7.75397 22.9408 7.80261 23.5112C7.82629 23.7762 7.86317 24.04 7.91313 24.3014L7.76447 24.7048L7.53458 25.3315L7.02837 25.8333L6.55532 26.3014C6.54261 26.3147 6.489 26.3655 6.44092 26.4119C6.12205 26.7192 6.0585 26.7805 6.14913 27.321C6.20716 27.6669 6.32045 28.0013 6.48403 28.3119C6.64042 28.6103 6.85097 28.901 7.12066 29.1718C7.45776 29.5089 8.00929 29.9289 8.58734 30.1483C8.91782 30.2737 9.25824 30.335 9.57766 30.2837C9.56108 30.3334 9.54561 30.382 9.52792 30.4312C9.47708 30.5716 9.42071 30.7097 9.35937 30.8457C8.967 31.705 9.36932 32.1538 9.996 32.4395C10.3088 32.582 10.6807 32.6788 11.0261 32.7688L11.2566 32.8296C11.6655 32.9402 12.3729 33.1435 13.0194 33.1844C13.7246 33.2286 14.3601 33.0833 14.5309 32.4505C14.5983 32.1996 14.6376 32.0079 14.653 31.8194C14.6665 31.6297 14.6628 31.4392 14.642 31.2502C14.8431 30.8048 14.9282 30.6793 15.0752 30.4644L15.1493 30.3549C15.3068 30.1217 15.3808 29.9559 15.4074 29.7692C15.4333 29.589 15.4112 29.4099 15.3786 29.1353C15.3742 29.0971 15.3694 29.059 15.3643 29.0209C15.9743 29.0997 16.5903 29.1224 17.2045 29.0889L17.0443 29.1718L16.968 29.2104C16.4237 29.4906 16.401 30.0212 16.5712 30.5666C16.7248 31.0584 17.0409 31.5613 17.2399 31.8669C17.6566 32.5097 18.0545 33.054 18.5375 33.3491C19.0431 33.6591 19.6206 33.6962 20.3667 33.2922C20.7463 33.0866 20.8663 32.8777 21.0271 32.5948C21.0768 32.5085 21.131 32.4152 21.1918 32.3223C21.3482 32.2184 21.7389 31.8968 22.1218 31.5801C22.2523 31.4718 22.3821 31.3646 22.5291 31.2452C22.6308 31.3193 22.7529 31.3712 22.9005 31.4066C23.0928 31.4525 23.3211 31.4729 23.5952 31.4928C23.8002 31.5077 24.4683 31.5072 24.901 31.5072H25.2116C25.6576 31.5105 26.0173 31.4867 26.2892 31.3325C26.5794 31.1684 26.7512 30.8772 26.7888 30.3555C26.8054 30.1234 26.8082 29.9803 26.7756 29.8344C26.7457 29.6979 26.6871 29.5741 26.586 29.3923L26.5683 28.7158L26.549 27.9974C26.5451 27.749 26.5128 27.5018 26.4528 27.2608C26.3886 27.0222 26.3064 26.7889 26.2069 26.5628C26.1393 26.3999 26.0754 26.2356 26.0151 26.0698L25.8587 26.1273L25.8831 26.1185L26.0151 26.0698C25.9237 25.8116 25.8193 25.5583 25.7012 25.3111C25.7095 25.2602 25.7178 25.2061 25.7261 25.148L25.9748 25.3879L26.3412 25.741C26.6208 26.0102 26.8761 26.255 27.1768 26.4318C27.4873 26.6153 27.8361 26.7214 28.2881 26.6998C28.7617 26.6777 29.2679 26.4788 29.6846 26.171C30.088 25.8725 30.4119 25.4713 30.5467 25.027L30.6639 24.6418L30.7578 24.334C31.421 24.4462 32.1339 24.4832 32.8219 24.4108C33.4856 24.3407 34.1272 24.1721 34.6804 23.877C35.4933 23.4432 36.1029 22.8038 36.5411 22.045C37.0307 21.1967 37.3054 20.1976 37.4093 19.1691C37.4927 18.344 37.4474 17.2228 37.2756 16.1418ZM28.6766 23.0735C28.2942 22.9447 28.0284 22.7568 27.6929 22.5452C27.7841 22.9574 27.8256 23.3934 27.704 23.8052C27.5106 24.4578 27.1983 25.526 28.0853 25.7233C28.4224 25.7985 28.5755 25.7874 29.0518 25.5415C28.6661 25.6288 28.4716 25.6078 28.2069 25.5581C27.967 25.5139 27.8394 25.3619 27.7725 25.1823C27.8565 25.2425 27.9936 25.2752 28.2268 25.3315C28.8844 25.4901 29.5105 25.1735 29.6327 24.7181C29.7045 24.4517 29.6923 24.3119 29.8438 23.9488C29.9797 23.9908 30.1201 24.029 30.2643 24.0643L30.0201 24.8601C29.8089 25.5498 28.9855 26.1052 28.2594 26.0925C27.5874 26.0809 27.1613 25.6598 26.6976 25.247C26.3875 24.9713 26.0769 24.6961 25.7659 24.4213C24.9303 24.1577 24.26 23.8494 23.4835 23.2752C24.0362 23.924 24.4108 24.2832 25.1807 24.6065C25.069 25.7488 24.6722 26.5816 24.3335 27.6752C24.1798 28.1693 22.9707 30.1505 22.6352 30.3433C22.3965 30.4815 20.8994 31.7415 20.6181 31.9084C20.4081 32.1869 20.2241 32.5715 19.9086 32.7384C18.9481 33.2469 18.3302 32.2737 17.8135 31.4519C17.5781 31.0778 16.9238 29.9996 17.4941 29.6973C18.0329 29.4122 18.3347 29.2082 18.8845 28.8474C18.9652 28.9944 19.1039 29.1364 19.194 29.2839L19.1343 28.8009C19.1008 28.5284 19.0969 28.2531 19.1227 27.9797L19.1896 27.1281C19.1067 27.4166 18.942 27.7051 18.8591 27.9935C18.8259 28.1096 18.7983 28.2024 18.7828 28.2892C17.5667 28.5409 16.3135 28.557 15.0913 28.3367C15.0182 27.9096 14.933 27.4847 14.8359 27.0624C14.8116 27.4448 14.8271 28.5014 14.8249 29.0927C14.8238 29.5514 14.8044 29.7084 14.5679 30.098C14.3469 30.4627 14.2529 30.5456 13.9434 31.1629C13.9694 31.5519 13.9694 31.8095 13.8661 32.1781C13.6948 32.7926 11.9595 32.3162 11.5019 32.1913C10.9382 32.0372 9.77384 31.8078 10.0667 31.0568C10.3243 30.3958 10.4878 29.6984 10.6138 28.7733C9.58153 27.2862 8.62161 25.2481 8.43703 23.4421C8.29389 22.04 8.38011 21.1774 8.6835 20.3197C9.16429 18.9602 9.83684 17.7842 10.9161 16.837C12.3718 15.5593 13.7323 15.0465 15.8633 14.7221C15.351 15.2957 14.8442 15.9025 14.2916 16.553C13.7323 17.2106 13.3997 17.876 13.0449 18.5966C12.5541 19.5913 12.5646 19.9693 13.2151 20.8425C13.7754 21.5952 14.0777 21.9339 14.3226 22.67C14.1208 23.0867 14.0473 23.4388 13.9794 24.0074C14.6657 24.7579 15.1758 25.2718 15.8417 25.4304C16.4955 25.5852 17.0409 25.5553 17.6262 25.2564C18.9249 24.5932 20.1263 23.7355 21.5919 23.6996C22.2694 22.0334 22.2009 20.6413 21.8754 19.0293C21.6532 17.9279 21.5642 16.8851 21.4952 15.7633C21.2205 16.9188 21.1691 17.9351 21.3725 19.0873C21.6184 20.4744 21.8091 22.008 21.1254 23.2277C19.8008 23.3288 18.6657 24.1351 17.4714 24.7529C16.9918 25.0016 16.4922 25.0259 15.9606 24.88C15.4676 24.7446 15.1349 24.4186 14.6038 23.8057C14.5956 23.1906 14.7343 22.9071 15.0167 22.3501C15.4704 21.4548 15.9716 20.6225 16.5209 19.7422C15.8478 20.5546 15.2101 21.2338 14.6807 22.0505C14.4778 21.4736 14.1888 21.1807 13.7086 20.5308C13.2399 19.8964 13.1913 19.619 13.5417 18.884C13.8937 18.1462 14.1927 17.498 14.7923 16.8503C15.8279 15.7318 16.7768 14.4867 17.9097 13.3853C18.5248 12.7868 18.7746 12.8078 19.5902 12.684C20.332 12.5703 21.0691 12.4277 21.7997 12.2563C21.0724 12.3242 20.3694 12.3491 19.661 12.3668H19.6389C20.3363 11.477 20.7403 10.9819 21.8715 10.49C24.6573 9.27978 26.4274 9.14936 28.6158 10.9885C29.1828 11.4654 29.6785 11.928 30.2533 12.3397C30.0383 12.3565 29.8272 12.4066 29.6277 12.4884C29.9167 12.4331 30.2505 12.4878 30.5506 12.5425C30.6351 12.5978 30.7219 12.6508 30.8103 12.7028C31.2165 12.9421 31.4469 13.0742 31.7216 13.4566C32.0069 13.8514 32.2563 14.2711 32.4666 14.7105C32.3267 14.6608 32.2096 14.6182 32.1051 14.5873C31.9888 14.534 31.8611 14.5102 31.7333 14.5181C31.6056 14.526 31.4818 14.5653 31.3729 14.6326L31.3563 14.6403C31.1314 14.7497 30.7832 14.8746 30.5506 14.9122C30.6694 14.9531 30.9319 14.9686 31.0557 14.9194C31.0722 14.913 31.0892 14.9078 31.1065 14.9039C31.0398 15.0172 31.0029 15.1456 30.9993 15.2771C30.9958 15.4085 31.0256 15.5387 31.0861 15.6555L31.0866 15.6566C31.1076 15.7063 31.1369 15.7517 31.1695 15.7848C31.0629 15.8235 30.954 15.8688 30.8418 15.9174C31.3613 15.8384 31.8294 15.8246 32.3361 15.8915C32.3693 16.0512 32.403 16.2203 32.4345 16.3927L32.2461 16.4071L32.2311 16.4087C31.9913 16.217 31.7244 16.249 31.3591 16.3325C30.2494 16.5856 30.5102 17.2084 29.9996 18.1462C30.5301 17.4985 30.4903 16.8204 31.3541 16.6154C31.5553 16.5684 31.6929 16.5088 31.8294 16.5292C31.5834 16.6524 31.3718 16.8569 31.2878 17.0945C31.0502 17.7638 31.1977 18.328 30.9369 18.9536C31.2596 18.3943 31.2795 17.8483 31.568 17.2603C31.6713 17.0492 32.0559 16.711 32.2919 16.706L32.4859 16.7016C32.5428 17.0735 32.5776 17.4433 32.5555 17.75C32.5152 18.3092 32.3698 19.1393 32.2831 19.457C32.5754 19.0813 32.7086 18.2855 32.8368 17.7251C32.9706 17.1421 32.9363 16.4424 32.8197 15.8158C32.6594 14.9559 33.5447 15.0957 34.0587 14.6906C34.4361 14.3927 34.6964 13.9169 35.0424 13.5798C35.3867 13.246 35.9277 13.7373 36.0625 14.0639C36.6483 15.4814 36.9152 17.7118 36.7611 19.1415C36.587 20.7452 35.8127 22.496 34.398 23.2857C32.5948 24.2915 30.4682 23.6769 28.6766 23.0735ZM26.1146 30.1969C26.056 30.8584 25.8355 30.9015 25.2542 30.8915C24.9906 30.8871 23.9389 30.8822 23.6725 30.8595C23.2956 30.8263 23.0834 30.7932 22.9685 30.707C23.5609 30.2726 24.5667 28.4777 24.7629 27.8598C24.9707 27.2072 25.1978 26.6374 25.3663 26.0339C25.4443 26.2865 25.5056 26.5363 25.6183 26.8037C25.8073 27.2514 25.9002 27.5277 25.9134 28.0085L25.956 29.5282C26.1179 29.8117 26.1439 29.873 26.1146 30.1969ZM8.29334 25.1834C8.66913 26.4843 9.31018 27.7625 10.0198 28.8374V28.8562C9.97555 29.0408 9.92416 29.2209 9.81584 29.3646C9.30853 30.0444 8.01703 29.0474 7.64345 28.6661C7.2345 28.2489 6.9615 27.7548 6.89629 27.2917C6.84876 26.9535 6.89518 26.9452 7.13061 26.7059L8.08445 25.741L8.29334 25.1834ZM7.57492 17.0028C7.47876 17.21 7.41024 17.3664 7.36382 17.5278C7.16155 18.2274 7.45555 18.8514 6.82058 19.3581C7.119 19.9599 7.10518 20.1998 7.79874 19.9218C8.05139 19.8189 8.2835 19.6714 8.484 19.4863C8.37283 19.776 8.27218 20.0697 8.18226 20.3667C7.686 20.5772 7.03279 20.711 6.78355 20.1898C6.66197 19.9367 6.59345 19.688 6.50503 19.3681C5.68824 18.5214 6.90955 17.404 7.57492 17.0028ZM7.97668 17.8997C7.87555 17.7986 7.79487 17.7306 7.66445 17.745C7.67928 17.6215 7.70612 17.4997 7.74458 17.3814C7.91368 17.4803 7.95789 17.6588 7.97668 17.8997ZM32.4798 14.7376C32.5102 14.8028 32.5406 14.8685 32.5704 14.936C32.5461 14.9537 32.5226 14.9727 32.5003 14.9929C32.46 14.8989 32.4018 14.8137 32.3289 14.742L32.4798 14.7376ZM4.77584 19.3946C4.90626 17.9224 5.19253 17.2863 6.23811 16.1783C4.92616 17.1028 4.599 17.5234 4.77584 19.3946Z" fill="black"/>
<path d="M4.43763 18.1921C4.58187 17.5289 4.71671 17.2791 5.12511 16.7353C4.46195 17.1984 4.37629 17.3885 4.43763 18.1921ZM19.8312 8.95428C19.0453 9.14384 18.8956 9.28918 18.6596 10.0595C19.0354 9.49586 19.2526 9.31184 19.8312 8.95428Z" fill="black"/>
<path d="M21.0707 8.8421C19.5123 9.22452 19.0536 9.49586 18.5358 11.303C19.194 9.97942 19.6925 9.49255 21.0707 8.8421ZM24.4285 15.4295C24.5949 14.6928 24.89 13.9838 26.0334 13.4345C24.5181 13.8141 24.234 14.4513 24.4285 15.4295ZM34.0714 15.4803C34.9689 15.1598 35.4016 14.4386 35.6166 13.5898C35.2651 14.301 34.7229 14.8962 33.9863 15.2609C33.5917 15.4565 33.3392 15.388 32.8976 15.346C33.3469 15.4753 33.6309 15.6373 34.0714 15.4803ZM27.9576 16.2015C27.8426 15.9601 27.6374 15.7736 27.3862 15.682C27.6062 15.5649 27.8228 15.4416 27.9913 15.288C27.4967 15.5168 26.9214 15.461 26.4976 15.7472C26.1246 15.9992 25.6089 16.7989 25.2293 17.1382C25.5039 17.031 25.7692 16.8464 26.0129 16.6519C26.0143 16.8366 26.066 17.0174 26.1624 17.1749C26.2588 17.3324 26.3962 17.4607 26.56 17.546C26.4196 17.7299 26.3078 17.9339 26.2284 18.1512C26.9513 17.2946 27.9991 16.648 28.9839 16.3717C28.6663 16.373 28.3511 16.4258 28.0505 16.5281C28.038 16.415 28.0067 16.3048 27.9576 16.202M26.9181 22.6728C26.8828 22.8944 26.8347 23.1702 26.7993 23.3918C26.8933 23.1409 27.0066 22.8491 27.1154 22.6098C27.2315 22.3567 27.2967 22.3329 27.5421 22.1992C27.7167 22.1042 28.0328 21.9743 28.2069 21.8792C28.0278 21.9096 27.7067 21.9754 27.5271 22.0052C27.0486 22.0865 26.9922 22.2014 26.9181 22.6728ZM18.7397 14.1109C18.1843 14.6602 17.645 16.5447 17.4726 17.299C17.7439 16.6723 18.4236 14.9199 18.9453 14.4745C19.089 14.3513 19.1901 14.2756 19.2979 14.2203C18.9249 14.8464 18.9519 15.0023 19.0829 15.8412C19.1946 14.9885 19.4891 14.6585 19.9727 14.023C20.5032 13.8904 20.9994 13.7301 21.5438 13.5185C20.9304 13.5875 20.3175 13.6511 19.7035 13.7091C19.1885 13.7578 19.1056 13.75 18.7397 14.1109Z" fill="black"/>
<path d="M26.3097 17.3195C26.2848 17.2664 26.2711 17.2089 26.2694 17.1503C26.2677 17.0917 26.2781 17.0335 26.2999 16.9791C26.3218 16.9247 26.3546 16.8755 26.3963 16.8343C26.438 16.7932 26.4877 16.7611 26.5424 16.74C26.597 16.7189 26.6554 16.7094 26.714 16.7118C26.7725 16.7143 26.8299 16.7289 26.8826 16.7545C26.9352 16.7801 26.9821 16.8163 27.0201 16.8609C27.0582 16.9054 27.0867 16.9573 27.1038 17.0133C26.8981 17.1645 26.7149 17.3441 26.5595 17.5466C26.4504 17.5048 26.361 17.4235 26.3091 17.3189M31.0546 15.4836C31.0595 15.4209 31.0831 15.361 31.1224 15.3119C31.1617 15.2627 31.2149 15.2264 31.275 15.2078C31.3351 15.1892 31.3994 15.189 31.4597 15.2074C31.5199 15.2257 31.5732 15.2617 31.6127 15.3107C31.6511 15.3573 31.6755 15.4139 31.6832 15.4738C31.6908 15.5338 31.6813 15.5946 31.6558 15.6494C31.4898 15.6796 31.3268 15.725 31.169 15.7848C31.0999 15.7141 31.0452 15.5848 31.0546 15.4836Z" fill="#FFFFCC"/>
</svg>
