<svg width="42" height="42" viewBox="0 0 42 42" fill="none" xmlns="http://www.w3.org/2000/svg">
<path d="M4.42108 21V37.579H37.579V4.42108H4.42108V21Z" fill="#007ACC"/>
<path d="M11.7535 21.1101L11.743 22.4679H16.0587V34.7311H19.1115V22.4679H23.4273V21.1364C23.4273 20.3994 23.4115 19.7836 23.3905 19.7678C23.3747 19.7468 20.7483 19.7362 17.5641 19.7415L11.7694 19.7573L11.7535 21.1101Z" fill="white"/>
<path d="M31.1762 19.7188C32.0183 19.9294 32.6604 20.3029 33.2499 20.9135C33.5552 21.2399 34.0077 21.8347 34.0447 21.9767C34.0551 22.0189 32.6131 22.9873 31.7394 23.5294C31.7078 23.5505 31.5814 23.4135 31.4393 23.203C31.013 22.582 30.5657 22.3135 29.8814 22.2663C28.8763 22.1977 28.2288 22.7241 28.2341 23.6029C28.2341 23.8609 28.2709 24.0135 28.3762 24.2241C28.5973 24.682 29.0078 24.9557 30.2973 25.5135C32.6709 26.5347 33.6867 27.2083 34.3183 28.1662C35.0236 29.2347 35.1815 30.9399 34.7025 32.2083C34.1762 33.5872 32.871 34.5242 31.034 34.8347C30.4657 34.9346 29.1184 34.9188 28.5079 34.8084C27.1763 34.5714 25.9131 33.9136 25.1341 33.0504C24.8289 32.7135 24.2341 31.8346 24.271 31.7714C24.2868 31.7504 24.4236 31.6663 24.5762 31.5767C24.7235 31.4926 25.2815 31.1713 25.8078 30.8662L26.7604 30.3135L26.9604 30.6083C27.2394 31.0345 27.8498 31.6188 28.2183 31.8135C29.2762 32.3715 30.7289 32.2925 31.4446 31.6503C31.7499 31.3714 31.8762 31.082 31.8762 30.6556C31.8762 30.2714 31.8288 30.103 31.6288 29.8137C31.371 29.4452 30.8447 29.1346 29.3498 28.4874C27.6394 27.7504 26.9025 27.2925 26.2289 26.5661C25.8394 26.1452 25.4709 25.4714 25.3183 24.9082C25.1921 24.4399 25.1603 23.2661 25.2604 22.7925C25.6131 21.1398 26.8604 19.9873 28.6604 19.6451C29.2446 19.5346 30.6025 19.5766 31.1762 19.7188Z" fill="white"/>
</svg>
