<svg width="76" height="76" viewBox="0 0 76 76" fill="none" xmlns="http://www.w3.org/2000/svg">
<path d="M21.3854 11H55.6146C60.8042 11 65 15.3034 65 20.6261V54.3739C65 59.6966 60.8042 64 55.6146 64H21.3854C16.1958 64 12 59.6966 12 54.3739V20.6261C12 15.3034 16.1958 11 21.3854 11Z" fill="#001E36"/>
<path d="M23.925 48.1679V24.8615C23.925 24.7029 23.9912 24.6123 24.1458 24.6123C24.5212 24.6123 24.8746 24.6123 25.3825 24.5897C25.9125 24.567 26.4646 24.567 27.0608 24.5444C27.6571 24.5217 28.2975 24.5217 28.9821 24.4991C29.6667 24.4764 30.3292 24.4764 30.9917 24.4764C32.8025 24.4764 34.3042 24.7029 35.5408 25.1786C36.645 25.5636 37.6608 26.1978 38.5 27.0358C39.2067 27.7606 39.7587 28.644 40.1121 29.6179C40.4433 30.5692 40.62 31.5431 40.62 32.5623C40.62 34.5102 40.1783 36.1183 39.295 37.3867C38.4117 38.6551 37.175 39.6064 35.7396 40.1499C34.2379 40.7162 32.5817 40.92 30.7708 40.92C30.2408 40.92 29.8875 40.92 29.6667 40.8974C29.4458 40.8747 29.1367 40.8747 28.7171 40.8747V48.1452C28.7392 48.3038 28.6287 48.4397 28.4742 48.4623C28.4521 48.4623 28.43 48.4623 28.3858 48.4623H24.19C24.0133 48.4623 23.925 48.3717 23.925 48.1679ZM28.7392 28.9837V36.594C29.0483 36.6166 29.3354 36.6393 29.6004 36.6393H30.7708C31.6321 36.6393 32.4933 36.5034 33.3104 36.2316C34.0171 36.0277 34.6354 35.5974 35.1212 35.0311C35.585 34.4649 35.8058 33.6948 35.8058 32.6982C35.8279 31.9961 35.6512 31.294 35.2979 30.6824C34.9225 30.0935 34.3925 29.6405 33.7521 29.3914C32.935 29.0517 32.0517 28.9158 31.1462 28.9384C30.5721 28.9384 30.0642 28.9384 29.6446 28.9611C29.2029 28.9384 28.8937 28.9611 28.7392 28.9837Z" fill="#31A8FF"/>
<path d="M54.4 35.2123C53.7375 34.8499 53.0308 34.6008 52.28 34.4422C51.4629 34.261 50.6458 34.1478 49.8067 34.1478C49.365 34.1251 48.9012 34.1931 48.4817 34.3063C48.1946 34.3743 47.9517 34.5328 47.7971 34.7593C47.6867 34.9405 47.6204 35.167 47.6204 35.3709C47.6204 35.5747 47.7087 35.7785 47.8412 35.9597C48.04 36.2089 48.305 36.4127 48.5921 36.5713C49.1 36.8431 49.63 37.0922 50.16 37.3187C51.3525 37.7264 52.5008 38.2927 53.5608 38.9721C54.2896 39.4478 54.8858 40.082 55.3054 40.8521C55.6588 41.5768 55.8354 42.3696 55.8133 43.185C55.8354 44.2495 55.5262 45.314 54.9521 46.1974C54.3337 47.1033 53.4725 47.8055 52.4787 48.2132C51.3967 48.6888 50.0717 48.9379 48.4817 48.9379C47.4658 48.9379 46.4721 48.8474 45.4783 48.6435C44.7054 48.5076 43.9325 48.2585 43.2258 47.9187C43.0712 47.8281 42.9608 47.6696 42.9829 47.4884V43.5474C42.9829 43.4794 43.005 43.3888 43.0712 43.3435C43.1375 43.2982 43.2038 43.3209 43.27 43.3662C44.1313 43.8871 45.0367 44.2495 46.0083 44.476C46.8475 44.7025 47.7308 44.8157 48.6142 44.8157C49.4533 44.8157 50.0496 44.7025 50.4471 44.4986C50.8004 44.3401 51.0433 43.955 51.0433 43.5474C51.0433 43.2303 50.8667 42.9358 50.5133 42.6414C50.16 42.3469 49.4313 42.0072 48.3492 41.5768C47.2229 41.1691 46.185 40.6256 45.2133 39.9461C44.5287 39.4478 43.9546 38.7909 43.535 38.0209C43.1817 37.2961 43.005 36.5033 43.0271 35.7106C43.0271 34.7367 43.2921 33.808 43.7779 32.97C44.33 32.064 45.1471 31.3392 46.0967 30.8862C47.1346 30.3427 48.4375 30.0935 50.0054 30.0935C50.9108 30.0935 51.8383 30.1615 52.7437 30.2974C53.4062 30.3879 54.0467 30.5691 54.6429 30.8183C54.7313 30.8409 54.8196 30.9315 54.8638 31.0221C54.8858 31.1127 54.9079 31.2033 54.9079 31.2939V34.9858C54.9079 35.0764 54.8637 35.167 54.7975 35.2123C54.5987 35.2576 54.4883 35.2576 54.4 35.2123Z" fill="#31A8FF"/>
</svg>
