<svg width="76" height="76" viewBox="0 0 76 76" fill="none" xmlns="http://www.w3.org/2000/svg">
<path d="M21.7396 11H57.2604C62.6458 11 67 15.4658 67 20.9893V56.0107C67 61.5342 62.6458 66 57.2604 66H21.7396C16.3542 66 12 61.5342 12 56.0107V20.9893C12 15.4658 16.3542 11 21.7396 11Z" fill="#001E36"/>
<path d="M24.375 49.5705V25.3846C24.375 25.22 24.4438 25.126 24.6042 25.126C24.9938 25.126 25.3604 25.126 25.8875 25.1025C26.4375 25.079 27.0104 25.079 27.6292 25.0555C28.2479 25.032 28.9125 25.032 29.6229 25.0085C30.3333 24.985 31.0208 24.985 31.7083 24.985C33.5875 24.985 35.1458 25.22 36.4292 25.7136C37.575 26.1132 38.6292 26.7713 39.5 27.641C40.2333 28.3931 40.8063 29.3098 41.1729 30.3205C41.5167 31.3076 41.7 32.3183 41.7 33.376C41.7 35.3974 41.2417 37.0662 40.325 38.3824C39.4083 39.6987 38.125 40.6858 36.6354 41.2499C35.0771 41.8375 33.3583 42.0491 31.4792 42.0491C30.9292 42.0491 30.5625 42.0491 30.3333 42.0256C30.1042 42.0021 29.7833 42.0021 29.3479 42.0021V49.547C29.3708 49.7115 29.2563 49.8525 29.0958 49.876C29.0729 49.876 29.05 49.876 29.0042 49.876H24.65C24.4667 49.876 24.375 49.782 24.375 49.5705ZM29.3708 29.6623V37.5598C29.6917 37.5833 29.9896 37.6068 30.2646 37.6068H31.4792C32.3729 37.6068 33.2667 37.4658 34.1146 37.1837C34.8479 36.9722 35.4896 36.5256 35.9938 35.938C36.475 35.3504 36.7042 34.5512 36.7042 33.517C36.7271 32.7884 36.5438 32.0598 36.1771 31.4252C35.7875 30.814 35.2375 30.344 34.5729 30.0854C33.725 29.7328 32.8083 29.5918 31.8687 29.6153C31.2729 29.6153 30.7458 29.6153 30.3104 29.6388C29.8521 29.6153 29.5313 29.6388 29.3708 29.6623Z" fill="#31A8FF"/>
<path d="M56 36.1259C55.3125 35.7499 54.5792 35.4913 53.8 35.3268C52.9521 35.1388 52.1042 35.0212 51.2333 35.0212C50.775 34.9977 50.2938 35.0682 49.8583 35.1858C49.5604 35.2563 49.3083 35.4208 49.1479 35.6558C49.0333 35.8439 48.9646 36.0789 48.9646 36.2905C48.9646 36.502 49.0563 36.7135 49.1938 36.9016C49.4 37.1601 49.675 37.3717 49.9729 37.5362C50.5 37.8182 51.05 38.0768 51.6 38.3118C52.8375 38.7349 54.0292 39.3225 55.1292 40.0276C55.8854 40.5212 56.5042 41.1794 56.9396 41.9785C57.3063 42.7306 57.4896 43.5533 57.4667 44.3994C57.4896 45.5041 57.1688 46.6088 56.5729 47.5255C55.9313 48.4657 55.0375 49.1943 54.0063 49.6174C52.8833 50.111 51.5083 50.3695 49.8583 50.3695C48.8042 50.3695 47.7729 50.2755 46.7417 50.064C45.9396 49.9229 45.1375 49.6644 44.4042 49.3118C44.2438 49.2178 44.1292 49.0533 44.1521 48.8652V44.7755C44.1521 44.705 44.175 44.611 44.2438 44.564C44.3125 44.517 44.3813 44.5405 44.45 44.5875C45.3438 45.1281 46.2833 45.5041 47.2917 45.7392C48.1625 45.9742 49.0792 46.0917 49.9958 46.0917C50.8667 46.0917 51.4854 45.9742 51.8979 45.7627C52.2646 45.5982 52.5167 45.1986 52.5167 44.7755C52.5167 44.4464 52.3333 44.1409 51.9667 43.8353C51.6 43.5298 50.8438 43.1772 49.7208 42.7306C48.5521 42.3076 47.475 41.7435 46.4667 41.0383C45.7563 40.5212 45.1604 39.8396 44.725 39.0405C44.3583 38.2883 44.175 37.4657 44.1979 36.643C44.1979 35.6323 44.4729 34.6687 44.9771 33.799C45.55 32.8588 46.3979 32.1067 47.3833 31.6366C48.4604 31.0725 49.8125 30.814 51.4396 30.814C52.3792 30.814 53.3417 30.8845 54.2813 31.0255C54.9688 31.1195 55.6333 31.3076 56.2521 31.5661C56.3438 31.5896 56.4354 31.6836 56.4813 31.7776C56.5042 31.8717 56.5271 31.9657 56.5271 32.0597V35.8909C56.5271 35.9849 56.4813 36.0789 56.4125 36.1259C56.2063 36.1729 56.0917 36.1729 56 36.1259Z" fill="#31A8FF"/>
</svg>
