<svg width="42" height="42" viewBox="0 0 42 42" fill="none" xmlns="http://www.w3.org/2000/svg">
<path d="M12.014 6.07898H31.6439C34.6201 6.07898 37.0263 8.54693 37.0263 11.5994V30.9533C37.0263 34.0058 34.6201 36.4737 31.6439 36.4737H12.014C9.03784 36.4737 6.63159 34.0058 6.63159 30.9533V11.5994C6.63159 8.54693 9.03784 6.07898 12.014 6.07898Z" fill="#001E36"/>
<path d="M13.4704 27.3942V14.0283C13.4704 13.9374 13.5084 13.8854 13.597 13.8854C13.8123 13.8854 14.015 13.8854 14.3063 13.8724C14.6102 13.8595 14.9268 13.8595 15.2688 13.8465C15.6107 13.8335 15.978 13.8335 16.3706 13.8205C16.7632 13.8075 17.1431 13.8075 17.523 13.8075C18.5615 13.8075 19.4227 13.9374 20.1319 14.2102C20.7651 14.431 21.3477 14.7947 21.829 15.2753C22.2342 15.6909 22.5508 16.1975 22.7535 16.756C22.9434 17.3016 23.0447 17.8601 23.0447 18.4446C23.0447 19.5617 22.7915 20.4839 22.2849 21.2113C21.7783 21.9387 21.0691 22.4843 20.2459 22.796C19.3847 23.1208 18.4349 23.2377 17.3964 23.2377C17.0924 23.2377 16.8898 23.2377 16.7632 23.2247C16.6365 23.2117 16.4592 23.2117 16.2186 23.2117V27.3812C16.2313 27.4721 16.1679 27.5501 16.0793 27.5631C16.0666 27.5631 16.054 27.5631 16.0286 27.5631H13.6224C13.5211 27.5631 13.4704 27.5111 13.4704 27.3942ZM16.2313 16.3923V20.7567C16.4086 20.7697 16.5732 20.7827 16.7252 20.7827H17.3964C17.8903 20.7827 18.3842 20.7048 18.8528 20.5489C19.2581 20.432 19.6127 20.1852 19.8913 19.8605C20.1572 19.5357 20.2839 19.0941 20.2839 18.5226C20.2966 18.1199 20.1952 17.7172 19.9926 17.3665C19.7773 17.0288 19.4734 16.769 19.1061 16.6262C18.6375 16.4313 18.1309 16.3534 17.6117 16.3664C17.2824 16.3664 16.9911 16.3664 16.7505 16.3794C16.4972 16.3664 16.3199 16.3794 16.2313 16.3923Z" fill="#31A8FF"/>
<path d="M30.9474 19.9644C30.5674 19.7565 30.1622 19.6137 29.7316 19.5227C29.263 19.4188 28.7944 19.3539 28.3132 19.3539C28.0599 19.3409 27.7939 19.3799 27.5533 19.4448C27.3887 19.4838 27.2493 19.5747 27.1607 19.7046C27.0974 19.8085 27.0594 19.9384 27.0594 20.0553C27.0594 20.1722 27.11 20.2891 27.186 20.393C27.3 20.5359 27.452 20.6528 27.6166 20.7437C27.9079 20.8996 28.2118 21.0425 28.5158 21.1724C29.1997 21.4062 29.8582 21.7309 30.4661 22.1206C30.884 22.3933 31.226 22.757 31.4666 23.1987C31.6692 23.6143 31.7706 24.069 31.7579 24.5366C31.7706 25.1471 31.5933 25.7576 31.264 26.2641C30.9094 26.7837 30.4155 27.1864 29.8456 27.4202C29.225 27.6929 28.4651 27.8358 27.5533 27.8358C26.9707 27.8358 26.4008 27.7839 25.8309 27.667C25.3877 27.589 24.9444 27.4462 24.5391 27.2513C24.4505 27.1994 24.3872 27.1084 24.3998 27.0045V24.7444C24.3998 24.7054 24.4125 24.6535 24.4505 24.6275C24.4885 24.6015 24.5265 24.6145 24.5645 24.6405C25.0584 24.9392 25.5776 25.1471 26.1349 25.277C26.6161 25.4068 27.1227 25.4718 27.6293 25.4718C28.1105 25.4718 28.4525 25.4068 28.6804 25.2899C28.8831 25.199 29.0224 24.9782 29.0224 24.7444C29.0224 24.5625 28.9211 24.3937 28.7184 24.2248C28.5158 24.056 28.0979 23.8611 27.4773 23.6143C26.8314 23.3805 26.2362 23.0688 25.6789 22.6791C25.2863 22.3934 24.9571 22.0167 24.7164 21.575C24.5138 21.1594 24.4125 20.7048 24.4252 20.2501C24.4252 19.6916 24.5771 19.159 24.8558 18.6784C25.1724 18.1589 25.641 17.7432 26.1855 17.4834C26.7808 17.1717 27.528 17.0288 28.4271 17.0288C28.9464 17.0288 29.4783 17.0678 29.9975 17.1457C30.3775 17.1977 30.7447 17.3016 31.0867 17.4445C31.1373 17.4575 31.188 17.5094 31.2133 17.5614C31.226 17.6133 31.2387 17.6653 31.2387 17.7172V19.8345C31.2387 19.8864 31.2133 19.9384 31.1753 19.9644C31.0614 19.9903 30.998 19.9903 30.9474 19.9644Z" fill="#31A8FF"/>
</svg>
