<svg width="42" height="42" viewBox="0 0 42 42" fill="none" xmlns="http://www.w3.org/2000/svg">
<path d="M11.8183 6.07898H30.7344C33.6023 6.07898 35.9211 8.45718 35.9211 11.3986V30.0488C35.9211 32.9902 33.6023 35.3685 30.7344 35.3685H11.8183C8.95034 35.3685 6.63159 32.9902 6.63159 30.0488V11.3986C6.63159 8.45718 8.95034 6.07898 11.8183 6.07898Z" fill="#001E36"/>
<path d="M13.2217 26.6191V13.7393C13.2217 13.6517 13.2583 13.6016 13.3437 13.6016C13.5512 13.6016 13.7465 13.6016 14.0272 13.5891C14.3201 13.5766 14.6252 13.5766 14.9547 13.564C15.2842 13.5515 15.6381 13.5515 16.0164 13.539C16.3947 13.5265 16.7609 13.5265 17.127 13.5265C18.1277 13.5265 18.9576 13.6517 19.641 13.9145C20.2512 14.1273 20.8126 14.4778 21.2763 14.9409C21.6668 15.3414 21.9719 15.8296 22.1672 16.3678C22.3503 16.8935 22.4479 17.4318 22.4479 17.995C22.4479 19.0715 22.2038 19.9602 21.7157 20.6611C21.2275 21.362 20.5441 21.8878 19.7508 22.1882C18.921 22.5011 18.0057 22.6137 17.0049 22.6137C16.712 22.6137 16.5168 22.6137 16.3947 22.6012C16.2727 22.5887 16.1018 22.5887 15.87 22.5887V26.6066C15.8822 26.6942 15.8212 26.7693 15.7357 26.7819C15.7235 26.7819 15.7113 26.7819 15.6869 26.7819H13.3682C13.2705 26.7819 13.2217 26.7318 13.2217 26.6191ZM15.8822 16.0173V20.223C16.053 20.2355 16.2117 20.248 16.3581 20.248H17.0049C17.4809 20.248 17.9568 20.1729 18.4084 20.0227C18.7989 19.9101 19.1406 19.6723 19.4091 19.3594C19.6654 19.0464 19.7874 18.6209 19.7874 18.0701C19.7996 17.6821 19.702 17.2941 19.5067 16.9561C19.2993 16.6307 19.0064 16.3803 18.6525 16.2426C18.2009 16.0549 17.7128 15.9798 17.2124 15.9923C16.8951 15.9923 16.6144 15.9923 16.3825 16.0048C16.1385 15.9923 15.9676 16.0048 15.8822 16.0173Z" fill="#31A8FF"/>
<path d="M30.0632 19.4594C29.697 19.2592 29.3065 19.1215 28.8916 19.0339C28.44 18.9337 27.9885 18.8711 27.5247 18.8711C27.2807 18.8586 27.0244 18.8962 26.7925 18.9588C26.6339 18.9963 26.4996 19.0839 26.4142 19.2091C26.3532 19.3092 26.3166 19.4344 26.3166 19.547C26.3166 19.6597 26.3654 19.7723 26.4386 19.8725C26.5484 20.0102 26.6949 20.1228 26.8535 20.2104C27.1342 20.3606 27.4271 20.4983 27.72 20.6235C28.379 20.8488 29.0136 21.1617 29.5994 21.5372C30.0021 21.8001 30.3316 22.1506 30.5635 22.5761C30.7588 22.9767 30.8564 23.4148 30.8442 23.8654C30.8564 24.4537 30.6856 25.042 30.3683 25.5301C30.0266 26.0308 29.5506 26.4188 29.0014 26.6441C28.4034 26.907 27.6712 27.0447 26.7925 27.0447C26.2311 27.0447 25.6819 26.9946 25.1328 26.8819C24.7056 26.8068 24.2785 26.6691 23.888 26.4814C23.8025 26.4313 23.7415 26.3437 23.7537 26.2436V24.0656C23.7537 24.0281 23.7659 23.978 23.8025 23.953C23.8391 23.928 23.8758 23.9405 23.9124 23.9655C24.3883 24.2534 24.8887 24.4537 25.4257 24.5788C25.8894 24.704 26.3776 24.7666 26.8657 24.7666C27.3295 24.7666 27.659 24.704 27.8787 24.5913C28.0739 24.5037 28.2082 24.2909 28.2082 24.0656C28.2082 23.8904 28.1105 23.7277 27.9153 23.565C27.72 23.4022 27.3173 23.2145 26.7193 22.9767C26.0969 22.7514 25.5233 22.451 24.9863 22.0755C24.608 21.8001 24.2907 21.4371 24.0588 21.0115C23.8636 20.611 23.7659 20.1729 23.7781 19.7348C23.7781 19.1966 23.9246 18.6834 24.1931 18.2203C24.4982 17.7196 24.9497 17.319 25.4745 17.0687C26.0481 16.7683 26.7681 16.6306 27.6346 16.6306C28.1349 16.6306 28.6475 16.6682 29.1479 16.7433C29.514 16.7933 29.8679 16.8935 30.1974 17.0312C30.2462 17.0437 30.295 17.0937 30.3194 17.1438C30.3316 17.1939 30.3439 17.2439 30.3439 17.294V19.3343C30.3439 19.3843 30.3194 19.4344 30.2828 19.4594C30.173 19.4845 30.112 19.4845 30.0632 19.4594Z" fill="#31A8FF"/>
</svg>
