<svg width="42" height="42" viewBox="0 0 42 42" fill="none" xmlns="http://www.w3.org/2000/svg">
<path d="M20.7093 37.5789L11.0051 34.9274L8.8421 11.0526H32.6053L30.4406 34.9235L20.7093 37.5789Z" fill="#1572B6"/>
<path d="M28.5003 33.2121L30.3948 12.7105H20.4474V35.3684L28.5003 33.2121Z" fill="#33A9DC"/>
<path d="M13.8158 21.5526L14.0711 24.8684H20.4474V21.5526H13.8158ZM13.2632 16.0263L13.5235 18.7895H20.4474V16.0263H13.2632ZM20.4474 29.3757L20.4352 29.379L17.3482 28.4467L17.1509 25.9737H14.3684L14.7569 30.8424L20.4347 32.6053L20.4474 32.6014V29.3757Z" fill="#EBEBEB"/>
<path d="M14.3684 4.42105H17.6842V5.89492H15.7555V7.36824H17.6842V8.8421H14.3684V4.42105ZM18.7895 4.42105H22.1053V5.68437H20.1766V5.93692H22.1053V8.8421H18.7895V7.51579H20.7187V7.26323H18.7895V4.42105ZM22.6579 4.42105H26.5263V5.68437H24.2754V5.93692H26.5263V8.8421H22.6579V7.51579H24.9088V7.26323H22.6579V4.42105Z" fill="#8B8B8B"/>
<path d="M27.6266 21.9527L28.1842 16.0263H20.4474V18.9542H24.7994L24.5186 21.9527H20.4474V24.8806H24.2506L23.8919 28.6777L20.4474 29.5592V32.6053L26.7789 30.9418L26.8253 30.4472L27.5515 22.7386L27.6266 21.9527Z" fill="white"/>
</svg>
