<svg width="42" height="42" viewBox="0 0 42 42" fill="none" xmlns="http://www.w3.org/2000/svg">
<path d="M9.74999 25.1309C9.74999 25.6177 9.55657 26.0846 9.21234 26.4288C8.86811 26.7731 8.40124 26.9664 7.91443 26.9664C7.42762 26.9664 6.96075 26.7731 6.61652 26.4288C6.27228 26.0846 6.07892 25.6177 6.07892 25.1309V16.8711C6.07892 16.3843 6.27228 15.9174 6.61652 15.5732C6.96075 15.2289 7.42762 15.0355 7.91443 15.0355C8.40124 15.0355 8.86811 15.2289 9.21234 15.5732C9.55657 15.9174 9.74999 16.3843 9.74999 16.8711V25.1309Z" fill="#7CB342"/>
<path d="M35.4474 25.1309C35.4474 25.6177 35.254 26.0846 34.9097 26.4288C34.5655 26.7731 34.0986 26.9664 33.6118 26.9664C33.125 26.9664 32.6581 26.7731 32.3139 26.4288C31.9697 26.0846 31.7763 25.6177 31.7763 25.1309V16.8711C31.7763 16.3843 31.9697 15.9174 32.3139 15.5732C32.6581 15.2289 33.125 15.0355 33.6118 15.0355C34.0986 15.0355 34.5655 15.2289 34.9097 15.5732C35.254 15.9174 35.4474 16.3843 35.4474 16.8711V25.1309Z" fill="#7CB342"/>
<path d="M18.9276 35.2254C18.9276 35.7122 18.7342 36.1791 18.39 36.5233C18.0458 36.8675 17.5789 37.0609 17.092 37.0609C16.6052 37.0609 16.1384 36.8675 15.7941 36.5233C15.45 36.1791 15.2565 35.7122 15.2565 35.2254V26.9655C15.2565 26.4787 15.45 26.0118 15.7941 25.6676C16.1384 25.3234 16.6052 25.13 17.092 25.13C17.5789 25.13 18.0458 25.3234 18.39 25.6676C18.7342 26.0118 18.9276 26.4787 18.9276 26.9655V35.2254Z" fill="#7CB342"/>
<path d="M26.2697 35.2254C26.2697 35.7122 26.0764 36.1791 25.7321 36.5233C25.3879 36.8675 24.921 37.0609 24.4342 37.0609C23.9474 37.0609 23.4805 36.8675 23.1363 36.5233C22.7921 36.1791 22.5987 35.7122 22.5987 35.2254V26.9655C22.5987 26.4787 22.7921 26.0118 23.1363 25.6676C23.4805 25.3234 23.9474 25.13 24.4342 25.13C24.921 25.13 25.3879 25.3234 25.7321 25.6676C26.0764 26.0118 26.2697 26.4787 26.2697 26.9655V35.2254Z" fill="#7CB342"/>
<path d="M11.5855 15.0355V28.8011C11.5855 29.2879 11.7789 29.7547 12.1231 30.099C12.4673 30.4432 12.9342 30.6366 13.421 30.6366H28.1053C28.592 30.6366 29.0589 30.4432 29.4032 30.099C29.7474 29.7547 29.9408 29.2879 29.9408 28.8011V15.0355H11.5855Z" fill="#7CB342"/>
<path d="M20.7631 5.85695C15.2566 5.85695 11.9021 9.20219 11.5855 13.1991H29.9408C29.6232 9.20219 26.2697 5.85695 20.7631 5.85695ZM17.0921 10.9946C16.8487 10.9946 16.6152 10.8979 16.4431 10.7258C16.271 10.5537 16.1743 10.3203 16.1743 10.0768C16.1743 9.83346 16.271 9.59998 16.4431 9.42789C16.6152 9.2558 16.8487 9.15909 17.0921 9.15909C17.3355 9.15909 17.5689 9.2558 17.7411 9.42789C17.9131 9.59998 18.0099 9.83346 18.0099 10.0768C18.0099 10.3203 17.9131 10.5537 17.7411 10.7258C17.5689 10.8979 17.3355 10.9946 17.0921 10.9946ZM24.4342 10.9946C24.1908 10.9946 23.9573 10.8979 23.7852 10.7258C23.6131 10.5537 23.5164 10.3203 23.5164 10.0768C23.5164 9.83346 23.6131 9.59998 23.7852 9.42789C23.9573 9.2558 24.1908 9.15909 24.4342 9.15909C24.6776 9.15909 24.9111 9.2558 25.0831 9.42789C25.2552 9.59998 25.3519 9.83346 25.3519 10.0768C25.3519 10.3203 25.2552 10.5537 25.0831 10.7258C24.9111 10.8979 24.6776 10.9946 24.4342 10.9946Z" fill="#7CB342"/>
<path fill-rule="evenodd" clip-rule="evenodd" d="M26.5571 4.50814C26.7952 4.66685 26.8596 4.98852 26.7008 5.2266L25.1718 7.5201C25.0131 7.75818 24.6914 7.8225 24.4533 7.66379C24.2153 7.50507 24.1509 7.18339 24.3097 6.94531L25.8387 4.65183C25.9974 4.41375 26.319 4.34941 26.5571 4.50814Z" fill="#7CB342"/>
<path fill-rule="evenodd" clip-rule="evenodd" d="M14.9772 4.50289C15.2182 4.3486 15.5386 4.41887 15.6929 4.65985L16.9163 6.57062C17.0706 6.81163 17.0003 7.13204 16.7593 7.28634C16.5183 7.44058 16.1979 7.37034 16.0436 7.12933L14.8202 5.21857C14.6659 4.97759 14.7362 4.65717 14.9772 4.50289Z" fill="#7CB342"/>
</svg>
