<svg width="42" height="42" viewBox="0 0 42 42" fill="none" xmlns="http://www.w3.org/2000/svg">
<g clip-path="url(#clip0_8_74)">
<mask id="mask0_8_74" style="mask-type:luminance" maskUnits="userSpaceOnUse" x="3" y="11" width="36" height="20">
<path d="M3.26823 21C3.26823 26.2073 11.0835 30.4287 20.7237 30.4287C30.3638 30.4287 38.1791 26.2073 38.1791 21C38.1791 15.7927 30.3638 11.5712 20.7237 11.5712C11.0835 11.5712 3.26823 15.7927 3.26823 21Z" fill="white"/>
</mask>
<g mask="url(#mask0_8_74)">
<path d="M3.26823 21C3.26823 26.2073 11.0835 30.4287 20.7237 30.4287C30.3638 30.4287 38.1791 26.2073 38.1791 21C38.1791 15.7927 30.3638 11.5712 20.7237 11.5712C11.0835 11.5712 3.26823 15.7927 3.26823 21Z" fill="url(#paint0_radial_8_74)"/>
</g>
<mask id="mask1_8_74" style="mask-type:luminance" maskUnits="userSpaceOnUse" x="2" y="10" width="37" height="22">
<path d="M2.54092 10.4976H38.9064V31.5023H2.54092V10.4976Z" fill="white"/>
</mask>
<g mask="url(#mask1_8_74)">
<path d="M20.7236 29.7286C29.9873 29.7286 37.4972 25.8207 37.4972 20.9999C37.4972 16.1793 29.9873 12.2712 20.7236 12.2712C11.46 12.2712 3.95008 16.1793 3.95008 20.9999C3.95008 25.8207 11.46 29.7286 20.7236 29.7286Z" fill="#777BB3"/>
</g>
<mask id="mask2_8_74" style="mask-type:luminance" maskUnits="userSpaceOnUse" x="2" y="10" width="37" height="22">
<path d="M2.54092 10.4976H38.9064V31.5023H2.54092V10.4976Z" fill="white"/>
</mask>
<g mask="url(#mask2_8_74)">
<path d="M12.7519 22.0822C13.5137 22.0822 14.0823 21.9379 14.4421 21.6536C14.7981 21.3722 15.0439 20.8846 15.1728 20.2044C15.2929 19.5687 15.2471 19.1248 15.0368 18.8853C14.8217 18.6406 14.3566 18.5165 13.6546 18.5165H12.4373L11.7624 22.0822H12.7519ZM8.77049 26.4744C8.71398 26.4744 8.66032 26.4484 8.6244 26.4036C8.58841 26.3588 8.57383 26.2998 8.58462 26.2428L10.3731 16.7938C10.3904 16.7025 10.4684 16.6365 10.559 16.6365H14.4136C15.6251 16.6365 16.5267 16.9743 17.0935 17.6405C17.6633 18.3103 17.8393 19.2465 17.6165 20.4231C17.5258 20.9024 17.3698 21.3476 17.153 21.7462C16.9359 22.1452 16.6489 22.5144 16.3 22.8437C15.8823 23.2451 15.4095 23.5362 14.8961 23.7075C14.3908 23.8765 13.742 23.9622 12.9675 23.9622H11.4067L10.9609 26.317C10.9436 26.4084 10.8657 26.4744 10.7751 26.4744H8.77049Z" fill="black"/>
<path d="M12.5934 18.711H13.6546C14.5019 18.711 14.7962 18.9019 14.8962 19.0157C15.0622 19.2046 15.0935 19.6029 14.9868 20.1675C14.867 20.7996 14.6449 21.2478 14.3266 21.4995C14.0007 21.7571 13.4709 21.8876 12.752 21.8876H11.9922L12.5934 18.711ZM14.4136 16.442H10.559C10.3777 16.442 10.2218 16.574 10.1872 16.7567L8.3987 26.2057C8.37711 26.3197 8.40628 26.4376 8.47819 26.5273C8.55016 26.617 8.65736 26.6688 8.7705 26.6688H10.775C10.9564 26.6688 11.1123 26.5368 11.1469 26.3541L11.5628 24.1567H12.9675C13.7618 24.1567 14.4306 24.0677 14.9549 23.8924C15.4941 23.7125 15.9902 23.4074 16.4293 22.9858C16.7925 22.6427 17.0916 22.2576 17.3183 21.8411C17.545 21.4244 17.7079 20.9598 17.8024 20.4601C18.0369 19.2216 17.8464 18.2298 17.2361 17.5126C16.6318 16.8022 15.6821 16.442 14.4136 16.442ZM11.5326 22.2766H12.752C13.5601 22.2766 14.1621 22.1203 14.5577 21.8076C14.9533 21.4949 15.2201 20.973 15.3587 20.2416C15.4914 19.5393 15.4309 19.0438 15.1775 18.7551C14.9237 18.4664 14.4161 18.322 13.6546 18.322H12.2812L11.5326 22.2766ZM14.4136 16.831C15.5732 16.831 16.4192 17.1434 16.9509 17.7684C17.4826 18.3935 17.6427 19.2659 17.4305 20.3859C17.3432 20.8473 17.1955 21.2692 16.9876 21.6513C16.7795 22.0338 16.5077 22.3835 16.1718 22.7005C15.7715 23.0852 15.3269 23.3593 14.8376 23.5225C14.3483 23.6862 13.7251 23.7677 12.9675 23.7677H11.2505L10.775 26.2798H8.7705L10.559 16.831H14.4136Z" fill="white"/>
<path d="M22.2125 23.9623C22.156 23.9623 22.1024 23.9363 22.0665 23.8915C22.0304 23.8467 22.0158 23.7878 22.0266 23.7307L22.8178 19.5499C22.893 19.1523 22.8745 18.8669 22.7655 18.7464C22.6989 18.6726 22.4986 18.549 21.9065 18.549H20.4732L19.4785 23.8049C19.4612 23.8963 19.3832 23.9623 19.2926 23.9623H17.3038C17.2473 23.9623 17.1937 23.9363 17.1577 23.8915C17.1217 23.8467 17.1071 23.7877 17.1179 23.7307L18.9064 14.2818C18.9237 14.1904 19.0017 14.1244 19.0923 14.1244H21.0811C21.1376 14.1244 21.1912 14.1503 21.2272 14.1951C21.2632 14.24 21.2778 14.2989 21.267 14.356L20.8354 16.6366H22.3773C23.5519 16.6366 24.3484 16.8492 24.8123 17.2867C25.2852 17.7329 25.4327 18.4465 25.2509 19.4078L24.4188 23.8049C24.4015 23.8963 24.3236 23.9623 24.2329 23.9623H22.2125Z" fill="black"/>
<path d="M21.0811 13.9299H19.0923C18.9109 13.9299 18.7551 14.0619 18.7205 14.2446L16.932 23.6936C16.9104 23.8076 16.9396 23.9256 17.0115 24.0152C17.0835 24.1049 17.1907 24.1567 17.3039 24.1567H19.2926C19.4739 24.1567 19.6299 24.0247 19.6644 23.842L20.6293 18.7435H21.9065C22.4976 18.7435 22.6217 18.8731 22.6267 18.8787C22.6625 18.9183 22.7097 19.1018 22.6318 19.5128L21.8407 23.6936C21.8191 23.8076 21.8483 23.9256 21.9202 24.0152C21.9922 24.1049 22.0994 24.1567 22.2126 24.1567H24.2329C24.4142 24.1567 24.5701 24.0247 24.6047 23.842L25.4368 19.4449C25.632 18.4128 25.465 17.6385 24.9405 17.1435C24.4399 16.6715 23.6015 16.442 22.3773 16.442H21.0651L21.4529 14.3931C21.4745 14.2791 21.4453 14.1611 21.3734 14.0715C21.3014 13.9818 21.1942 13.9299 21.0811 13.9299ZM21.0811 14.3189L20.6056 16.831H22.3773C23.492 16.831 24.261 17.0308 24.6841 17.4299C25.1073 17.8293 25.2341 18.4763 25.065 19.3708L24.2329 23.7678H22.2126L23.0037 19.587C23.0937 19.1114 23.0606 18.787 22.9043 18.6141C22.7479 18.4411 22.4153 18.3545 21.9065 18.3545H20.317L19.2926 23.7678H17.3039L19.0923 14.3189H21.0811Z" fill="white"/>
<path d="M28.3976 22.0822C29.1593 22.0822 29.728 21.9379 30.0878 21.6536C30.4438 21.3722 30.6896 20.8846 30.8185 20.2044C30.9387 19.5687 30.8929 19.1248 30.6825 18.8853C30.4674 18.6406 30.0023 18.5165 29.3003 18.5165H28.083L27.4081 22.0822H28.3976ZM24.4162 26.4744C24.3597 26.4744 24.3061 26.4484 24.2702 26.4036C24.2342 26.3588 24.2195 26.2998 24.2303 26.2428L26.0188 16.7938C26.0361 16.7025 26.1141 16.6365 26.2048 16.6365H30.0593C31.2708 16.6365 32.1724 16.9743 32.7393 17.6405C33.3091 18.3102 33.4849 19.2464 33.2622 20.4231C33.1714 20.9024 33.0155 21.3476 32.7987 21.7462C32.5816 22.1452 32.2946 22.5144 31.9457 22.8437C31.528 23.2451 31.0552 23.5362 30.5418 23.7075C30.0365 23.8765 29.3876 23.9622 28.6132 23.9622H27.0523L26.6068 26.317C26.5894 26.4084 26.5115 26.4744 26.4208 26.4744H24.4162Z" fill="black"/>
<path d="M28.2391 18.711H29.3003C30.1476 18.711 30.4419 18.9019 30.5419 19.0157C30.7079 19.2046 30.7392 19.6029 30.6325 20.1675C30.5127 20.7996 30.2905 21.2478 29.9723 21.4995C29.6464 21.7571 29.1166 21.8876 28.3977 21.8876H27.638L28.2391 18.711ZM30.0594 16.442H26.2047C26.0234 16.442 25.8675 16.574 25.8329 16.7567L24.0445 26.2057C24.0229 26.3197 24.052 26.4376 24.124 26.5273C24.1959 26.617 24.3031 26.6688 24.4163 26.6688H26.4208C26.6021 26.6688 26.758 26.5368 26.7926 26.3541L27.2085 24.1567H28.6132C29.4076 24.1567 30.0763 24.0677 30.6006 23.8924C31.1398 23.7125 31.6361 23.4074 32.0752 22.9857C32.4383 22.6427 32.7373 22.2576 32.964 21.8411C33.1907 21.4244 33.3536 20.9598 33.4481 20.4601C33.6826 19.2215 33.4921 18.2298 32.8818 17.5125C32.2775 16.8022 31.3279 16.442 30.0594 16.442ZM27.1784 22.2766H28.3977C29.2058 22.2766 29.8078 22.1203 30.2034 21.8076C30.599 21.4949 30.8658 20.973 31.0044 20.2416C31.1371 19.5393 31.0767 19.0438 30.8232 18.7551C30.5694 18.4664 30.0618 18.322 29.3003 18.322H27.9269L27.1784 22.2766ZM30.0594 16.831C31.2189 16.831 32.0649 17.1434 32.5966 17.7684C33.1283 18.3935 33.2884 19.2659 33.0762 20.3859C32.9889 20.8473 32.8412 21.2692 32.6333 21.6513C32.4252 22.0338 32.1534 22.3835 31.8175 22.7005C31.4172 23.0852 30.9726 23.3593 30.4833 23.5225C29.994 23.6862 29.3708 23.7677 28.6132 23.7677H26.8962L26.4208 26.2798H24.4163L26.2047 16.831H30.0594Z" fill="white"/>
</g>
</g>
<defs>
<radialGradient id="paint0_radial_8_74" cx="0" cy="0" r="1" gradientUnits="userSpaceOnUse" gradientTransform="translate(13.7486 14.8861) scale(22.9215 23.5368)">
<stop stop-color="#AEB2D5"/>
<stop offset="0.3" stop-color="#AEB2D5"/>
<stop offset="0.75" stop-color="#484C89"/>
<stop offset="1" stop-color="#484C89"/>
</radialGradient>
<clipPath id="clip0_8_74">
<rect width="35.9211" height="19.8947" fill="white" transform="translate(2.76316 11.0526)"/>
</clipPath>
</defs>
</svg>
