<svg width="76" height="76" viewBox="0 0 76 76" fill="none" xmlns="http://www.w3.org/2000/svg">
<g clip-path="url(#clip0_8_70)">
<mask id="mask0_8_70" style="mask-type:luminance" maskUnits="userSpaceOnUse" x="5" y="20" width="65" height="36">
<path d="M5.91396 38C5.91396 47.4227 20.0558 55.0615 37.5 55.0615C54.9441 55.0615 69.0861 47.4227 69.0861 38C69.0861 28.5774 54.9441 20.9385 37.5 20.9385C20.0558 20.9385 5.91396 28.5774 5.91396 38Z" fill="white"/>
</mask>
<g mask="url(#mask0_8_70)">
<path d="M5.91396 38C5.91396 47.4227 20.0558 55.0615 37.5 55.0615C54.9441 55.0615 69.0861 47.4227 69.0861 38C69.0861 28.5774 54.9441 20.9385 37.5 20.9385C20.0558 20.9385 5.91396 28.5774 5.91396 38Z" fill="url(#paint0_radial_8_70)"/>
</g>
<mask id="mask1_8_70" style="mask-type:luminance" maskUnits="userSpaceOnUse" x="4" y="18" width="67" height="40">
<path d="M4.59787 18.9957H70.402V57.0043H4.59787V18.9957Z" fill="white"/>
</mask>
<g mask="url(#mask1_8_70)">
<path d="M37.4999 53.7947C54.2628 53.7947 67.8521 46.7231 67.8521 37.9999C67.8521 29.2768 54.2628 22.2051 37.4999 22.2051C20.7371 22.2051 7.14778 29.2768 7.14778 37.9999C7.14778 46.7231 20.7371 53.7947 37.4999 53.7947Z" fill="#777BB3"/>
</g>
<mask id="mask2_8_70" style="mask-type:luminance" maskUnits="userSpaceOnUse" x="4" y="18" width="67" height="40">
<path d="M4.59787 18.9957H70.402V57.0043H4.59787V18.9957Z" fill="white"/>
</mask>
<g mask="url(#mask2_8_70)">
<path d="M23.0749 39.9582C24.4533 39.9582 25.4823 39.6972 26.1334 39.1827C26.7775 38.6734 27.2223 37.7911 27.4555 36.5604C27.6729 35.4101 27.5901 34.6069 27.2094 34.1734C26.8202 33.7307 25.9787 33.5061 24.7083 33.5061H22.5056L21.2844 39.9582H23.0749ZM15.8704 47.906C15.7682 47.906 15.6711 47.8591 15.6061 47.7779C15.5409 47.6968 15.5146 47.5901 15.5341 47.487L18.7704 30.3889C18.8017 30.2236 18.9428 30.1041 19.1068 30.1041H26.0818C28.2739 30.1041 29.9056 30.7153 30.9311 31.9209C31.9622 33.1329 32.2806 34.8269 31.8774 36.956C31.7133 37.8234 31.4312 38.629 31.0387 39.3502C30.6459 40.0722 30.1266 40.7403 29.4952 41.3363C28.7394 42.0627 27.8839 42.5894 26.9549 42.8993C26.0406 43.2051 24.8664 43.3602 23.465 43.3602H20.6407L19.8341 47.6212C19.8028 47.7866 19.6618 47.906 19.4978 47.906H15.8704Z" fill="black"/>
<path d="M22.7881 33.8581H24.7083C26.2416 33.8581 26.7742 34.2036 26.9551 34.4094C27.2554 34.7513 27.312 35.472 27.1191 36.4937C26.9022 37.6375 26.5003 38.4484 25.9243 38.9038C25.3346 39.37 24.3759 39.6063 23.075 39.6063H21.7002L22.7881 33.8581ZM26.0819 29.7522H19.1067C18.7786 29.7522 18.4966 29.9911 18.434 30.3217L15.1977 47.4199C15.1586 47.6262 15.2114 47.8396 15.3415 48.0018C15.4717 48.1641 15.6657 48.2579 15.8704 48.2579H19.4977C19.8259 48.2579 20.108 48.0191 20.1706 47.6884L20.9232 43.7122H23.465C24.9024 43.7122 26.1125 43.5512 27.0613 43.2339C28.037 42.9083 28.9347 42.3564 29.7293 41.5934C30.3864 40.9726 30.9277 40.2758 31.3378 39.5221C31.7481 38.7681 32.0428 37.9273 32.2139 37.0231C32.6383 34.782 32.2935 32.9874 31.1892 31.6895C30.0957 30.404 28.3772 29.7522 26.0819 29.7522ZM20.8686 40.3101H23.075C24.5374 40.3101 25.6267 40.0273 26.3424 39.4615C27.0583 38.8956 27.5411 37.9512 27.792 36.6277C28.032 35.3569 27.9227 34.4602 27.464 33.9378C27.0047 33.4155 26.0863 33.1542 24.7083 33.1542H22.2231L20.8686 40.3101ZM26.0819 30.4561C28.1802 30.4561 29.7109 31.0215 30.6731 32.1525C31.6351 33.2835 31.9248 34.8621 31.541 36.8889C31.383 37.7238 31.1158 38.4871 30.7396 39.1787C30.3629 39.8707 29.8711 40.5035 29.2633 41.0772C28.539 41.7732 27.7344 42.2692 26.849 42.5646C25.9636 42.8608 24.8359 43.0083 23.465 43.0083H20.358L19.4977 47.5541H15.8704L19.1067 30.4561H26.0819Z" fill="white"/>
<path d="M40.1941 43.3602C40.0918 43.3602 39.9948 43.3133 39.9298 43.2321C39.8646 43.1511 39.8382 43.0444 39.8577 42.9412L41.2893 35.376C41.4255 34.6565 41.3919 34.1401 41.1948 33.9219C41.0742 33.7885 40.7118 33.5648 39.6403 33.5648H37.0467L35.2468 43.0754C35.2155 43.2408 35.0744 43.3602 34.9104 43.3602H31.3117C31.2094 43.3602 31.1124 43.3133 31.0473 43.2321C30.9821 43.1511 30.9557 43.0443 30.9753 42.9412L34.2116 25.8431C34.2429 25.6778 34.384 25.5584 34.548 25.5584H38.1467C38.249 25.5584 38.346 25.6053 38.4112 25.6864C38.4763 25.7675 38.5027 25.8742 38.4831 25.9774L37.7022 30.1041H40.4922C42.6177 30.1041 44.059 30.4889 44.8985 31.2805C45.7541 32.0881 46.0211 33.3793 45.6921 35.1188L44.1864 43.0754C44.1551 43.2408 44.0141 43.3602 43.8499 43.3602H40.1941Z" fill="black"/>
<path d="M38.1467 25.2064H34.548C34.2198 25.2064 33.9377 25.4453 33.8751 25.776L30.6389 42.8741C30.5998 43.0804 30.6526 43.2938 30.7828 43.4561C30.913 43.6183 31.107 43.7122 31.3118 43.7122H34.9104C35.2385 43.7122 35.5207 43.4733 35.5833 43.1426L37.3293 33.9167H39.6403C40.71 33.9167 40.9345 34.1514 40.9435 34.1614C41.0084 34.2331 41.0937 34.5651 40.9529 35.3089L39.5213 42.8741C39.4822 43.0804 39.535 43.2938 39.6652 43.4561C39.7955 43.6183 39.9894 43.7122 40.1942 43.7122H43.85C44.1781 43.7122 44.4602 43.4733 44.5228 43.1426L46.0285 35.186C46.3818 33.3183 46.0795 31.9173 45.1304 31.0215C44.2247 30.1674 42.7075 29.7522 40.4922 29.7522H38.1178L38.8196 26.0446C38.8586 25.8383 38.8059 25.6248 38.6756 25.4626C38.5454 25.3004 38.3514 25.2064 38.1467 25.2064ZM38.1467 25.9103L37.2863 30.4561H40.4922C42.5094 30.4561 43.9008 30.8176 44.6666 31.5398C45.4323 32.2624 45.6617 33.4333 45.3557 35.0518L43.85 43.0083H40.1942L41.6258 35.4432C41.7887 34.5826 41.7288 33.9956 41.4459 33.6826C41.163 33.3696 40.561 33.2129 39.6403 33.2129H36.7641L34.9104 43.0083H31.3118L34.548 25.9103H38.1467Z" fill="white"/>
<path d="M51.3862 39.9582C52.7645 39.9582 53.7935 39.6972 54.4446 39.1827C55.0887 38.6736 55.5336 37.7913 55.7669 36.5604C55.9843 35.4101 55.9014 34.6069 55.5207 34.1734C55.1314 33.7307 54.2899 33.5061 53.0195 33.5061H50.8168L49.5957 39.9582H51.3862ZM44.1818 47.906C44.0795 47.906 43.9824 47.8591 43.9174 47.7779C43.8523 47.6968 43.8258 47.5901 43.8453 47.487L47.0816 30.3889C47.113 30.2236 47.254 30.1041 47.4182 30.1041H54.3931C56.5853 30.1041 58.2168 30.7153 59.2425 31.9209C60.2735 33.1327 60.5918 34.8268 60.1888 36.956C60.0245 37.8234 59.7424 38.629 59.35 39.3502C58.9571 40.0722 58.4379 40.7403 57.8064 41.3363C57.0506 42.0627 56.1952 42.5894 55.2661 42.8993C54.3518 43.2051 53.1776 43.3602 51.7762 43.3602H48.9518L48.1456 47.6212C48.1142 47.7866 47.9732 47.906 47.809 47.906H44.1818Z" fill="black"/>
<path d="M51.0994 33.8581H53.0196C54.5528 33.8581 55.0854 34.2036 55.2664 34.4094C55.5668 34.7513 55.6234 35.472 55.4303 36.4936C55.2135 37.6375 54.8115 38.4484 54.2356 38.9038C53.6459 39.37 52.6871 39.6063 51.3862 39.6063H50.0116L51.0994 33.8581ZM54.3931 29.7522H47.4181C47.09 29.7522 46.8079 29.9911 46.7453 30.3217L43.5091 47.4199C43.47 47.6262 43.5228 47.8396 43.6529 48.0018C43.7831 48.1641 43.9771 48.2579 44.1818 48.2579H47.8091C48.1372 48.2579 48.4193 48.0191 48.482 47.6884L49.2345 43.7122H51.7763C53.2137 43.7122 54.4237 43.5512 55.3725 43.2339C56.3483 42.9083 57.2462 42.3563 58.0408 41.5932C58.6979 40.9725 59.239 40.2758 59.6491 39.5221C60.0594 38.7681 60.3541 37.9273 60.5251 37.0231C60.9496 34.7819 60.6048 32.9873 59.5005 31.6894C58.407 30.404 56.6886 29.7522 54.3931 29.7522ZM49.18 40.3101H51.3862C52.8487 40.3101 53.938 40.0273 54.6537 39.4615C55.3697 38.8956 55.8524 37.9512 56.1032 36.6277C56.3434 35.3569 56.234 34.4602 55.7752 33.9378C55.316 33.4155 54.3976 33.1542 53.0196 33.1542H50.5343L49.18 40.3101ZM54.3931 30.4561C56.4914 30.4561 58.0222 31.0215 58.9843 32.1525C59.9465 33.2835 60.2361 34.8621 59.8522 36.8889C59.6942 37.7238 59.427 38.4871 59.0508 39.1787C58.6742 39.8707 58.1824 40.5035 57.5746 41.0772C56.8503 41.7732 56.0457 42.2692 55.1603 42.5646C54.2749 42.8608 53.1472 43.0083 51.7763 43.0083H48.6693L47.8091 47.5541H44.1818L47.4181 30.4561H54.3931Z" fill="white"/>
</g>
</g>
<defs>
<radialGradient id="paint0_radial_8_70" cx="0" cy="0" r="1" gradientUnits="userSpaceOnUse" gradientTransform="translate(24.8784 26.9368) scale(41.4769 42.5905)">
<stop stop-color="#AEB2D5"/>
<stop offset="0.3" stop-color="#AEB2D5"/>
<stop offset="0.75" stop-color="#484C89"/>
<stop offset="1" stop-color="#484C89"/>
</radialGradient>
<clipPath id="clip0_8_70">
<rect width="65" height="36" fill="white" transform="translate(5 20)"/>
</clipPath>
</defs>
</svg>
