<svg width="42" height="42" viewBox="0 0 42 42" fill="none" xmlns="http://www.w3.org/2000/svg">
<path d="M6.92782 31.4696L8.39008 33.9951C8.69403 34.5273 9.13061 34.9451 9.64345 35.2491L14.8658 26.2091H4.42108C4.42108 26.7982 4.57306 27.3862 4.877 27.9184L6.92782 31.4696Z" fill="#0066DA"/>
<path d="M21 15.5743L15.7777 6.53488C15.2648 6.83883 14.8282 7.25662 14.5243 7.78825L4.877 24.4998C4.57865 25.0201 4.42148 25.6094 4.42108 26.2091H14.8658L21 15.5743Z" fill="#00AC47"/>
<path d="M21 15.5743L26.2224 6.53487C25.704 6.23198 25.1135 6.07448 24.5131 6.07895H17.4869C16.879 6.07895 16.2905 6.25027 15.7776 6.53487L21 15.5743Z" fill="#00832D"/>
<path d="M27.1342 26.2091H14.8658L9.64343 35.2491C10.1619 35.5518 10.7524 35.7091 11.3527 35.7044H30.6473C31.2552 35.7044 31.8437 35.5337 32.3566 35.2491L27.1342 26.2091Z" fill="#2684FC"/>
<path d="M32.3566 35.2491C32.8694 34.9451 33.306 34.5273 33.61 33.9957L34.2179 32.9512L37.123 27.9184C37.427 27.3868 37.579 26.7982 37.579 26.2091H27.153L32.3566 35.2491Z" fill="#EA4335"/>
<path d="M31.9808 16.144L27.1563 7.78825C26.8529 7.25662 26.4158 6.83883 25.9035 6.53488L20.6812 15.5743L26.8154 26.2091H37.2408C37.2408 25.6206 37.0888 25.032 36.7854 24.4998L31.9808 16.144Z" fill="#FFBA00"/>
</svg>
