<svg width="42" height="42" viewBox="0 0 42 42" fill="none" xmlns="http://www.w3.org/2000/svg">
<path d="M30.7131 14.165L28.3058 16.5723C32.318 20.5845 32.318 27.1187 28.3058 31.1308C24.2936 35.143 17.7595 35.143 13.7473 31.1308C9.73504 27.1187 9.73504 20.5845 13.7473 16.5723L20.1667 10.1528L20.9692 9.23572V4.42108L11.2253 14.165C9.94499 15.4324 8.92864 16.9411 8.23498 18.6037C7.54137 20.2664 7.1842 22.05 7.1842 23.8516C7.1842 25.6531 7.54137 27.4367 8.23498 29.0994C8.92864 30.7621 9.94499 32.2707 11.2253 33.5381C12.4927 34.8185 14.0014 35.8348 15.664 36.5285C17.3267 37.2221 19.1103 37.5793 20.9119 37.5793C22.7134 37.5793 24.4971 37.2221 26.1597 36.5285C27.8224 35.8348 29.3311 34.8185 30.5985 33.5381C36.1009 28.1504 36.1009 19.4381 30.7131 14.165Z" fill="#EE4C2C"/>
<path d="M25.8985 13.4772C26.9114 13.4772 27.7326 12.656 27.7326 11.643C27.7326 10.6301 26.9114 9.8089 25.8985 9.8089C24.8855 9.8089 24.0643 10.6301 24.0643 11.643C24.0643 12.656 24.8855 13.4772 25.8985 13.4772Z" fill="#EE4C2C"/>
</svg>
