<svg width="42" height="42" viewBox="0 0 42 42" fill="none" xmlns="http://www.w3.org/2000/svg">
<path d="M9.46549 9.06865C16.0164 2.72168 26.4921 2.89244 32.8379 9.4776C33.5547 8.5221 34.1687 7.46436 34.6119 6.37292C36.6936 12.7193 37.9564 18.0423 37.4784 22.1704C37.2325 25.6615 35.8821 28.9837 33.6227 31.6564C27.7537 38.6168 17.3129 39.5037 10.3525 33.6353L10.2193 33.5171L10.2121 33.5121C10.125 33.4522 10.0452 33.3823 9.97446 33.3038L9.95567 33.2828L9.73849 33.0893C9.52572 32.907 9.31351 32.7257 9.12507 32.5196L9.05599 32.4411C2.70901 25.8897 2.91404 15.4145 9.46494 9.0681L9.46549 9.06865ZM11.9219 31.2811C11.3074 30.8031 10.4204 30.8716 9.94241 31.4856C9.52241 32.0255 9.52462 32.7771 9.94904 33.275L9.95567 33.2828L10.2193 33.5171L10.2447 33.5342C10.8415 33.9266 11.644 33.8453 12.1015 33.291L12.1264 33.2601C12.6044 32.6456 12.5022 31.7592 11.9219 31.2811ZM34.4417 8.07834C32.7357 11.6616 28.5048 14.391 24.8535 15.2443C21.4073 16.0628 18.4043 15.3808 15.2316 16.6093C7.9977 19.3725 8.13475 27.9714 12.0927 29.9161L12.3314 30.0526C12.3314 30.0526 15.1902 29.484 18.018 28.7335L18.2601 28.6688C19.3891 28.3643 20.4999 28.0328 21.4073 27.6984C26.1157 25.9576 31.3027 21.6587 33.0087 16.6773C32.1217 21.8637 27.6515 26.8789 23.1818 29.1657C20.7933 30.3936 18.9509 30.6666 15.0272 32.0316C14.5491 32.2024 14.1739 32.3726 14.1739 32.3726L14.3176 32.3532L14.4126 32.3411L14.5077 32.3295C15.0547 32.2624 15.6033 32.2086 16.1529 32.1681C21.7146 31.8951 30.4495 33.7376 34.5102 28.3124C38.6726 22.785 36.3527 13.845 34.4417 8.07834Z" fill="#6DB33F"/>
<path d="M11.9219 31.2812C12.5022 31.7586 12.6044 32.6462 12.1264 33.2596C11.6489 33.8741 10.7614 33.9426 10.148 33.4646C9.53346 32.9871 9.46548 32.0996 9.94351 31.4862C10.421 30.8717 11.308 30.8031 11.9219 31.2812ZM34.4417 8.07892C36.3527 13.8451 38.6732 22.7844 34.5102 28.3124C30.45 33.7382 21.7151 31.8951 16.1534 32.1687C16.1534 32.1687 15.3748 32.2223 14.5088 32.33L14.4137 32.3417L14.1745 32.3737C14.1745 32.3737 14.5502 32.2024 15.0277 32.0322C18.9514 30.6672 20.7939 30.3942 23.1824 29.1662C27.6526 26.88 32.1223 21.8643 33.0092 16.6779C31.3033 21.6593 26.1168 25.9588 21.4084 27.699C18.1667 28.8927 12.332 30.0532 12.332 30.0532L12.0932 29.9167C8.1353 27.9714 7.9988 19.3736 15.2322 16.6093C18.406 15.3814 21.4084 16.0633 24.8546 15.2443C28.5053 14.3916 32.7368 11.6622 34.4428 8.07947L34.4417 8.07892Z" fill="white"/>
</svg>
