<svg width="42" height="42" viewBox="0 0 42 42" fill="none" xmlns="http://www.w3.org/2000/svg">
<g clip-path="url(#clip0_11_16)">
<path d="M8.50956 11.6116C8.44909 9.88323 9.80212 8.28943 11.631 8.28943H30.3713C32.2002 8.28943 33.5532 9.88323 33.4928 11.6116C33.4347 13.2719 33.5101 15.4226 34.0539 17.1762C34.5995 18.9352 35.5195 20.0471 37.0263 20.19V21.8099C35.5195 21.9528 34.5995 23.0647 34.0539 24.8237C33.5101 26.5773 33.4347 28.728 33.4928 30.3884C33.5532 32.1167 32.2002 33.7105 30.3713 33.7105H11.631C9.80212 33.7105 8.44909 32.1167 8.50962 30.3884C8.56766 28.728 8.49222 26.5773 7.94833 24.8237C7.40281 23.0647 6.48054 21.9528 4.97369 21.8099V20.19C6.48048 20.0471 7.40281 18.9352 7.94833 17.1762C8.49222 15.4226 8.56766 13.2719 8.50956 11.6116Z" fill="url(#paint0_linear_11_16)"/>
<g filter="url(#filter0_d_11_16)">
<path d="M21.6951 27.7576C24.656 27.7576 26.4402 26.3147 26.4402 23.9348C26.4402 22.1358 25.1671 20.8334 23.2768 20.6272V20.5523C24.6656 20.3274 25.7555 19.0438 25.7555 17.6102C25.7555 15.5676 24.1352 14.2371 21.6662 14.2371H16.1108V27.7576H21.6951ZM18.2712 15.9517H21.1454C22.7078 15.9517 23.5951 16.6451 23.5951 17.9006C23.5951 19.2405 22.5631 19.9901 20.6921 19.9901H18.2712V15.9517ZM18.2712 26.043V21.5923H21.126C23.1707 21.5923 24.2316 22.3419 24.2316 23.8036C24.2316 25.2652 23.1997 26.043 21.2514 26.043H18.2712Z" fill="url(#paint1_linear_11_16)"/>
<path d="M21.6951 27.7576C24.656 27.7576 26.4402 26.3147 26.4402 23.9348C26.4402 22.1358 25.1671 20.8334 23.2768 20.6272V20.5523C24.6656 20.3274 25.7555 19.0438 25.7555 17.6102C25.7555 15.5676 24.1352 14.2371 21.6662 14.2371H16.1108V27.7576H21.6951ZM18.2712 15.9517H21.1454C22.7078 15.9517 23.5951 16.6451 23.5951 17.9006C23.5951 19.2405 22.5631 19.9901 20.6921 19.9901H18.2712V15.9517ZM18.2712 26.043V21.5923H21.126C23.1707 21.5923 24.2316 22.3419 24.2316 23.8036C24.2316 25.2652 23.1997 26.043 21.2514 26.043H18.2712Z" stroke="white"/>
</g>
</g>
<defs>
<filter id="filter0_d_11_16" x="-0.389221" y="1.73706" width="43.3295" height="46.5205" filterUnits="userSpaceOnUse" color-interpolation-filters="sRGB">
<feFlood flood-opacity="0" result="BackgroundImageFix"/>
<feColorMatrix in="SourceAlpha" type="matrix" values="0 0 0 0 0 0 0 0 0 0 0 0 0 0 0 0 0 0 127 0" result="hardAlpha"/>
<feOffset dy="4"/>
<feGaussianBlur stdDeviation="8"/>
<feColorMatrix type="matrix" values="0 0 0 0 0 0 0 0 0 0 0 0 0 0 0 0 0 0 0.15 0"/>
<feBlend mode="normal" in2="BackgroundImageFix" result="effect1_dropShadow_11_16"/>
<feBlend mode="normal" in="SourceGraphic" in2="effect1_dropShadow_11_16" result="shape"/>
</filter>
<linearGradient id="paint0_linear_11_16" x1="9.73645" y1="8.96221" x2="37.6422" y2="31.2191" gradientUnits="userSpaceOnUse">
<stop stop-color="#9013FE"/>
<stop offset="1" stop-color="#6610F2"/>
</linearGradient>
<linearGradient id="paint1_linear_11_16" x1="17.0878" y1="15.127" x2="23.3046" y2="25.6909" gradientUnits="userSpaceOnUse">
<stop stop-color="white"/>
<stop offset="1" stop-color="#F1E5FC"/>
</linearGradient>
<clipPath id="clip0_11_16">
<rect width="32.0526" height="25.4211" fill="white" transform="translate(4.97369 8.28943)"/>
</clipPath>
</defs>
</svg>
