<svg width="42" height="42" viewBox="0 0 42 42" fill="none" xmlns="http://www.w3.org/2000/svg">
<path d="M4.42108 33.3038C4.42108 34.4376 4.8715 35.525 5.67325 36.3268C6.47499 37.1285 7.5624 37.5789 8.69624 37.5789H33.3033C33.8647 37.579 34.4207 37.4685 34.9395 37.2537C35.4582 37.0389 35.9296 36.724 36.3266 36.327C36.7237 35.93 37.0386 35.4587 37.2535 34.9399C37.4684 34.4212 37.579 33.8653 37.579 33.3038V8.69621C37.579 7.56237 37.1286 6.47496 36.3268 5.67322C35.5251 4.87147 34.4377 4.42105 33.3038 4.42105H8.69624C7.5624 4.42105 6.47499 4.87147 5.67325 5.67322C4.8715 6.47496 4.42108 7.56237 4.42108 8.69621V33.3038Z" fill="#563D7C"/>
<path d="M18.1705 19.0879V14.3922H22.3042C22.6977 14.3922 23.0779 14.4253 23.4426 14.4906C23.7847 14.5479 24.1135 14.667 24.413 14.842C24.6943 15.0111 24.9193 15.2454 25.0878 15.545C25.2564 15.8451 25.3409 16.2291 25.3409 16.6978C25.3409 17.5416 25.0878 18.1512 24.5816 18.5259C24.0754 18.9006 23.4288 19.0879 22.6419 19.0879H18.1705ZM13.7567 10.962V31.038H23.4852C24.3849 31.038 25.2613 30.9258 26.114 30.7009C26.9673 30.4754 27.7261 30.1289 28.392 29.6603C29.0581 29.1906 29.6026 28.5688 29.9803 27.8466C30.3743 27.106 30.571 26.2301 30.571 25.2177C30.571 23.9616 30.266 22.8883 29.657 21.9981C29.048 21.1078 28.1245 20.4844 26.8872 20.1285C27.7874 19.6974 28.4666 19.1443 28.9264 18.4695C29.3851 17.7947 29.615 16.9509 29.615 15.9384C29.615 15.0017 29.4602 14.2142 29.1508 13.5771C28.8413 12.9399 28.4058 12.4287 27.8432 12.0446C27.2812 11.66 26.6064 11.3837 25.8189 11.2151C25.0314 11.046 24.1599 10.962 23.2039 10.962H13.7567ZM18.1711 27.6073V22.0964H22.979C23.935 22.0964 24.7032 22.3169 25.2845 22.7574C25.8659 23.1978 26.1566 23.9334 26.1566 24.9646C26.1566 25.4896 26.0671 25.9206 25.8891 26.2577C25.7229 26.5819 25.4761 26.8579 25.1724 27.0591C24.8548 27.2634 24.5019 27.4066 24.1318 27.4813C23.7383 27.5653 23.326 27.6078 22.8944 27.6078L18.1711 27.6073Z" fill="white"/>
</svg>
