<svg width="76" height="76" viewBox="0 0 76 76" fill="none" xmlns="http://www.w3.org/2000/svg">
<g clip-path="url(#clip0_11_12)">
<path d="M15.3982 21.0116C15.2888 17.884 17.7372 15 21.0466 15H54.9576C58.267 15 60.7154 17.884 60.606 21.0116C60.5008 24.0159 60.6373 27.9076 61.6214 31.0808C62.6087 34.2639 64.2734 36.2758 67 36.5343V39.4657C64.2734 39.7242 62.6087 41.7361 61.6214 44.9192C60.6373 48.0924 60.5008 51.9841 60.606 54.9885C60.7154 58.116 58.267 61 54.9576 61H21.0466C17.7372 61 15.2888 58.116 15.3984 54.9885C15.5034 51.9841 15.3669 48.0924 14.3827 44.9192C13.3955 41.7361 11.7267 39.7242 9 39.4657V36.5343C11.7266 36.2758 13.3955 34.2639 14.3827 31.0808C15.3669 27.9076 15.5034 24.0159 15.3982 21.0116Z" fill="url(#paint0_linear_11_12)"/>
<g filter="url(#filter0_d_11_12)">
<path d="M39.2577 50.228C44.6156 50.228 47.8442 47.6171 47.8442 43.3105C47.8442 40.0553 45.5405 37.6985 42.1199 37.3255V37.1898C44.6331 36.7829 46.6052 34.4602 46.6052 31.8661C46.6052 28.17 43.6732 25.7623 39.2054 25.7623H29.1528V50.228H39.2577ZM33.0622 28.8651H38.263C41.0903 28.8651 42.6958 30.1197 42.6958 32.3916C42.6958 34.8162 40.8285 36.1725 37.4428 36.1725H33.0622V28.8651ZM33.0622 47.1254V39.0719H38.228C41.9279 39.0719 43.8477 40.4282 43.8477 43.0732C43.8477 45.7181 41.9803 47.1254 38.4549 47.1254H33.0622Z" fill="url(#paint1_linear_11_12)"/>
<path d="M39.2577 50.228C44.6156 50.228 47.8442 47.6171 47.8442 43.3105C47.8442 40.0553 45.5405 37.6985 42.1199 37.3255V37.1898C44.6331 36.7829 46.6052 34.4602 46.6052 31.8661C46.6052 28.17 43.6732 25.7623 39.2054 25.7623H29.1528V50.228H39.2577ZM33.0622 28.8651H38.263C41.0903 28.8651 42.6958 30.1197 42.6958 32.3916C42.6958 34.8162 40.8285 36.1725 37.4428 36.1725H33.0622V28.8651ZM33.0622 47.1254V39.0719H38.228C41.9279 39.0719 43.8477 40.4282 43.8477 43.0732C43.8477 45.7181 41.9803 47.1254 38.4549 47.1254H33.0622Z" stroke="white"/>
</g>
</g>
<defs>
<filter id="filter0_d_11_12" x="12.6528" y="13.2623" width="51.6914" height="57.4657" filterUnits="userSpaceOnUse" color-interpolation-filters="sRGB">
<feFlood flood-opacity="0" result="BackgroundImageFix"/>
<feColorMatrix in="SourceAlpha" type="matrix" values="0 0 0 0 0 0 0 0 0 0 0 0 0 0 0 0 0 0 127 0" result="hardAlpha"/>
<feOffset dy="4"/>
<feGaussianBlur stdDeviation="8"/>
<feColorMatrix type="matrix" values="0 0 0 0 0 0 0 0 0 0 0 0 0 0 0 0 0 0 0.15 0"/>
<feBlend mode="normal" in2="BackgroundImageFix" result="effect1_dropShadow_11_12"/>
<feBlend mode="normal" in="SourceGraphic" in2="effect1_dropShadow_11_12" result="shape"/>
</filter>
<linearGradient id="paint0_linear_11_12" x1="17.6183" y1="16.2174" x2="68.1144" y2="56.4918" gradientUnits="userSpaceOnUse">
<stop stop-color="#9013FE"/>
<stop offset="1" stop-color="#6610F2"/>
</linearGradient>
<linearGradient id="paint1_linear_11_12" x1="30.9208" y1="27.3727" x2="42.1702" y2="46.4882" gradientUnits="userSpaceOnUse">
<stop stop-color="white"/>
<stop offset="1" stop-color="#F1E5FC"/>
</linearGradient>
<clipPath id="clip0_11_12">
<rect width="58" height="46" fill="white" transform="translate(9 15)"/>
</clipPath>
</defs>
</svg>
