<svg width="42" height="42" viewBox="0 0 42 42" fill="none" xmlns="http://www.w3.org/2000/svg">
<path d="M21 5.52632C17.9396 5.52632 14.9479 6.43384 12.4033 8.13411C9.85864 9.83438 7.87534 12.251 6.70418 15.0785C5.53301 17.9059 5.22658 21.0172 5.82364 24.0188C6.42069 27.0204 7.89442 29.7775 10.0584 31.9416C12.2225 34.1056 14.9796 35.5793 17.9812 36.1764C20.9828 36.7734 24.0941 36.467 26.9215 35.2958C29.749 34.1247 32.1656 32.1414 33.8659 29.5967C35.5662 27.0521 36.4737 24.0604 36.4737 21C36.469 16.8976 34.8372 12.9645 31.9364 10.0636C29.0355 7.16276 25.1024 5.531 21 5.52632Z" fill="white"/>
<path d="M20.2628 21.0011C20.1213 21.3051 19.9655 21.6449 19.8052 22.0014C19.2243 23.2405 18.7446 24.5246 18.3706 25.841C18.2776 26.2627 18.2328 26.6936 18.2368 27.1254C18.2368 27.3188 18.2468 27.5211 18.2634 27.7277C19.8566 28.3098 21.5999 28.3361 23.21 27.8023C23.0319 27.6432 22.8671 27.4698 22.717 27.284C21.7079 26.0102 21.1476 24.1412 20.2578 21M16.5436 14.9211C15.5441 15.5973 14.7216 16.5036 14.1452 17.5637C13.5757 18.6123 13.2728 19.7847 13.2632 20.9779C13.2552 22.1709 13.5408 23.3476 14.0949 24.4042C14.6559 25.4719 15.4652 26.3892 16.4546 27.0789C16.9288 25.1685 18.1153 23.4183 19.8947 19.9113C19.7886 19.6295 19.6643 19.3222 19.5339 18.9984C19.1003 17.8307 18.4769 16.7426 17.6886 15.7782C17.3467 15.4395 16.9586 15.151 16.5358 14.9211" fill="#91DC47"/>
<path d="M27.5045 29.2757C26.6393 29.1906 25.7854 29.015 24.9569 28.7518C22.9784 29.7213 20.7175 29.9476 18.5861 29.3895C16.4623 28.8372 14.6107 27.5334 13.3748 25.72C12.1495 23.9193 11.6316 21.7298 11.9203 19.5709C12.2134 17.4077 13.2904 15.4274 14.9471 14.0059C14.4296 13.8804 13.899 13.8166 13.3665 13.8158C10.7045 13.8401 7.89381 15.293 6.72389 19.2167C6.64339 19.7173 6.6156 20.225 6.641 20.7314C6.64196 23.7302 7.60935 26.6489 9.39974 29.0546C11.2038 31.4772 13.7298 33.265 16.6143 34.1609C19.5104 35.0632 22.6168 35.0326 25.4946 34.0736C28.3602 33.122 30.85 31.2855 32.6053 28.8286C31.332 29.1498 30.0256 29.3212 28.7126 29.3392C28.3091 29.3421 27.9054 29.3209 27.5045 29.2757Z" fill="#63B132"/>
<path d="M24.7248 26.8822C24.8977 26.9618 25.0762 27.0276 25.2591 27.079C26.1764 26.3547 26.9127 25.4271 27.41 24.3694C27.9184 23.2978 28.1837 22.1136 28.1842 20.9121C28.187 19.7073 27.9202 18.5172 27.4034 17.4289C26.8999 16.3644 26.1535 15.4329 25.2243 14.7094C24.3203 14.0064 23.2554 13.5397 22.1257 13.3516C21.006 13.1681 19.858 13.2721 18.7895 13.6539C20.2407 15.424 20.9392 17.9544 21.6145 20.7215C22.2899 23.4885 21.8279 21.4907 22.1987 22.5076C22.5807 23.6145 23.0687 24.682 23.656 25.6952C23.9084 26.1727 24.2757 26.5799 24.7248 26.88" fill="#90B4FE"/>
<path d="M20.7938 7.18421C18.5646 7.18296 16.3673 7.71395 14.3846 8.73301C12.4019 9.75208 10.6912 11.2298 9.39471 13.0432C10.5467 12.3079 11.886 11.9196 13.2526 11.9247C14.4808 11.9184 15.6919 12.2122 16.7806 12.7807C16.9293 12.8658 17.0697 12.9576 17.2084 13.0532C18.5649 12.4566 20.0487 12.2078 21.5256 12.3292C23.0025 12.4506 24.4257 12.9384 25.6666 13.7485C26.9074 14.5586 27.9267 15.6653 28.632 16.9686C29.3373 18.2718 29.7065 19.7304 29.7061 21.2122C29.7074 22.3923 29.4736 23.5608 29.0185 24.6496C28.5633 25.7384 27.8959 26.7256 27.0552 27.5537C27.4757 27.6017 27.899 27.6255 28.3223 27.6244C29.9371 27.697 31.5262 27.2015 32.8136 26.224C33.7721 25.3809 34.433 24.251 34.6981 23.0022C35.0864 20.0226 34.5063 16.9971 33.0437 14.3724C31.581 11.7476 29.3131 9.66271 26.5749 8.42543C24.7582 7.60491 22.7873 7.18174 20.7938 7.18421Z" fill="#5881D8"/>
</svg>
