<svg width="42" height="42" viewBox="0 0 42 42" fill="none" xmlns="http://www.w3.org/2000/svg">
<path d="M21.019 6.64403C13.6621 6.64403 14.1274 9.82514 14.1274 9.82514V13.1305H21.1237V14.1667H11.3411C11.3411 14.1667 6.63159 13.5865 6.63159 21.0522C6.63159 28.5179 10.7898 28.2143 10.7898 28.2143H13.1906V24.7317C13.1906 24.7317 13.0559 20.5734 17.2317 20.5734H24.2384C24.2384 20.5734 28.1469 20.6356 28.1469 16.7893V10.4779C28.1469 10.4779 28.7396 6.63159 21.0573 6.63159L21.019 6.64403ZM17.152 8.85837C17.4007 8.85207 17.6457 8.91971 17.856 9.05267C18.0663 9.18563 18.2324 9.37801 18.3334 9.60541C18.4344 9.83277 18.4656 10.085 18.4233 10.3302C18.3809 10.5753 18.2667 10.8025 18.0953 10.9827C17.9238 11.1631 17.7027 11.2885 17.46 11.3431C17.2172 11.3978 16.9638 11.3792 16.7316 11.2898C16.4994 11.2004 16.299 11.0441 16.1556 10.8407C16.0122 10.6374 15.9324 10.3961 15.9262 10.1474V10.1267C15.9262 9.79303 16.0587 9.47306 16.2946 9.23714C16.5305 9.00122 16.8505 8.8687 17.1841 8.8687L17.152 8.85837Z" fill="url(#paint0_linear_1_688)"/>
<path d="M21.2262 35.4602C28.5832 35.4602 28.1179 32.2688 28.1179 32.2688V28.9737H21.1226V27.9376H30.9353C30.9353 27.9376 35.6447 28.4639 35.6447 21.0418C35.6447 13.6196 31.4865 13.8797 31.4865 13.8797H29.0546V17.3167C29.0546 17.3167 29.1893 21.4749 25.0135 21.4749H18.0037C18.0037 21.4749 14.0921 21.4158 14.0921 25.2622V31.616C14.0921 31.616 13.4994 35.4623 21.1816 35.4623H21.2232L21.2262 35.4602ZM25.0933 33.2356C24.8445 33.2419 24.5996 33.1742 24.3892 33.0413C24.179 32.9083 24.0128 32.7159 23.9119 32.4885C23.8109 32.2612 23.7796 32.0089 23.822 31.7638C23.8644 31.5186 23.9785 31.2915 24.15 31.1112C24.3214 30.9309 24.5425 30.8055 24.7852 30.7508C25.028 30.6962 25.2815 30.7147 25.5136 30.8042C25.7458 30.8936 25.9463 31.0499 26.0896 31.2532C26.233 31.4565 26.3128 31.6978 26.3191 31.9466V31.9777C26.3191 32.3113 26.1866 32.6312 25.9506 32.8671C25.7147 33.1031 25.3947 33.2356 25.0611 33.2356H25.0922H25.0933Z" fill="url(#paint1_linear_1_688)"/>
<defs>
<linearGradient id="paint0_linear_1_688" x1="9.49887" y1="9.46543" x2="23.2663" y2="23.2017" gradientUnits="userSpaceOnUse">
<stop stop-color="#387EB8"/>
<stop offset="1" stop-color="#366994"/>
</linearGradient>
<linearGradient id="paint1_linear_1_688" x1="17.6436" y1="18.4136" x2="33.3731" y2="32.1457" gradientUnits="userSpaceOnUse">
<stop stop-color="#FFE052"/>
<stop offset="1" stop-color="#FFC331"/>
</linearGradient>
</defs>
</svg>
