<svg width="42" height="42" viewBox="0 0 42 42" fill="none" xmlns="http://www.w3.org/2000/svg">
<path d="M21.9124 4.97368C21.5215 4.97536 21.1467 5.12963 20.8679 5.40363L20.8525 5.41468L11.0526 11.0792L20.8254 20.8497V20.8569L32.5765 32.6053L34.8158 28.5722L26.7374 9.18418L22.9724 5.41965C22.8339 5.27986 22.6692 5.16884 22.4876 5.09296C22.3061 5.01709 22.1114 4.97786 21.9146 4.97755L21.9124 4.97368Z" fill="#66C3FA"/>
<path d="M11.0775 11.0526L5.4158 20.8198L5.40475 20.8348C5.1303 21.114 4.97564 21.4893 4.97369 21.8809C4.97389 22.0767 5.01303 22.2705 5.08883 22.4511C5.16464 22.6316 5.27559 22.7953 5.41525 22.9326L10.1071 27.6139L28.4578 34.8158L32.6053 32.5168L32.4914 32.4024H32.4627L20.9591 20.9066H20.9459L11.0775 11.0526Z" fill="#215896"/>
<path d="M11.0526 11.0526L21.0774 21.0713H21.0917L32.6296 32.6053L37.0208 31.7691L37.0263 18.7933L32.3897 14.2562C31.2329 13.2256 29.7839 12.5805 28.2439 12.4104V12.3607L11.0526 11.0526Z" fill="#235997"/>
<path d="M11.0526 11.0526L21.0724 21.0796V21.0945L32.6053 32.6362L31.7664 37.0263H18.7851L14.2469 32.3881C13.2164 31.2312 12.5717 29.7822 12.4022 28.2422H12.3524L11.0526 11.0526Z" fill="#58B6F0"/>
</svg>
