<svg width="42" height="42" viewBox="0 0 42 42" fill="none" xmlns="http://www.w3.org/2000/svg">
<path d="M33.7105 21.058H25.6222V23.3796H31.1684C30.7724 25.1001 29.9508 26.6936 28.7788 28.014C27.6091 29.3315 26.126 30.3326 24.4666 30.9247L11.1781 17.5759C11.8943 15.5384 13.2245 13.7732 14.9857 12.5232C16.743 11.2763 18.8452 10.608 21 10.6111C22.6689 10.6227 24.313 11.0283 25.7979 11.7943C27.2842 12.5614 28.5694 13.6669 29.5503 15.0216L31.2839 13.5129C29.8446 11.536 27.8655 10.0163 25.5841 9.1361C23.306 8.25776 20.8224 8.05757 18.433 8.55971C16.0416 9.06288 13.8464 10.2462 12.1115 11.9672C10.3725 13.6923 9.16612 15.8808 8.63596 18.2722L23.8886 33.5945C26.6776 32.8868 29.1529 31.2735 30.9264 29.0076C32.7044 26.7366 33.6831 23.9422 33.7105 21.058ZM8.28946 21.1741C8.29298 22.817 8.62166 24.4429 9.25656 25.9582C9.89052 27.4716 10.8184 28.8441 11.9866 29.9963C14.3093 32.345 17.4664 33.6801 20.7695 33.7105L8.28946 21.1741Z" fill="white"/>
<path d="M21 4.97369C17.8303 4.97369 14.7318 5.91362 12.0962 7.67462C9.46073 9.43561 7.4066 11.9386 6.1936 14.867C4.98061 17.7954 4.66323 21.0178 5.28161 24.1266C5.89999 27.2354 7.42635 30.091 9.66767 32.3323C11.909 34.5736 14.7646 36.1 17.8734 36.7184C20.9822 37.3368 24.2046 37.0194 27.133 35.8064C30.0614 34.5934 32.5644 32.5393 34.3254 29.9038C36.0864 27.2682 37.0263 24.1697 37.0263 21C37.0141 16.7533 35.3216 12.6841 32.3188 9.68122C29.3159 6.67836 25.2467 4.98594 21 4.97369ZM12.0711 29.9289C9.75307 27.6237 8.43685 24.4978 8.40772 21.2288L20.8856 33.5923C17.5891 33.5336 14.4381 32.2241 12.0711 29.9289ZM23.7471 33.2485L8.75146 18.2534C9.27782 15.8931 10.4732 13.7344 12.1944 12.0357C13.9157 10.3369 16.09 9.17019 18.4571 8.67502C20.8242 8.17986 23.2839 8.37725 25.5417 9.24357C27.7996 10.1099 29.76 11.6085 31.1883 13.5599L29.4713 15.0482C28.4982 13.7107 27.2248 12.6202 25.7534 11.8645C24.2821 11.1089 22.654 10.7091 21 10.6973C18.8705 10.7104 16.7962 11.3758 15.0564 12.6039C13.3167 13.832 11.9952 15.5638 11.2698 17.566L24.434 30.7302C26.0767 30.1474 27.5461 29.1602 28.7066 27.8598C29.8672 26.5594 30.6815 24.9876 31.0745 23.2896H25.5796V21H33.5928C33.5772 23.8539 32.5953 26.6183 30.8073 28.8426C29.0192 31.0669 26.5309 32.62 23.7471 33.2485Z" fill="#663399"/>
</svg>
