<svg width="42" height="42" viewBox="0 0 42 42" fill="none" xmlns="http://www.w3.org/2000/svg">
<path d="M35.117 17.8611H25.2536C25.0911 17.8621 24.93 17.8309 24.7797 17.7692C24.6293 17.7075 24.4927 17.6165 24.3778 17.5016C24.2628 17.3868 24.1718 17.2502 24.1101 17.0999C24.0483 16.9495 24.017 16.7885 24.0179 16.6259V6.76258C24.0179 6.60062 23.9858 6.44027 23.9235 6.29075C23.8613 6.14122 23.7701 6.00548 23.6552 5.89132C23.5403 5.77715 23.404 5.68682 23.2541 5.62551C23.1042 5.56421 22.9437 5.53313 22.7817 5.53408H19.0901C18.9281 5.53284 18.7674 5.56371 18.6174 5.62491C18.4673 5.68612 18.3309 5.77644 18.2159 5.89066C18.101 6.00488 18.0098 6.14074 17.9477 6.2904C17.8855 6.44005 17.8537 6.60054 17.8539 6.76258V16.6259C17.8551 16.7885 17.8239 16.9498 17.7622 17.1002C17.7005 17.2507 17.6096 17.3874 17.4946 17.5023C17.3796 17.6173 17.2429 17.7083 17.0925 17.77C16.942 17.8316 16.7808 17.8628 16.6182 17.8616H12.9261C12.7635 17.8627 12.6024 17.8314 12.452 17.7697C12.3016 17.7079 12.165 17.6169 12.05 17.502C11.9351 17.3871 11.8441 17.2504 11.7823 17.1C11.7206 16.9497 11.6894 16.7885 11.6904 16.6259V6.76258C11.6916 6.59989 11.6605 6.43857 11.5988 6.28802C11.5371 6.13746 11.4461 6.00068 11.3311 5.88564C11.216 5.77059 11.0793 5.67958 10.9287 5.6179C10.7782 5.55621 10.6168 5.52509 10.4541 5.52634H6.75427C6.59241 5.52649 6.43216 5.5586 6.28274 5.62085C6.13332 5.68309 5.99766 5.77424 5.88357 5.88906C5.76947 6.00387 5.67917 6.1401 5.61787 6.28991C5.55656 6.43972 5.52545 6.60016 5.52633 6.76203V35.1253C5.52537 35.2878 5.55669 35.4489 5.61845 35.5993C5.68021 35.7496 5.77119 35.8862 5.88613 36.0012C6.00106 36.1161 6.13766 36.2071 6.28801 36.2689C6.43836 36.3306 6.59947 36.3619 6.76201 36.361H35.117C35.2795 36.362 35.4407 36.3307 35.5911 36.269C35.7415 36.2073 35.8781 36.1163 35.993 36.0013C36.108 35.8864 36.199 35.7498 36.2607 35.5994C36.3224 35.449 36.3537 35.2879 36.3527 35.1253V19.1211C36.3568 18.9566 36.3279 18.7929 36.2675 18.6398C36.2072 18.4868 36.1167 18.3474 36.0014 18.2299C35.8862 18.1125 35.7485 18.0194 35.5966 17.9563C35.4446 17.8931 35.2815 17.8611 35.117 17.8622V17.8611ZM30.1582 28.3357C30.1592 28.5787 30.1122 28.8196 30.0199 29.0444C29.9276 29.2692 29.7918 29.4736 29.6203 29.6458C29.4488 29.8181 29.245 29.9547 29.0206 30.0479C28.7961 30.1412 28.5555 30.1892 28.3124 30.1892H25.8405C25.5975 30.1891 25.3569 30.1411 25.1325 30.0478C24.908 29.9545 24.7042 29.8179 24.5328 29.6457C24.3613 29.4735 24.2255 29.2691 24.1331 29.0443C24.0408 28.8195 23.9938 28.5787 23.9947 28.3357V25.8709C23.9938 25.6279 24.0408 25.3871 24.1332 25.1624C24.2255 24.9376 24.3613 24.7333 24.5328 24.5611C24.7043 24.3889 24.9081 24.2523 25.1325 24.1591C25.3569 24.0659 25.5975 24.0179 25.8405 24.0179H28.3119C28.5549 24.0179 28.7956 24.0659 29.02 24.1592C29.2445 24.2524 29.4483 24.3891 29.6198 24.5613C29.7913 24.7335 29.9271 24.9379 30.0194 25.1627C30.1117 25.3876 30.1587 25.6284 30.1577 25.8715L30.1582 28.3357Z" fill="#FF6600"/>
</svg>
