<svg width="42" height="42" viewBox="0 0 42 42" fill="none" xmlns="http://www.w3.org/2000/svg">
<path fill-rule="evenodd" clip-rule="evenodd" d="M10.6249 22.1915C10.6663 23.0475 11.5213 22.6518 11.9087 22.3843C12.2762 22.1301 12.3839 22.3418 12.4165 21.8405C12.4497 21.5117 12.4629 21.1813 12.4569 20.8508C11.886 20.7935 11.3133 20.9403 10.8404 21.2653C10.605 21.4366 10.1657 21.9804 10.6249 22.1981" fill="#F6D2A2"/>
<path d="M11.0692 22.795C10.9846 22.7965 10.9008 22.7783 10.8244 22.7419C10.7372 22.6914 10.6652 22.6184 10.616 22.5305C10.5668 22.4426 10.5422 22.343 10.5448 22.2423C10.4882 22.2151 10.4395 22.1739 10.4033 22.1227C10.367 22.0714 10.3444 22.0118 10.3375 21.9494C10.3529 21.7988 10.4009 21.6533 10.4782 21.5232C10.5555 21.393 10.6602 21.2812 10.7852 21.1956C11.2735 20.8581 11.8664 20.7064 12.4569 20.7679L12.5271 20.774V20.8447C12.5364 21.1028 12.5282 21.3614 12.5033 21.6184L12.4867 21.845C12.4641 22.1998 12.3977 22.2539 12.2143 22.3169C12.1181 22.3479 12.0264 22.3926 11.9435 22.4507C11.6865 22.6386 11.3853 22.7568 11.0692 22.795ZM12.2192 20.9215C11.7434 20.9151 11.2775 21.0577 10.8868 21.3294C10.7188 21.4521 10.4856 21.7378 10.5055 21.9345C10.5114 21.9763 10.5287 22.0155 10.5557 22.048C10.5826 22.0804 10.6181 22.1046 10.6581 22.118L10.7023 22.139V22.1876C10.7128 22.4009 10.7769 22.5374 10.894 22.596C11.1201 22.7076 11.5406 22.5352 11.8589 22.3169C11.954 22.2506 12.059 22.1992 12.1695 22.1639C12.29 22.1224 12.3148 22.113 12.3325 21.8339C12.3325 21.7588 12.3425 21.6831 12.3491 21.6063C12.3701 21.3797 12.3789 21.152 12.3756 20.9243C12.3241 20.9224 12.2725 20.9215 12.2209 20.9215H12.2192Z" fill="black"/>
<path fill-rule="evenodd" clip-rule="evenodd" d="M10.6249 22.1915C10.755 22.1626 10.8737 22.0959 10.9659 21.9997L10.6249 22.1915Z" fill="#C6B198"/>
<path d="M10.6249 22.2733C10.6062 22.2727 10.5882 22.2656 10.574 22.2534C10.5599 22.2411 10.5503 22.2244 10.547 22.2059C10.5437 22.1875 10.5469 22.1685 10.5559 22.152C10.565 22.1356 10.5794 22.1228 10.5967 22.1158L10.652 22.0964C10.7476 22.0743 10.8343 22.0246 10.9012 21.9527C10.9071 21.9428 10.9151 21.9343 10.9245 21.9276C10.9339 21.921 10.9446 21.9163 10.9559 21.9141C10.9728 21.9109 10.9902 21.9131 11.0057 21.9203C11.0213 21.9276 11.0341 21.9395 11.0425 21.9545C11.0509 21.9695 11.0543 21.9867 11.0524 22.0037C11.0504 22.0208 11.0432 22.0368 11.0316 22.0494C10.9465 22.1478 10.8327 22.218 10.7067 22.2495L10.6536 22.2683C10.6445 22.2719 10.6347 22.2732 10.6249 22.2733Z" fill="black"/>
<path fill-rule="evenodd" clip-rule="evenodd" d="M12.6006 11.9943C9.32345 11.0736 11.7606 6.9079 14.3911 8.6194L12.6006 11.9943Z" fill="#6AD7E5"/>
<path d="M12.642 12.0888L12.579 12.0711C12.1846 12.0041 11.8193 11.8201 11.5307 11.543C11.2421 11.2659 11.0434 10.9085 10.9603 10.5171C10.9214 10.1149 10.9956 9.70985 11.1745 9.34752C11.3533 8.98519 11.6298 8.68 11.9728 8.46631C12.3446 8.23165 12.7784 8.11419 13.2178 8.12917C13.6572 8.14415 14.082 8.29088 14.4369 8.55031L14.4988 8.59065L12.642 12.0888ZM13.1073 8.29002C12.7359 8.29002 12.3723 8.39833 12.0606 8.60115C11.7438 8.79745 11.4881 9.07822 11.3221 9.41191C11.1561 9.7456 11.0866 10.119 11.1212 10.49C11.1956 10.8402 11.3718 11.1606 11.6276 11.4111C11.8834 11.6616 12.2074 11.831 12.5591 11.8981L14.2844 8.64757C13.9327 8.42204 13.5251 8.29899 13.1073 8.29223V8.29002Z" fill="black"/>
<path fill-rule="evenodd" clip-rule="evenodd" d="M27.1591 8.30662C29.7498 6.48514 32.0963 10.5956 29.0822 11.6296L27.1591 8.30662Z" fill="#6AD7E5"/>
<path d="M29.0463 11.7285L27.0513 8.28285L27.1121 8.24029C27.4439 7.97451 27.8473 7.81355 28.2709 7.77792C28.6945 7.74229 29.1191 7.83361 29.4906 8.04024C29.8417 8.24634 30.1287 8.54584 30.3196 8.90538C30.5106 9.26493 30.598 9.67041 30.5721 10.0767C30.5196 10.4639 30.3518 10.8264 30.0907 11.1171C29.8296 11.4078 29.4871 11.6133 29.1077 11.707L29.0458 11.728L29.0463 11.7285ZM27.2679 8.33037L29.1193 11.5296C29.455 11.4382 29.7564 11.2501 29.986 10.9887C30.2157 10.7274 30.3634 10.4042 30.4108 10.0596C30.4339 9.68434 30.3525 9.31005 30.1756 8.97833C29.9987 8.64662 29.7333 8.37047 29.4088 8.18061C29.0775 7.99012 28.6969 7.90264 28.3156 7.92931C27.9343 7.95598 27.5696 8.0956 27.2679 8.33037Z" fill="black"/>
<path fill-rule="evenodd" clip-rule="evenodd" d="M27.7178 32.7268C28.3765 33.1336 29.5829 34.3671 28.5921 34.965C27.6432 35.8337 27.111 34.01 26.2771 33.7575C26.4373 33.4991 26.6471 33.2749 26.8944 33.0979C27.1417 32.921 27.4215 32.7952 27.7178 32.7268Z" fill="#F6D2A2"/>
<path d="M28.0919 35.28H28.0521C27.678 35.2568 27.3669 34.8921 27.0668 34.5389C26.8606 34.2389 26.5804 33.9971 26.2533 33.8371L26.1433 33.8039L26.2119 33.7111C26.5499 33.1736 27.0866 32.7914 27.7051 32.6478H27.7349L27.7609 32.6633C28.1831 32.9247 29.0529 33.6873 29.0491 34.377C29.0469 34.5134 29.008 34.6467 28.9363 34.7628C28.8646 34.8788 28.7628 34.9733 28.6418 35.0363C28.4959 35.1839 28.2992 35.2717 28.0919 35.28ZM26.4081 33.7255C26.7152 33.9064 26.9818 34.1487 27.1911 34.4372C27.4824 34.7793 27.7581 35.1026 28.0626 35.1214C28.1516 35.1212 28.2395 35.1027 28.321 35.067C28.4025 35.0314 28.4757 34.9794 28.5362 34.9142L28.5484 34.9048C28.6472 34.8566 28.7309 34.7821 28.7901 34.6895C28.8494 34.5969 28.882 34.4897 28.8844 34.3798C28.8844 33.8288 28.1881 33.1364 27.699 32.8258C27.1705 32.9484 26.7087 33.2682 26.4081 33.7199V33.7255Z" fill="black"/>
<path d="M28.592 35.0462C28.5771 35.0462 28.5624 35.042 28.5497 35.0342C28.5369 35.0264 28.5265 35.0153 28.5197 35.002C28.4715 34.9008 28.4291 34.7969 28.3925 34.6909C28.3358 34.4919 28.2343 34.3085 28.0958 34.1548C28.0822 34.1394 28.075 34.1195 28.0754 34.0991C28.0758 34.0786 28.0839 34.059 28.0981 34.0442C28.1123 34.0294 28.1315 34.0205 28.1519 34.0191C28.1724 34.0178 28.1926 34.0242 28.2085 34.0371C28.3655 34.2079 28.481 34.4129 28.5456 34.6351C28.5804 34.734 28.6202 34.8307 28.6655 34.9252C28.6704 34.9348 28.6733 34.9452 28.6742 34.9559C28.675 34.9666 28.6737 34.9774 28.6704 34.9876C28.667 34.9978 28.6617 35.0073 28.6547 35.0154C28.6477 35.0236 28.6392 35.0303 28.6296 35.0352C28.6182 35.0419 28.6053 35.0457 28.592 35.0462Z" fill="black"/>
<path fill-rule="evenodd" clip-rule="evenodd" d="M15.9478 34.12C15.1742 34.2394 14.7392 34.9379 14.0949 35.2916C13.4875 35.6547 13.2549 35.1756 13.2007 35.0788C13.1051 35.0346 13.1134 35.1192 12.9664 34.9749C12.3994 34.0819 13.5522 33.4342 14.1507 32.991C14.9852 32.8219 15.5079 33.5453 15.9478 34.12Z" fill="#F6D2A2"/>
<path d="M13.6832 35.5066C13.6339 35.5069 13.5848 35.5005 13.5373 35.4878C13.4522 35.46 13.3735 35.4155 13.306 35.3569C13.2384 35.2982 13.1832 35.2266 13.1438 35.1463H13.125C13.0565 35.1463 13.0056 35.1314 12.9039 35.0291L12.8929 35.0153C12.3513 34.1598 13.2731 33.5099 13.8843 33.08C13.9617 33.0258 14.0335 32.9761 14.0993 32.9264L14.1137 32.9159H14.1313C14.9901 32.7423 15.5334 33.453 15.9683 34.0239L16.0915 34.1841L15.9561 34.2051C15.5196 34.3101 15.1217 34.5378 14.8111 34.8622C14.6019 35.0535 14.3738 35.2229 14.1302 35.3679C13.9964 35.4531 13.8417 35.501 13.6832 35.5066ZM13.1372 34.9821C13.1703 34.9823 13.203 34.9898 13.2328 35.0042L13.2565 35.0153L13.2775 35.0518C13.3067 35.1161 13.3485 35.1739 13.4004 35.2217C13.4523 35.2696 13.5133 35.3065 13.5798 35.3303C13.6615 35.3455 13.7454 35.3443 13.8265 35.3265C13.9077 35.3088 13.9845 35.2749 14.0523 35.227C14.2869 35.0869 14.5067 34.9234 14.7083 34.739C15.0147 34.4326 15.3899 34.2037 15.8025 34.0714C15.388 33.5265 14.9094 32.938 14.1838 33.0734C14.1159 33.1231 14.0468 33.1712 13.9766 33.2176C13.3549 33.6569 12.5757 34.204 13.0244 34.9252C13.0885 34.9893 13.104 34.9882 13.1178 34.9882L13.1377 34.9827L13.1372 34.9821Z" fill="black"/>
<path d="M13.1996 35.1595H13.1924C13.1817 35.1586 13.1713 35.1556 13.1618 35.1507C13.1522 35.1457 13.1437 35.139 13.1368 35.1308C13.1299 35.1226 13.1246 35.1131 13.1214 35.1028C13.1181 35.0926 13.1169 35.0818 13.1178 35.0711C13.1513 34.854 13.2416 34.6495 13.3798 34.4787C13.445 34.3886 13.5024 34.293 13.5511 34.193C13.5609 34.1749 13.5771 34.1611 13.5965 34.1543C13.6159 34.1476 13.6372 34.1484 13.6561 34.1565C13.675 34.1648 13.6901 34.18 13.6983 34.1989C13.7065 34.2179 13.7072 34.2393 13.7003 34.2587C13.648 34.3676 13.5862 34.4718 13.5157 34.5699C13.3941 34.7191 13.3129 34.8976 13.2814 35.0882C13.2788 35.1081 13.2691 35.1263 13.254 35.1394C13.239 35.1525 13.2196 35.1597 13.1996 35.1595Z" fill="black"/>
<path fill-rule="evenodd" clip-rule="evenodd" d="M12.7376 10.8454C12.3054 10.6166 11.9882 10.3066 12.2524 9.8092C12.4972 9.3461 12.952 9.39473 13.3842 9.62462L12.7376 10.8454ZM28.3997 10.4083C28.8313 10.1789 29.1486 9.86944 28.8844 9.37207C28.6396 8.90896 28.1848 8.9576 27.7526 9.18749L28.3997 10.4083Z" fill="black"/>
<path fill-rule="evenodd" clip-rule="evenodd" d="M31.3751 22.0837C31.3337 22.9397 30.4793 22.5441 30.0913 22.2766C29.7238 22.0224 29.6161 22.234 29.5835 21.7328C29.5502 21.404 29.5367 21.0735 29.5431 20.743C30.114 20.6857 30.6867 20.8326 31.1596 21.1575C31.395 21.3288 31.8343 21.8726 31.3751 22.0903" fill="#F6D2A2"/>
<path d="M30.9308 22.6855C30.6111 22.6501 30.3062 22.532 30.046 22.3429C29.963 22.285 29.8717 22.2399 29.7752 22.2092C29.5923 22.1451 29.526 22.0909 29.5028 21.7367C29.5028 21.6609 29.4923 21.5863 29.4862 21.5106C29.4613 21.2537 29.453 20.995 29.4624 20.7369V20.6662L29.5332 20.6601C30.1234 20.5988 30.7162 20.7505 31.2043 21.0879C31.3292 21.1735 31.434 21.2852 31.5113 21.4154C31.5886 21.5456 31.6366 21.691 31.652 21.8417C31.645 21.904 31.6224 21.9636 31.5861 22.0148C31.5499 22.0661 31.5012 22.1073 31.4447 22.1346C31.4473 22.2353 31.4227 22.3348 31.3735 22.4228C31.3243 22.5107 31.2523 22.5837 31.1651 22.6341C31.0918 22.6686 31.0118 22.6858 30.9308 22.6855ZM29.6222 20.8209C29.6188 21.0481 29.6277 21.2758 29.6492 21.5023L29.6658 21.7306C29.6835 22.0091 29.7084 22.0179 29.8283 22.0599C29.9388 22.0953 30.0438 22.1473 30.1394 22.2136C30.4561 22.433 30.8777 22.6043 31.1038 22.4921C31.2209 22.4341 31.285 22.297 31.2955 22.0837V22.0351L31.3397 22.0146C31.3797 22.0013 31.4152 21.977 31.4421 21.9446C31.469 21.9122 31.4864 21.8729 31.4923 21.8312C31.511 21.6344 31.2789 21.3482 31.1109 21.226C30.6761 20.9234 30.1506 20.7792 29.6222 20.8176V20.8209Z" fill="black"/>
<path fill-rule="evenodd" clip-rule="evenodd" d="M31.3751 22.0837C31.245 22.0549 31.1263 21.9882 31.0341 21.8919L31.3751 22.0837Z" fill="#C6B198"/>
<path d="M31.3751 22.165C31.366 22.1665 31.3566 22.1665 31.3475 22.165L31.2944 22.1462C31.168 22.1144 31.0544 22.0446 30.9689 21.9461C30.9616 21.9376 30.9561 21.9277 30.9527 21.9169C30.9494 21.9062 30.9483 21.8949 30.9495 21.8837C30.9508 21.8725 30.9543 21.8617 30.9599 21.852C30.9655 21.8422 30.973 21.8337 30.9821 21.827C30.9911 21.8203 31.0014 21.8155 31.0124 21.813C31.0233 21.8105 31.0347 21.8102 31.0457 21.8123C31.0568 21.8143 31.0673 21.8186 31.0766 21.8249C31.086 21.8312 31.0939 21.8394 31.0999 21.8489C31.1662 21.9207 31.2535 21.9704 31.3491 21.9925L31.4044 22.0124C31.4172 22.0178 31.4284 22.0264 31.437 22.0373C31.4456 22.0482 31.4513 22.0611 31.4535 22.0748C31.4557 22.0885 31.4544 22.1026 31.4497 22.1157C31.4449 22.1287 31.437 22.1404 31.4265 22.1495C31.4127 22.1617 31.3952 22.1689 31.3768 22.1699L31.3751 22.1644V22.165Z" fill="black"/>
<path fill-rule="evenodd" clip-rule="evenodd" d="M20.6717 6.5752C23.9522 6.5752 27.027 7.04493 28.6302 10.1966C30.0698 13.729 29.5581 17.5394 29.7774 21.2724C29.9659 24.4782 30.3837 28.182 28.8966 31.1535C27.3326 34.2786 23.4227 35.065 20.2009 34.9501C17.6709 34.86 14.6149 34.0344 13.1869 31.7227C11.5119 29.0109 12.3054 24.9778 12.4265 21.9605C12.5702 18.3866 11.4588 14.8006 12.6337 11.3035C13.8523 7.67659 17.1371 6.85483 20.6723 6.5752" fill="#6AD7E5"/>
<path d="M20.7618 35.0401C20.5546 35.0401 20.3678 35.0401 20.1992 35.0302C18.6447 34.9738 14.8359 34.5439 13.1189 31.7641C11.765 29.5713 12.0059 26.5407 12.2181 23.8659C12.2723 23.1934 12.322 22.5573 12.3469 21.9566C12.3711 20.6882 12.3169 19.4195 12.1844 18.1578C11.832 15.8629 11.959 13.5198 12.5574 11.2764C12.8053 10.477 13.2171 9.73798 13.7665 9.10656C14.3159 8.47514 14.9908 7.96516 15.7483 7.60917C17.302 6.92987 18.9704 6.55127 20.6651 6.49341H20.6717C23.8742 6.49341 27.0646 6.93772 28.7031 10.1596V10.1656C29.5767 12.7523 29.9439 15.4831 29.7846 18.2086C29.7902 19.2128 29.7957 20.2517 29.8554 21.2675C29.8731 21.578 29.8941 21.8892 29.9145 22.1998C30.1052 25.1436 30.3207 28.4815 28.9662 31.1866C27.2785 34.5654 23.0177 35.0401 20.7618 35.0401ZM20.6745 6.65588C17.2614 6.92667 13.9396 7.67991 12.7094 11.3284C12.119 13.5509 11.9944 15.8716 12.3436 18.1445C12.4757 19.4129 12.529 20.6883 12.5033 21.9632C12.4726 22.6032 12.4296 23.2425 12.3745 23.8809C12.1673 26.5302 11.9252 29.5332 13.2516 31.6801C14.9282 34.3936 18.6684 34.8147 20.1992 34.8683C22.1904 34.9401 27.0159 34.7157 28.8181 31.1159C30.1527 28.45 29.9383 25.1364 29.7504 22.213L29.6912 21.2807C29.6316 20.2611 29.626 19.2194 29.6211 18.2136C29.7791 15.5103 29.4164 12.8018 28.5528 10.2353C26.9579 7.09025 23.8234 6.65699 20.6745 6.65588Z" fill="black"/>
<path fill-rule="evenodd" clip-rule="evenodd" d="M21.2509 10.9791C21.8394 14.3983 27.4371 13.498 26.633 10.0463C25.9074 6.95044 21.0553 7.80757 21.2509 10.9791Z" fill="white"/>
<path d="M23.9096 13.2134C23.5614 13.2145 23.2155 13.1581 22.8861 13.0454C22.4373 12.8971 22.039 12.626 21.7362 12.263C21.4334 11.9 21.2383 11.4595 21.173 10.9913V10.983C21.1317 10.2675 21.3696 9.56385 21.8364 9.02009C22.3033 8.47632 22.9629 8.13479 23.6764 8.06731C24.338 7.93009 25.027 8.05873 25.5945 8.42542C26.162 8.79211 26.5625 9.3674 26.7092 10.0269C26.8307 10.4564 26.8298 10.9112 26.7066 11.3402C26.5833 11.7692 26.3427 12.1552 26.0118 12.4546C25.4257 12.9531 24.6789 13.223 23.9096 13.2134ZM21.3294 10.9697C21.3917 11.4087 21.5752 11.8216 21.8593 12.1621C22.1433 12.5025 22.5168 12.7569 22.9375 12.8968C23.4389 13.0649 23.975 13.1017 24.4947 13.0038C25.0144 12.9059 25.5004 12.6765 25.9063 12.3375C26.2167 12.0562 26.4422 11.6935 26.557 11.2906C26.6719 10.8877 26.6716 10.4606 26.5562 10.0579C26.4161 9.43724 26.0372 8.89675 25.5015 8.55345C24.9658 8.21016 24.3165 8.09169 23.6941 8.2237C23.0216 8.2875 22.3999 8.60898 21.9591 9.12084C21.5183 9.6327 21.2927 10.2952 21.3294 10.9697Z" fill="black"/>
<path fill-rule="evenodd" clip-rule="evenodd" d="M14.5629 11.5323C15.3256 14.5138 20.0987 13.7467 19.9179 10.7603C19.7024 7.17925 13.8335 7.87003 14.5629 11.5323Z" fill="white"/>
<path d="M17.1095 13.4991C16.6239 13.5039 16.1448 13.3879 15.7152 13.1615C15.4087 12.995 15.1409 12.7656 14.9294 12.4882C14.718 12.2109 14.5676 11.8918 14.4883 11.5522C14.3707 11.0881 14.3888 10.5999 14.5407 10.1458C14.6925 9.69165 14.9717 9.29073 15.3449 8.99076C15.795 8.64757 16.3277 8.42912 16.8892 8.35742C17.4506 8.28572 18.0211 8.36331 18.543 8.58236C18.9679 8.76796 19.3306 9.07175 19.5877 9.45758C19.8449 9.8434 19.9858 10.295 19.9937 10.7586C20.0176 11.4268 19.7853 12.0788 19.3443 12.5813C18.9032 13.0838 18.2868 13.3987 17.6212 13.4615C17.4517 13.4873 17.281 13.4998 17.1095 13.4991ZM14.6376 11.5157C14.8018 12.1407 15.2028 12.6771 15.7557 13.0116C16.3086 13.346 16.9699 13.4521 17.5997 13.3074C18.2273 13.2495 18.8091 12.954 19.226 12.4814C19.643 12.0087 19.8636 11.3946 19.8428 10.7647C19.8362 10.3288 19.7043 9.90391 19.4628 9.54086C19.2214 9.17782 18.8806 8.89189 18.4811 8.7172C17.9849 8.50859 17.4425 8.43456 16.9085 8.50258C16.3746 8.57059 15.868 8.77825 15.44 9.1046C15.0894 9.38747 14.8275 9.76509 14.6853 10.1925C14.5432 10.62 14.5268 11.0792 14.6381 11.5157H14.6376Z" fill="black"/>
<path fill-rule="evenodd" clip-rule="evenodd" d="M21.9262 15.0874C21.9754 15.5588 21.9815 16.0335 21.9428 16.506C21.8289 16.7204 21.6057 16.7436 21.4145 16.8304C21.2838 16.8098 21.1605 16.7563 21.0563 16.6749C20.9521 16.5935 20.8703 16.4869 20.8187 16.3651C20.79 15.8301 20.8044 15.293 20.8613 14.7602L21.9262 15.0874Z" fill="white"/>
<path d="M21.4255 16.9144H21.4018C21.257 16.8913 21.1206 16.8316 21.0054 16.7409C20.8903 16.6501 20.8004 16.5314 20.7441 16.396V16.3745C20.7096 16.008 20.7128 15.6389 20.7535 15.2731C20.7668 15.104 20.7801 14.9304 20.7856 14.7547V14.6514L22.0091 15.0266V15.0863C22.0091 15.2338 22.0218 15.3858 22.034 15.5466C22.072 15.8699 22.0692 16.1967 22.0257 16.5193V16.532L22.0196 16.543C21.9725 16.6209 21.9103 16.6885 21.8367 16.742C21.763 16.7954 21.6794 16.8336 21.5908 16.8542C21.5421 16.8718 21.4968 16.8873 21.4515 16.9083L21.4261 16.9138L21.4255 16.9144ZM20.8983 16.3435C20.9438 16.4464 21.0136 16.5367 21.1017 16.6066C21.1898 16.6766 21.2935 16.7242 21.404 16.7453C21.4465 16.7276 21.4902 16.7121 21.5311 16.6967C21.6663 16.6688 21.7858 16.5906 21.8654 16.4778C21.9024 16.1726 21.9024 15.864 21.8654 15.5588C21.8536 15.4209 21.8455 15.2827 21.8411 15.1443L20.9348 14.8669C20.9276 15.0078 20.9171 15.1476 20.9072 15.2814C20.8674 15.6341 20.8637 15.99 20.8961 16.3435H20.8983ZM15.8793 11.9186C16.3242 11.9186 16.6851 11.5285 16.6851 11.0466C16.6851 10.5647 16.3242 10.174 15.8793 10.174C15.4339 10.174 15.073 10.5647 15.073 11.0466C15.073 11.5285 15.4339 11.9186 15.8793 11.9186Z" fill="black"/>
<path d="M16.2463 11.4649C16.3507 11.4649 16.4358 11.3654 16.4358 11.2433C16.4358 11.1206 16.3507 11.0217 16.2463 11.0217C16.1413 11.0217 16.0562 11.1212 16.0562 11.2433C16.0562 11.366 16.1413 11.4649 16.2463 11.4649Z" fill="white"/>
<path d="M22.6308 11.7014C23.0685 11.7014 23.4238 11.3107 23.4238 10.8288C23.4238 10.3469 23.0685 9.95621 22.6308 9.95621C22.1931 9.95621 21.8383 10.3469 21.8383 10.8288C21.8383 11.3107 22.1931 11.7014 22.6308 11.7014Z" fill="black"/>
<path d="M22.9917 11.2472C23.0945 11.2472 23.1779 11.1477 23.1779 11.0261C23.1779 10.9034 23.095 10.804 22.9917 10.804C22.8883 10.804 22.8049 10.9034 22.8049 11.0256C22.8049 11.1482 22.8883 11.2472 22.9917 11.2472Z" fill="white"/>
<path fill-rule="evenodd" clip-rule="evenodd" d="M19.6228 15.0388C19.2714 15.8904 19.8185 17.5952 20.7729 16.338C20.7445 15.8028 20.7587 15.2661 20.8154 14.7332L19.6228 15.0388Z" fill="white"/>
<path d="M20.1357 16.8685C20.0535 16.8681 19.9729 16.846 19.9019 16.8044C19.6732 16.5728 19.5176 16.279 19.4547 15.9596C19.3918 15.6402 19.4244 15.3094 19.5482 15.0084L19.5637 14.9713L20.8961 14.6276V14.7309C20.8898 14.904 20.8787 15.0769 20.8629 15.2493C20.8228 15.6041 20.8195 15.9621 20.853 16.3175V16.3507L20.8331 16.3778C20.5584 16.7519 20.3214 16.8685 20.1357 16.8685ZM19.6842 15.1073C19.5854 15.3686 19.561 15.6521 19.6137 15.9265C19.6664 16.2008 19.7941 16.4552 19.9826 16.6613C20.2291 16.8022 20.5004 16.5579 20.6883 16.3142C20.6583 15.9586 20.6628 15.6008 20.7016 15.246C20.7121 15.1123 20.7226 14.9752 20.7292 14.8398L19.6842 15.1073Z" fill="black"/>
<path fill-rule="evenodd" clip-rule="evenodd" d="M19.7433 13.3975C19.5797 13.4127 19.422 13.4666 19.2834 13.5548C19.1447 13.6429 19.029 13.7629 18.9459 13.9046C18.8627 14.0463 18.8145 14.2058 18.8052 14.3699C18.7959 14.5339 18.8257 14.6979 18.8923 14.8481C19.3432 15.6649 20.3501 14.7757 20.9784 14.8592C21.7035 14.8741 22.2921 15.6235 22.8712 14.9951C23.5156 14.2971 22.5938 13.6163 21.8726 13.3123L19.7433 13.3975Z" fill="#F6D2A2"/>
<path d="M22.3556 15.3278C22.1243 15.3097 21.8987 15.2469 21.6913 15.1426C21.468 15.0316 21.2258 14.9634 20.9773 14.9415H20.9679C20.7137 14.9415 20.4623 14.9951 20.2302 15.099C19.7218 15.2753 19.1443 15.4742 18.821 14.8918C18.7425 14.7451 18.7026 14.5809 18.7052 14.4146C18.7077 14.2483 18.7525 14.0854 18.8353 13.9412C18.9226 13.7714 19.0506 13.6258 19.2077 13.5173C19.3649 13.4089 19.5464 13.3409 19.7361 13.3195L21.8881 13.2283L21.9047 13.2361C22.4407 13.4615 23.0508 13.8755 23.1553 14.3579C23.1694 14.4745 23.1597 14.5928 23.1267 14.7055C23.0937 14.8183 23.0381 14.9231 22.9633 15.0137C22.8885 15.1043 22.796 15.1787 22.6916 15.2324C22.5871 15.2861 22.4728 15.318 22.3556 15.3261V15.3278ZM20.9845 14.7829C21.252 14.805 21.5134 14.8768 21.7543 14.9962C22.1616 15.1675 22.4799 15.3018 22.8121 14.9448C22.8863 14.8764 22.9421 14.7905 22.9743 14.6949C23.0066 14.5992 23.0143 14.4971 22.9967 14.3977C22.9066 13.9832 22.3313 13.6008 21.8571 13.3985L19.7472 13.4825C19.5853 13.5031 19.4307 13.5626 19.2968 13.6559C19.1629 13.7493 19.0537 13.8737 18.9785 14.0186C18.9088 14.1388 18.8708 14.2747 18.8681 14.4137C18.8654 14.5526 18.8981 14.6899 18.963 14.8127C19.22 15.278 19.6881 15.1178 20.1755 14.9476C20.4297 14.8348 20.706 14.7785 20.9845 14.7829Z" fill="#231F20"/>
<path fill-rule="evenodd" clip-rule="evenodd" d="M19.6615 13.3632C19.6123 12.2286 21.777 12.0888 22.0362 13.0371C22.2954 13.9849 19.7709 14.206 19.6643 13.3643L19.6615 13.3632Z" fill="black"/>
</svg>
