<svg width="42" height="42" viewBox="0 0 42 42" fill="none" xmlns="http://www.w3.org/2000/svg">
<path d="M24.5641 16.397L21.2452 19.4848L18.1656 13.2729L19.7593 9.70013C20.1738 8.9748 20.8204 8.98309 21.2245 9.70013L24.5641 16.397Z" fill="#FFA000"/>
<path d="M18.1657 13.2729L21.2452 19.4848L8.8421 31.0227L18.1657 13.2729Z" fill="#F57F17"/>
<path d="M28.1939 11.6772C28.7866 11.1072 29.4 11.302 29.5564 12.1093L32.7852 30.8693L22.0835 37.2937C21.7105 37.5009 20.7157 37.5901 20.7157 37.5901C20.7157 37.5901 19.8101 37.4823 19.4651 37.2792L8.8421 31.0227L28.1939 11.6772Z" fill="#FFCA28"/>
<path d="M18.1657 13.2729L8.84314 31.0227L12.9951 5.08186C13.1485 4.27364 13.6085 4.19592 14.0189 4.90882L18.1657 13.2729Z" fill="#FFA000"/>
</svg>
