<svg width="42" height="42" viewBox="0 0 42 42" fill="none" xmlns="http://www.w3.org/2000/svg">
<path d="M36.9544 19.5231L22.4778 5.04662C22.2796 4.8483 22.0442 4.69097 21.7852 4.58364C21.5262 4.4763 21.2485 4.42105 20.9681 4.42105C20.6877 4.42105 20.4101 4.4763 20.151 4.58364C19.892 4.69097 19.6566 4.8483 19.4584 5.04662L16.4534 8.05156L20.2666 11.8647C21.1536 11.5539 22.169 11.7663 22.8757 12.4729C23.2121 12.8099 23.4469 13.2348 23.5534 13.6989C23.6599 14.163 23.6336 14.6477 23.4777 15.0976L27.1531 18.7729C28.0421 18.4662 29.068 18.6641 29.7777 19.376C30.0137 19.612 30.2009 19.8922 30.3285 20.2006C30.4562 20.5089 30.5219 20.8394 30.5218 21.1731C30.5218 21.5069 30.456 21.8373 30.3283 22.1456C30.2005 22.4539 30.0133 22.734 29.7772 22.97C29.5412 23.206 29.261 23.3931 28.9527 23.5208C28.6443 23.6485 28.3139 23.7141 27.9801 23.7141C27.6464 23.714 27.3159 23.6483 27.0076 23.5205C26.6993 23.3927 26.4192 23.2055 26.1832 22.9695C25.4372 22.2234 25.2527 21.1251 25.6299 20.206L22.2022 16.7783V25.7983C22.451 25.9214 22.6784 26.0838 22.8757 26.2791C23.1117 26.515 23.2988 26.7951 23.4265 27.1034C23.5542 27.4117 23.62 27.7421 23.62 28.0758C23.62 28.4095 23.5542 28.7399 23.4265 29.0482C23.2988 29.3565 23.1117 29.6366 22.8757 29.8726C22.6398 30.1085 22.3596 30.2957 22.0514 30.4234C21.7431 30.5511 21.4126 30.6168 21.079 30.6168C20.7453 30.6168 20.4149 30.5511 20.1066 30.4234C19.7983 30.2957 19.5182 30.1085 19.2823 29.8726C19.046 29.6367 18.8586 29.3567 18.7307 29.0484C18.6028 28.7401 18.537 28.4096 18.537 28.0758C18.537 27.7421 18.6028 27.4115 18.7307 27.1033C18.8586 26.7949 19.046 26.5149 19.2823 26.2791C19.5278 26.0345 19.8003 25.8491 20.1143 25.7247V16.6208C19.8117 16.4964 19.5278 16.3131 19.2823 16.0664C18.9254 15.7101 18.6829 15.2556 18.5854 14.7608C18.488 14.266 18.5401 13.7535 18.7351 13.2884L14.9738 9.52914L5.04713 19.4454C4.84866 19.6437 4.6912 19.8791 4.58377 20.1382C4.47635 20.3974 4.42105 20.6752 4.42105 20.9557C4.42105 21.2362 4.47635 21.5139 4.58377 21.7731C4.6912 22.0323 4.84866 22.2677 5.04713 22.4659L19.5247 36.9414C19.7229 37.1397 19.9583 37.297 20.2173 37.4044C20.4764 37.5117 20.754 37.567 21.0344 37.567C21.3148 37.567 21.5925 37.5117 21.8515 37.4044C22.1106 37.297 22.3459 37.1397 22.5442 36.9414L36.9544 22.554C37.1528 22.3558 37.3103 22.1203 37.4177 21.8612C37.5251 21.602 37.5804 21.3243 37.5804 21.0438C37.5804 20.7632 37.5251 20.4854 37.4177 20.2263C37.3103 19.9672 37.1528 19.7318 36.9544 19.5335" fill="#F03C2E"/>
</svg>
