<svg width="42" height="42" viewBox="0 0 42 42" fill="none" xmlns="http://www.w3.org/2000/svg">
<path d="M18.9553 22.2709L23.4316 19.6737L27.8525 22.2709L23.4316 24.8132L18.9553 22.3263V22.2709ZM5.52631 14.5897L23.4316 4.42108L36.7502 11.992L32.3293 19.6737L23.4321 14.5897L10.0031 22.216L5.52631 14.5897Z" fill="#F6BD3A"/>
<path d="M18.9553 32.4395V27.3555L23.3761 24.8132L27.8525 22.2709V27.355L23.4316 29.8972V34.9813L18.9553 37.579V32.4395ZM18.9553 22.2709L14.4789 19.7286L10.0026 22.2155V17.1314L23.4316 9.50513V19.6737L18.9553 22.2709ZM32.2738 17.1314V14.5892L36.7502 11.992L36.8056 17.076L32.3293 19.6732L32.2738 17.1314Z" fill="#EB8C23"/>
<path d="M14.4789 34.8709V19.7291L18.8998 17.2423L18.9553 22.2714L23.4316 24.7583V29.8977L18.9553 27.5212V37.579L14.4789 34.8709ZM7.737 20.8897L5.52631 19.5634V14.5897L10.0026 17.1319V22.216L7.737 20.8897ZM23.4316 14.5897V9.50513L32.2738 14.5892L32.3293 19.6732L23.4321 14.5892L23.4316 14.5897Z" fill="#E35A2B"/>
</svg>
