<svg width="42" height="42" viewBox="0 0 42 42" fill="none" xmlns="http://www.w3.org/2000/svg">
<path d="M19.8015 33.6839C23.9194 32.8465 27.3198 32.1533 27.3591 32.144L27.4306 32.1267L23.5434 26.8035C21.4048 23.8759 19.6562 21.4687 19.6562 21.4548C19.6562 21.441 23.6702 8.70207 23.6933 8.65708C23.7014 8.64211 26.4328 14.0715 30.3154 21.8193L36.9755 35.1085L37.0263 35.21H12.3167L19.8015 33.6839Z" fill="#0089D6"/>
<path d="M4.97369 32.0598C4.97369 32.0529 6.80539 28.3918 9.04427 23.9244L13.1149 15.8028L17.8637 11.2212C20.4729 8.70091 22.6149 6.63506 22.6229 6.63158C22.6058 6.70801 22.5803 6.78228 22.5468 6.85302L17.3908 19.5712L12.3271 32.0633H8.64864C7.42368 32.0758 6.1986 32.0746 4.97369 32.0598Z" fill="#0089D6"/>
</svg>
