<svg width="42" height="42" viewBox="0 0 42 42" fill="none" xmlns="http://www.w3.org/2000/svg">
<path d="M26.4726 15.0961L29.3549 12.2139L29.547 11.0002C24.2947 6.22435 15.9455 6.76588 11.2107 12.1302C9.89566 13.6201 8.91993 15.4776 8.39963 17.3957L9.43194 17.2502L15.1964 16.2995L15.6414 15.8445C18.2056 13.0285 22.5411 12.6496 25.5017 15.0456L26.4726 15.0961Z" fill="#EA4335"/>
<path d="M33.4607 17.3109C32.7983 14.8712 31.4381 12.6779 29.547 11.0002L25.5017 15.0455C26.3448 15.7344 27.0204 16.6057 27.4776 17.5937C27.9349 18.5818 28.1618 19.6608 28.1412 20.7493V21.4674C30.1294 21.4674 31.7416 23.0793 31.7416 25.0676C31.7416 27.056 30.1295 28.6275 28.1412 28.6275H20.9306L20.2226 29.3961V33.7144L20.9306 34.3919H28.1411C33.313 34.4322 37.5384 30.3127 37.5787 25.1409C37.5907 23.5975 37.221 22.075 36.5026 20.7089C35.7842 19.3429 34.7392 18.1756 33.4607 17.3109Z" fill="#4285F4"/>
<path d="M13.7299 34.3921H20.9305V28.6275H13.7299C13.2202 28.6275 12.7165 28.517 12.2535 28.304L11.2319 28.6174L8.32943 31.4997L8.0766 32.4807C9.70432 33.7097 11.6903 34.4009 13.7299 34.3921Z" fill="#34A853"/>
<path d="M13.7299 15.6927C8.55805 15.7237 4.3904 19.9415 4.42122 25.1135C4.42972 26.5386 4.76342 27.9431 5.39688 29.2198C6.03037 30.4965 6.94685 31.6118 8.0766 32.4807L12.2534 28.3041C10.4414 27.4852 9.63607 25.3528 10.4548 23.5408C11.2733 21.7288 13.4061 20.9234 15.218 21.742C16.0165 22.1027 16.656 22.7423 17.0167 23.5408L21.1935 19.3639C20.3169 18.2178 19.187 17.2901 17.8922 16.6532C16.5974 16.0163 15.1728 15.6876 13.7299 15.6927Z" fill="#FBBC05"/>
</svg>
