<svg width="42" height="42" viewBox="0 0 42 42" fill="none" xmlns="http://www.w3.org/2000/svg">
<path d="M12.7105 28.7368H34.8158V22.6172L30.6165 20.208L29.892 19.8947L12.7105 20.0128V28.7368Z" fill="white"/>
<path d="M27.1146 27.9345C27.3177 27.2385 27.2404 26.6001 26.9022 26.1257C26.5929 25.6906 26.0702 25.4389 25.4424 25.4101L13.5399 25.2554C13.4626 25.2554 13.3956 25.2162 13.3564 25.1584C13.3172 25.1007 13.308 25.0244 13.3275 24.946C13.3667 24.8295 13.4822 24.7428 13.608 24.7336L25.6166 24.5789C27.0393 24.5108 28.5858 23.3599 29.126 21.9492L29.8126 20.16C29.8428 20.0865 29.85 20.0056 29.8332 19.928C29.06 16.4269 25.9362 13.8158 22.2041 13.8158C18.7607 13.8158 15.8431 16.0402 14.7977 19.1267C14.1203 18.6234 13.2512 18.3533 12.3316 18.4399C10.678 18.6049 9.34184 19.929 9.18926 21.5831C9.14919 21.9945 9.17846 22.4097 9.27586 22.8113C7.97494 22.8466 6.73926 23.3888 5.83232 24.3224C4.92539 25.2559 4.41897 26.507 4.42106 27.8087C4.42106 28.05 4.44168 28.2934 4.46951 28.5337C4.49013 28.6502 4.58601 28.7368 4.70148 28.7368H26.6692C26.7324 28.7356 26.7936 28.7144 26.844 28.6762C26.8943 28.6381 26.9313 28.5849 26.9496 28.5244L27.1146 27.9345Z" fill="#F38020"/>
<path d="M30.9007 20.4474L30.5622 20.4575C30.4828 20.4575 30.414 20.5143 30.3823 20.5893L29.9062 22.177C29.6978 22.8614 29.7771 23.489 30.1242 23.9554C30.4416 24.3832 30.978 24.6306 31.6223 24.659L34.2219 24.8111C34.3012 24.8111 34.37 24.8496 34.4102 24.9064C34.4504 24.9632 34.4599 25.0483 34.4398 25.1152C34.3996 25.2298 34.2811 25.315 34.152 25.3241L31.4435 25.4762C29.975 25.5431 28.3964 26.6746 27.842 28.0616L27.6431 28.5462C27.6029 28.6415 27.6727 28.7368 27.7806 28.7368H37.088C37.1419 28.7375 37.1945 28.7211 37.2376 28.6901C37.2807 28.6591 37.3118 28.6152 37.3261 28.5655C37.491 28.0031 37.5761 27.422 37.579 26.8378C37.5739 25.143 36.8684 23.519 35.6168 22.3215C34.3651 21.124 32.6694 20.4495 30.9007 20.4474Z" fill="#FAAE40"/>
</svg>
