<svg width="76" height="76" viewBox="0 0 76 76" fill="none" xmlns="http://www.w3.org/2000/svg">
<path d="M23 52H63V40.9264L55.4012 36.5669L54.0903 36L23 36.2135V52Z" fill="white"/>
<path d="M49.0645 50.5482C49.432 49.2886 49.2921 48.1335 48.6802 47.2751C48.1205 46.4877 47.1747 46.0323 46.0386 45.9801L24.5008 45.7002C24.3609 45.7002 24.2396 45.6293 24.1687 45.5248C24.0978 45.4203 24.0811 45.2822 24.1165 45.1404C24.1874 44.9295 24.3963 44.7728 24.6239 44.756L46.3539 44.4761C48.9283 44.3529 51.7266 42.2704 52.7042 39.7176L53.9466 36.48C54.0013 36.3471 54.0144 36.2006 53.984 36.0601C52.5848 29.7249 46.9322 25 40.1789 25C33.948 25 28.6684 29.0251 26.7768 34.6102C25.5511 33.6996 23.9784 33.2107 22.3144 33.3674C19.322 33.666 16.9043 36.062 16.6282 39.0552C16.5557 39.7995 16.6086 40.5508 16.7849 41.2776C14.4308 41.3414 12.1949 42.3225 10.5537 44.0119C8.91261 45.7012 7.99623 47.965 8.00001 50.3205C8.00001 50.7572 8.03732 51.1976 8.08769 51.6324C8.125 51.8432 8.2985 52 8.50744 52H48.2586C48.3729 51.9978 48.4836 51.9594 48.5748 51.8903C48.666 51.8213 48.7329 51.7251 48.766 51.6156L49.0645 50.5482Z" fill="#F38020"/>
<path d="M55.9156 37L55.303 37.0183C55.1594 37.0183 55.0349 37.1211 54.9775 37.2568L54.116 40.1299C53.7388 41.3683 53.8824 42.5039 54.5103 43.3478C55.0847 44.122 56.0554 44.5697 57.2213 44.6211L61.9253 44.8963C62.0688 44.8963 62.1933 44.966 62.266 45.0687C62.3388 45.1715 62.356 45.3256 62.3196 45.4466C62.2469 45.654 62.0325 45.8081 61.7989 45.8246L56.8977 46.0998C54.2404 46.2209 51.3839 48.2683 50.3807 50.7781L50.0208 51.655C49.9481 51.8275 50.0744 52 50.2697 52H67.1117C67.2092 52.0013 67.3043 51.9715 67.3823 51.9154C67.4603 51.8593 67.5166 51.78 67.5424 51.6899C67.8409 50.6723 67.9948 49.6207 68 48.5637C67.9909 45.4968 66.7142 42.5583 64.4493 40.3914C62.1845 38.2245 59.116 37.0039 55.9156 37Z" fill="#FAAE40"/>
</svg>
