<svg width="42" height="42" viewBox="0 0 42 42" fill="none" xmlns="http://www.w3.org/2000/svg">
<path d="M21.2669 4.42108L35.9023 12.6995V29.2619L21.2669 37.5414L6.63158 29.2624V12.6995L21.2669 4.42108Z" fill="white"/>
<path d="M33.29 28.6877L21.7527 35.2214V30.1405L28.9435 26.1804L33.29 28.6877ZM34.0797 27.9753V14.3242L29.8603 16.7591V25.5404L34.0797 27.9753ZM9.19966 28.6882L20.7364 35.2159V30.135L13.5461 26.1804L9.19966 28.6882ZM8.40939 27.9753V14.3242L12.6293 16.7591V25.5404L8.40995 27.9759L8.40939 27.9753ZM8.90124 13.44L20.7364 6.74597V11.6616L13.1543 15.8312L13.0935 15.8644L8.90179 13.4394L8.90124 13.44ZM33.5823 13.44L21.7527 6.74597V11.6616L29.3298 15.8362L29.3906 15.8694L33.5823 13.44Z" fill="#8ED6FB"/>
<path d="M20.7364 28.9805L13.6456 25.0762V17.3498L20.7364 21.4421V28.9805ZM21.7532 28.9805L28.8441 25.0817V17.3498L21.7527 21.4421L21.7532 28.9805ZM14.1197 16.4551L21.2443 12.5397L28.3627 16.4551L21.2443 20.5639L14.1197 16.4551Z" fill="#1C78C0"/>
</svg>
