<svg width="42" height="42" viewBox="0 0 42 42" fill="none" xmlns="http://www.w3.org/2000/svg">
<path d="M16.7175 30.0635C16.7175 30.0635 15.4512 30.8004 17.6199 31.049C20.2475 31.3491 21.5903 31.3061 24.4852 30.7589C24.4852 30.7589 25.2479 31.2357 26.3109 31.6491C19.8191 34.4302 11.6192 31.4878 16.7175 30.0635ZM15.9238 26.4336C15.9238 26.4336 14.5032 27.4853 16.6737 27.71C19.4806 27.9998 21.6969 28.0234 25.5337 27.285C25.5337 27.285 26.063 27.8229 26.8969 28.1167C19.0495 30.4117 10.3091 28.2973 15.9238 26.4336Z" fill="#0074BD"/>
<path d="M22.6106 20.2752C24.2111 22.1173 22.1909 23.7736 22.1909 23.7736C22.1909 23.7736 26.2522 21.6774 24.3874 19.0514C22.6452 16.6036 21.3096 15.3878 28.5406 11.194C28.5406 11.194 17.1898 14.0283 22.6106 20.2752Z" fill="#EA2D2E"/>
<path d="M31.1962 32.7488C31.1962 32.7488 32.1336 33.5217 30.1634 34.1192C26.4174 35.254 14.5691 35.5961 11.2784 34.1646C10.0961 33.6498 12.3141 32.936 13.0119 32.7854C13.7395 32.6279 14.1549 32.6566 14.1549 32.6566C12.8393 31.7303 5.65121 34.4762 10.5044 35.2638C23.7385 37.4091 34.6284 34.2977 31.1962 32.7488ZM17.3272 22.6719C17.3272 22.6719 11.301 24.1035 15.1933 24.6238C16.8371 24.8438 20.1123 24.7933 23.1653 24.5372C25.6596 24.3277 28.1626 23.88 28.1626 23.88C28.1626 23.88 27.2839 24.257 26.6475 24.691C20.5267 26.3011 8.70549 25.5511 12.109 23.9053C14.9864 22.5137 17.3272 22.6719 17.3272 22.6719ZM28.1377 28.7143C34.3591 25.4823 31.4823 22.3763 29.4743 22.7947C28.9834 22.897 28.7632 22.9859 28.7632 22.9859C28.7632 22.9859 28.946 22.6993 29.2945 22.576C33.2665 21.1802 36.3208 26.6941 28.0133 28.8782C28.0133 28.8782 28.1087 28.7913 28.1377 28.7143Z" fill="#0074BD"/>
<path d="M24.3874 4.42108C24.3874 4.42108 27.8322 7.86795 21.1193 13.1665C15.736 17.4183 19.8919 19.8419 21.1175 22.6122C17.9748 19.7771 15.6696 17.2809 17.2159 14.958C19.4865 11.5488 25.777 9.89528 24.3874 4.42108Z" fill="#EA2D2E"/>
<path d="M17.9386 37.4749C23.909 37.8567 33.0797 37.2625 33.2967 34.4371C33.2967 34.4371 32.8795 35.5082 28.3621 36.358C23.2657 37.3175 16.9786 37.2056 13.251 36.5901C13.251 36.5901 14.0147 37.2226 17.9386 37.4749Z" fill="#0074BD"/>
</svg>
