<svg width="42" height="42" viewBox="0 0 42 42" fill="none" xmlns="http://www.w3.org/2000/svg">
<path d="M27.3917 27.5067C28.6153 27.3796 29.5431 26.3251 29.5011 25.0596C29.4591 23.7941 28.4042 22.7817 27.1386 22.7817H27.0541C25.7466 22.8237 24.7341 23.9201 24.7761 25.2282C24.8181 25.8609 25.0712 26.4097 25.4509 26.7894C24.0168 29.6161 21.8229 31.6829 18.5319 33.4126C16.2966 34.5942 13.9761 35.0158 11.6561 34.7207C9.75781 34.4676 8.28118 33.6238 7.35276 32.2317C6.00268 30.1648 5.87613 27.9283 7.01566 25.6924C7.81697 24.0892 9.0825 22.9077 9.88381 22.3175C9.71526 21.7687 9.46216 20.8408 9.3356 20.1655C3.21853 24.5954 3.85129 30.5865 5.70758 33.4126C7.10021 35.5226 9.92637 36.8301 13.0482 36.8301C13.8921 36.8301 14.7354 36.7456 15.5792 36.535C20.9796 35.48 25.0712 32.2742 27.3917 27.5067ZM34.8169 22.2749C31.6105 18.5209 26.8855 16.4529 21.4858 16.4529H20.8104C20.6162 16.0719 20.3203 15.7519 19.9556 15.5286C19.5908 15.3052 19.1713 15.1872 18.7436 15.1874H18.6591C17.351 15.2294 16.3386 16.3264 16.3811 17.6345C16.4231 18.9 17.4781 19.9124 18.7436 19.9124H18.8276C19.2718 19.8907 19.701 19.7448 20.0664 19.4913C20.4317 19.2378 20.7186 18.8868 20.8944 18.4783H21.6543C24.8607 18.4783 27.8979 19.4068 30.6401 21.2205C32.7495 22.6131 34.2681 24.4269 35.112 26.6203C35.8293 28.3925 35.7868 30.1223 35.0274 31.5989C33.8465 33.8349 31.8636 35.0584 29.248 35.0584C27.5603 35.0584 25.9577 34.5522 25.1138 34.1725C24.6496 34.5942 23.8057 35.2689 23.2149 35.6911C25.0292 36.535 26.8855 36.9992 28.6573 36.9992C32.7075 36.9992 35.7028 34.7627 36.8417 32.5268C38.0653 30.0797 37.9802 25.8604 34.8169 22.2749ZM13.3858 28.2234C13.4278 29.489 14.4823 30.5019 15.7478 30.5019H15.8323C17.1404 30.4594 18.1528 29.3624 18.1103 28.0549C18.0683 26.7894 17.0139 25.7769 15.7483 25.7769H15.6638C15.5792 25.7769 15.4527 25.7769 15.3687 25.8189C13.6389 22.9502 12.9216 19.8284 13.1747 16.4529C13.3433 13.9219 14.1872 11.7279 15.6638 9.91365C16.8873 8.35246 19.2498 7.59315 20.853 7.55115C25.3243 7.46715 27.2226 13.0355 27.3497 15.2714C27.8979 15.3985 28.8258 15.6936 29.4591 15.9047C28.9524 9.07033 24.7341 5.52631 20.6839 5.52631C16.8873 5.52631 13.3858 8.26846 11.9932 12.3181C10.0529 17.719 11.3184 22.9077 13.6809 27.0005C13.4698 27.2956 13.3438 27.7592 13.3858 28.2234Z" fill="#764ABC"/>
</svg>
