<svg width="42" height="42" viewBox="0 0 42 42" fill="none" xmlns="http://www.w3.org/2000/svg">
<path d="M33.5663 11.1772L23.1221 4.97629C22.5128 4.6129 21.8166 4.42105 21.1072 4.42105C20.3977 4.42105 19.7014 4.6129 19.0921 4.97629L8.6457 11.1772C8.02802 11.5498 7.51767 12.0764 7.16464 12.7055C6.81157 13.3346 6.62793 14.0445 6.63163 14.7659V27.1657C6.62826 27.8867 6.81212 28.5962 7.16514 29.2249C7.51816 29.8535 8.02835 30.3798 8.6457 30.7523L19.0899 36.9511C19.6993 37.3143 20.3956 37.5061 21.105 37.5061C21.8144 37.5061 22.5107 37.3143 23.1201 36.9511L33.5642 30.7523C34.1823 30.3799 34.6931 29.8534 35.0465 29.2243C35.3999 28.5953 35.5839 27.8851 35.5804 27.1636V14.7659C35.5841 14.0445 35.4005 13.3346 35.0474 12.7055C34.6944 12.0764 34.184 11.5498 33.5663 11.1772Z" fill="white"/>
<path d="M33.6258 11.1922L23.1585 4.97764C22.5478 4.61341 21.85 4.42112 21.139 4.42112C20.428 4.42112 19.7302 4.61341 19.1194 4.97764L8.65012 11.1922C8.03106 11.5656 7.5196 12.0933 7.1658 12.7238C6.81195 13.3543 6.62793 14.0658 6.63163 14.7888V27.2158C6.62826 27.9384 6.81251 28.6495 7.1663 29.2796C7.5201 29.9096 8.03139 30.4371 8.65012 30.8104L19.1174 37.0228C19.7281 37.3868 20.4259 37.5789 21.1368 37.5789C21.8478 37.5789 22.5456 37.3868 23.1563 37.0228L33.6236 30.8104C34.243 30.4372 34.7549 29.9095 35.1091 29.279C35.4633 28.6485 35.6477 27.9368 35.6441 27.2136V14.7888C35.6479 14.0658 35.4638 13.3543 35.11 12.7238C34.7562 12.0934 34.2448 11.5656 33.6258 11.1922ZM19.4842 36.3877L9.0169 30.1753C8.50837 29.8671 8.08826 29.4326 7.79741 28.914C7.5065 28.3954 7.35475 27.8103 7.35696 27.2157V14.7889C7.35458 14.1942 7.50623 13.6091 7.79713 13.0905C8.08804 12.5719 8.50826 12.1374 9.0169 11.8294L19.4842 5.61474C19.9843 5.31643 20.5557 5.15892 21.1379 5.15892C21.7202 5.15892 22.2917 5.31643 22.7917 5.61474L33.2506 11.8293C33.6765 12.0873 34.0411 12.4351 34.3187 12.8485C34.5964 13.2619 34.7805 13.731 34.8582 14.2229C34.5102 13.4831 33.7284 13.2797 32.8166 13.8037L22.9216 19.9322C21.6871 20.6512 20.7775 21.4624 20.7754 22.9505V35.1533C20.7754 36.044 21.1338 36.6204 21.6871 36.7902C21.5059 36.8234 21.3222 36.841 21.1379 36.8426C20.5558 36.8422 19.9846 36.6851 19.4842 36.3877Z" fill="#2F3A3E"/>
<path d="M30.8536 28.3905L28.252 29.9464C28.2179 29.9601 28.1885 29.9834 28.1674 30.0135C28.1462 30.0435 28.1342 30.0791 28.1328 30.1158V30.7997C28.1328 30.8834 28.1892 30.9168 28.2582 30.877L30.8997 29.271C30.9643 29.2224 30.9953 29.1409 30.9791 29.0617V28.4616C30.977 28.3841 30.9164 28.3508 30.8536 28.3905Z" fill="#3AB14A"/>
<path d="M25.3173 22.6619C25.4009 22.62 25.47 22.6619 25.472 22.781L25.4803 23.6887C25.7931 23.5466 26.1422 23.5042 26.4799 23.5674C26.5449 23.5842 26.572 23.672 26.5469 23.7766L26.3482 24.5734C26.3332 24.6335 26.3021 24.6884 26.2583 24.7323C26.243 24.7475 26.2253 24.7601 26.206 24.7699C26.1824 24.7827 26.1552 24.7872 26.1287 24.7825C25.7993 24.7096 25.4545 24.7649 25.1645 24.9372C24.9567 25.0308 24.7795 25.1812 24.6534 25.371C24.5273 25.5608 24.4573 25.7824 24.4514 26.0102C24.4514 26.4284 24.6606 26.5435 25.3904 26.556C26.3546 26.5729 26.7728 26.9931 26.7833 27.9656C26.772 28.4672 26.6516 28.9602 26.4306 29.4106C26.2095 29.8609 25.8932 30.2577 25.5034 30.5735L25.5202 31.4644C25.5195 31.5189 25.5051 31.5723 25.4784 31.6199C25.4517 31.6674 25.4135 31.7075 25.3674 31.7364L24.8405 32.0395C24.7568 32.0813 24.6876 32.0395 24.6857 31.9224V31.0462C24.2339 31.2344 23.7759 31.2783 23.4831 31.1612C23.4286 31.1402 23.4037 31.0587 23.4266 30.9646L23.617 30.1595C23.6315 30.0957 23.6641 30.0376 23.711 29.9921C23.7259 29.9779 23.7429 29.9658 23.7613 29.9565C23.7748 29.9504 23.7893 29.9473 23.8042 29.9473C23.8189 29.9473 23.8336 29.9504 23.847 29.9565C24.2198 30.0575 24.6174 30.0073 24.9533 29.8165C25.1911 29.7018 25.393 29.5243 25.5372 29.3031C25.6813 29.0819 25.7622 28.8255 25.7711 28.5617C25.7711 28.1099 25.5221 27.9217 24.9345 27.9174C24.1754 27.9174 23.4705 27.7711 23.4559 26.6626C23.4645 26.1844 23.5788 25.714 23.7907 25.2851C24.0026 24.8563 24.3068 24.4796 24.6814 24.1822L24.6438 23.2704C24.6437 23.2152 24.6576 23.1609 24.6843 23.1127C24.711 23.0644 24.7496 23.0237 24.7964 22.9945L25.3173 22.6619Z" fill="white"/>
</svg>
