<svg width="42" height="42" viewBox="0 0 42 42" fill="none" xmlns="http://www.w3.org/2000/svg">
<path d="M33.6266 11.19L23.1578 4.97527C22.5467 4.61227 21.849 4.42081 21.1383 4.42105C20.4275 4.42129 19.73 4.61323 19.1192 4.97665L8.65024 11.19C8.03129 11.5635 7.51994 12.0913 7.16609 12.7217C6.81224 13.3521 6.6281 14.0636 6.63164 14.7865V27.2146C6.63164 28.6971 7.40124 30.0691 8.65162 30.8111L19.1206 37.0244C19.7313 37.3874 20.4286 37.5789 21.1392 37.5789C21.8496 37.5789 22.547 37.3874 23.1578 37.0244L33.6266 30.8111C34.2459 30.4377 34.7576 29.91 35.1116 29.2796C35.4657 28.6492 35.6501 27.9376 35.6467 27.2146V14.7865C35.6503 14.0634 35.4661 13.3517 35.112 12.7213C34.7579 12.0908 34.246 11.5632 33.6266 11.19ZM25.519 30.5969L25.537 31.4895C25.5384 31.5973 25.4679 31.7202 25.3836 31.7631L24.8544 32.067C24.7702 32.1098 24.7011 32.0573 24.6997 31.9496L24.69 31.0722C24.2368 31.2601 23.7781 31.3057 23.4852 31.1883C23.43 31.1662 23.4065 31.0846 23.4286 30.9921L23.6206 30.1852C23.6352 30.1212 23.6683 30.0631 23.716 30.018C23.7308 30.0038 23.7476 29.9918 23.7657 29.9821C23.7961 29.9669 23.8251 29.9627 23.8514 29.9738C24.1677 30.0802 24.5712 30.0304 24.9594 29.8343C25.4527 29.5841 25.7829 29.0812 25.7774 28.5811C25.7733 28.1279 25.5273 27.9386 24.9304 27.9345C24.1705 27.9359 23.4604 27.7866 23.4493 26.6675C23.4397 25.7459 23.9191 24.787 24.6776 24.1804L24.6679 23.2796C24.6666 23.1691 24.7342 23.0475 24.8213 23.0033L25.3325 22.6772C25.4168 22.6344 25.4859 22.6868 25.4873 22.7974L25.4956 23.6997C25.8727 23.549 26.2016 23.5089 26.4986 23.5781C26.5636 23.5947 26.5912 23.6831 26.565 23.7867L26.366 24.5853C26.3508 24.6457 26.3198 24.701 26.2762 24.7456C26.2607 24.761 26.243 24.774 26.2237 24.7843C26.1998 24.7977 26.1718 24.8021 26.145 24.7967C26.0096 24.7663 25.6862 24.6958 25.1792 24.9528C24.6472 25.2222 24.4607 25.6851 24.4648 26.0277C24.469 26.4381 24.679 26.5625 25.4058 26.5749C26.3729 26.5915 26.7915 27.0143 26.8012 27.9884C26.8109 28.9403 26.3011 29.9683 25.519 30.5969ZM31.0084 29.0951C31.0084 29.178 30.9973 29.2553 30.9283 29.2954L28.281 30.9037C28.2119 30.9437 28.1566 30.9092 28.1566 30.8263V30.1437C28.1566 30.0608 28.2078 30.0152 28.2768 29.9752L30.884 28.4153C30.9531 28.3752 31.0084 28.4097 31.0084 28.4926V29.0951ZM32.8267 13.811L22.9229 19.9277C21.6877 20.6503 20.7771 21.46 20.7771 22.9494V35.1537C20.7771 36.0448 21.1364 36.6224 21.6891 36.7896C21.5077 36.8234 21.3237 36.8415 21.1392 36.8434C20.5588 36.8434 19.9883 36.6859 19.4853 36.3875L9.01641 30.1741C8.50799 29.8659 8.08799 29.4313 7.7972 28.9127C7.5064 28.3942 7.35476 27.8091 7.35703 27.2146V14.7865C7.35703 13.5693 7.99261 12.4349 9.01641 11.827L19.4853 5.61219C19.9857 5.31469 20.557 5.15765 21.1392 5.15765C21.7213 5.15765 22.2927 5.31469 22.793 5.61219L33.2619 11.827C33.6878 12.0849 34.0523 12.4327 34.3301 12.846C34.6079 13.2593 34.7921 13.7282 34.8702 14.22C34.522 13.4795 33.74 13.2777 32.8267 13.811Z" fill="#8B8B8B"/>
</svg>
