<svg width="42" height="42" viewBox="0 0 42 42" fill="none" xmlns="http://www.w3.org/2000/svg">
<path d="M21.2144 4.97369H21.2896C21.6723 5.15535 22.0451 5.35716 22.4064 5.57827L34.8865 12.7293C35.047 12.8147 35.1782 12.9464 35.263 13.1072C35.3478 13.268 35.3824 13.4505 35.3623 13.6312C35.3535 18.6557 35.3623 23.6797 35.3568 28.7015C35.3027 28.9415 35.1556 29.1504 34.9479 29.2823C30.524 31.8189 26.1002 34.3549 21.6753 36.8887C21.568 36.9702 21.4389 37.0177 21.3044 37.0253C21.1699 37.0329 21.0362 37.0002 20.9204 36.9313C16.4927 34.4025 12.0679 31.8685 7.64621 29.3293C7.50281 29.2617 7.38259 29.1533 7.30068 29.0176C7.21877 28.8819 7.17882 28.725 7.18587 28.5666V13.4969C7.17495 13.3393 7.21149 13.182 7.29078 13.0452C7.37006 12.9085 7.48847 12.7987 7.63073 12.7299C11.7854 10.3502 15.9401 7.96896 20.0948 5.58601C20.465 5.37601 20.8281 5.15219 21.2144 4.97369Z" fill="#019639"/>
<path d="M12.7105 14.4856V26.9446C12.7056 27.1754 12.7472 27.4047 12.8329 27.619C12.9185 27.8333 13.0464 28.0281 13.209 28.1919C13.5246 28.4962 13.9336 28.685 14.3699 28.7279C14.8061 28.7709 15.2441 28.6653 15.613 28.4285C15.8589 28.2632 16.0606 28.0422 16.1998 27.7835C16.339 27.5258 16.4119 27.2375 16.4121 26.9446C16.4121 23.9383 16.4065 20.932 16.4121 17.9268C19.1994 21.2081 21.9924 24.4847 24.7911 27.7565C25.1819 28.1448 25.6634 28.4297 26.192 28.5854C26.7223 28.7427 27.2834 28.7663 27.825 28.6539C28.2062 28.5807 28.5542 28.3881 28.8186 28.1041C29.0807 27.8225 29.2444 27.4636 29.2851 27.0811C29.2906 22.8425 29.2906 18.6049 29.2851 14.3679C29.244 13.9137 29.0325 13.492 28.6932 13.1874C28.3506 12.8798 27.9063 12.7099 27.4459 12.7105C26.9839 12.7105 26.5396 12.8807 26.1986 13.1874C25.8594 13.492 25.6481 13.9138 25.6073 14.3679C25.6073 17.4217 25.5885 20.4722 25.6073 23.525C22.8696 20.3517 20.1661 17.1509 17.4394 13.9661C17.0777 13.5112 16.6017 13.1605 16.06 12.9498C15.5158 12.7376 14.9255 12.6719 14.348 12.7591C13.9118 12.8063 13.5064 13.0066 13.204 13.3245C12.9047 13.6392 12.7291 14.0517 12.7105 14.4856Z" fill="white"/>
</svg>
