<svg width="42" height="42" viewBox="0 0 42 42" fill="none" xmlns="http://www.w3.org/2000/svg">
<path d="M12.3425 18.7738C12.3425 18.7738 7.18346 22.4051 6.98169 23.7884L7.36881 23.7089C7.36881 23.7089 13.5468 19.6139 18.444 19.1165L18.5551 18.4948L12.3427 18.7755L12.3425 18.7738ZM20.4413 18.2549L16.3795 21.1371L16.5991 21.3134C16.7649 21.1797 23.8176 19.0258 23.8176 19.0258L25.3047 18.0936C24.307 18.2179 20.4435 18.2549 20.4435 18.2549H20.4413ZM23.973 21.7411C26.8585 21.7411 31.184 18.9151 31.184 18.9151L29.7857 18.649C29.7166 18.7181 27.531 18.5724 27.531 18.5724L26.4935 18.2842L24.0149 21.1086L23.8131 21.5987C23.9914 21.5262 23.973 21.7411 23.973 21.7411ZM33.3891 30.7538L32.4977 31.0048L28.379 30.9157L25.8026 28.9122L22.6884 29.6914L19.0865 29.3797L17.0695 31.5837L13.2848 32.7144L11.3952 32.1285L11.3 32.0466L12.1482 34.1234C12.1482 34.1234 14.0694 36.1832 15.1423 36.4254C16.2153 36.6676 18.1539 36.408 19.6079 36.1829C21.0619 35.9577 22.2214 35.4368 22.6886 34.5908C23.1558 33.7448 23.2251 33.5002 23.2251 33.5002C23.2251 33.5002 24.6099 35.456 25.8041 35.6812C26.9983 35.9063 30.5465 34.6944 30.5465 34.6944C30.5465 34.6944 32.7101 34.1058 33.0907 33.3618C33.4714 32.6177 34.4756 30.1786 34.4756 30.1786L33.3891 30.7556V30.7538ZM11.7914 32.4458L11.7317 32.4183L11.398 32.1305L11.7914 32.4458Z" fill="#CB3349"/>
<path d="M36.888 16.0404L36.8548 15.7072L36.8192 15.4711C36.5219 15.2208 36.1842 14.9986 35.8324 14.7963C35.4511 14.5737 35.0525 14.3742 34.6453 14.1891L33.4085 13.6574L32.7789 13.4125L32.1431 13.1764L33.4719 13.4649L34.324 13.7098C32.316 8.46169 27.515 5.04395 22.2733 5.04395C17.0315 5.04395 12.2303 8.46169 10.2227 13.7098C10.505 13.6216 10.7892 13.539 11.0744 13.4649C11.5142 13.3518 11.9569 13.2504 12.4037 13.1764L11.767 13.4125L11.1355 13.6572C10.7178 13.8256 10.3039 13.9982 9.89875 14.1889C9.49257 14.3741 9.09351 14.5735 8.71236 14.7962C8.36089 14.9984 8.02318 15.2209 7.72476 15.4709C7.71232 15.5467 7.69989 15.6284 7.6916 15.707C7.67834 15.8176 7.6659 15.9288 7.65844 16.0403C7.63888 16.2641 7.63092 16.4884 7.6291 16.7134C7.62462 17.1632 7.65496 17.6129 7.71199 18.0563C7.77333 18.5026 7.85523 18.9459 7.97642 19.3743C8.03611 19.589 8.10375 19.8007 8.182 20.0056C8.2213 20.1079 8.26407 20.2087 8.30867 20.3067C8.33066 20.3548 8.35349 20.4026 8.37714 20.4499L8.40565 20.5043L8.50629 20.554L8.7059 20.6494L9.09849 20.8317C9.10562 20.8258 9.11241 20.8195 9.11888 20.8128L8.74834 19.4015C8.82693 19.3799 9.53053 19.1984 10.7431 18.9676C10.6436 18.949 10.5465 18.9278 10.4493 18.9046C10.1733 18.836 9.90058 18.7521 9.63697 18.6453C9.50434 18.5901 9.37701 18.5298 9.254 18.4605C9.13098 18.3898 9.00996 18.3099 8.91628 18.2038C10.2486 18.6385 13.0013 18.4416 15.4484 18.1889C17.6865 17.9584 19.9297 17.8087 22.1844 17.8043C24.4395 17.8087 26.6834 17.9584 28.9204 18.1889C31.3685 18.4417 34.1213 18.6387 35.4534 18.2038C35.3599 18.3099 35.239 18.39 35.116 18.4605C34.9921 18.5293 34.8643 18.591 34.7334 18.6453C34.4694 18.7522 34.1972 18.836 33.921 18.9046C33.88 18.9146 33.8388 18.9233 33.7978 18.9321C35.1274 19.1788 35.9017 19.3793 35.9842 19.4013L35.6298 20.7442L35.8453 20.649L36.0446 20.5537L36.1452 20.504L36.1727 20.4496C36.1973 20.4025 36.2204 20.3548 36.2422 20.3064C36.287 20.2085 36.3297 20.1074 36.3689 20.0053C36.4473 19.8004 36.5151 19.5886 36.5744 19.374C36.6955 18.9454 36.7775 18.5019 36.8389 18.0559C36.8961 17.6108 36.9261 17.161 36.9218 16.713C36.9201 16.4882 36.9118 16.2654 36.8919 16.0399L36.888 16.0404Z" fill="#F4EDAE"/>
<path d="M23.7831 34.7041L23.2549 34.7663L22.9134 34.7832L22.8733 34.784L23.1916 34.0645L23.7831 34.7041ZM24.1666 35.0951C24.7144 35.6375 25.3931 35.9482 26.1402 36.0036C24.8851 36.5132 23.7027 36.7099 22.7917 36.7712C21.8835 36.832 20.9627 36.7248 20.0605 36.4777C20.1261 36.4655 20.1921 36.455 20.2583 36.4462C20.3324 36.4373 21.9503 36.2262 22.6796 35.1418H22.7481H22.9272C23.0482 35.1418 23.1584 35.1319 23.2743 35.1274C23.5459 35.1038 23.8159 35.0649 24.083 35.0108L24.1666 35.0937V35.0951Z" fill="#E6CCAD"/>
<path d="M25.719 18.8563L25.5453 19.079C25.2248 19.4842 24.7803 20.0024 24.2531 20.5092L22.3624 20.4799C21.2914 20.4799 20.2644 20.5081 19.2892 20.5557C20.6653 19.9837 22.3225 19.4253 24.1137 19.0898C24.6372 18.9906 25.1747 18.9114 25.7175 18.8563H25.719ZM17.6544 19.4734C17.1626 19.8189 16.6071 20.2599 16.0684 20.7947C14.689 20.9328 13.4857 21.1001 12.4928 21.2589C14.0193 20.5573 15.761 19.9116 17.6544 19.4717V19.4734ZM34.5085 22.3213L33.9475 26.2472L31.2597 28.1298L24.2496 27.3328L23.1944 23.8579C23.1695 23.775 23.0982 23.7111 23.0107 23.697C22.7509 23.6551 22.5211 23.6337 22.3296 23.6337C22.1381 23.6337 21.9085 23.6553 21.6474 23.697C21.5609 23.7113 21.4899 23.7733 21.464 23.8579L20.4361 27.2483L13.4652 28.7995L10.7011 26.864L10.1569 22.4586L10.5176 22.2597L11.0937 22.1429L11.6067 26.2998C11.6107 26.3318 11.6215 26.3627 11.6382 26.3902C11.6549 26.4179 11.6773 26.4417 11.7038 26.4601L13.6041 27.7917C13.6432 27.8182 13.6897 27.8325 13.7359 27.8325C13.7525 27.8325 13.7691 27.8308 13.7867 27.827L19.518 26.5518C19.5378 26.5473 19.557 26.5404 19.575 26.5312C19.602 26.517 19.6259 26.4976 19.6453 26.474C19.6647 26.4505 19.6793 26.4233 19.6881 26.3941L20.7201 22.9958C20.997 22.9245 21.7061 22.7587 22.3293 22.7587C22.951 22.7587 23.6606 22.9245 23.9374 22.9958L24.9695 26.3941C24.996 26.4823 25.0729 26.5453 25.1645 26.5561L30.8958 27.2071C30.9513 27.2133 31.008 27.1989 31.0536 27.167L32.9552 25.8366C32.9806 25.818 33.0021 25.7946 33.0184 25.7676C33.0347 25.7407 33.0455 25.7108 33.0502 25.6797L33.5579 22.1285L34.5083 22.3228L34.5085 22.3213ZM35.2164 19.8594L34.723 21.7328C33.7141 21.5103 31.4974 21.0738 28.4804 20.78C29.4662 20.3597 30.4699 19.8325 31.3867 19.1718C33.1822 19.4255 34.5002 19.6974 35.2164 19.8594Z" fill="#656C67"/>
<path d="M15.005 25.7151C15.3958 25.5038 15.8373 25.5352 16.5303 25.536L16.7624 25.5352L16.971 25.5315C17.6832 25.5246 18.2757 25.5922 18.2651 24.4738C18.2545 23.3554 17.7575 22.4515 17.0459 22.4586C16.3335 22.4648 15.6443 23.3811 15.6869 24.4988C15.6985 24.7899 15.7413 25 15.81 25.1515C15.1891 25.307 15.018 25.691 15.0084 25.7152L15.005 25.7151ZM23.5692 21.1144C23.2932 21.3382 23.0022 21.5454 22.6988 21.7298L21.688 22.3399C21.054 22.4172 20.5038 22.574 20.4728 22.5831C20.4542 22.5881 20.4363 22.5964 20.4202 22.6063C20.3712 22.6345 20.334 22.6818 20.3158 22.738L19.2862 26.13L13.7845 27.3536L12.0517 26.14L11.5477 22.0559C12.5318 21.8735 13.8478 21.666 15.4271 21.4889C15.2577 21.692 15.0932 21.9047 14.9372 22.128L13.996 23.4792L15.3665 22.5657C15.3869 22.5515 16.2596 21.9772 17.6872 21.2792C19.11 21.1724 20.6802 21.1035 22.3605 21.1035L23.5674 21.1151L23.5692 21.1144Z" fill="#E5CAA3"/>
<path d="M29.5937 25.2566C29.5867 25.2301 29.437 24.7803 28.7743 24.8592C28.8506 24.693 28.8848 24.4686 28.8605 24.1629C28.773 23.0472 28.1239 22.1602 27.4124 22.1851C26.7008 22.2099 26.2449 23.135 26.2842 24.2538C26.3233 25.3712 26.9208 25.3636 27.6324 25.3385C28.589 25.3208 29.1145 25.0269 29.5937 25.2585V25.2566ZM33.1051 22.0428L32.609 25.5151L30.8616 26.7386L25.3674 26.1143L24.3423 22.7383C24.3309 22.7016 24.3107 22.6683 24.2833 22.6413C24.256 22.6142 24.2224 22.5944 24.1856 22.5835C24.1516 22.5735 23.4714 22.3795 22.7499 22.317L22.8817 22.3082C22.9956 22.3 24.8907 22.0678 27.1536 21.2875C29.6595 21.4798 31.706 21.788 33.1051 22.0428Z" fill="#E5CAA3"/>
<path d="M15.005 25.7151C15.3958 25.5038 15.8373 25.5352 16.5303 25.536L16.7624 25.5352L16.971 25.5315C17.6832 25.5246 18.2757 25.5922 18.2651 24.4738C18.2545 23.3554 17.7575 22.4515 17.0459 22.4586C16.3335 22.4648 15.6443 23.3811 15.6869 24.4988C15.6985 24.7899 15.7413 25 15.81 25.1515C15.1891 25.307 15.018 25.691 15.0084 25.7152L15.005 25.7151ZM23.5692 21.1144C23.2932 21.3382 23.0022 21.5454 22.6988 21.7298L21.688 22.3399C21.054 22.4172 20.5038 22.574 20.4728 22.5831C20.4542 22.5881 20.4363 22.5964 20.4202 22.6063C20.3712 22.6345 20.334 22.6818 20.3158 22.738L19.2862 26.13L13.7845 27.3536L12.0517 26.14L11.5477 22.0559C12.5318 21.8735 13.8478 21.666 15.4271 21.4889C15.2577 21.692 15.0932 21.9047 14.9372 22.128L13.996 23.4792L15.3665 22.5657C15.3869 22.5515 16.2596 21.9772 17.6872 21.2792C19.11 21.1724 20.6802 21.1035 22.3605 21.1035L23.5674 21.1151L23.5692 21.1144Z" fill="#C7B39A"/>
<path d="M29.5937 25.2566C29.5867 25.2301 29.437 24.7803 28.7743 24.8592C28.8506 24.693 28.8848 24.4686 28.8605 24.1629C28.773 23.0472 28.1239 22.1602 27.4124 22.1851C26.7008 22.2099 26.2449 23.135 26.2842 24.2538C26.3233 25.3712 26.9208 25.3636 27.6324 25.3385C28.589 25.3208 29.1145 25.0269 29.5937 25.2585V25.2566ZM33.1051 22.0428L32.609 25.5151L30.8616 26.7386L25.3674 26.1143L24.3423 22.7383C24.3309 22.7016 24.3107 22.6683 24.2833 22.6413C24.256 22.6142 24.2224 22.5944 24.1856 22.5835C24.1516 22.5735 23.4714 22.3795 22.7499 22.317L22.8817 22.3082C22.9956 22.3 24.8907 22.0678 27.1536 21.2875C29.6595 21.4798 31.706 21.788 33.1051 22.0428Z" fill="#C7B39A"/>
<path d="M35.5033 23.57C35.5875 23.6397 35.6525 23.8194 35.5789 24.6573C35.486 25.6832 35.055 27.484 34.7881 27.7741C34.4933 27.8312 33.8754 27.7635 33.4986 27.6755C33.5637 27.4169 33.5823 27.2932 33.6348 27.0289L34.2938 26.568C34.3197 26.5499 34.3415 26.5268 34.3581 26.5C34.3746 26.4731 34.3855 26.4432 34.39 26.412L34.8506 23.1848C35.1301 23.336 35.4174 23.4996 35.5033 23.57ZM11.208 27.7821L11.3114 28.1303C10.9567 28.2344 10.2346 28.3342 9.90804 28.2771C9.63731 28.0044 9.13214 26.1275 9.02189 25.1308C8.93187 24.3234 8.99504 24.1487 9.0771 24.0807C9.17243 24.0006 9.52938 23.7975 9.83857 23.6319L10.2564 27.0223C10.2643 27.0874 10.299 27.145 10.3535 27.1826L11.208 27.7821ZM24.5375 27.8295L24.5126 28.0459C24.5126 28.0459 23.7533 28.7501 22.5304 28.908C21.3076 29.0658 20.347 28.3141 20.347 28.3141C20.3871 28.4448 20.4441 28.7397 20.721 28.9915C20.3952 28.9526 20.0434 28.9264 19.6744 28.9264C19.5416 28.9265 19.4089 28.9299 19.2763 28.9365C18.5236 28.9758 17.4652 30.1136 16.7208 31.2599L13.8925 32.1281C12.659 30.4205 12.0525 28.6727 11.9909 28.492L11.9917 28.491L11.9187 28.2808L12.2359 28.5026V28.5034L13.0194 29.0506L13.2814 29.2329C13.3205 29.2606 13.3667 29.2749 13.413 29.2749C13.43 29.2748 13.4469 29.2731 13.4636 29.2697L20.6646 27.6665C20.7454 27.6488 20.8105 27.5881 20.8346 27.509L21.8615 24.1269C22.0389 24.1029 22.1944 24.0905 22.328 24.0905C22.4616 24.0905 22.6175 24.1029 22.7947 24.1269L23.8514 27.608C23.8783 27.6962 23.9549 27.7605 24.0454 27.77L24.5378 27.8264L24.5375 27.8295ZM32.759 27.6425L32.9914 27.4794L32.8676 27.9595C32.5443 28.9953 32.163 29.9115 31.7394 30.7209C31.6401 30.7277 31.5405 30.731 31.4409 30.731C31.114 30.731 30.7801 30.7033 30.4106 30.6697L28.43 30.4569L26.4174 28.8629L26.3336 28.7932C26.1949 28.6759 26.0352 28.5424 25.7174 28.5424C25.4273 28.5424 25.0032 28.6482 23.9766 28.9582C24.5091 28.5603 24.5126 28.0459 24.5126 28.0459L24.5375 27.8295L31.2931 28.5976C31.3489 28.6037 31.4051 28.5896 31.4514 28.5577L32.757 27.6428L32.759 27.6425Z" fill="#E6CCAD"/>
<path d="M27.7869 13.4295C27.8075 14.0305 27.7924 15.1196 27.5125 16.1394C27.5013 16.1787 27.5029 16.2189 27.5125 16.2561L26.4439 16.1566C26.8437 15.3187 26.9309 14.4264 26.9498 14.1121C27.2569 13.8937 27.5626 13.632 27.7871 13.428L27.7869 13.4295ZM17.5942 14.1134C17.6127 14.4278 17.6999 15.3182 18.0992 16.1554L17.0315 16.2543C17.0411 16.2178 17.0423 16.1785 17.0315 16.1392C16.752 15.1212 16.7377 14.0313 16.7573 13.4294C16.9816 13.6333 17.2875 13.8936 17.5942 14.1134Z" fill="#EBD599"/>
<path d="M29.5937 25.2566C29.1129 25.0252 28.589 25.3191 27.6327 25.3369C26.9212 25.3617 26.3236 25.3697 26.2845 24.2521C26.2452 23.1335 26.7011 22.2086 27.4127 22.1834C28.1243 22.1582 28.7733 23.0455 28.8609 24.1613C28.8849 24.4686 28.8509 24.6929 28.7747 24.8576C29.4372 24.7785 29.587 25.2281 29.5937 25.2548V25.2566ZM27.3575 23.619C27.5581 23.6145 27.7181 23.4489 27.7146 23.2484C27.7111 23.048 27.5455 22.887 27.3441 22.8915C27.2963 22.8923 27.2492 22.9025 27.2054 22.9216C27.1615 22.9407 27.122 22.9682 27.0888 23.0026C27.0557 23.037 27.0296 23.0777 27.0122 23.1221C26.9948 23.1666 26.9863 23.2141 26.9873 23.2618C26.9906 23.4621 27.1564 23.6226 27.3575 23.619Z" fill="#2D3136"/>
<path d="M27.3574 23.6175C27.5582 23.6138 27.718 23.448 27.7144 23.2472C27.7107 23.0463 27.5449 22.8865 27.3441 22.8901C27.1432 22.8938 26.9834 23.0596 26.987 23.2605C26.9907 23.4613 27.1565 23.6212 27.3574 23.6175Z" fill="#EDF6FA"/>
<path d="M18.2618 24.4738C18.2723 25.5924 17.6799 25.5249 16.9677 25.5315L16.7591 25.5352C16.6823 25.5373 16.6055 25.5376 16.5287 25.536C15.8377 25.5352 15.3958 25.5039 15.0034 25.7151C15.013 25.691 15.1858 25.3072 15.805 25.1514C15.7364 24.9999 15.6934 24.79 15.682 24.4987C15.6394 23.3812 16.3286 22.4644 17.041 22.4585C17.7534 22.4525 18.2496 23.3554 18.2602 24.4738H18.2618ZM17.162 23.8886C17.3626 23.8836 17.5209 23.7156 17.5156 23.5155C17.5102 23.3143 17.3432 23.1558 17.1426 23.1612C16.9412 23.1662 16.7825 23.3337 16.7878 23.5343C16.7931 23.7357 16.9607 23.8939 17.162 23.8886Z" fill="#2D3136"/>
<path d="M17.1618 23.8893C17.3628 23.8841 17.5215 23.7171 17.5163 23.5161C17.5112 23.3153 17.3441 23.1566 17.1432 23.1617C16.9422 23.1669 16.7836 23.3339 16.7887 23.5349C16.7938 23.7358 16.961 23.8945 17.1618 23.8893Z" fill="#EDF6FA"/>
<path opacity="0.8" d="M12.8266 16.881C12.8266 16.881 12.9372 15.4399 13.1631 14.8877C13.2795 14.603 13.9914 14.4235 14.5352 14.2909C15.079 14.1582 15.9457 13.9026 16.1142 14.6662C16.2826 15.4298 16.554 15.9864 16.7352 16.2322L16.5025 13.0872L12.7603 13.9946L12.5144 16.7774L12.631 16.9974L12.8249 16.8808L12.8266 16.881ZM31.7523 16.881C31.7523 16.881 31.6419 15.4399 31.4157 14.8877C31.2992 14.603 30.5873 14.4235 30.0438 14.2909C29.5004 14.1582 28.6346 13.9026 28.4645 14.6662C28.2944 15.4298 28.0245 15.9864 27.8431 16.2322L28.0764 13.0872L31.8169 13.9931L32.0628 16.776L31.9463 16.996L31.7523 16.8795" fill="#EBD599"/>
<path opacity="0.75" d="M26.4652 7.46794C26.4652 7.46794 26.3661 15.0114 24.6044 15.0114H20.0242C18.2625 15.0114 18.1202 7.47291 18.1202 7.47291L17.2532 10.0307L17.2672 13.5426L17.8818 14.0312L18.1612 15.5392L18.5519 16.4191L26.0924 16.433L26.4414 15.803L26.7348 14.742L26.7769 14.0717L27.6097 11.6942L26.4638 7.46661L26.4652 7.46794ZM32.0134 14.5001C32.0134 14.5001 32.376 17.1016 33.3354 17.5708L31.992 17.1656L32.0134 14.5001ZM12.5295 14.5001C12.5295 14.5001 12.1669 17.1016 11.2073 17.5708L12.5509 17.1656L12.5295 14.5001Z" fill="#EBD599"/>
<path d="M32.2715 17.1537C32.7283 17.3032 33.1877 17.4617 33.6038 17.7049C33.3812 17.6167 33.1512 17.5535 32.9198 17.4965L32.2235 17.3433L30.8146 17.1233L29.3977 16.9701L27.9764 16.8624C26.0788 16.7456 24.1759 16.7165 22.2733 16.7145C20.3695 16.7155 18.4664 16.751 16.5701 16.8632C16.0956 16.8907 15.6226 16.9295 15.149 16.971C14.6755 17.0108 14.2031 17.0618 13.7321 17.124C13.2601 17.1812 12.7908 17.2559 12.3233 17.344C12.0894 17.3879 11.8568 17.4386 11.6259 17.4963C11.3938 17.5534 11.1645 17.6165 10.9419 17.7047C11.3564 17.4617 11.8173 17.3024 12.2748 17.1527C12.3133 17.1402 12.3523 17.1295 12.3914 17.1172C12.3889 17.1072 12.3861 17.0984 12.3843 17.0878C12.3763 17.0353 12.2069 15.7847 12.5003 13.9967C12.5146 13.9111 12.5759 13.8417 12.6598 13.8185L13.1434 13.6809C13.2485 9.92988 14.7933 8.16571 14.8416 8.11133C13.4612 10.3324 13.4738 12.9666 13.4977 13.5801L16.5031 12.7259C16.5058 12.7251 16.5074 12.7251 16.5101 12.7243C16.5227 12.7216 16.535 12.7198 16.5476 12.719C16.5509 12.719 16.5559 12.718 16.56 12.718C16.5765 12.7174 16.593 12.7189 16.6092 12.7224C16.6117 12.7224 16.6142 12.7241 16.618 12.7251C16.6305 12.7277 16.6421 12.7321 16.6552 12.7375C16.6606 12.7402 16.6641 12.743 16.6694 12.7458C16.6795 12.7514 16.6894 12.7576 16.6988 12.7644C16.7014 12.766 16.7044 12.767 16.7071 12.7699C16.7087 12.7715 16.7104 12.7735 16.7124 12.7752C16.715 12.7778 16.7185 12.7796 16.7213 12.7825C16.79 12.8504 16.8597 12.9173 16.9305 12.9831C16.9004 11.9928 16.9475 9.15199 18.3003 6.79911C18.2718 6.88167 17.1985 10.0201 17.5683 13.5376C17.6878 13.6338 17.811 13.725 17.9379 13.811C17.9673 13.8312 17.9914 13.8581 18.0083 13.8896C18.0251 13.921 18.0343 13.9561 18.0349 13.9917C18.0359 14.0033 18.0614 15.1246 18.5568 16.0783C18.5637 16.0926 18.569 16.1077 18.5737 16.1228C19.8055 16.0391 21.0403 16.0067 22.2728 16.0044C23.5056 16.0052 24.7397 16.0409 25.971 16.1254C25.9753 16.109 25.9814 16.0932 25.9893 16.0782C26.4843 15.1244 26.5102 14.0032 26.5102 13.9916C26.5118 13.9193 26.5483 13.8518 26.6097 13.8092C26.7359 13.7227 26.859 13.6314 26.9784 13.5356C27.3488 10.0181 26.2754 6.87968 26.2489 6.79712C27.6006 9.15133 27.6488 11.9923 27.6187 12.9811L27.8276 12.7821C27.8302 12.7795 27.8342 12.7776 27.8363 12.7748C27.8383 12.7732 27.8393 12.7715 27.8418 12.7695C27.8443 12.7675 27.8473 12.7659 27.8501 12.764C27.86 12.7571 27.87 12.7508 27.8794 12.7445C27.8841 12.7428 27.8884 12.74 27.8927 12.7374C27.9054 12.7319 27.9185 12.7275 27.9318 12.7241C27.9345 12.7241 27.9373 12.7224 27.9401 12.7224C27.9562 12.7188 27.9727 12.7173 27.9892 12.718C27.9937 12.718 27.9975 12.719 28.0008 12.719C28.0136 12.7198 28.0263 12.7216 28.0389 12.7243C28.0409 12.7253 28.0436 12.7253 28.0459 12.7259L31.0517 13.5801C31.0759 12.9666 31.0881 10.3306 29.7081 8.11133C29.7578 8.16571 31.2997 9.93004 31.4053 13.6809L31.8897 13.8185C31.9305 13.8301 31.967 13.853 31.9953 13.8845C32.0235 13.9161 32.0422 13.955 32.0492 13.9967C32.3438 15.7849 32.1739 17.0353 32.1666 17.0878C32.1649 17.098 32.1626 17.1081 32.1596 17.118L32.2768 17.1537H32.2715ZM31.7249 16.9932C31.7481 16.7931 31.8576 15.7 31.6255 14.2079L28.2251 13.241C28.2556 13.8171 28.2691 15.0667 27.9421 16.2584C27.9377 16.2731 27.9322 16.2874 27.9254 16.3012C27.959 16.3045 27.993 16.3073 28.0258 16.3118C28.9824 16.4212 29.9324 16.5744 30.8774 16.781C31.1612 16.8469 31.4454 16.9174 31.7269 16.9937L31.7249 16.9932ZM27.5139 16.1394C27.7937 15.1197 27.809 14.0305 27.7883 13.4295C27.5639 13.6334 27.2582 13.8937 26.951 14.1134C26.9321 14.4277 26.8449 15.32 26.445 16.1579L27.5137 16.2574C27.5033 16.2193 27.5033 16.179 27.5137 16.1408L27.5139 16.1394ZM18.1004 16.1556C17.7011 15.3184 17.6139 14.4277 17.5954 14.1136C17.2873 13.8954 16.9826 13.6336 16.7581 13.4297C16.7382 14.0315 16.7528 15.1217 17.0323 16.1395C17.0431 16.1788 17.042 16.2179 17.0323 16.2546L18.1004 16.1556ZM16.6194 16.2988C16.6128 16.2856 16.6074 16.272 16.6031 16.2579C16.2757 15.0664 16.2881 13.817 16.3193 13.2405L12.9168 14.2076C12.688 15.6967 12.7948 16.7911 12.8178 16.9923C13.1001 16.9157 13.3815 16.8453 13.6683 16.7795C14.1383 16.6754 14.6121 16.5881 15.0868 16.5079C15.5626 16.4287 16.0396 16.3681 16.5169 16.3103C16.5509 16.3058 16.5839 16.3033 16.6177 16.2987L16.6194 16.2988ZM25.8581 7.56671V10.3893H23.8574V9.56464H23.4064V13.3745H24.0862V15.5049H20.588V13.3745H21.2664V9.56464H20.8188V10.3894H18.8194V7.56655H25.86L25.8581 7.56671ZM25.257 9.78962V8.16488H19.4156V9.78962H20.214V8.96498H21.8659V13.976H21.1862V14.9054H23.4849V13.976H22.8051V8.96482H24.4571V9.78945H25.2553L25.257 9.78962Z" fill="#2D3136"/>
<path d="M19.4155 9.78929V8.16455H25.2553V9.78929H24.4569V8.96465H22.8049V13.9756H23.4847V14.9051H21.1862V13.9756H21.8659V8.96482H20.2141V9.78945L19.4155 9.78929Z" fill="#CB3349"/>
<path d="M9.50979 19.8594L10.6786 19.6157L9.64707 20.3778L9.50979 19.8594Z" fill="#656C67"/>
<path d="M20.1876 27.5951C20.1876 27.5951 20.2692 28.1198 19.5348 28.3445C18.8003 28.5691 14.1496 29.9553 13.6191 29.8802C13.0885 29.8051 11.7423 28.9063 11.7423 28.9063L11.4157 27.7452L13.4078 28.9872L20.1876 27.5951ZM24.3543 27.4935C24.3543 27.4935 24.2956 28.021 25.039 28.2138C25.7824 28.4067 30.4893 29.5891 31.0157 29.4911C31.5421 29.3931 32.8481 28.4367 32.8481 28.4367L33.1239 27.2622L31.2927 28.3544L24.3543 27.4935Z" fill="#C7B39A"/>
<path d="M9.13147 26.6296C9.13147 26.6296 9.77589 27.9186 10.8169 27.4723L11.5605 27.745L11.4862 28.2921L9.92444 28.4902L9.50334 28.2425L9.13147 26.631V26.6296ZM35.5149 26.2758C35.5149 26.2758 34.4616 27.6211 33.4206 27.175L33.0857 27.3909L33.16 27.938L34.7217 28.1362L35.1428 27.8884L35.5149 26.2776V26.2758ZM19.2227 36.4025C19.2227 36.4025 23.0409 38.3257 27.364 35.7082L25.9757 35.6137C25.9757 35.6137 22.9464 36.8127 20.5481 36.15L19.2227 36.4025Z" fill="#C7B39A"/>
<path d="M23.0933 32.8556L23.3576 33.1706C23.3635 33.1783 23.9506 33.8769 24.6683 34.5885C25.1458 35.0615 25.7222 35.3009 26.383 35.3009C26.6085 35.3009 26.8456 35.2718 27.0852 35.2142L27.7959 35.0434L30.1896 34.4504C30.2866 34.4228 30.3948 34.3981 30.5087 34.3721C31.1611 34.2212 32.0555 34.0135 32.5292 33.064L33.7224 30.7496C33.4135 30.8922 33.0897 31.048 32.8598 31.1674C32.5053 31.3536 32.0411 31.4438 31.441 31.4438C31.0842 31.4438 30.7337 31.4139 30.3459 31.3791C29.5708 31.3078 28.2593 31.1536 28.2459 31.1516L28.1454 31.1405L28.0661 31.077C28.0545 31.0684 26.9051 30.1528 25.9762 29.4225L25.8734 29.3374C25.7739 29.254 25.7739 29.254 25.7172 29.254C25.4193 29.254 24.5534 29.5226 22.6564 30.1107L22.5399 30.1476L22.4255 30.1045C22.4126 30.1002 21.168 29.6403 19.6767 29.6403C19.5559 29.6403 19.4351 29.6434 19.3144 29.6496C19.1652 29.6572 18.3267 30.0554 17.2545 31.7518L17.1849 31.8607L17.0622 31.9002C17.0445 31.9063 15.1991 32.502 13.2421 33.0615L13.1151 33.0977L12.9949 33.0418C12.9821 33.0368 12.2163 32.6814 11.4879 32.3465C11.8853 32.9334 12.3934 33.6658 12.8407 34.2401C13.6216 35.246 14.6064 36.1756 16.4937 36.1756C16.7432 36.1749 16.9924 36.1603 17.2403 36.1316C19.1601 35.9144 19.6546 35.8271 19.9207 35.7807C20.0108 35.7654 20.0821 35.7525 20.1731 35.7412C20.1877 35.7395 21.7597 35.5361 22.201 34.5465L22.7514 33.2782L22.9119 32.85C22.9119 32.85 22.9318 32.7389 22.9645 32.7046L22.9684 32.7079C23.019 32.7444 23.094 32.8575 23.094 32.8575L23.0933 32.8556ZM11.1356 13.6556C10.7184 13.8237 10.304 13.9971 9.89877 14.1877C9.49258 14.3734 9.09369 14.5724 8.71254 14.7945C8.36107 14.9971 8.02335 15.2194 7.72543 15.4703C7.71267 15.5457 7.70056 15.6281 7.69062 15.7062L7.65613 16.0394C7.63624 16.2626 7.62861 16.4876 7.62629 16.7125C7.62198 17.1623 7.65282 17.6121 7.70952 18.0574C7.77119 18.5037 7.85276 18.9477 7.97378 19.3758C8.03397 19.5905 8.10094 19.8024 8.17986 20.0065C8.21849 20.1097 8.26143 20.21 8.30619 20.3079C8.32819 20.356 8.35101 20.4037 8.37466 20.4511L8.40318 20.5051C8.43634 20.5223 8.46977 20.5389 8.50348 20.5549L8.70342 20.65L9.09568 20.8313C9.10331 20.8251 9.11027 20.8183 9.11624 20.8124L8.74653 19.4015C8.82445 19.3799 9.52856 19.1981 10.7413 18.9671C10.6418 18.9489 10.544 18.9277 10.447 18.9041C10.1715 18.8356 9.89827 18.7516 9.63499 18.645C9.50452 18.5893 9.3747 18.5289 9.25202 18.4593C9.12934 18.3897 9.00831 18.3093 8.91464 18.2028C10.2464 18.6392 12.999 18.4419 15.4461 18.1899C17.6842 17.959 19.927 17.8097 22.1818 17.8044C24.4365 17.8094 26.681 17.9586 28.9178 18.1899C31.3665 18.4422 34.1193 18.6397 35.4509 18.2045C35.3574 18.3109 35.2365 18.3905 35.1137 18.461C34.9908 18.5314 34.8614 18.5906 34.7307 18.6466C34.4663 18.7531 34.1942 18.8373 33.9178 18.9058L33.7952 18.9333C35.1248 19.1797 35.899 19.3804 35.9813 19.4028L35.6268 20.7469L35.8403 20.6517L36.0405 20.5565L36.1409 20.5068L36.1684 20.4528C36.1927 20.4056 36.2159 20.3578 36.2379 20.3095C36.2827 20.2117 36.3254 20.1112 36.3651 20.0081C36.4434 19.8013 36.5118 19.5908 36.57 19.3774C36.691 18.9492 36.7736 18.5054 36.8344 18.0591C36.8918 17.6138 36.922 17.1638 36.9176 16.7142C36.916 16.4894 36.9074 16.2644 36.8885 16.0411C36.879 15.9295 36.8669 15.8189 36.8531 15.7079C36.8433 15.6289 36.8315 15.5503 36.8178 15.4719C36.5199 15.2211 36.1829 14.9989 35.8307 14.7962C35.4494 14.574 35.0509 14.3751 34.6437 14.1894C34.2395 13.9987 33.8242 13.8255 33.4069 13.6572L32.7769 13.4125L32.1411 13.1766C32.588 13.2504 33.0314 13.3523 33.4696 13.4651C33.7557 13.5396 34.0399 13.6215 34.3219 13.7106C32.3158 8.46203 27.5129 5.04445 22.2715 5.04445C17.0289 5.04445 12.2286 8.46203 10.2212 13.7106C10.5034 13.6222 10.7876 13.539 11.0726 13.4652C11.5119 13.3528 11.9549 13.2507 12.4022 13.1768L11.7652 13.4127C11.5542 13.4913 11.3442 13.5728 11.1354 13.6572L11.1356 13.6556ZM37.5674 16.6922C37.5916 17.1753 37.5786 17.6592 37.5246 18.14C37.474 18.6198 37.383 19.0953 37.256 19.5666C37.1899 19.8023 37.1122 20.0346 37.0232 20.2626C36.9777 20.3775 36.9288 20.4919 36.874 20.6058C36.847 20.6634 36.8181 20.72 36.7873 20.7757L36.7402 20.8606C36.723 20.8914 36.7092 20.9146 36.6826 20.9558L36.6338 21.0315L36.5575 21.0708C36.4842 21.1085 36.41 21.1446 36.3351 21.1791L36.1199 21.2761C35.976 21.3372 35.8312 21.3961 35.6855 21.4526L35.41 21.5644L35.1706 22.4741L34.9578 22.4218L34.9449 22.517C35.2092 22.6551 35.7284 22.9351 35.9053 23.0812C36.2614 23.3755 36.2866 23.8417 36.2076 24.7126C36.1671 25.1597 36.0186 26.0299 35.813 26.8292C35.4575 28.2049 35.2687 28.3666 35.025 28.4291C34.8619 28.4698 34.6945 28.4911 34.5263 28.4926C34.1506 28.4926 33.6388 28.503 33.2945 28.4196C33.2061 28.7326 32.9538 29.549 32.4543 30.5686C32.4791 30.5565 32.504 30.5462 32.5264 30.5342C33.1426 30.2106 34.3268 29.6947 34.3769 29.6721L35.3125 29.2656L34.8317 30.1667C34.8206 30.1863 33.7932 32.1185 33.1638 33.3802C32.5388 34.6299 31.3675 34.9021 30.6662 35.063L30.3789 35.1334C29.8757 35.275 28.857 35.518 27.9584 35.7341C27.9478 35.7367 27.9368 35.7395 27.9257 35.741C27.3728 36.0826 26.7695 36.3876 26.1095 36.638C23.6943 37.5528 21.1486 37.5014 18.8406 36.6532L17.3165 36.8351C17.0421 36.8664 16.7662 36.8825 16.4901 36.8833C14.291 36.8833 13.1255 35.7666 12.2749 34.6733C11.3642 33.5025 10.2502 31.7644 10.203 31.6916L9.56055 30.6864L10.6523 31.1772L13.1731 32.3377L13.2795 32.3069C12.5406 31.2529 11.9347 30.0513 11.5064 28.7202C11.1425 28.8299 10.582 28.915 10.146 28.915C9.9868 28.915 9.84389 28.903 9.73414 28.8772C9.49043 28.8215 9.21223 28.5864 8.8339 27.2533C8.61423 26.4794 8.45026 25.6345 8.40235 25.1996C8.30785 24.3508 8.32509 23.8959 8.67789 23.6021C8.8906 23.4247 9.60797 23.0477 9.75668 22.9704L9.72485 22.7085C7.44525 24.0481 6.07914 25.2318 6.05146 25.256L4.42108 26.6869L5.58244 24.8555C6.50157 23.404 7.56329 22.2307 8.54012 21.3268L8.42407 21.2781L8.20854 21.1811C8.13477 21.1466 8.06762 21.1148 7.98638 21.0728L7.91012 21.0335L7.86121 20.9578C7.83369 20.9163 7.82176 20.8934 7.80368 20.8626L7.75395 20.7777L7.66807 20.6078C7.61474 20.4951 7.5655 20.3806 7.52052 20.2644C7.43149 20.0364 7.35379 19.8041 7.28775 19.5684C7.16009 19.0971 7.06973 18.6234 7.01917 18.1418C6.96612 17.661 6.95219 17.1769 6.97606 16.694C6.98905 16.4525 7.0122 16.2116 7.04553 15.9721C7.06277 15.8519 7.08084 15.7317 7.10488 15.6124C7.12909 15.4886 7.15777 15.3658 7.19076 15.2441L7.21646 15.1506L7.28344 15.0981C7.66376 14.7993 8.07392 14.5737 8.49105 14.3736C8.8334 14.214 9.1825 14.0693 9.53734 13.9399C10.5226 11.2055 12.2168 8.78085 14.4431 7.09112C16.7454 5.34453 19.4522 4.42108 22.2716 4.42108C25.091 4.42108 27.7981 5.34453 30.0999 7.09129C32.3264 8.78118 34.0208 11.2062 35.0053 13.9396C35.3589 14.07 35.7082 14.2114 36.0524 14.3739C36.4693 14.5739 36.8813 14.7995 37.2598 15.0984L37.3268 15.151L37.3527 15.2445C37.3864 15.3659 37.415 15.4888 37.4384 15.6127C37.4621 15.7319 37.4819 15.8519 37.4976 15.9725C37.5317 16.2118 37.5548 16.4525 37.567 16.694L37.5674 16.6922ZM35.5787 24.655C35.6543 23.8175 35.5883 23.6371 35.5033 23.5684C35.4182 23.4971 35.1308 23.3343 34.8509 23.1821L34.39 26.4091C34.3855 26.4403 34.3747 26.4703 34.3581 26.4972C34.3416 26.524 34.3197 26.5472 34.2939 26.5652L33.6345 27.0261C33.5823 27.2902 33.5632 27.4149 33.4991 27.6732C33.8759 27.7608 34.4938 27.8287 34.7881 27.7719C35.0553 27.4821 35.4869 25.6832 35.5787 24.655ZM34.7233 21.7292L35.2168 19.8558C34.5009 19.6936 33.1826 19.4222 31.3871 19.1681C30.4703 19.8272 29.4669 20.3543 28.4808 20.7746C31.4981 21.068 33.7148 21.505 34.7233 21.7273V21.7292ZM33.9474 26.2448L34.5086 22.3195L33.5586 22.1256L33.0513 25.6771C33.0418 25.7398 33.0073 25.7973 32.9559 25.8335L31.054 27.1636C31.0083 27.1956 30.9525 27.2099 30.897 27.2039L25.1653 26.5523C25.1206 26.5474 25.0783 26.5295 25.0437 26.5008C25.0091 26.4721 24.9836 26.434 24.9704 26.391L23.938 22.9923C23.6614 22.921 22.9515 22.7552 22.3305 22.7552C21.7065 22.7552 20.9975 22.921 20.721 22.9923L19.6885 26.391C19.6795 26.4201 19.6649 26.447 19.6455 26.4704C19.6261 26.4938 19.6023 26.5131 19.5754 26.5273C19.5582 26.5367 19.5384 26.5435 19.5185 26.548L13.7882 27.8256C13.77 27.8292 13.7547 27.8311 13.7375 27.8311C13.6904 27.8313 13.6445 27.8168 13.6061 27.7896L11.705 26.4583C11.652 26.4213 11.6165 26.363 11.6081 26.2978L11.0958 22.1412L10.5188 22.2577L10.1584 22.4588L10.7022 26.8635L13.4652 28.7991L20.4362 27.2483L21.4652 23.8579C21.4776 23.8165 21.5014 23.7793 21.5339 23.7507C21.5664 23.7221 21.6062 23.7032 21.6489 23.6963C21.9099 23.6543 22.138 23.6329 22.3313 23.6329C22.5225 23.6329 22.7518 23.6545 23.0119 23.6963C23.0994 23.71 23.1705 23.7725 23.1956 23.8579L24.251 27.3322L31.2609 28.1293L33.9484 26.2464L33.9474 26.2448ZM32.6094 25.5136L33.1055 22.0407C31.7062 21.786 29.6604 21.478 27.1541 21.2857C24.8916 22.0661 22.9966 22.2983 22.8824 22.3061L22.7503 22.3156C23.4719 22.3776 24.1519 22.5715 24.186 22.5817C24.2609 22.604 24.3193 22.6612 24.3425 22.7363L25.3681 26.1128L30.862 26.7368L32.6094 25.5136ZM32.9912 27.4774L32.7585 27.6404L31.4531 28.5556C31.4066 28.5874 31.3503 28.602 31.2949 28.5958L24.0479 27.7719C24.0033 27.7667 23.9611 27.7487 23.9267 27.7199C23.8921 27.6911 23.8668 27.6529 23.8538 27.6099L22.7965 24.1286C22.6198 24.1046 22.4626 24.0922 22.3323 24.0922C22.198 24.0922 22.0422 24.1043 21.8653 24.1286L20.8387 27.5094C20.8147 27.5883 20.7495 27.6487 20.6688 27.6663L13.4657 29.2729C13.4491 29.2762 13.4321 29.2778 13.4152 29.2779C13.3687 29.2779 13.3223 29.2641 13.2829 29.236L13.0212 29.0539L12.2377 28.5056V28.504L11.9227 28.2827C11.9451 28.354 11.9708 28.4236 11.9957 28.4929L11.9947 28.4939C12.0557 28.6749 12.6625 30.4207 13.8958 32.1296L16.7237 31.2619C17.4677 30.1151 18.5269 28.9778 19.2798 28.9385C19.4124 28.9321 19.5452 28.9287 19.678 28.9284C20.0277 28.9295 20.377 28.9513 20.7242 28.9936C20.4473 28.7421 20.3904 28.4468 20.3501 28.3163C20.3501 28.3163 21.3106 29.0673 22.5336 28.9105C23.7568 28.7525 24.5164 28.0477 24.5164 28.0477C24.5164 28.0477 24.5131 28.562 23.9799 28.9601C25.0048 28.6501 25.4289 28.5439 25.7191 28.5439C26.039 28.5439 26.197 28.6779 26.3353 28.7959C26.3618 28.8175 26.3887 28.8404 26.4194 28.8656L28.432 30.4595L30.4121 30.6722C30.7818 30.7053 31.1158 30.7339 31.4428 30.7339C31.5484 30.7339 31.6472 30.7295 31.7407 30.7234C32.1648 29.9144 32.5459 28.9975 32.8694 27.9625C32.9133 27.803 32.9544 27.6426 32.9926 27.4816L32.9912 27.4774ZM30.4988 18.9238C30.4971 18.9229 30.4955 18.9219 30.4938 18.9219L28.8647 18.8141L26.5989 18.7033C26.5142 18.8279 26.4272 18.9509 26.338 19.0722C25.9268 19.6285 25.1114 20.6472 24.066 21.5143C25.5458 21.249 28.1129 20.5925 30.3333 19.0432L30.4988 18.9238ZM25.5456 19.0774L25.7187 18.8552C25.1812 18.9097 24.6463 18.9876 24.1155 19.0886C22.3227 19.4242 20.6671 19.9822 19.2911 20.5537C20.3149 20.5038 21.3398 20.4786 22.3648 20.4783C23.0127 20.4783 23.6427 20.4894 24.2555 20.5075C24.7827 20.0008 25.227 19.4826 25.5473 19.0774H25.5456ZM26.1403 36.002C25.3938 35.9469 24.7149 35.6364 24.1669 35.094L24.0837 35.0091C23.8164 35.063 23.5462 35.102 23.2745 35.1258C23.1588 35.1301 23.049 35.1402 22.928 35.1402L22.7484 35.1419L22.68 35.1402C21.9512 36.2245 20.3324 36.4355 20.2586 36.445C20.1918 36.4526 20.1369 36.4621 20.0613 36.4758C20.9636 36.7228 21.8843 36.8303 22.7925 36.7693C23.7031 36.7084 24.8856 36.511 26.1403 36.002ZM23.2556 34.7652C23.4307 34.7514 23.6066 34.7291 23.7835 34.7025C23.5823 34.4931 23.3851 34.2799 23.1919 34.0631L22.8736 34.7826H22.9139C23.023 34.7828 23.1425 34.7708 23.2556 34.7652ZM22.6995 21.7288C23.0024 21.546 23.2934 21.3366 23.5699 21.1134L22.3633 21.1015C20.8038 21.1017 19.2449 21.1603 17.6899 21.2774C16.2641 21.9754 15.3895 22.5493 15.3692 22.5639L13.9984 23.4781L14.9401 22.1269C15.0954 21.9026 15.2601 21.6899 15.4302 21.4874C13.8492 21.6642 12.5327 21.8737 11.5507 22.0548L12.0544 26.1385L13.7874 27.3521L19.2889 26.1289L20.3188 22.7362C20.336 22.6803 20.3735 22.6334 20.4227 22.6047C20.4389 22.5943 20.4565 22.5865 20.475 22.5815C20.5068 22.5729 21.0552 22.4157 21.6912 22.3386L22.7015 21.7285L22.6995 21.7288ZM23.3322 18.614L22.1819 18.6037L20.4925 18.6219L19.453 19.1143C19.4522 19.1152 19.4464 19.1177 19.4385 19.1223C19.2823 19.1986 17.9175 19.8871 16.6333 21.1151C17.7844 20.51 19.4759 19.7195 21.4666 19.1065C22.0629 18.9238 22.6883 18.7556 23.3322 18.614ZM16.0678 20.7944C16.6066 20.2598 17.1628 19.8186 17.6539 19.4736C15.7614 19.9129 14.0193 20.5584 12.4932 21.2605C13.4863 21.1 14.6888 20.9326 16.0678 20.7944ZM16.4259 19.1448C17.06 18.9671 17.7141 18.8116 18.3844 18.6813L15.5008 18.8153L13.8321 18.9258L13.002 18.9996C12.9231 19.0072 12.8458 19.0159 12.7669 19.0261C12.0424 19.4595 9.26429 21.2036 7.35721 23.4842C9.21074 22.196 12.4393 20.2606 16.4259 19.1448ZM11.3113 28.1306C11.2751 28.015 11.2408 27.8989 11.2083 27.7821L10.3525 27.1833C10.326 27.1649 10.3036 27.141 10.2869 27.1133C10.2701 27.0857 10.2594 27.0548 10.2554 27.0227L9.83825 23.6323C9.52922 23.7981 9.17228 24.0011 9.07695 24.0811C8.99455 24.149 8.93188 24.3231 9.02124 25.1308C9.13199 26.1256 9.63665 28.0045 9.90788 28.2775C10.2342 28.3351 10.9568 28.2347 11.3113 28.1306ZM10.6788 19.6157L9.50999 19.8594L9.64759 20.3778C9.98188 20.1111 10.3256 19.8569 10.6788 19.6157Z" fill="#2D3136"/>
</svg>
