<svg width="42" height="42" viewBox="0 0 42 42" fill="none" xmlns="http://www.w3.org/2000/svg">
<path fill-rule="evenodd" clip-rule="evenodd" d="M21 11.0526C16.5789 11.0526 13.8158 13.2631 12.7105 17.6842C14.3684 15.4737 16.3026 14.6447 18.5132 15.1973C19.7744 15.5123 20.6758 16.4279 21.6736 17.4404C23.2989 19.0903 25.1803 21 29.2895 21C33.7105 21 36.4737 18.7895 37.5789 14.3684C35.921 16.5789 33.9868 17.4079 31.7763 16.8552C30.5151 16.5402 29.6137 15.6247 28.6159 14.6122C26.9905 12.9623 25.1091 11.0526 21 11.0526ZM12.7105 21C8.28947 21 5.52631 23.2105 4.42105 27.6316C6.07895 25.421 8.01316 24.5921 10.2237 25.1447C11.4849 25.4603 12.3863 26.3753 13.3841 27.3878C15.0095 29.0377 16.8909 30.9474 21 30.9474C25.4211 30.9474 28.1842 28.7368 29.2895 24.3158C27.6316 26.5263 25.6974 27.3552 23.4868 26.8026C22.2256 26.4876 21.3242 25.5721 20.3264 24.5595C18.7011 22.9097 16.8197 21 12.7105 21Z" fill="#38BDF8"/>
</svg>
