<svg width="76" height="76" viewBox="0 0 76 76" fill="none" xmlns="http://www.w3.org/2000/svg">
<path fill-rule="evenodd" clip-rule="evenodd" d="M38 20C30 20 25 24 23 32C26 28 29.5 26.5 33.5 27.5C35.7822 28.07 37.4133 29.7267 39.2189 31.5589C42.16 34.5444 45.5644 38 53 38C61 38 66 34 68 26C65 30 61.5 31.5 57.5 30.5C55.2178 29.93 53.5867 28.2733 51.7811 26.4411C48.84 23.4556 45.4356 20 38 20ZM23 38C15 38 10 42 8 50C11 46 14.5 44.5 18.5 45.5C20.7822 46.0711 22.4133 47.7267 24.2189 49.5589C27.16 52.5444 30.5644 56 38 56C46 56 51 52 53 44C50 48 46.5 49.5 42.5 48.5C40.2178 47.93 38.5867 46.2733 36.7811 44.4411C33.84 41.4556 30.4356 38 23 38Z" fill="#38BDF8"/>
</svg>
