<svg width="42" height="42" viewBox="0 0 42 42" fill="none" xmlns="http://www.w3.org/2000/svg">
<path d="M14.9193 36.4826C14.1539 36.4826 13.4311 36.1425 12.9421 35.5258L5.50088 26.2773C5.01184 25.6607 4.82055 24.8741 5.01184 24.1086L7.66947 12.5639C7.83952 11.7985 8.34976 11.1819 9.05149 10.8418L19.8095 5.69645C20.1498 5.52657 20.5325 5.44147 20.9152 5.44147C21.2979 5.44147 21.6805 5.52641 22.0207 5.69662L32.7788 10.8206C33.4804 11.1607 33.9907 11.7773 34.1608 12.5427L36.8184 24.0874C36.9886 24.8528 36.8184 25.6395 36.3294 26.2561L28.888 35.5046C28.399 36.0999 27.6762 36.4613 26.9107 36.4613L14.9193 36.4826Z" fill="#326DE6"/>
<path d="M20.8936 5.97302C21.1914 5.97302 21.489 6.03674 21.7654 6.16428L32.5236 11.2882C33.0763 11.5647 33.5015 12.0749 33.6291 12.6703L36.2867 24.215C36.4355 24.8316 36.2867 25.4695 35.8827 25.9584L28.4414 35.2071C28.0587 35.696 27.4633 35.9723 26.8469 35.9723H14.9193C14.3027 35.9723 13.7074 35.696 13.3247 35.2071L5.88345 25.9584C5.50072 25.4695 5.35178 24.8316 5.47948 24.215L8.13708 12.6703C8.28591 12.0537 8.68988 11.5434 9.24262 11.2882L20.0009 6.14317C20.2773 6.03685 20.5961 5.97302 20.8936 5.97302ZM20.8936 4.97369C20.4472 4.97369 20.0008 5.08003 19.5755 5.27131L8.81743 10.4166C7.96693 10.8206 7.37169 11.5647 7.15904 12.4789L4.50139 24.0237C4.28886 24.9379 4.50139 25.8734 5.09677 26.6176L12.5381 35.8661C13.1122 36.589 13.9839 36.9929 14.8981 36.9929H26.8255C27.7397 36.9929 28.6115 36.589 29.1855 35.8661L36.627 26.6175C37.2222 25.8946 37.4348 24.9379 37.2222 24.0236L34.5645 12.4789C34.352 11.5647 33.7566 10.8206 32.9063 10.4166L22.1906 5.27119C21.7866 5.08003 21.3402 4.97369 20.8936 4.97369Z" fill="white"/>
<path d="M31.673 23.3008C31.6518 23.3008 31.6518 23.3008 31.673 23.3008H31.6518C31.6306 23.3008 31.6093 23.3008 31.6093 23.2795C31.5669 23.2795 31.5244 23.2583 31.4818 23.2583C31.3329 23.237 31.2054 23.2158 31.0778 23.2158C31.014 23.2158 30.9502 23.2158 30.8651 23.1944H30.8439C30.3975 23.1519 30.036 23.1094 29.6958 23.0031C29.5469 22.9393 29.5045 22.8543 29.4619 22.7692C29.4619 22.748 29.4406 22.748 29.4406 22.7267L29.1642 22.6417C29.2948 21.6416 29.2444 20.6261 29.0154 19.6438C28.7833 18.6533 28.3804 17.7108 27.8248 16.8586L28.0375 16.6673V16.6249C28.0375 16.5185 28.0587 16.4121 28.1437 16.3058C28.3988 16.0719 28.7178 15.8806 29.1005 15.6468C29.1642 15.6043 29.228 15.583 29.2918 15.5404C29.4194 15.4767 29.5257 15.413 29.6533 15.3279C29.6745 15.3067 29.717 15.2854 29.7596 15.2429C29.7809 15.2216 29.8021 15.2216 29.8021 15.2003C30.0997 14.9452 30.1636 14.52 29.9509 14.2435C29.8446 14.0947 29.6533 14.0097 29.4619 14.0097C29.292 14.0097 29.143 14.0734 28.9942 14.1797L28.9517 14.2222C28.9093 14.2435 28.8879 14.2861 28.8454 14.3073C28.739 14.4137 28.6539 14.4986 28.569 14.6049C28.5265 14.6474 28.4841 14.7113 28.4202 14.7538C28.1224 15.0727 27.846 15.3279 27.5697 15.5191C27.506 15.5616 27.4422 15.583 27.3784 15.583C27.3359 15.583 27.2933 15.583 27.2508 15.5616H27.2083L26.9531 15.7319C26.6767 15.4342 26.379 15.1791 26.0814 14.9239C24.7999 13.9222 23.2575 13.3096 21.6378 13.1592L21.6166 12.8828L21.5741 12.8403C21.5102 12.7765 21.4253 12.7128 21.4039 12.564C21.3827 12.2237 21.4253 11.841 21.4678 11.4158V11.3946C21.4678 11.3307 21.489 11.2458 21.5102 11.1819C21.5315 11.0544 21.5527 10.9268 21.5741 10.778V10.5866C21.5741 10.2039 21.2764 9.88507 20.915 9.88507C20.7448 9.88507 20.5748 9.97007 20.4472 10.0976C20.3198 10.2252 20.2559 10.3953 20.2559 10.5866V10.7567C20.2559 10.9055 20.2772 11.0331 20.3196 11.1607C20.3409 11.2245 20.3409 11.2883 20.3621 11.3733V11.3946C20.4046 11.8198 20.4685 12.2025 20.426 12.5427C20.4048 12.6915 20.3196 12.7552 20.2559 12.8191L20.2134 12.8615L20.1921 13.138C19.8093 13.1804 19.4266 13.2229 19.044 13.308C17.4069 13.6695 15.9612 14.4987 14.8344 15.6892L14.6217 15.5404H14.5792C14.5367 15.5404 14.4941 15.5616 14.4516 15.5616C14.3878 15.5616 14.3241 15.5404 14.2602 15.4979C13.9838 15.3067 13.7075 15.0301 13.4099 14.7113C13.3674 14.6688 13.3249 14.6049 13.2611 14.5625C13.1759 14.4561 13.0908 14.3711 12.9845 14.2648C12.9633 14.2435 12.9208 14.2223 12.8784 14.1797C12.8571 14.1585 12.8359 14.1585 12.8359 14.1373C12.7041 14.0284 12.5389 13.9684 12.3681 13.9671C12.1766 13.9671 11.9854 14.0522 11.879 14.201C11.6663 14.4774 11.7302 14.9026 12.0278 15.1577C12.0491 15.1577 12.0491 15.1791 12.0703 15.1791C12.1128 15.2003 12.1341 15.2428 12.1766 15.2641C12.3042 15.349 12.4105 15.4128 12.5381 15.4767C12.6019 15.4979 12.6656 15.5404 12.7295 15.583C13.1121 15.8168 13.4311 16.0082 13.6862 16.2421C13.7926 16.3483 13.7926 16.4546 13.7926 16.561V16.6035L14.0051 16.7949C13.9626 16.8586 13.9201 16.9012 13.8988 16.9649C12.8357 18.6446 12.4318 20.6219 12.7081 22.5779L12.4318 22.6629C12.4318 22.6842 12.4105 22.6842 12.4105 22.7053C12.3681 22.7905 12.3042 22.8756 12.1766 22.9393C11.8578 23.0456 11.4751 23.0882 11.0286 23.1307H11.0073C10.9435 23.1307 10.8584 23.1307 10.7947 23.1519C10.6672 23.1519 10.5396 23.1732 10.3907 23.1944C10.3483 23.1944 10.3058 23.2158 10.2632 23.2158C10.242 23.2158 10.2207 23.2158 10.1994 23.237C9.81661 23.322 9.58273 23.6835 9.64656 24.0235C9.71045 24.3213 9.98682 24.5127 10.3269 24.5127C10.3907 24.5127 10.4332 24.5127 10.4971 24.4913C10.5183 24.4913 10.5396 24.4913 10.5396 24.4701C10.5821 24.4701 10.6246 24.4488 10.667 24.4488C10.8159 24.4064 10.9223 24.3639 11.0499 24.3001C11.1136 24.2788 11.1773 24.2362 11.2411 24.2151H11.2624C11.6663 24.0661 12.0278 23.9386 12.3681 23.8961H12.4105C12.5381 23.8961 12.6232 23.9598 12.6869 24.0024C12.7081 24.0024 12.7081 24.0237 12.7294 24.0237L13.0271 23.9812C13.5374 25.5544 14.5154 26.9577 15.8123 27.9782C16.1099 28.212 16.4076 28.4034 16.7265 28.5949L16.599 28.8711C16.599 28.8924 16.6202 28.8924 16.6202 28.9136C16.6627 28.9987 16.7052 29.105 16.6627 29.2538C16.5353 29.5728 16.3439 29.8917 16.1099 30.2531V30.2744C16.0675 30.3382 16.025 30.3807 15.9825 30.4444C15.8974 30.5507 15.8336 30.6571 15.7484 30.7847C15.7272 30.8059 15.706 30.8484 15.6847 30.891C15.6847 30.9122 15.6635 30.9335 15.6635 30.9335C15.4935 31.295 15.621 31.6989 15.9399 31.8477C16.0249 31.8902 16.1099 31.9115 16.195 31.9115C16.4502 31.9115 16.7053 31.7414 16.8329 31.5074C16.8329 31.4862 16.8541 31.465 16.8541 31.465C16.8754 31.4225 16.8966 31.38 16.9179 31.3587C16.9817 31.2099 17.0029 31.1035 17.0454 30.9759L17.1092 30.7847C17.2581 30.3595 17.3644 30.0192 17.5557 29.7216C17.6407 29.5941 17.7471 29.5728 17.8321 29.5302C17.8533 29.5302 17.8533 29.5302 17.8746 29.509L18.0235 29.2326C18.959 29.594 19.9796 29.7853 21 29.7853C21.6166 29.7853 22.2545 29.7216 22.8498 29.5728C23.2244 29.489 23.5937 29.3825 23.9554 29.2538L24.0828 29.4877C24.1042 29.4877 24.1042 29.4877 24.1254 29.509C24.2317 29.5302 24.3167 29.5728 24.4018 29.7004C24.5718 29.998 24.6994 30.3595 24.8482 30.7634V30.7847L24.9121 30.9759C24.9546 31.1035 24.9758 31.2311 25.0395 31.3587C25.0609 31.4011 25.0821 31.4225 25.1033 31.465C25.1033 31.4862 25.1247 31.5074 25.1247 31.5074C25.2522 31.7626 25.5073 31.9115 25.7625 31.9115C25.8475 31.9115 25.9326 31.8902 26.0176 31.8477C26.1664 31.7628 26.294 31.635 26.3366 31.465C26.379 31.295 26.3791 31.1035 26.2941 30.9335C26.2941 30.9122 26.2727 30.9122 26.2727 30.891C26.2515 30.8485 26.2303 30.806 26.209 30.7847C26.1452 30.6571 26.0602 30.5507 25.9751 30.4444C25.9326 30.3807 25.8902 30.3382 25.8477 30.2745V30.2531C25.6136 29.8917 25.401 29.5728 25.2948 29.2538C25.2523 29.105 25.2948 29.02 25.316 28.9137C25.316 28.8924 25.3373 28.8924 25.3373 28.8712L25.2309 28.6161C26.3578 27.957 27.3145 27.0214 28.0375 25.8734C28.4202 25.278 28.7178 24.6189 28.9304 23.9598L29.1855 24.0023C29.2068 24.0023 29.2068 23.981 29.228 23.981C29.3131 23.9386 29.3769 23.8749 29.5045 23.8749H29.5469C29.8872 23.9173 30.2485 24.0448 30.6526 24.1937H30.6739C30.7376 24.215 30.8013 24.2575 30.8651 24.2787C30.9927 24.3425 31.0991 24.385 31.2479 24.4276C31.2903 24.4276 31.3328 24.4488 31.3754 24.4488C31.3966 24.4488 31.4179 24.4488 31.4391 24.4701C31.503 24.4913 31.5455 24.4913 31.6093 24.4913C31.9282 24.4913 32.2046 24.2788 32.2896 24.0024C32.2896 23.7473 32.0558 23.407 31.673 23.3008ZM21.8291 22.2589L20.8937 22.7055L19.9582 22.2589L19.7244 21.2597L20.3621 20.4518H21.4039L22.0418 21.2597L21.8291 22.2589ZM27.3784 20.0479C27.5433 20.7509 27.5935 21.476 27.5272 22.195L24.2742 21.2597C23.9766 21.1748 23.8065 20.877 23.8703 20.5794C23.8915 20.4943 23.9341 20.4092 23.9979 20.3455L26.5705 18.028C26.9318 18.6233 27.2082 19.3038 27.3784 20.0479ZM25.5499 16.7524L22.7647 18.7297C22.5308 18.8785 22.2119 18.8359 22.0205 18.6021C21.9568 18.5383 21.9356 18.4532 21.9142 18.3682L21.7229 14.9026C23.1709 15.0693 24.5198 15.7213 25.5499 16.7524ZM19.3842 15.0087C19.6181 14.9663 19.8306 14.9238 20.0645 14.8813L19.8732 18.283C19.852 18.5806 19.6181 18.8358 19.2991 18.8358C19.2141 18.8358 19.1078 18.8145 19.044 18.772L16.2162 16.7524C17.088 15.8806 18.1723 15.2851 19.3842 15.0087ZM15.1957 18.0279L17.7258 20.2815C17.9596 20.4729 17.9809 20.8343 17.7896 21.0682C17.7258 21.1531 17.6408 21.217 17.5344 21.2383L14.239 22.195C14.1114 20.7493 14.4303 19.2823 15.1957 18.0279ZM14.6216 23.7897L18.0022 23.2155C18.2787 23.1943 18.5338 23.3857 18.5975 23.6621C18.6188 23.7895 18.6188 23.896 18.5763 24.0023L17.2793 27.1276C16.0887 26.3622 15.1319 25.1928 14.6216 23.7897ZM22.382 28.0206C21.893 28.1269 21.4039 28.1907 20.8937 28.1907C20.1496 28.1907 19.4266 28.0632 18.7465 27.8505L20.426 24.8102C20.596 24.6188 20.8724 24.5338 21.1063 24.6614C21.2056 24.7222 21.2922 24.8016 21.3615 24.8952L22.9985 27.8505C22.8072 27.9142 22.5947 27.9568 22.382 28.0206ZM26.5279 25.0654C25.9963 25.9158 25.2947 26.596 24.4869 27.1276L23.1475 23.9171C23.0836 23.6621 23.1899 23.3857 23.4451 23.258C23.5301 23.2155 23.6364 23.1943 23.7427 23.1943L27.1445 23.7684C27.0169 24.2361 26.8042 24.6614 26.5279 25.0654Z" fill="white"/>
</svg>
