<svg width="76" height="76" viewBox="0 0 76 76" fill="none" xmlns="http://www.w3.org/2000/svg">
<path d="M38.2872 8.16365L39.8884 11.1709C40.2483 11.7259 40.6383 12.2171 41.0976 12.6746C42.4382 14.0151 43.7112 15.4194 44.8548 16.923C47.5678 20.4853 49.3976 24.4412 50.7044 28.7197C51.4881 31.3332 51.9137 34.0143 51.9456 36.7253C52.0768 44.8304 49.2983 51.7899 43.6962 57.5738C42.7813 58.4888 41.8026 59.3362 40.7527 60.0899C40.1977 60.0899 39.9352 59.6643 39.7065 59.2725C39.2809 58.5544 39.0203 57.7351 38.8891 56.9195C38.6922 55.939 38.5628 54.9584 38.6266 53.946V53.4885C38.5816 53.391 38.0922 8.39426 38.2872 8.16365Z" fill="#599636"/>
<path d="M38.2873 8.0645C38.2216 7.93326 38.156 8.03263 38.0904 8.09637C38.1223 8.75258 37.8935 9.33753 37.5354 9.89624C37.1417 10.4512 36.6205 10.8768 36.0974 11.3343C33.1914 13.8503 30.9041 16.8895 29.0723 20.2886C26.635 24.8633 25.3789 29.7661 25.0226 34.9276C24.8595 36.7893 25.6113 43.3588 26.1982 45.2543C27.7993 50.2865 30.6753 54.503 34.4007 58.1628C35.3156 59.044 36.2943 59.8614 37.3067 60.647C37.6011 60.647 37.6329 60.3845 37.7004 60.1895C37.8295 59.7723 37.9279 59.3462 37.9948 58.9146L38.651 54.0137L38.2873 8.0645Z" fill="#6CAC48"/>
<path d="M39.8884 62.081C39.954 61.3311 40.314 60.7086 40.7058 60.0881C40.3121 59.925 40.0196 59.6006 39.7909 59.2388C39.594 58.9125 39.4309 58.5207 39.3034 58.1607C38.846 56.7883 38.7485 55.3484 38.6172 53.946V53.0967C38.4541 53.2279 38.4204 54.3379 38.4204 54.5028C38.325 55.9851 38.1283 57.459 37.8317 58.9144C37.7342 59.5031 37.6685 60.0899 37.3067 60.613C37.3067 60.6787 37.3067 60.7443 37.3386 60.8418C37.9273 62.5741 38.0885 64.3384 38.1879 66.1364V66.7926C38.1879 67.5763 38.156 67.4113 38.8066 67.6738C39.0691 67.7713 39.3615 67.805 39.624 68C39.8209 68 39.8528 67.8369 39.8528 67.7056L39.7553 66.6276V63.6203C39.7234 63.0954 39.8209 62.5741 39.8865 62.0829L39.8884 62.081Z" fill="#C2BFBF"/>
</svg>
