<svg width="42" height="42" viewBox="0 0 42 42" fill="none" xmlns="http://www.w3.org/2000/svg">
<path d="M21.1587 4.51149L22.0436 6.17341C22.2425 6.4801 22.458 6.75156 22.7119 7.00437C23.4527 7.74519 24.1562 8.52123 24.7882 9.35219C26.2875 11.3208 27.2987 13.507 28.0209 15.8714C28.454 17.3157 28.6891 18.7974 28.7068 20.2956C28.7793 24.7747 27.2438 28.6207 24.1479 31.8171C23.6423 32.3227 23.1014 32.7911 22.5212 33.2076C22.2145 33.2076 22.0695 32.9724 21.9431 32.7558C21.7079 32.359 21.5639 31.9062 21.4913 31.4555C21.3825 30.9136 21.311 30.3717 21.3463 29.8123V29.5594C21.3214 29.5056 21.051 4.63893 21.1587 4.51149Z" fill="#599636"/>
<path d="M21.1588 4.4567C21.1225 4.38417 21.0862 4.43908 21.05 4.47431C21.0676 4.83695 20.9412 5.16021 20.7433 5.46898C20.5257 5.77566 20.2377 6.01086 19.9486 6.26367C18.3426 7.65413 17.0786 9.33366 16.0663 11.2121C14.7194 13.7402 14.0252 16.4497 13.8283 19.3021C13.7382 20.3309 14.1536 23.9615 14.4779 25.009C15.3628 27.7899 16.9522 30.1201 19.0109 32.1426C19.5165 32.6296 20.0574 33.0813 20.6169 33.5154C20.7795 33.5154 20.7972 33.3704 20.8345 33.2626C20.9058 33.032 20.9601 32.7966 20.9971 32.5581L21.3598 29.8497L21.1588 4.4567Z" fill="#6CAC48"/>
<path d="M22.0436 34.3079C22.0798 33.8935 22.2788 33.5495 22.4953 33.2066C22.2777 33.1164 22.1161 32.9372 21.9897 32.7372C21.8809 32.5569 21.7908 32.3404 21.7203 32.1414C21.4675 31.383 21.4136 30.5873 21.3411 29.8123V29.3429C21.251 29.4154 21.2323 30.0288 21.2323 30.12C21.1796 30.9391 21.0709 31.7537 20.907 32.558C20.8531 32.8833 20.8168 33.2076 20.6169 33.4967C20.6169 33.5329 20.6169 33.5692 20.6345 33.6231C20.9598 34.5804 21.0489 35.5554 21.1038 36.5491V36.9117C21.1038 37.3448 21.0862 37.2536 21.4458 37.3987C21.5908 37.4525 21.7524 37.4712 21.8975 37.5789C22.0063 37.5789 22.0239 37.4888 22.0239 37.4163L21.97 36.8205V35.1586C21.9524 34.8685 22.0063 34.5804 22.0425 34.309L22.0436 34.3079Z" fill="#C2BFBF"/>
</svg>
