<svg width="42" height="42" viewBox="0 0 42 42" fill="none" xmlns="http://www.w3.org/2000/svg">
<path d="M33.7603 14.7282C33.7048 15.0603 33.5581 15.3705 33.3364 15.624L33.1993 15.5361C33.2961 15.3272 33.3679 15.1078 33.4138 14.8824L33.3751 14.8221C33.3253 14.8221 33.2546 14.9597 33.1778 15.2233H33.1065C33.1029 15.1787 33.0897 15.1353 33.0678 15.0962H33.0358C32.387 16.9022 32.0957 17.745 31.4961 19.1382C31.3867 19.4991 31.2928 19.693 31.211 19.7317C31.2113 19.7447 31.2159 19.7571 31.2241 19.7671C31.2323 19.7772 31.2437 19.7841 31.2563 19.787C31.2647 19.7889 31.2733 19.7889 31.2817 19.787C31.2955 19.9671 31.2535 20.1473 31.1612 20.3031C31.0357 20.7641 30.8491 21.2063 30.6064 21.6178L30.6666 21.9969C30.6686 22.0056 30.6685 22.0145 30.6663 22.0231C30.6641 22.0316 30.6598 22.0395 30.6539 22.0461C30.6479 22.0525 30.6405 22.0574 30.6322 22.0603C30.6239 22.0632 30.6151 22.064 30.6064 22.0627H30.5401C30.529 21.9588 30.4887 21.9096 30.4196 21.9152H30.3876C30.2993 22.0582 30.2342 22.2143 30.1947 22.3777H30.261C30.2988 22.3593 30.3304 22.3301 30.3519 22.2938C30.3733 22.2576 30.3836 22.2158 30.3815 22.1738L30.5141 22.1627L30.5848 22.1904C30.5342 22.2549 30.5052 22.3338 30.5019 22.4158L30.534 22.4766L30.4511 22.6734V22.7065C30.5393 22.7027 30.6263 22.7275 30.6992 22.7773C30.77 22.7667 30.8374 22.7402 30.8965 22.6999C30.9739 22.6999 31.248 22.6888 31.7321 22.6888L31.9725 22.6059C32.2704 22.6059 32.3135 22.6059 32.5749 22.5894L32.6799 22.5783L32.7351 22.5396V22.5728C32.8998 22.5534 33.0667 22.5606 33.2297 22.5943V22.6264L33.0816 22.6374V22.6977C33.1254 22.6957 33.1674 22.6802 33.2021 22.6535C33.2408 22.6535 33.2618 22.6701 33.2684 22.7132C33.1992 22.7216 33.131 22.7364 33.0645 22.7574L32.9982 22.7364C32.9507 22.7551 32.9012 22.768 32.8506 22.7751L32.7456 22.7529C32.7464 22.7601 32.7446 22.7673 32.7406 22.7733C32.7365 22.7793 32.7305 22.7836 32.7235 22.7856C32.7235 22.8242 32.7456 22.8458 32.7843 22.8408L32.9103 22.8298L32.8551 22.8082C32.8551 22.8248 32.8661 22.8358 32.8877 22.8358L33.432 22.7867L33.663 22.7568C33.6628 22.7605 33.6634 22.7641 33.6648 22.7676C33.6661 22.771 33.6681 22.7741 33.6707 22.7767C33.6733 22.7793 33.6764 22.7813 33.6799 22.7827C33.6833 22.784 33.687 22.7846 33.6906 22.7844L33.7896 22.7458L33.9758 22.7292C34.1239 22.7181 34.1195 22.7071 34.4323 22.6579C34.4323 22.6413 34.4323 22.6303 34.4538 22.6303V22.6579C34.6821 22.6397 34.907 22.5938 35.1242 22.5208L35.0965 22.4545C35.0136 22.4733 34.9291 22.4827 34.844 22.4822L34.3875 22.5043V22.4711L34.6406 22.4391H34.7346L34.7837 22.4004V22.433C35.5096 22.4245 36.2316 22.3265 36.9335 22.1412C37.0219 22.1412 37.0164 22.0583 37.0711 21.9008C37.0401 21.902 37.0094 21.8944 36.9827 21.8787C36.8279 21.9179 36.6693 21.9417 36.5102 21.9505C36.4881 21.9505 36.4715 21.9334 36.4604 21.8897V21.8621L36.7135 21.8732C36.8105 21.8652 36.9043 21.835 36.9876 21.7847C37.0153 21.8019 36.9661 21.8179 36.9876 21.8124H37.0324C37.06 21.8124 37.0711 21.7914 37.0711 21.7466L37.0434 21.6864C36.9069 21.6864 36.7727 21.7206 36.6533 21.7853V21.7521L36.4433 21.7742C36.4433 21.7079 36.4223 21.6803 36.3947 21.6803L36.2847 21.6913C36.1587 21.7024 36.0984 21.6913 36.0371 21.7466C36.0371 21.7245 36.0261 21.714 36.015 21.714L35.8945 21.7251L35.8238 21.7637C35.8238 21.7416 35.8127 21.7306 35.8017 21.7306L35.7575 21.7693V21.7372L35.5889 21.7212H35.5502V21.782L35.6387 21.803H35.7155C35.7442 21.819 35.7763 21.8262 35.8094 21.8251L35.8802 21.7919V21.8196C35.663 21.8748 35.443 21.9174 35.2209 21.9467C35.2017 21.9316 35.1788 21.922 35.1546 21.919C35.1269 21.9467 35.1872 21.919 35.1711 21.919C35.1628 21.9209 35.1541 21.9209 35.1457 21.919C35.1373 21.9171 35.1294 21.9134 35.1227 21.9081C35.1159 21.9029 35.1104 21.8961 35.1066 21.8885C35.1027 21.8808 35.1006 21.8723 35.1004 21.8638L35.2374 21.8466C35.2684 21.8577 35.2999 21.8671 35.3314 21.8743C35.4408 21.819 35.4519 21.7969 35.5071 21.7914V21.7306C35.2717 21.777 35.0319 21.7991 34.792 21.7969H34.7699V21.7372C35.3916 21.6598 35.1833 21.7041 35.3916 21.6433C35.3916 21.6648 35.4027 21.6753 35.4137 21.6753C35.4369 21.6518 35.4681 21.638 35.5011 21.6366H35.5453C35.7901 21.646 36.0343 21.6145 36.2681 21.5427V21.5709L36.3388 21.5383H36.4052C36.4052 21.4719 36.4991 21.4675 36.5256 21.4609V21.3951C35.7718 21.5493 35.5751 21.5046 35.3651 21.5664V21.5388C35.2824 21.5581 35.1973 21.5652 35.1126 21.5598C35.0885 21.5655 35.0671 21.5791 35.0518 21.5985C35.0518 21.5764 35.0413 21.5659 35.0241 21.5659C35.0076 21.5659 35.0076 21.5769 34.9799 21.6046L35.0241 21.5659L34.3709 21.6709C34.371 21.6671 34.3703 21.6633 34.3687 21.6598C34.3666 21.6547 34.363 21.6504 34.3584 21.6474C34.3537 21.6444 34.3483 21.643 34.3427 21.6433C34.1195 21.7096 33.8885 21.7499 33.6558 21.7637C33.6257 21.7664 33.597 21.7775 33.5729 21.7958C33.5729 21.7792 33.5619 21.7682 33.5398 21.7682L33.2657 21.7903L33.0838 21.8345C33.0838 21.8179 33.0728 21.8068 33.0512 21.8068C32.965 21.8311 32.8768 21.8477 32.7876 21.8566C32.7434 21.8566 32.8097 21.8455 32.7766 21.8289L32.6998 21.8588H32.387C31.9056 21.9185 31.9581 21.9251 31.9056 21.9295L31.7233 21.9185C31.7233 21.9356 31.7233 21.9461 31.6956 21.9516C31.4928 21.924 31.3884 21.8908 31.3828 21.8522C31.4105 21.6598 31.4541 21.5615 31.5265 21.5504H31.5586L31.526 21.6167H31.5591C31.6249 21.5841 31.6525 21.5504 31.6525 21.5178V21.4515H31.5862V21.3913C31.5804 21.3485 31.5861 21.305 31.6028 21.2653L31.7514 21.0243V21.0846H31.8222V21.0243L31.7835 20.9641C31.8171 20.9274 31.8617 20.9026 31.9106 20.8933V20.8602H31.8167V20.7662C31.9371 20.5507 32.0294 20.3192 32.0908 20.0793L32.1571 20.1069C32.2013 20.1069 32.2234 20.0793 32.2173 20.0362H32.151V20.0119C32.1465 19.9665 32.1541 19.9207 32.1731 19.8793C32.2196 19.8385 32.2561 19.7876 32.2797 19.7305C32.3034 19.6734 32.3136 19.6116 32.3096 19.5499C32.314 19.5493 32.3184 19.5496 32.3227 19.551C32.3269 19.5523 32.3307 19.5546 32.3339 19.5576C32.3371 19.5608 32.3395 19.5646 32.3409 19.5688C32.3424 19.573 32.3428 19.5775 32.3422 19.5819C32.4306 19.5328 32.4969 19.4007 32.5456 19.1813C32.8053 18.6386 33.0253 18.0782 33.2054 17.5046C33.4782 16.8667 33.6801 16.2009 33.8078 15.519H33.7415C33.7463 15.5632 33.7366 15.6079 33.7138 15.6461C33.6804 15.6317 33.645 15.6224 33.6088 15.6185V15.5903C33.6114 15.4224 33.6693 15.26 33.7735 15.1283H33.7835L33.8387 15.3422H33.9051C33.9051 15.3256 33.9216 15.2438 33.9542 15.0835C33.9542 15.0509 33.9266 15.0338 33.8769 15.0283L33.8172 15.0669V14.7149L33.7564 14.726L33.7603 14.7282ZM32.9683 15.6793H33.0009C32.9512 15.7677 32.9125 15.8163 32.8744 15.8229V15.729C32.9089 15.7194 32.941 15.7024 32.9683 15.6793ZM32.6937 16.3391C32.76 16.0694 32.8263 15.9152 32.8866 15.8771V15.9092C32.8539 16.1623 32.7981 16.2883 32.7213 16.2993L32.7324 16.4585C32.6826 16.5126 32.6533 16.5824 32.6495 16.6558H32.6163L32.5997 16.4353C32.6329 16.4353 32.6661 16.3966 32.6882 16.3303L32.6937 16.3391ZM32.5887 16.7C32.5805 16.7898 32.5565 16.8776 32.5179 16.9592H32.4853V16.8652C32.5168 16.7569 32.5555 16.7016 32.5892 16.6967L32.5887 16.7ZM30.7832 20.6972L30.8164 20.7568C30.8661 20.7513 30.8882 20.7292 30.8822 20.6905V20.6585H30.8496L30.7893 20.6911L30.7838 20.6966L30.7832 20.6972ZM31.6525 21.4189V21.4465C31.7023 21.4465 31.7514 21.3526 31.7962 21.1835L31.7299 21.1614C31.694 21.2443 31.668 21.3316 31.6525 21.4206V21.4189ZM37.2164 21.6123V21.6399L37.1612 21.7057L37.2662 21.667H37.2744V21.6068H37.2523L37.2142 21.6399C37.2142 21.6228 37.3347 21.5902 37.2418 21.5736C37.2181 21.5952 37.2623 21.5996 37.2131 21.6057L37.2164 21.6118V21.6123ZM37.4308 21.8091L37.5789 21.798C37.5789 21.7599 37.48 21.7488 37.4463 21.7488H37.4248V21.8096L37.4308 21.8091ZM34.8031 21.8643L34.8473 21.9196C34.8473 21.903 34.8473 21.8919 34.8694 21.8919L34.9014 21.9527L34.7644 21.9356C34.7462 21.8859 34.7655 21.8649 34.7992 21.8582L34.8031 21.8643ZM34.3527 21.9141C34.3682 21.911 34.3844 21.9133 34.3985 21.9206C34.4125 21.9279 34.4237 21.9399 34.4301 21.9544C34.4341 21.964 34.436 21.9744 34.4356 21.9848H34.277V21.9572C34.3036 21.9486 34.3279 21.9338 34.3477 21.9141H34.3527ZM34.7042 21.8975V21.9295L34.5776 21.9406V21.9074L34.7047 21.8969L34.7042 21.8975ZM33.4281 22.0296C33.4281 22.0461 33.4392 22.0572 33.4607 22.0572C33.6641 22.0185 33.6426 22.013 33.7415 22.0019C33.7735 22.0019 33.7907 22.0185 33.7967 22.0572L33.2308 22.1069L33.2861 22.1346V22.1014L33.0717 22.1185V22.0859L33.2646 22.0693L33.4403 22.0307L33.4281 22.0296ZM34.0106 21.9798V22.0074C33.994 22.0074 34.0659 22.0074 34.0327 22.0406C33.962 22.0281 33.8901 22.0225 33.8183 22.024V21.9958L34.0106 21.9798ZM34.1543 21.9632V21.9909L34.0493 22.0019V21.9743L34.1543 21.9632ZM30.6351 22.5242V22.6181C30.6025 22.6181 30.5749 22.6015 30.5644 22.5579V22.5302H30.6307L30.6351 22.5242ZM35.3408 22.4413V22.5015L35.4508 22.4904L35.4066 22.4628V22.4954L35.5154 22.4512C36.2692 22.3683 36.3582 22.4015 36.346 22.3136V22.286C36.014 22.3759 35.6729 22.4276 35.3292 22.4402L35.3408 22.4413ZM36.5173 22.3363L36.6268 22.3584V22.2976L36.5173 22.2766V22.3363ZM33.2668 22.5507C33.2994 22.5673 33.2281 22.5833 33.2668 22.5783L33.6519 22.5457V22.5789C33.5811 22.5782 33.5113 22.5951 33.4486 22.6281C33.4491 22.6236 33.4487 22.6191 33.4472 22.6149C33.4458 22.6107 33.4434 22.6069 33.4403 22.6037C33.4372 22.6006 33.4333 22.5982 33.4291 22.5967C33.4249 22.5953 33.4204 22.5948 33.416 22.5954L33.2513 22.612V22.5794C33.2955 22.5794 33.2292 22.5794 33.2623 22.5518L33.2668 22.5507ZM35.0484 22.5065L35.0811 22.5662C35.2076 22.5385 35.1363 22.5446 35.1689 22.517C35.1689 22.5391 35.18 22.5496 35.191 22.5496H35.2783V22.4833H35.0473V22.5159L35.0484 22.5065ZM32.8711 22.7469H32.849V22.6866H32.8711V22.7469ZM31.1507 22.9569V22.9889L32.1621 22.906V22.8452L31.3541 22.9116L31.1756 22.8767L31.1507 22.9569ZM32.2776 22.8961H32.2886V22.8358H32.2776V22.8961ZM16.8757 17.5798C16.4716 18.0234 16.1004 18.4958 15.7649 18.9934C15.4731 19.2957 15.33 19.4747 15.3466 19.5377C15.2698 19.5875 15.2372 19.6361 15.2482 19.6919C15.2432 19.6936 15.2383 19.6941 15.2333 19.6936C15.2257 19.6929 15.2186 19.6896 15.2132 19.6842C15.2077 19.6789 15.2043 19.6719 15.2034 19.6643C15.1423 19.7635 15.0616 19.8493 14.9662 19.9163C14.8708 19.9833 14.7627 20.0301 14.6486 20.0539L14.39 20.1147C14.3568 20.1147 14.3402 20.1467 14.3402 20.1915V20.2236L14.4392 20.202V20.2296L14.2187 20.3125L13.8291 20.4009L13.6251 20.412C13.5975 20.4396 13.7843 20.412 13.7136 20.4286L13.4604 20.4888C13.3063 20.5275 13.2195 20.5104 13.2079 20.4501H13.1803C13.1968 20.5104 13.1803 20.5491 13.1355 20.5596L13.1852 20.5485L13.1631 20.4546L12.7011 20.5645L12.7503 20.5866C12.7503 20.5645 12.7227 20.5584 12.679 20.5695L12.6188 20.6187L12.5481 20.6021C12.5106 20.627 12.4701 20.647 12.4276 20.6618L12.3568 20.6452C12.1634 20.7546 12.3071 20.7546 12.2961 20.7546L12.3132 20.8149L12.4226 20.7872L12.5939 20.7762L12.5773 20.8475C11.9496 21.0122 12.406 20.9182 12.2364 20.9569H12.2032L12.2203 21.0171L12.3193 20.995V21.0282C12.2398 21.0362 12.1638 21.0648 12.0988 21.1111V21.0785C11.8971 21.1448 11.723 21.2763 11.6042 21.4526C11.6318 21.5731 11.2742 21.7223 12.9559 21.3327C13.0764 21.3327 13.1383 21.3327 13.1537 21.3216C13.1537 21.2995 13.1537 21.289 13.1814 21.2829C13.3676 21.2614 13.2797 21.294 13.3952 21.2664L13.7567 21.1835L13.6793 21.2277C13.6793 21.2111 13.6793 21.2001 13.7014 21.1951C13.7464 21.2061 13.7934 21.2061 13.8384 21.1951L13.8606 21.289L12.4397 23.5681L12.1148 23.9604L11.9601 24.4827H11.9877L12.1424 24.4164L12.0927 24.6203L12.1093 24.6805L12.1546 24.7358C12.1325 24.7358 12.1269 24.7524 12.1325 24.7745V24.8065L12.1988 24.7899C12.2927 24.7071 12.3314 24.6308 12.3193 24.565C12.3856 24.5788 12.4547 24.5849 12.5226 24.5816V24.6142C12.4624 24.6308 12.4298 24.6805 12.4237 24.7623V24.7949H12.4569C12.9791 24.229 14.2491 22.2871 15.2709 20.9679C15.2377 20.8248 15.7716 20.627 16.8707 20.3744H16.9033C16.8984 20.8042 16.8127 21.2291 16.6508 21.6272C16.5671 21.8389 16.5025 22.0577 16.4579 22.281C16.3487 22.5605 16.2657 22.8494 16.2098 23.1442L15.8462 24.4097C15.5887 25.0789 15.3953 25.7709 15.2687 26.4766C15.3012 26.4745 15.3338 26.4786 15.3648 26.4887L15.4201 26.439C15.4201 26.4611 15.4367 26.4666 15.4643 26.4666L15.4433 26.3727H15.6141C15.6638 26.3616 15.708 26.2959 15.7406 26.1804C15.7406 26.0091 15.7682 25.9168 15.8456 25.8952C15.8843 25.6813 15.9495 25.4724 16.0379 25.2741C16.08 25.0325 16.1539 24.7976 16.2579 24.5755C16.406 24.0483 16.511 23.7725 16.5817 23.7571L16.5983 23.8234L16.4938 24.1036C16.3534 24.7752 16.1624 25.4353 15.9224 26.0781L15.9777 26.3185H16.0103C16.7996 24.3823 17.4697 22.3996 18.0169 20.3816C18.0272 20.2587 18.0665 20.14 18.1317 20.0353C18.1968 19.9305 18.2859 19.8428 18.3916 19.7792L18.3418 19.7301V19.7024C18.4247 19.6897 18.4993 19.6472 18.5518 19.5819C18.5458 19.5604 18.4579 19.5278 18.2877 19.4836L18.8044 17.2731C18.9431 16.6989 19.0476 16.1169 19.1172 15.5301V15.4974C19.0009 15.4223 18.8986 15.3275 18.8149 15.2173V15.057H18.7873C18.4684 15.5383 17.8301 16.3811 16.8901 17.5853L16.8757 17.5798ZM17.6063 18.081C17.6151 18.3021 17.572 18.5226 17.4797 18.7237C17.4477 19.1199 17.304 19.3449 17.0564 19.4051V19.3725L16.8359 19.4554L16.737 19.4775C16.6924 19.4913 16.6446 19.4913 16.5999 19.4775L16.5778 19.3891C16.8674 18.9271 17.1857 18.4833 17.5317 18.0617L17.6091 18.0727L17.6063 18.081ZM17.1006 19.4559L17.1719 19.4394L17.1885 19.4991C16.842 19.6041 16.6491 19.6582 16.611 19.6704C16.576 19.6816 16.5439 19.7005 16.5171 19.7256C16.5171 19.7035 16.4673 19.7035 16.38 19.7256C16.3629 19.6648 16.6049 19.5775 17.1017 19.462L17.1006 19.4559ZM13.687 20.3788L13.7638 20.3623L13.7473 20.2959L13.6699 20.3125L13.687 20.3788ZM14.6928 20.1152L14.7099 20.176L14.5453 20.1865V20.1539L14.6994 20.1152H14.6928ZM12.7669 20.7474V20.7801L12.6619 20.8016V20.769L12.7669 20.7474ZM12.5746 21.1481V21.1757L12.448 21.2034L12.4314 21.1437H12.5685L12.5746 21.1481ZM12.8763 21.0818V21.1094L12.6453 21.1647V21.1371L12.8763 21.0818ZM13.2775 21.0155V21.0486L12.6752 21.1857L12.6586 21.1254C13.0101 21.0652 12.9719 21.0868 13.2737 21.016L13.2775 21.0155ZM16.3059 20.312L16.3557 20.3672C16.2995 20.376 16.2465 20.3988 16.2015 20.4336L16.1308 20.4225C16.0382 20.4614 15.9426 20.4928 15.8451 20.5164L15.7787 20.533C15.7661 20.5373 15.7525 20.5375 15.7398 20.5338C15.727 20.53 15.7157 20.5224 15.7074 20.512C15.7022 20.5051 15.6984 20.4972 15.6964 20.4888L16.1523 20.3838L16.3065 20.3131L16.3059 20.312ZM16.6303 20.2401L16.9536 20.1633V20.1965C16.8116 20.2241 16.6729 20.2683 16.5408 20.3286V20.2959C16.5761 20.2841 16.608 20.2638 16.6337 20.2368L16.6303 20.2401ZM13.2206 21.1641L13.3753 21.131L13.3919 21.1918C13.3256 21.2083 13.3753 21.2083 13.293 21.247C13.1649 21.2499 13.0375 21.2685 12.9139 21.3023V21.2697L13.2206 21.1641ZM13.6384 21.0928C13.6832 21.0818 13.7097 21.0928 13.7158 21.1426L13.6218 21.1641C13.5831 21.1752 13.5555 21.1586 13.5389 21.1144L13.6373 21.0928H13.6384ZM11.923 24.5623V24.5949C11.9672 24.5838 11.9838 24.5623 11.9728 24.5175V24.4854C11.9642 24.4868 11.956 24.49 11.9488 24.4947C11.9415 24.4995 11.9354 24.5057 11.9308 24.5131C11.926 24.5203 11.9229 24.5285 11.9216 24.5371C11.9202 24.5457 11.9207 24.5539 11.923 24.5623ZM12.0557 25.1127C12.0567 25.1213 12.0597 25.1295 12.0645 25.1367C12.0693 25.1439 12.0757 25.1499 12.0833 25.1541C12.0908 25.1585 12.0992 25.161 12.1078 25.1614C12.1165 25.1619 12.1251 25.1604 12.133 25.1569C12.1772 25.1458 12.1927 25.1243 12.1822 25.0795V25.0475L12.1159 25.0641L12.0606 25.1138L12.0551 25.1127H12.0557ZM30.4666 15.6019L30.7153 15.5328C30.8136 15.5439 30.8628 15.5649 30.8628 15.5925C30.9639 15.5566 31.0689 15.5345 31.1756 15.5262V15.4875L30.9231 15.477L30.4284 15.5599L30.214 15.5433C30.214 15.5599 30.2361 15.5831 30.2792 15.6118L30.4671 15.6024L30.4666 15.6019ZM15.5638 26.0555C15.5717 26.0521 15.5803 26.0505 15.5889 26.051C15.5974 26.0515 15.6058 26.054 15.6133 26.0583C15.6207 26.0626 15.6271 26.0686 15.6318 26.0758C15.6366 26.0829 15.6396 26.0911 15.6406 26.0997V26.1328L15.514 26.1605C15.5219 26.128 15.5219 26.0941 15.514 26.0616H15.5527L15.5638 26.0555ZM20.6546 15.8848C20.3416 16.1071 20.017 16.3125 19.682 16.4999V16.5602C19.7178 16.5531 19.7515 16.5378 19.7803 16.5154C19.7888 16.5134 19.7975 16.5133 19.806 16.5152C19.8144 16.517 19.8223 16.5207 19.8292 16.526C19.836 16.5313 19.8416 16.5381 19.8455 16.5458C19.8493 16.5535 19.8515 16.562 19.8516 16.5707L19.9119 16.5381H19.9395V16.5657C19.7367 16.7689 19.5095 16.9461 19.2631 17.0934L19.2951 17.1598H19.2675L19.1968 17.1321C19.1968 17.1531 19.1691 17.1703 19.1028 17.1763V17.204L19.1736 17.2918C19.1369 17.2908 19.101 17.2813 19.0686 17.2642C18.9774 17.2829 18.8914 17.321 18.8164 17.3761C18.7415 17.4311 18.6793 17.5017 18.6342 17.5831L18.6673 17.6439C18.7303 17.5737 18.8049 17.514 18.8873 17.4676V17.5615C18.8513 17.5683 18.8174 17.5835 18.7884 17.6057L18.8713 17.7262C19.0156 17.5664 19.18 17.426 19.3603 17.3084C19.4482 17.3361 19.4974 17.3637 19.4974 17.3913H19.5637C20.0057 17.0568 20.4972 16.7934 21.0204 16.6104V16.6707C20.932 16.8033 20.8723 16.868 20.8386 16.8741C20.8431 16.9166 20.8563 16.9569 20.8773 16.9945C20.703 17.5598 20.4861 18.111 20.2285 18.6436C19.4979 20.4418 18.6534 22.1917 17.7002 23.8825C17.7062 23.9173 17.7215 23.9497 17.7444 23.9765C17.8583 23.9599 17.9672 23.9184 18.0639 23.856H18.0915V23.9168H18.1628L18.2225 23.8836C18.2225 23.9008 18.2446 23.9113 18.2888 23.9057V23.972C18.278 24.0744 18.2419 24.1724 18.1838 24.2572C18.0788 24.4042 18.0014 24.57 17.9589 24.7457V24.7789H18.0252C18.2736 24.5087 18.4827 24.2049 18.6463 23.8764C19.2752 23.7059 19.8864 23.4759 20.4717 23.1895C20.8183 23.1782 21.1537 23.0633 21.4344 22.8596V22.827L21.2697 22.8767H21.2371V22.8436C21.4654 22.8281 21.6862 22.7562 21.8798 22.6341C22.4822 22.1672 22.9408 21.8372 23.2547 21.6449C24.2119 20.9409 24.6617 20.27 24.6065 19.6212C24.4325 19.33 24.22 19.0636 23.9748 18.8293C23.9693 18.7408 24.1119 18.6143 24.4031 18.4502L25.2387 17.7279C25.4591 17.3833 25.5738 16.9818 25.5686 16.5729L25.5576 16.4529C25.5249 16.0843 25.2553 15.787 24.7496 15.5571C24.2487 15.3079 23.6919 15.1921 23.1332 15.2211C22.2691 15.3279 21.4246 15.5573 20.6253 15.9025L20.6546 15.8848ZM25.1304 15.9291L25.0978 15.9954L24.1749 15.6052C24.7955 15.6328 25.1143 15.7378 25.1315 15.9291H25.1304ZM21.3835 18.5054C21.4498 18.1584 21.5217 17.9661 21.5985 17.9229L22.2965 16.3579C22.2965 16.2639 22.4335 16.1866 22.7358 16.1324L22.8347 16.1214V16.2153C23.0189 16.1825 23.2039 16.1548 23.3896 16.1324C23.9394 16.0832 24.2252 16.1987 24.2462 16.4623H24.3125L24.302 16.3142H24.3683C24.4343 16.3413 24.4922 16.3849 24.5364 16.4408C24.5807 16.4968 24.6097 16.5632 24.6208 16.6337C24.6137 16.755 24.5671 16.8706 24.4882 16.963C24.444 16.963 24.4219 16.9354 24.4175 16.8752H24.3512L24.3296 17.0619C24.0494 17.4858 23.8483 17.7002 23.7278 17.7107C23.6178 17.8649 23.5465 17.9417 23.5134 17.9417C23.2978 18.1479 23.0574 18.3269 22.7983 18.475C22.302 18.6209 21.8184 18.8088 21.3537 19.0359C21.3116 19.0193 21.266 19.0136 21.2211 19.0194V18.9591C21.2267 18.7962 21.2823 18.639 21.3802 18.5087L21.3835 18.5054ZM25.2216 16.5789V16.6453C25.1889 16.6453 25.1276 16.5469 25.0292 16.3479V16.2877C25.0845 16.2844 25.1508 16.3828 25.216 16.5817L25.2216 16.5789ZM19.1304 17.3267V17.3593C19.0954 17.366 19.0618 17.3791 19.0315 17.3979H19.0039V17.3372L19.1304 17.3267ZM21.1431 17.2797V17.3736C21.1105 17.3736 21.0724 17.4234 21.0227 17.5063V17.4455C21.0658 17.3999 21.0946 17.3426 21.1056 17.2808L21.1431 17.2797ZM20.8303 17.9285L20.8414 18.0489H20.8082L20.7977 17.9285H20.8303ZM20.753 18.1539C20.7474 18.2584 20.7198 18.3131 20.6701 18.3186H20.6375C20.6699 18.2698 20.6872 18.2125 20.6872 18.1539H20.753ZM20.6098 18.4778V18.5098L20.5546 18.6093H20.4883V18.5762C20.5546 18.5762 20.5872 18.5375 20.5822 18.4712L20.6098 18.4778ZM20.4728 18.769L20.4507 18.9276H20.4208L20.4098 18.769H20.4728ZM23.8588 18.8895L23.9964 18.9724C23.9996 18.9854 23.9979 18.999 23.9915 19.0108C23.9852 19.0226 23.9747 19.0315 23.9621 19.0359C23.9538 19.039 23.9449 19.0399 23.9361 19.0387C23.8975 19.007 23.8491 18.9894 23.7991 18.989V18.895H23.8588V18.8895ZM21.2106 19.241V19.3012L21.0779 19.3123V19.2515L21.2106 19.241ZM23.3498 19.4659C23.4437 19.5101 23.4868 19.5488 23.4935 19.5864V19.614C23.4438 19.6143 23.3948 19.6018 23.3513 19.5778C23.3078 19.5538 23.2711 19.5191 23.2448 19.4769L23.3498 19.4659ZM20.5955 20.1423C21.2056 20.0422 21.8006 19.865 22.3661 19.6151L22.5695 19.5985C22.73 19.571 22.8945 19.5783 23.052 19.6197C23.2095 19.6612 23.3563 19.7359 23.4824 19.8389L23.4935 19.9594C23.3443 20.3882 23.1796 20.6408 22.9983 20.7182L22.1677 21.3885C21.8466 21.6188 21.5086 21.8244 21.1564 22.0036C20.5815 22.3664 19.9603 22.6499 19.3095 22.8463H19.2774C19.299 22.7303 19.7406 21.8267 20.6016 20.1351L20.5955 20.1423ZM21.4907 19.7814V19.8141L21.3587 19.8251V19.7919L21.4913 19.7809L21.4907 19.7814ZM24.4877 19.6444L24.5092 19.8969C24.4766 19.9572 24.4484 19.9909 24.4153 19.9959L24.3766 19.567C24.4468 19.5891 24.4849 19.6168 24.4849 19.6444H24.4877ZM19.4106 21.7941C19.3664 22.0036 19.3228 22.113 19.278 22.113V22.0854C19.2728 22.0295 19.2823 21.9732 19.3055 21.9221C19.3288 21.871 19.365 21.8269 19.4106 21.7941ZM20.2418 22.9701C20.9438 22.6974 21.6131 22.3471 22.2373 21.9257V21.9853C22.2373 22.013 22.1495 22.0953 21.9572 22.2263C21.6145 22.3788 21.2868 22.5634 20.9784 22.7762C20.3761 22.9862 20.0826 23.1171 20.0876 23.1663C19.7284 23.2984 19.3775 23.4526 19.0376 23.6289C18.9769 23.6292 18.9174 23.612 18.8663 23.5791C18.8611 23.5265 18.872 23.4736 18.8977 23.4274C18.9234 23.3811 18.9625 23.3439 19.01 23.3205C19.0996 23.3134 19.1897 23.3266 19.2736 23.3592C19.4405 23.2873 19.6134 23.2299 19.7903 23.1879V23.1282L19.5869 23.1448C19.7642 23.0299 19.9565 22.9401 20.1583 22.8778L20.2573 22.8668V22.8944C20.0859 22.911 19.9937 22.9607 19.9721 23.0486C19.9723 23.0572 19.9744 23.0656 19.9783 23.0733C19.9821 23.081 19.9876 23.0877 19.9944 23.093C20.0012 23.0983 20.009 23.102 20.0174 23.1039C20.0258 23.1058 20.0345 23.1057 20.0428 23.1039C20.1799 23.0376 20.2401 22.9834 20.2401 22.9712L20.2418 22.9701ZM19.2139 22.2169V22.2445C19.2162 22.2534 19.2163 22.2627 19.2142 22.2716C19.2121 22.2805 19.2079 22.2888 19.2019 22.2957C19.196 22.3027 19.1884 22.3081 19.1799 22.3115C19.1714 22.3149 19.1622 22.3162 19.1531 22.3153V22.2827C19.1531 22.255 19.1752 22.2274 19.2194 22.2163L19.2139 22.2169ZM20.7784 22.6452C20.6203 22.6846 20.4698 22.7497 20.333 22.8381H20.3004V22.7773C20.4557 22.7657 20.6016 22.6999 20.7132 22.591C20.7579 22.591 20.7795 22.6021 20.7845 22.6408L20.7784 22.6452ZM19.1619 23.0956L19.2603 23.0845V23.1171C19.2254 23.1239 19.1921 23.137 19.1619 23.1558H19.0956C19.0956 23.1227 19.1122 23.1005 19.1559 23.0895L19.1614 23.095L19.1619 23.0956ZM18.496 23.4636L18.5623 23.4913C18.5402 23.6841 18.4794 23.7831 18.391 23.7886C18.3279 23.7573 18.2581 23.7421 18.1877 23.7444V23.6504C18.1877 23.6178 18.2042 23.5952 18.2484 23.5841C18.2916 23.5731 18.3148 23.6117 18.3192 23.6725C18.3706 23.599 18.4297 23.5311 18.4949 23.4697L18.496 23.4636ZM7.71087 15.6129C7.30185 15.9095 6.87415 16.1794 6.43042 16.4209V16.5038C6.47527 16.4959 6.5181 16.4792 6.55642 16.4546C6.61169 16.4546 6.64484 16.4712 6.64484 16.5259L6.73216 16.4762H6.77637V16.5148C6.50577 16.7811 6.20537 17.0153 5.88111 17.2128L5.93084 17.2902H5.88608L5.79213 17.2576C5.79213 17.2852 5.75345 17.3018 5.66558 17.3073V17.3515L5.7645 17.4609C5.71892 17.4604 5.67387 17.451 5.63187 17.4333C5.5118 17.4589 5.39863 17.5099 5.30004 17.5831C5.20145 17.6562 5.11973 17.7497 5.06045 17.8572L5.10963 17.9346C5.19253 17.8445 5.28869 17.7688 5.39479 17.7091L5.40584 17.8296C5.36107 17.8383 5.31822 17.8549 5.27929 17.8787L5.38429 18.0329C5.57576 17.8221 5.7956 17.6389 6.0375 17.4886C6.15798 17.5217 6.21987 17.5549 6.21987 17.598H6.30719C6.88695 17.1556 7.53254 16.8069 8.2204 16.5646V16.6475C8.09992 16.8232 8.02255 16.9111 7.97945 16.9172C7.98498 16.9741 8.00598 17.0288 8.03969 17.0758C7.81165 17.8196 7.52504 18.5441 7.18255 19.2426C6.22297 21.6109 5.1161 23.9167 3.86842 26.1467C3.87673 26.1898 3.89364 26.2307 3.91816 26.2671C4.06792 26.2428 4.21216 26.1887 4.34148 26.108H4.39121V26.1909H4.47411L4.5664 26.1273C4.5664 26.1549 4.59956 26.166 4.65482 26.1599V26.2428C4.64318 26.3801 4.59341 26.5114 4.51113 26.6219C4.37633 26.817 4.27768 27.0347 4.2199 27.2646V27.3033H4.30279C4.62839 26.9485 4.90395 26.5507 5.12179 26.1212C5.95196 25.8982 6.75824 25.5943 7.52905 25.2138C7.9867 25.2011 8.42963 25.0494 8.799 24.7789V24.7347L8.58955 24.7949H8.54037V24.7502C8.83896 24.7261 9.12768 24.632 9.38313 24.4755C10.18 23.8604 10.7796 23.4255 11.1891 23.1674C12.448 22.244 13.0416 21.3531 12.9703 20.5065C12.7411 20.1246 12.4617 19.7752 12.1397 19.4676C12.1286 19.3476 12.322 19.1874 12.7056 18.9669L13.7998 18.0042C14.0866 17.5502 14.2389 17.0242 14.2391 16.4872L14.2225 16.322C14.1783 15.8334 13.8263 15.4378 13.1559 15.1355C12.4979 14.808 11.7644 14.6617 11.0311 14.7116C9.89104 14.8643 8.77626 15.1674 7.71584 15.6129H7.71087ZM13.6097 15.6842L13.5771 15.7671L12.3557 15.2554C13.1692 15.2886 13.587 15.4317 13.6086 15.6842H13.6097ZM8.67411 19.0708C8.757 18.6204 8.84984 18.3612 8.95429 18.3015L9.86724 16.2551C9.85619 16.128 10.0491 16.0296 10.4497 15.9633L10.5823 15.9523L10.5934 16.0727C10.9891 16.0131 11.2311 15.9788 11.3234 15.9683C12.0463 15.9081 12.4232 16.0512 12.4563 16.4076H12.5392L12.5226 16.1982H12.6111C12.7004 16.2335 12.7789 16.2917 12.8387 16.367C12.8985 16.4423 12.9374 16.532 12.9515 16.627C12.9453 16.7882 12.8786 16.9411 12.7647 17.0553C12.7094 17.0553 12.6763 17.0227 12.6707 16.9348H12.5829L12.5608 17.183C12.1927 17.7334 11.9291 18.0136 11.7644 18.0257C11.6158 18.2286 11.5224 18.333 11.4837 18.3385C11.197 18.6097 10.8795 18.8462 10.5376 19.0431C9.88548 19.2354 9.25161 19.4819 8.6404 19.7798C8.58571 19.7538 8.52468 19.7442 8.46466 19.7522V19.6748C8.46963 19.4565 8.54479 19.2454 8.67908 19.0724L8.67355 19.0708H8.67411ZM13.7301 16.5425V16.6198C13.6859 16.6198 13.6036 16.4927 13.482 16.2297V16.1523C13.5494 16.1357 13.6329 16.2728 13.7202 16.5425H13.7301ZM5.70316 17.5212V17.5599C5.65834 17.5687 5.61547 17.5856 5.57661 17.6096H5.5324V17.5322L5.70316 17.5212ZM8.34916 17.4598L8.36021 17.5803C8.32153 17.5803 8.26627 17.6406 8.20105 17.7561V17.6732C8.26232 17.6158 8.30439 17.5409 8.32153 17.4587L8.34916 17.4598ZM7.94187 18.3164L7.959 18.4822H7.91479L7.90098 18.3181L7.94187 18.3164ZM7.83742 18.6143C7.82637 18.7513 7.79321 18.8237 7.71695 18.8287H7.67274C7.71469 18.7663 7.73912 18.6938 7.74348 18.6187L7.83742 18.6143ZM7.65561 19.0431V19.0818L7.57824 19.2139H7.49534V19.1752C7.52166 19.1786 7.5483 19.1723 7.57028 19.1574C7.59227 19.1426 7.60806 19.1202 7.61471 19.0945C7.61916 19.0777 7.61954 19.0601 7.61582 19.0431H7.66003H7.65561ZM7.46882 19.4283L7.44727 19.6317H7.40305L7.38648 19.4283H7.46882ZM11.923 19.5759L12.1054 19.6858C12.1091 19.7031 12.1068 19.7211 12.0989 19.7369C12.0909 19.7527 12.0778 19.7653 12.0617 19.7726C12.0512 19.7775 12.0397 19.78 12.028 19.7798C11.975 19.7397 11.9119 19.715 11.8457 19.7085L11.8352 19.588L11.923 19.5759ZM8.43206 20.0434V20.1208L8.26074 20.1373V20.06L8.43206 20.0434ZM11.2466 20.3286C11.3671 20.3838 11.4284 20.438 11.4334 20.4827V20.5214C11.3687 20.5224 11.3049 20.506 11.2488 20.4739C11.1926 20.4418 11.146 20.3953 11.114 20.3391L11.2466 20.3286ZM7.61858 21.2194C8.42352 21.0881 9.2086 20.8554 9.95511 20.5269L10.2137 20.5054C10.4247 20.4676 10.6414 20.4755 10.8491 20.5287C11.0567 20.5819 11.2506 20.6791 11.4174 20.8138L11.4339 20.9784C11.2372 21.5504 11.0167 21.8803 10.7807 21.9848L9.68155 22.8591C9.2604 23.1618 8.81788 23.4337 8.35745 23.6725C7.60188 24.1535 6.78417 24.5291 5.92698 24.7888H5.87724C5.922 24.6341 6.49895 23.4476 7.62079 21.2144L7.61858 21.2194ZM8.80508 20.7524V20.7911L8.62934 20.8077V20.769L8.80508 20.7524ZM12.7525 20.5767L12.7802 20.9005C12.7415 20.9884 12.7028 21.0332 12.6597 21.0332L12.6105 20.4612C12.7094 20.4943 12.7525 20.533 12.7586 20.5717L12.7525 20.5767ZM6.0679 23.4089C6.01263 23.6897 5.94742 23.8328 5.89216 23.8378V23.7991C5.88899 23.7242 5.90386 23.6497 5.9355 23.5818C5.96714 23.5139 6.01463 23.4546 6.07398 23.4089H6.0679ZM7.16708 24.9596C8.08895 24.595 8.96975 24.1342 9.79484 23.5847V23.662C9.79484 23.6946 9.67437 23.7991 9.42624 23.9809C8.97198 24.176 8.54037 24.4213 8.13971 24.7115C7.34724 24.9861 6.95708 25.1569 6.96371 25.2232C6.49011 25.4 6.02756 25.604 5.57771 25.8333C5.49913 25.8311 5.42213 25.8107 5.35279 25.7736C5.34661 25.7026 5.36157 25.6313 5.39579 25.5688C5.43001 25.5063 5.48196 25.4552 5.54511 25.4222C5.66508 25.4096 5.78626 25.4286 5.89658 25.4774C6.1153 25.3801 6.3437 25.3062 6.57798 25.2569V25.174L6.31934 25.1956C6.55659 25.0504 6.80945 24.9325 7.07313 24.8441L7.20577 24.8331V24.8717C6.98471 24.8883 6.85871 24.9596 6.83108 25.0751C6.83109 25.0914 6.83653 25.1072 6.84654 25.12C6.85656 25.1328 6.87057 25.1419 6.88634 25.1458C6.8974 25.1486 6.90845 25.1486 6.91895 25.1458C7.00737 25.0961 7.08861 25.0331 7.1599 24.9596H7.16708ZM5.81479 23.9604V23.9991C5.81856 24.0163 5.81634 24.0343 5.8085 24.0501C5.80066 24.0659 5.78768 24.0785 5.77169 24.0859C5.76113 24.0908 5.74961 24.0932 5.73798 24.0931V24.0544C5.7362 24.0431 5.73686 24.0315 5.73991 24.0204C5.74296 24.0094 5.74833 23.9991 5.75566 23.9903C5.76291 23.9815 5.77191 23.9743 5.78209 23.9692C5.79227 23.964 5.80341 23.9611 5.81479 23.9604ZM7.87113 24.5214C7.662 24.5744 7.46311 24.6618 7.28258 24.78H7.23837V24.6971C7.4423 24.6832 7.63403 24.5949 7.77719 24.449C7.83245 24.4479 7.86561 24.4755 7.87113 24.5252V24.5214ZM5.73411 25.1182L5.86674 25.1077V25.1519C5.82166 25.1599 5.77862 25.1768 5.74019 25.2017H5.65729C5.66061 25.1641 5.68271 25.1353 5.73466 25.1188L5.73411 25.1182ZM4.8604 25.6073L4.95434 25.646C4.92174 25.8936 4.84934 26.0201 4.72334 26.0312C4.6394 25.9907 4.54674 25.9717 4.45366 25.9759L4.44261 25.8554C4.44261 25.8057 4.46471 25.7781 4.5255 25.7615C4.58684 25.7449 4.61392 25.7941 4.61945 25.8819C4.69074 25.7841 4.77142 25.6941 4.8604 25.6123V25.6073ZM29.248 14.8044L29.1773 14.7768L28.0057 14.9581C27.9564 14.9344 27.9015 14.9248 27.8471 14.9304C27.7414 14.9448 27.6368 14.967 27.5343 14.9968L26.9684 15.2377L27.0126 15.3084C27.0559 15.3033 27.0973 15.2882 27.1337 15.2642L27.3309 15.2808L27.3033 15.4676C27.2239 15.4958 27.1529 15.5436 27.097 15.6068C27.0411 15.6699 27.0022 15.7462 26.9839 15.8285C26.7087 15.9501 26.5711 16.0379 26.5711 16.0921V16.1252H26.6153L26.6927 16.0866L26.7811 16.191L26.7916 16.3347C26.7971 16.3789 26.3318 17.3609 25.3951 19.2813C24.5871 21.1271 24.1616 22.1406 24.1191 22.3219C23.8444 22.3993 23.6797 22.5148 23.6377 22.6629C23.6377 22.7126 23.7256 22.7402 23.8853 22.7568V22.8276L23.8146 22.948L23.8256 23.0917C23.8256 23.1685 24.0351 23.2238 24.4274 23.2669C24.4274 23.2393 24.4385 23.2282 24.4661 23.2227C24.4615 23.4009 24.4355 23.5779 24.3887 23.7499H24.4329C24.5556 23.6195 24.6391 23.4581 24.6739 23.2829H24.7065C24.7452 23.2829 24.7894 23.3271 24.8391 23.4261C24.6217 23.8033 24.4462 24.2032 24.3158 24.6186L24.36 24.6905H24.4048C24.5877 24.1544 24.8192 23.6377 25.0972 23.1453C25.5786 23.1011 26.4119 23.0193 27.599 22.8928L27.6697 22.8486C27.6697 22.8762 27.6863 22.8867 27.7139 22.8806H27.7913L27.8626 22.8364C27.8626 22.864 27.8792 22.8751 27.9068 22.8684L28.8021 22.7911C29.0436 22.7701 29.1541 22.6971 29.143 22.5772C29.143 22.5446 29.2806 22.5065 29.5669 22.4678C29.6079 22.4694 29.6485 22.4768 29.6874 22.4899C29.6874 22.4678 29.8244 22.4451 30.1112 22.4181C30.1112 22.2705 30.1665 22.1871 30.2544 22.1777V22.1064C30.1608 22.116 30.0686 22.1364 29.9797 22.1672C29.8581 22.1672 29.7366 22.1522 29.6188 22.1224C29.5827 22.1463 29.5414 22.1614 29.4984 22.1666L28.8711 22.1887L28.7938 22.2274C28.7938 22.2053 28.7772 22.1942 28.7496 22.1998H28.7169L28.6341 22.2379C28.6341 22.2158 28.5677 22.1992 28.4368 22.1826L28.3594 22.2268L28.2052 22.2379V22.1992C29.0082 22.1113 29.4094 22.0019 29.3989 21.8693C29.4481 21.8693 29.4757 21.8914 29.4818 21.9406L29.7222 21.8798V21.8091L27.7963 21.8643C27.7963 21.8919 27.7852 21.903 27.7576 21.9091L27.5172 21.887C27.4632 21.8894 27.4113 21.909 27.3691 21.9428L27.2807 21.9102C27.0969 21.9216 26.9148 21.9512 26.7369 21.9986C26.5536 21.985 26.3697 21.985 26.1864 21.9986L25.7521 22.0367L25.5548 22.0146C25.7383 21.3638 25.9887 20.7338 26.3019 20.1346C26.3793 19.8693 26.5208 19.6273 26.7153 19.4305C26.7568 19.4322 26.7977 19.4416 26.8352 19.4582L27.1436 19.3532L27.3028 19.3808C27.6187 19.3455 27.9289 19.2699 28.2257 19.1559C28.2921 19.1483 28.3593 19.1539 28.4235 19.1724L28.6639 19.1172L29.3624 19.0575C29.6891 19.0236 30.0115 18.9573 30.3251 18.8597V18.7895C30.1925 18.8005 30.1278 18.7784 30.1217 18.7287C30.1107 18.6303 30.0167 18.5922 29.8366 18.6088V18.538L30.0294 18.4828L30.5346 18.438V18.3667H30.2218V18.2893L30.4191 18.2728C30.4688 18.2728 30.4964 18.2402 30.4903 18.1954C30.2267 18.1954 30.0941 18.1954 30.0941 18.1573C29.1808 18.247 28.2618 18.2636 27.3459 18.207C27.302 18.212 27.2603 18.229 27.2254 18.2562L27.1618 18.1584C27.3669 17.6002 27.6537 17.0763 28.014 16.6033C28.0106 16.6716 27.9899 16.738 27.9538 16.7961V16.8282H28.0311C28.2234 16.3662 28.3826 16.1302 28.5197 16.1192C29.0916 16.07 28.4368 16.0313 29.668 15.839C29.7012 15.8578 29.7393 15.8677 29.7774 15.8666C30.2593 15.7677 30.9324 15.6693 31.7951 15.5643V15.4936L31.3331 15.5378V15.4671C31.3835 15.4635 31.4314 15.4441 31.4702 15.4118V15.4505C31.5094 15.445 31.5461 15.4277 31.5752 15.4007C31.6366 15.3922 31.6992 15.3996 31.757 15.4223C31.883 15.3864 32.0112 15.3609 32.1422 15.3449L32.4273 15.3173C32.4981 15.2731 32.5323 15.2344 32.5257 15.1974V15.1642C32.4411 15.1688 32.3564 15.1632 32.2731 15.1476C32.2731 15.1089 32.2897 15.0813 32.3394 15.0708L32.8727 15.0211L33.1209 14.9614C33.1209 14.989 33.1374 15.0001 33.1529 15.0001C33.1922 14.9947 33.2288 14.9773 33.2579 14.9503C33.3303 14.9642 33.4044 14.9697 33.4784 14.9669C33.5768 14.873 33.6923 14.7978 33.8188 14.747C33.7761 14.7115 33.7454 14.6636 33.731 14.6099L33.3701 14.642C33.3639 14.6035 33.3508 14.5664 33.3314 14.5326C33.3314 14.4999 33.4088 14.4662 33.5724 14.4342L33.6431 14.4618L33.7094 14.4231C33.7088 14.4303 33.711 14.4374 33.7155 14.443C33.7201 14.4486 33.7266 14.4521 33.7337 14.453C33.7386 14.4535 33.7436 14.4528 33.7481 14.4508L33.8144 14.4121C33.8138 14.4192 33.816 14.4264 33.8205 14.4319C33.8251 14.4375 33.8316 14.4411 33.8387 14.4419C33.8435 14.4424 33.8482 14.4416 33.8526 14.4397H33.8852V14.3684H33.495L33.4287 14.4126V14.3739C31.752 14.5121 30.8009 14.5889 30.576 14.6154H30.2245C30.2245 14.6431 30.2024 14.6597 30.1532 14.6597L30.0819 14.6271L29.8344 14.6878C29.7372 14.6908 29.6398 14.6871 29.5431 14.6768C29.5031 14.7073 29.4555 14.7263 29.4055 14.7321C29.3503 14.7321 30.7357 14.6547 30.6926 14.6331L30.4782 14.6939H30.4456C30.3355 14.7002 30.2251 14.6965 30.1157 14.6829C30.0635 14.7175 30.0025 14.7366 29.9399 14.7381C29.8905 14.744 29.8405 14.7343 29.7968 14.7105C29.7366 14.7271 29.5564 14.7707 29.2635 14.831L29.248 14.8044ZM29.3364 15.0244C29.3364 15.052 29.3641 15.0631 29.4072 15.057V15.1283H29.3364C29.2868 15.1342 29.2366 15.1245 29.1928 15.1007C29.1536 15.1324 29.1059 15.1516 29.0557 15.1559H29.0889L28.891 15.1338V15.1018C29.0458 15.094 29.1994 15.0664 29.3469 15.0189L29.3364 15.0244ZM29.5183 15.0078H29.5569V15.0786L29.447 15.0896C29.4457 15.0793 29.4467 15.0689 29.4498 15.059C29.4529 15.0491 29.4582 15.04 29.4652 15.0323C29.4721 15.0247 29.4807 15.0186 29.4903 15.0146C29.4998 15.0105 29.5101 15.0086 29.5205 15.0089L29.5183 15.0078ZM29.9421 14.9636V15.0017C29.8356 15.0122 29.7305 15.0344 29.6288 15.0681H29.5901L29.6233 14.9907L29.9361 14.9581L29.9421 14.9636ZM26.8192 15.3245L26.9397 15.3134V15.2421L26.8192 15.2532V15.3245ZM27.6824 15.2471H27.7266L27.8095 15.2797C27.8117 15.2897 27.8115 15.3001 27.8089 15.31C27.8063 15.3199 27.8014 15.329 27.7946 15.3366C27.7876 15.3441 27.779 15.3498 27.7694 15.3533C27.7598 15.3567 27.7495 15.3579 27.7393 15.3565L27.6183 15.3676V15.3289C27.6073 15.2836 27.6349 15.2615 27.6846 15.2449L27.6824 15.2471ZM30.4511 15.4063V15.4383L30.203 15.4604V15.4273L30.4511 15.4063ZM29.7421 15.5113V15.5494L29.5984 15.5604V15.5218L29.7421 15.5107V15.5113ZM29.9349 15.6759C29.9841 15.6759 30.0057 15.6925 30.0118 15.7423L29.8018 15.7638V15.6925L29.9399 15.6759H29.9349ZM30.4666 15.6085L30.3246 15.6483L30.2743 15.6168L29.5006 15.6527V15.6914L30.7871 15.6312V15.5925L30.4666 15.6085ZM29.5768 15.7528V15.7854L29.2967 15.813V15.7743L29.5768 15.7528ZM27.7355 17.2095V17.2482H27.8184C27.8184 17.2062 27.8283 17.1653 27.846 17.1277V17.0564C27.8018 17.0564 27.7631 17.1117 27.7366 17.2112L27.7355 17.2095ZM24.9038 21.3216V21.3542C24.9038 21.404 24.8822 21.4316 24.8264 21.4371V21.4045C24.8209 21.3576 24.8474 21.336 24.9027 21.3194L24.9038 21.3216ZM24.8331 21.4758C24.8098 21.6593 24.7612 21.8389 24.6894 22.0091L24.5694 22.0202C24.6098 21.835 24.6722 21.656 24.7557 21.4869L24.8331 21.4758ZM26.1572 22.6242C26.1572 22.6629 26.0969 22.7071 25.9704 22.7507L25.73 22.7342H25.6526V22.6623L26.1643 22.6181L26.1572 22.6242ZM26.3981 22.6463V22.6783L26.2003 22.6949V22.6629L26.3981 22.6463Z" fill="#FBC02D"/>
</svg>
