<svg width="42" height="42" viewBox="0 0 42 42" fill="none" xmlns="http://www.w3.org/2000/svg">
<path d="M32.6053 11.0526L30.4406 34.9236L20.7088 37.579L11.0045 34.9274L8.8421 11.0526H32.6053Z" fill="#E44D26"/>
<path d="M20.4474 35.3684L28.5003 33.2121L30.3947 12.7105H20.4474V35.3684Z" fill="#F16529"/>
<path d="M16.3944 18.9503H20.4474V16.0263H13.2632L13.3317 16.811L14.0357 24.8684H20.4474V21.9444H16.6563L16.3944 18.9503ZM17.1509 25.9737H14.3684L14.7569 30.8424L20.4347 32.6053L20.4474 32.6014V29.3757L20.4352 29.379L17.3482 28.4467L17.1509 25.9737Z" fill="#EBEBEB"/>
<path d="M11.0526 4.42105H12.5696V5.8811H13.9567V4.42105H15.4737V8.8421H13.9567V7.3616H12.5696V8.8421H11.0526V4.42105ZM17.2598 5.88718H16.0263V4.42105H19.8947V5.88718H18.6607V8.8421H17.2598V5.88718ZM21 4.42105H22.5396L23.4869 5.9745L24.4335 4.42105H25.9737V8.8421H24.5031V6.65092L23.4869 8.2226H23.4614L22.4446 6.65092V8.8421H21V4.42105ZM26.5263 4.42105H28.1345V7.38095H30.3947V8.8421H26.5263V4.42105Z" fill="#8B8B8B"/>
<path d="M20.4474 24.5904H24.2533L23.8941 28.5307L20.4474 29.4442V32.6053L26.7833 30.8794L26.8297 30.366L27.5564 22.3683L27.6316 21.5526H20.4474V24.5904ZM20.4474 18.7828V18.7895H27.9079L27.9698 18.1683L28.1107 16.7674L28.1842 16.0263H20.4474V18.7828Z" fill="white"/>
</svg>
