<svg width="76" height="76" viewBox="0 0 76 76" fill="none" xmlns="http://www.w3.org/2000/svg">
<path d="M65.3168 23.5474C65.337 23.6222 65.3475 23.6993 65.3475 23.7767V35.8174C65.3475 36.132 65.1793 36.4225 64.9064 36.579L54.8004 42.3975V53.9301C54.8004 54.2439 54.6336 54.5336 54.3614 54.6917L33.2661 66.8355C33.2178 66.8629 33.1651 66.8805 33.1125 66.8991C33.0927 66.9057 33.074 66.9178 33.0532 66.9233C32.9057 66.9621 32.7507 66.9621 32.6033 66.9233C32.5791 66.9167 32.5572 66.9035 32.5341 66.8948C32.4858 66.8772 32.4354 66.8618 32.3893 66.8355L11.2983 54.6917C11.0256 54.535 10.8571 54.2446 10.8571 53.9301V17.808C10.8571 17.729 10.8681 17.6521 10.8879 17.5775C10.8945 17.5523 10.9098 17.5292 10.9186 17.504C10.9351 17.4579 10.9504 17.4107 10.9746 17.3679C10.991 17.3394 11.0152 17.3163 11.0349 17.29C11.0602 17.2549 11.0832 17.2187 11.1128 17.1879C11.1381 17.1627 11.171 17.1441 11.1995 17.1221C11.2314 17.0958 11.2599 17.0672 11.2961 17.0464L21.8432 10.9745C22.115 10.8181 22.4494 10.8181 22.7212 10.9745L33.2672 17.0464H33.2694C33.3045 17.0683 33.3341 17.0958 33.366 17.121C33.3945 17.143 33.4263 17.1627 33.4516 17.1868C33.4823 17.2187 33.5042 17.2549 33.5306 17.29C33.5492 17.3163 33.5745 17.3394 33.5898 17.3679C33.6151 17.4118 33.6293 17.4579 33.6469 17.504C33.6557 17.5292 33.671 17.5523 33.6776 17.5786C33.6978 17.6534 33.7082 17.7305 33.7083 17.808V40.3695L42.4963 35.3093V23.7756C42.4963 23.6988 42.5073 23.6209 42.5271 23.5474C42.5347 23.5211 42.549 23.498 42.5578 23.4728C42.5753 23.4267 42.5907 23.3795 42.6149 23.3367C42.6313 23.3082 42.6555 23.2851 42.6741 23.2588C42.7005 23.2237 42.7224 23.1874 42.7531 23.1567C42.7784 23.1315 42.8102 23.1128 42.8387 23.0909C42.8716 23.0645 42.9002 23.036 42.9353 23.0151L53.4835 16.9432C53.7552 16.7866 54.0898 16.7866 54.3614 16.9432L64.9075 23.0151C64.9448 23.0371 64.9733 23.0645 65.0062 23.0898C65.0337 23.1117 65.0655 23.1315 65.0907 23.1556C65.1215 23.1874 65.1434 23.2237 65.1698 23.2588C65.1895 23.2851 65.2137 23.3082 65.229 23.3367C65.2543 23.3795 65.2685 23.4267 65.2861 23.4728C65.296 23.498 65.3102 23.5211 65.3168 23.5474ZM63.5895 35.3093V25.2966L59.8989 27.4212L54.8004 30.3568V40.3695L63.5895 35.3093ZM53.0435 53.422V43.4027L48.0283 46.2669L33.7072 54.4403V64.554L53.0435 53.422ZM12.6152 19.3279V53.422L31.9492 64.5529V54.4414L21.8487 48.7251L21.8454 48.7229L21.841 48.7207C21.807 48.7009 21.7785 48.6724 21.7467 48.6483C21.7192 48.6263 21.6874 48.6088 21.6633 48.5846L21.6611 48.5813C21.6325 48.5539 21.6128 48.5199 21.5886 48.4891C21.5667 48.4595 21.5404 48.4343 21.5228 48.4035L21.5217 48.4002C21.5019 48.3673 21.4899 48.3278 21.4756 48.2905C21.4613 48.2576 21.4427 48.2269 21.4339 48.1917C21.4229 48.15 21.4207 48.105 21.4163 48.0622C21.412 48.0293 21.4032 47.9964 21.4032 47.9635V47.9613V24.388L16.3057 21.4514L12.6152 19.3279ZM22.2833 12.7501L13.4964 17.808L22.2811 22.8659L31.0669 17.8069L22.2811 12.7501H22.2833ZM26.8529 44.3157L31.9503 41.3813V19.3279L28.2597 21.4524L23.1612 24.388V46.4414L26.8529 44.3157ZM53.9225 18.7188L45.1367 23.7767L53.9225 28.8347L62.7072 23.7756L53.9225 18.7188ZM53.0435 30.3568L47.9449 27.4212L44.2544 25.2966V35.3093L49.3518 38.2438L53.0435 40.3695V30.3568ZM32.8271 52.9204L45.7139 45.5635L52.1557 41.8872L43.3765 36.8325L33.2683 42.6521L24.0556 47.9558L32.8271 52.9204Z" fill="#FF2D20" stroke="#FF2D20"/>
</svg>
