<svg width="42" height="42" viewBox="0 0 42 42" fill="none" xmlns="http://www.w3.org/2000/svg">
<path d="M36.0961 13.013C36.1073 13.0543 36.1131 13.097 36.1131 13.1398V19.7938C36.1131 19.9677 36.0201 20.1282 35.8693 20.2147L30.2844 23.4302V29.8034C30.2844 29.9769 30.1923 30.137 30.0419 30.2243L18.3839 36.9354C18.3572 36.9506 18.3281 36.9603 18.299 36.9706C18.2881 36.9742 18.2778 36.9809 18.2662 36.9839C18.1847 37.0054 18.0991 37.0054 18.0176 36.9839C18.0042 36.9803 17.9921 36.973 17.9794 36.9681C17.9527 36.9584 17.9248 36.9499 17.8993 36.9354L6.2438 30.2243C6.09309 30.1377 6 29.9772 6 29.8034V9.84123C6 9.79757 6.00606 9.75512 6.01698 9.71388C6.02062 9.69993 6.02911 9.68719 6.03396 9.67324C6.04306 9.64777 6.05155 9.62169 6.06489 9.59804C6.07399 9.58227 6.08733 9.56954 6.09825 9.55498C6.11219 9.53558 6.12493 9.51556 6.1413 9.49858C6.15525 9.48463 6.17345 9.47432 6.18922 9.4622C6.2068 9.44764 6.22257 9.43187 6.24258 9.42035L12.0713 6.06481C12.2214 5.9784 12.4062 5.9784 12.5564 6.06481L18.3845 9.42035H18.3857C18.4051 9.43248 18.4215 9.44764 18.4391 9.46159C18.4548 9.47372 18.4724 9.48463 18.4864 9.49798C18.5034 9.51556 18.5155 9.53558 18.53 9.55498C18.5404 9.56954 18.5543 9.58227 18.5628 9.59804C18.5767 9.6223 18.5846 9.64777 18.5943 9.67324C18.5992 9.68719 18.6077 9.69993 18.6113 9.71448C18.6225 9.75581 18.6282 9.79842 18.6283 9.84123V22.3094L23.4848 19.513V13.1392C23.4848 13.0967 23.4909 13.0536 23.5018 13.013C23.506 12.9985 23.5139 12.9857 23.5188 12.9718C23.5285 12.9463 23.537 12.9202 23.5503 12.8966C23.5594 12.8808 23.5728 12.8681 23.5831 12.8535C23.5976 12.8341 23.6097 12.8141 23.6267 12.7971C23.6407 12.7832 23.6583 12.7729 23.674 12.7607C23.6922 12.7462 23.708 12.7304 23.7274 12.7189L29.5567 9.36334C29.7068 9.2768 29.8917 9.2768 30.0419 9.36334L35.8699 12.7189C35.8905 12.731 35.9063 12.7462 35.9245 12.7601C35.9397 12.7722 35.9573 12.7832 35.9712 12.7965C35.9882 12.8141 36.0003 12.8341 36.0149 12.8535C36.0258 12.8681 36.0391 12.8808 36.0476 12.8966C36.0616 12.9202 36.0694 12.9463 36.0791 12.9718C36.0846 12.9857 36.0925 12.9985 36.0961 13.013ZM35.1416 19.513V13.9797L33.102 15.1538L30.2844 16.7761V22.3094L35.1416 19.513ZM29.3135 29.5226V23.9857L26.542 25.5685L18.6277 30.0854V35.6746L29.3135 29.5226ZM6.97155 10.6812V29.5226L17.6561 35.674V30.086L12.0743 26.927L12.0725 26.9258L12.07 26.9246C12.0512 26.9137 12.0355 26.8979 12.0179 26.8845C12.0027 26.8724 11.9851 26.8627 11.9718 26.8494L11.9706 26.8476C11.9548 26.8324 11.9439 26.8136 11.9306 26.7966C11.9184 26.7802 11.9039 26.7663 11.8942 26.7493L11.8936 26.7475C11.8827 26.7293 11.876 26.7075 11.8681 26.6868C11.8602 26.6686 11.8499 26.6517 11.8451 26.6323C11.839 26.6092 11.8378 26.5843 11.8353 26.5607C11.8329 26.5425 11.8281 26.5243 11.8281 26.5061V26.5049V13.4776L9.01107 11.8547L6.97155 10.6812ZM12.3144 7.04606L7.45853 9.84123L12.3132 12.6364L17.1685 9.84063L12.3132 7.04606H12.3144ZM14.8397 24.4902L17.6567 22.8686V10.6812L15.6172 11.8553L12.7996 13.4776V25.665L14.8397 24.4902ZM29.7993 10.3446L24.944 13.1398L29.7993 15.9349L34.654 13.1392L29.7993 10.3446ZM29.3135 16.7761L26.4959 15.1538L24.4564 13.9797V19.513L27.2734 21.1347L29.3135 22.3094V16.7761ZM18.1413 29.2455L25.263 25.1798L28.8229 23.1482L23.9712 20.3548L18.3851 23.5709L13.2939 26.5019L18.1413 29.2455Z" fill="#FF2D20" stroke="#FF2D20"/>
</svg>
