<svg width="42" height="42" viewBox="0 0 42 42" fill="none" xmlns="http://www.w3.org/2000/svg">
<path d="M35.503 14.1441C35.5028 13.588 35.3838 13.0966 35.1433 12.675C34.9071 12.2602 34.5533 11.9126 34.0787 11.6378C30.1614 9.37904 26.2402 7.12723 22.3241 4.86614C21.2684 4.25663 20.2447 4.27896 19.1968 4.89722C17.6376 5.81667 9.8311 10.2892 7.50485 11.6365C6.54686 12.1913 6.08066 13.04 6.08044 14.1431C6.07895 18.6856 6.08044 23.2282 6.07895 27.7706C6.07895 28.3145 6.19307 28.7965 6.42296 29.2118C6.65932 29.639 7.01809 29.9961 7.50358 30.2772C9.82994 31.6246 17.6375 36.0967 19.1963 37.0165C20.2447 37.6351 21.2684 37.6572 22.3245 37.0476C26.2407 34.7864 30.1621 32.5346 34.08 30.2758C34.5655 29.9949 34.9242 29.6375 35.1606 29.2106C35.3902 28.7952 35.5045 28.3134 35.5045 27.7694C35.5045 27.7694 35.5045 18.6867 35.503 14.1441Z" fill="#A179DC"/>
<path d="M20.837 20.9126L6.42319 29.2117C6.65955 29.639 7.01832 29.9961 7.5038 30.2771C9.83016 31.6246 17.6377 36.0967 19.1966 37.0165C20.245 37.6351 21.2686 37.6572 22.3247 37.0476C26.2409 34.7864 30.1623 32.5345 34.0802 30.2758C34.5657 29.9949 34.9245 29.6375 35.1609 29.2106L20.837 20.9126Z" fill="#280068"/>
<path d="M35.5033 14.1441C35.503 13.5881 35.3841 13.0967 35.1436 12.675L20.837 20.9127L35.1609 29.2106C35.3904 28.7952 35.5045 28.3134 35.5048 27.7693C35.5048 27.7693 35.5048 18.6867 35.5033 14.1441Z" fill="#390091"/>
<path d="M29.3233 17.8102V19.3614H30.8746V17.8102H31.6503V19.3614H33.2015V20.1371H31.6503V21.6882H33.2015V22.4639H31.6503V24.0152H30.8746V22.4639H29.3233V24.0152H28.5477V22.4639H26.9965V21.6882H28.5477V20.1371H26.9965V19.3614H28.5477V17.8102H29.3233ZM30.8746 20.137H29.3233V21.6882H30.8746V20.137Z" fill="white"/>
<path d="M20.8686 10.0194C24.9148 10.0194 28.4474 12.2168 30.3396 15.4831L30.3212 15.4517L25.5605 18.1927C24.6226 16.6047 22.9033 15.533 20.9307 15.5109L20.8685 15.5105C17.8607 15.5105 15.4222 17.949 15.4222 20.9568C15.4212 21.9048 15.6689 22.8366 16.1405 23.6589C17.0793 25.2979 18.8442 26.4032 20.8686 26.4032C22.9056 26.4032 24.6805 25.2838 25.6145 23.6274L25.5918 23.6671L30.3452 26.4208C28.4738 29.6595 24.9896 31.8501 20.9904 31.8938L20.8686 31.8944C16.8097 31.8944 13.2671 29.6834 11.3796 26.3999C10.4582 24.7969 9.93102 22.9386 9.93102 20.9568C9.93102 14.9163 14.8279 10.0194 20.8686 10.0194Z" fill="white"/>
</svg>
