<svg width="42" height="42" viewBox="0 0 42 42" fill="none" xmlns="http://www.w3.org/2000/svg">
<path d="M12.1922 12.673C12.3143 12.4652 12.4729 12.2657 12.7012 12.1679C12.7951 12.1513 12.8885 12.1601 12.9819 12.1601H17.5897C17.4554 12.274 17.325 12.3922 17.236 12.547C16.9995 12.9338 16.8409 13.3649 16.6945 13.7959C16.2789 15.099 15.9899 16.4375 15.7091 17.7771C15.582 18.3839 15.4615 18.9918 15.3472 19.6008C14.9968 21.5869 14.6343 23.5687 14.1828 25.5349C13.9672 26.4429 13.7473 27.3503 13.4135 28.2257C13.2588 28.5877 13.1084 28.9745 12.8111 29.2425C12.742 29.3039 12.673 29.3812 12.5752 29.3696H8.50447C8.22815 29.3613 7.95515 29.3857 7.67828 29.3569C7.86176 29.2149 8.02423 29.0436 8.13034 28.8402C8.43539 28.2583 8.6266 27.6272 8.81007 26.9999C9.09468 25.9908 9.32292 24.969 9.53844 23.9478C9.67273 23.2758 9.83134 22.6082 9.92915 21.9329C10.0397 21.1796 10.206 20.4352 10.3403 19.6859C10.552 18.5828 10.7758 17.4798 11.0245 16.385C11.2234 15.5301 11.4273 14.6796 11.6998 13.8451C11.8341 13.4417 11.9805 13.0432 12.1922 12.673Z" fill="#EB7077" stroke="#EB7077" stroke-width="0.034"/>
<path d="M17.5897 12.1601C17.7074 12.1601 17.8257 12.1557 17.9434 12.1601C18.2042 12.2983 18.4242 12.5182 18.5457 12.7907C18.7088 13.1001 18.8431 13.4262 18.9652 13.7594C19.3725 15.0172 19.6493 16.3115 19.9262 17.6019C20.1616 18.758 20.386 19.9179 20.5977 21.0818C20.6142 21.1426 20.5938 21.2288 20.675 21.2448C20.3821 22.7756 20.0931 24.3097 19.7267 25.8283C19.5272 26.6462 19.3156 27.4603 19.0138 28.25C18.8513 28.6446 18.6845 29.0762 18.3385 29.3569C18.1186 29.4061 17.96 29.2392 17.8257 29.0883C17.5936 28.791 17.451 28.4412 17.3128 28.0908C16.8525 26.8375 16.5723 25.531 16.2871 24.2285C16.0716 23.2149 15.8798 22.1931 15.6803 21.1757C15.5908 20.6585 15.4687 20.1501 15.3996 19.6333C15.3875 19.6251 15.3587 19.6085 15.3466 19.6002C15.4615 18.9917 15.5825 18.3838 15.7091 17.7765C15.9898 16.438 16.2788 15.0984 16.6944 13.7964C16.8409 13.3648 16.9995 12.9332 17.236 12.5464C17.325 12.3917 17.4554 12.2745 17.5897 12.1601Z" fill="#F6A2AD" stroke="#F6A2AD" stroke-width="0.034"/>
<path d="M22.6816 12.8642C22.8281 12.5834 23.0071 12.2701 23.3243 12.164C24.9408 12.1557 26.5567 12.1601 28.1726 12.1601C28.0217 12.3104 27.8631 12.4613 27.7609 12.652C27.4481 13.214 27.2646 13.8368 27.0773 14.4519C26.597 16.1446 26.2594 17.8749 25.9377 19.6046C25.6442 21.3133 25.3185 23.0162 24.9607 24.7126C24.7739 25.5675 24.5783 26.418 24.3301 27.2602C24.171 27.7819 24.0041 28.3069 23.7443 28.791C23.6172 29.011 23.4708 29.2513 23.2309 29.3652C21.6886 29.3773 20.1417 29.3652 18.5993 29.3691C18.5137 29.3691 18.4242 29.3691 18.3385 29.3569C18.6844 29.0762 18.8513 28.6446 19.0144 28.25C19.3156 27.4603 19.5272 26.6462 19.7267 25.8278C20.0931 24.3097 20.3816 22.7756 20.675 21.2448C21.0287 19.2708 21.399 17.2968 21.8715 15.3471C22.0914 14.5044 22.3025 13.6495 22.6816 12.8642Z" fill="#EB7077" stroke="#EB7077" stroke-width="0.034"/>
<path d="M28.1726 12.1601C28.3025 12.1601 28.4368 12.1557 28.5672 12.1601C28.7788 12.2701 28.9297 12.4569 29.064 12.6481C29.2834 12.9984 29.4221 13.393 29.5647 13.7799C29.9018 14.8177 30.1549 15.8843 30.3864 16.9509C30.6959 18.3877 30.9645 19.8323 31.2292 21.2774C31.2944 21.6234 31.3596 21.9737 31.4005 22.3236L31.4613 22.3843C31.3149 22.5883 31.2579 22.832 31.1761 23.0641C30.9197 23.8908 30.7528 24.7452 30.6103 25.5962C30.5036 26.2649 30.3474 26.9248 30.1427 27.5702C29.988 28.0466 29.8001 28.5186 29.4912 28.9176C29.3417 29.1075 29.1472 29.2572 28.9253 29.353C28.5876 29.3895 28.3881 29.064 28.2251 28.8236C27.8874 28.2334 27.7045 27.5747 27.5089 26.9308C26.8656 24.5501 26.4467 22.1119 25.9947 19.6903C25.9931 19.6724 25.9871 19.6551 25.9772 19.6402C25.9672 19.6252 25.9537 19.613 25.9378 19.6046C26.2594 17.8749 26.597 16.1451 27.0773 14.4513C27.2652 13.8368 27.4475 13.214 27.7614 12.6525C27.8631 12.4613 28.0217 12.3104 28.1726 12.1601ZM3.86841 21.42C3.97451 21.4117 4.08007 21.3957 4.19004 21.3957H8.62657C8.81391 21.42 9.00954 21.4034 9.18859 21.4852C9.45072 21.5931 9.67955 21.7685 9.85175 21.9936C9.8722 21.9815 9.90867 21.9494 9.92912 21.9328C9.83186 22.6082 9.6727 23.2757 9.53841 23.9477C9.32288 24.969 9.09465 25.9908 8.81004 27.0005C8.62657 27.6272 8.43536 28.2583 8.1303 28.8402C8.0242 29.0436 7.86172 29.2143 7.67825 29.3569C7.60917 29.3691 7.55667 29.3204 7.4992 29.284C7.30799 29.1618 7.19801 28.9502 7.0803 28.759C6.52215 27.489 6.46136 26.0842 6.11541 24.7579C5.94022 24.0942 5.7247 23.4349 5.40693 22.8237C5.21186 22.4578 4.97146 22.108 4.65812 21.8267C4.42601 21.6399 4.15743 21.4891 3.86841 21.42Z" fill="#F6A2AD" stroke="#F6A2AD" stroke-width="0.034"/>
<path d="M31.8194 21.8433C32.0758 21.5543 32.4583 21.3714 32.8451 21.3874H36.183C36.6472 21.3957 37.1147 21.3708 37.579 21.3996C37.4408 21.4935 37.2739 21.53 37.1269 21.6074C36.6148 21.8388 36.1878 22.2245 35.9056 22.7104C35.4624 23.4841 35.3076 24.3711 35.1772 25.2415C35.0473 26.0969 35.0512 26.98 34.7743 27.8106C34.5876 28.3926 34.3024 28.9784 33.81 29.3613C32.2792 29.3779 30.7484 29.3652 29.2226 29.3691C29.1209 29.3691 29.0237 29.3735 28.9253 29.3525C29.1472 29.2569 29.3417 29.1074 29.4912 28.9176C29.8007 28.5186 29.988 28.0466 30.1422 27.5702C30.347 26.9248 30.5035 26.265 30.6103 25.5962C30.7528 24.7452 30.9197 23.8903 31.1762 23.0646C31.258 22.8325 31.3143 22.5883 31.4613 22.3849C31.5829 22.2053 31.6647 21.9981 31.8194 21.8433Z" fill="#EB7077" stroke="#EB7077" stroke-width="0.034"/>
</svg>
