<svg width="42" height="42" viewBox="0 0 42 42" fill="none" xmlns="http://www.w3.org/2000/svg">
<path d="M20.5956 9.41584C20.5956 9.30266 20.6179 9.19058 20.6612 9.08601C20.7045 8.98144 20.768 8.88643 20.8481 8.80639C20.9281 8.72636 21.0232 8.66287 21.1278 8.61956C21.2324 8.57625 21.3445 8.55395 21.4577 8.55395C21.5709 8.55395 21.683 8.57625 21.7876 8.61956C21.8922 8.66287 21.9872 8.72636 22.0673 8.80639C22.1473 8.88643 22.2108 8.98144 22.2541 9.08601C22.2975 9.19058 22.3198 9.30266 22.3198 9.41584C22.3198 9.64443 22.2289 9.86366 22.0673 10.0253C21.9056 10.1869 21.6863 10.2777 21.4577 10.2777C21.229 10.2777 21.0098 10.1869 20.8481 10.0253C20.6864 9.86366 20.5956 9.64443 20.5956 9.41584ZM10.3105 17.2191C10.3105 17.1059 10.3328 16.9938 10.3761 16.8893C10.4195 16.7847 10.483 16.6897 10.563 16.6096C10.6431 16.5296 10.7381 16.4661 10.8427 16.4228C10.9473 16.3795 11.0594 16.3572 11.1726 16.3572C11.2858 16.3572 11.3979 16.3795 11.5025 16.4228C11.6071 16.4661 11.7021 16.5296 11.7822 16.6096C11.8622 16.6897 11.9257 16.7847 11.969 16.8893C12.0124 16.9938 12.0347 17.1059 12.0347 17.2191C12.0347 17.4477 11.9438 17.6669 11.7822 17.8285C11.6205 17.9902 11.4012 18.081 11.1726 18.081C10.944 18.081 10.7247 17.9902 10.563 17.8285C10.4013 17.6669 10.3105 17.4477 10.3105 17.2191ZM30.8807 17.259C30.8807 17.0304 30.9715 16.8111 31.1332 16.6495C31.2949 16.4879 31.5141 16.3971 31.7428 16.3971C31.9714 16.3971 32.1907 16.4879 32.3523 16.6495C32.514 16.8111 32.6048 17.0304 32.6048 17.259C32.6048 17.4875 32.514 17.7068 32.3523 17.8684C32.1907 18.03 31.9714 18.1208 31.7428 18.1208C31.5141 18.1208 31.2949 18.03 31.1332 17.8684C30.9715 17.7068 30.8807 17.4875 30.8807 17.259ZM12.8052 18.4426C12.9957 18.3575 13.1447 18.2005 13.2196 18.0058C13.2945 17.8112 13.2893 17.5947 13.205 17.404L12.8224 16.5394H14.3272V23.3185H11.2913C10.9168 22.0028 10.8001 20.6272 10.9478 19.2673L12.8052 18.4426ZM19.0981 18.6093V16.611H22.6805C22.8655 16.611 23.9859 16.8248 23.9859 17.6623C23.9859 18.3583 23.1247 18.6084 22.4177 18.6084L19.0981 18.6093ZM14.2066 29.368C14.2066 29.2548 14.2289 29.1428 14.2723 29.0382C14.3156 28.9336 14.3791 28.8386 14.4591 28.7586C14.5392 28.6785 14.6342 28.6151 14.7388 28.5717C14.8434 28.5284 14.9555 28.5061 15.0687 28.5061C15.1819 28.5061 15.294 28.5284 15.3986 28.5717C15.5032 28.6151 15.5982 28.6785 15.6783 28.7586C15.7583 28.8386 15.8218 28.9336 15.8652 29.0382C15.9085 29.1428 15.9308 29.2548 15.9308 29.368C15.9308 29.5966 15.84 29.8158 15.6783 29.9775C15.5166 30.1391 15.2973 30.2299 15.0687 30.2299C14.8401 30.2299 14.6208 30.1391 14.4591 29.9775C14.2975 29.8158 14.2066 29.5966 14.2066 29.368ZM26.9819 29.4079C26.9819 29.1793 27.0727 28.9601 27.2343 28.7985C27.396 28.6368 27.6153 28.546 27.8439 28.546C28.0726 28.546 28.2918 28.6368 28.4535 28.7985C28.6152 28.9601 28.706 29.1793 28.706 29.4079C28.706 29.6365 28.6152 29.8557 28.4535 30.0174C28.2918 30.179 28.0726 30.2698 27.8439 30.2698C27.6153 30.2698 27.396 30.179 27.2343 30.0174C27.0727 29.8557 26.9819 29.6365 26.9819 29.4079ZM27.2484 27.453C26.8223 27.3624 26.4053 27.6325 26.3147 28.0575L25.8823 30.0768C24.4906 30.7069 22.9794 31.0293 21.4517 31.022C19.924 31.0146 18.4159 30.6777 17.0304 30.0342L16.598 28.0149C16.5073 27.589 16.0903 27.3189 15.6643 27.4104L13.8812 27.7929C13.5499 27.4517 13.2419 27.0887 12.9593 26.7062H21.6344C21.7323 26.7062 21.7976 26.6881 21.7976 26.5993V23.5315C21.7976 23.4408 21.7323 23.4245 21.6344 23.4245H19.0963V21.4796H21.8402C22.0904 21.4796 23.1791 21.5521 23.5281 22.9424L24.0403 25.2081C24.2034 25.7066 24.8679 26.7062 25.575 26.7062H30.0531C29.7525 27.1081 29.4238 27.4882 29.0695 27.8436L27.2484 27.453ZM32.0655 19.3525C32.1264 19.9649 32.134 20.5814 32.0881 21.195H31.0003C30.8916 21.195 30.8462 21.2675 30.8462 21.3736V21.8738C30.8462 23.052 30.1827 23.3058 29.6007 23.372C29.0478 23.4354 28.4313 23.1399 28.357 22.801C28.0307 20.963 27.4868 20.5715 26.6347 19.8918C27.7016 19.2138 28.8121 18.2151 28.8121 16.8765C28.8121 15.4319 27.8213 14.5219 27.1459 14.076C26.1986 13.4507 25.1498 13.3265 24.867 13.3265H13.5947C15.1518 11.5871 17.239 10.4095 19.5332 9.97594L20.8612 11.3689C21.1603 11.6834 21.6589 11.6952 21.9726 11.3943L23.4592 9.97412C24.9736 10.2576 26.408 10.8673 27.663 11.7608C28.918 12.6542 29.9634 13.8101 30.7266 15.1482L29.7095 17.4447C29.6252 17.6355 29.6199 17.8519 29.6948 18.0466C29.7698 18.2413 29.9188 18.3983 30.1093 18.4834L32.0655 19.3525ZM34.6018 19.3888L34.5674 19.0335L35.6153 18.0565C35.8283 17.8571 35.7486 17.4583 35.4766 17.3568L34.1377 16.8566L34.0326 16.5122L34.8665 15.3521C35.037 15.1165 34.8801 14.7404 34.5946 14.6932L33.1823 14.4639L33.0128 14.1467L33.6065 12.8444C33.728 12.5788 33.5023 12.2399 33.2104 12.2507L31.7781 12.3006L31.5515 12.026L31.8805 10.6303C31.9467 10.3466 31.6594 10.0593 31.3756 10.1255L29.9796 10.4545L29.7041 10.2279L29.7539 8.79593C29.7648 8.50592 29.4258 8.27934 29.1611 8.39988L27.8593 8.99351L27.5421 8.82312L27.3118 7.41111C27.2665 7.12472 26.8885 6.96883 26.6528 7.13922L25.4925 7.97301L25.148 7.86879L24.6476 6.53019C24.5461 6.2583 24.1463 6.17854 23.9478 6.39062L22.9706 7.4383L22.6153 7.40386L21.8611 6.18489C21.7088 5.93837 21.299 5.93837 21.1477 6.18489L20.3935 7.40386L20.0381 7.4383L19.0591 6.3888C18.8597 6.17673 18.4608 6.25558 18.3593 6.52837L17.8589 7.86698L17.5144 7.9712L16.3541 7.13741C16.1184 6.96702 15.7413 7.12381 15.6951 7.4093L15.4648 8.82131L15.1476 8.99169L13.8458 8.39807C13.5811 8.27753 13.2412 8.50411 13.253 8.79412L13.3029 10.2261L13.0273 10.4526L11.6313 10.1237C11.3475 10.0575 11.0602 10.3448 11.1264 10.6285L11.4554 12.0242L11.2288 12.2988L9.79653 12.2489C9.50646 12.2399 9.27983 12.577 9.4004 12.8426L9.99415 14.1449L9.82373 14.4621L8.41141 14.6914C8.12496 14.7367 7.96904 15.1147 8.13946 15.3503L8.97344 16.5104L8.86828 16.8547L7.52939 17.355C7.25744 17.4565 7.17767 17.8562 7.3907 18.0547L8.43861 19.0317L8.40416 19.387L7.18492 20.141C6.93836 20.2932 6.93836 20.7029 7.18492 20.8543L8.40416 21.6083L8.43861 21.9636L7.38798 22.9442C7.17586 23.1436 7.25472 23.5423 7.52667 23.6438L8.86557 24.1441L8.97072 24.4885L8.13674 25.6486C7.96723 25.8842 8.12315 26.2612 8.40869 26.3075L9.8201 26.5367L9.99052 26.854L9.39677 28.1554C9.27621 28.42 9.50374 28.7599 9.79291 28.749L11.2252 28.6992L11.4518 28.9747L11.1227 30.3704C11.0566 30.6532 11.3439 30.9414 11.6277 30.8743L13.0237 30.5453L13.2992 30.7719L13.2494 32.2038C13.2385 32.4939 13.5775 32.7204 13.8422 32.5999L15.1439 32.0063L15.4612 32.1767L15.6915 33.5878C15.7368 33.8751 16.1148 34.03 16.3505 33.8615L17.5108 33.0259L17.8553 33.131L18.3557 34.4696C18.4572 34.7415 18.8569 34.8212 19.0555 34.6083L20.0327 33.5606L20.388 33.5968L21.1422 34.8158C21.2945 35.0605 21.7024 35.0623 21.8556 34.8158L22.6098 33.5968L22.9652 33.5606L23.9424 34.6083C24.1418 34.8212 24.5407 34.7415 24.6422 34.4696L25.1426 33.131L25.487 33.0259L26.6474 33.8615C26.883 34.0309 27.2601 33.8751 27.3064 33.5878L27.5366 32.1767L27.8539 32.0063L29.1556 32.5999C29.4203 32.7204 29.7594 32.4948 29.7485 32.2038L29.6986 30.7719L29.9733 30.5453L31.3693 30.8743C31.653 30.9405 31.9404 30.6532 31.8742 30.3704L31.5451 28.9747L31.7718 28.6992L33.204 28.749C33.4941 28.7608 33.7207 28.42 33.6002 28.1554L33.0064 26.854L33.1759 26.5367L34.5882 26.3075C34.8756 26.2621 35.0324 25.8851 34.8602 25.6486L34.0262 24.4885L34.1314 24.1441L35.4703 23.6438C35.7422 23.5414 35.822 23.1427 35.609 22.9442L34.5611 21.9672L34.5955 21.6119L35.8147 20.8579C36.0613 20.7056 36.0622 20.2978 35.8147 20.1446L34.6018 19.3888Z" fill="black"/>
</svg>
