<svg width="76" height="76" viewBox="0 0 76 76" fill="none" xmlns="http://www.w3.org/2000/svg">
<path d="M36.8471 17.2427C36.8471 17.0359 36.8879 16.8311 36.9671 16.64C37.0462 16.4488 37.1623 16.2752 37.3086 16.1289C37.4549 15.9827 37.6286 15.8666 37.8197 15.7875C38.0109 15.7083 38.2158 15.6676 38.4227 15.6676C38.6296 15.6676 38.8344 15.7083 39.0256 15.7875C39.2167 15.8666 39.3904 15.9827 39.5367 16.1289C39.683 16.2752 39.7991 16.4488 39.8782 16.64C39.9574 16.8311 39.9982 17.0359 39.9982 17.2427C39.9982 17.6605 39.8322 18.0612 39.5367 18.3566C39.2412 18.652 38.8405 18.8179 38.4227 18.8179C38.0048 18.8179 37.6041 18.652 37.3086 18.3566C37.0131 18.0612 36.8471 17.6605 36.8471 17.2427ZM18.0503 31.5038C18.0503 31.297 18.091 31.0922 18.1702 30.901C18.2494 30.7099 18.3654 30.5363 18.5117 30.39C18.658 30.2437 18.8317 30.1277 19.0228 30.0486C19.214 29.9694 19.4189 29.9287 19.6258 29.9287C19.8327 29.9287 20.0375 29.9694 20.2287 30.0486C20.4199 30.1277 20.5935 30.2437 20.7398 30.39C20.8861 30.5363 21.0022 30.7099 21.0814 30.901C21.1605 31.0922 21.2013 31.297 21.2013 31.5038C21.2013 31.9216 21.0353 32.3223 20.7398 32.6177C20.4444 32.9131 20.0436 33.079 19.6258 33.079C19.2079 33.079 18.8072 32.9131 18.5117 32.6177C18.2162 32.3223 18.0503 31.9216 18.0503 31.5038ZM55.644 31.5767C55.644 31.159 55.81 30.7583 56.1055 30.4629C56.4009 30.1675 56.8017 30.0015 57.2195 30.0015C57.6374 30.0015 58.0381 30.1675 58.3336 30.4629C58.6291 30.7583 58.795 31.159 58.795 31.5767C58.795 31.9945 58.6291 32.3951 58.3336 32.6905C58.0381 32.9859 57.6374 33.1519 57.2195 33.1519C56.8017 33.1519 56.4009 32.9859 56.1055 32.6905C55.81 32.3951 55.644 31.9945 55.644 31.5767ZM22.6095 33.7399C22.9576 33.5845 23.23 33.2974 23.3669 32.9417C23.5038 32.5859 23.4942 32.1904 23.3401 31.8417L22.641 30.2616H25.3911V42.651H19.8428C19.1582 40.2466 18.945 37.7325 19.2149 35.2472L22.6095 33.7399ZM34.1103 34.0447V30.3924H40.6575C40.9955 30.3924 43.0432 30.7833 43.0432 32.3138C43.0432 33.5859 41.4693 34.043 40.1771 34.043L34.1103 34.0447ZM25.1707 53.7071C25.1707 53.5002 25.2115 53.2954 25.2907 53.1043C25.3698 52.9132 25.4859 52.7395 25.6322 52.5933C25.7785 52.447 25.9522 52.331 26.1433 52.2518C26.3345 52.1726 26.5394 52.1319 26.7463 52.1319C26.9532 52.1319 27.158 52.1726 27.3492 52.2518C27.5403 52.331 27.714 52.447 27.8603 52.5933C28.0066 52.7395 28.1227 52.9132 28.2018 53.1043C28.281 53.2954 28.3218 53.5002 28.3218 53.7071C28.3218 54.1248 28.1558 54.5255 27.8603 54.8209C27.5648 55.1163 27.1641 55.2823 26.7463 55.2823C26.3284 55.2823 25.9277 55.1163 25.6322 54.8209C25.3367 54.5255 25.1707 54.1248 25.1707 53.7071ZM48.5186 53.78C48.5186 53.3622 48.6846 52.9615 48.98 52.6661C49.2755 52.3707 49.6762 52.2048 50.0941 52.2048C50.5119 52.2048 50.9127 52.3707 51.2081 52.6661C51.5036 52.9615 51.6696 53.3622 51.6696 53.78C51.6696 54.1977 51.5036 54.5984 51.2081 54.8938C50.9127 55.1892 50.5119 55.3551 50.0941 55.3551C49.6762 55.3551 49.2755 55.1892 48.98 54.8938C48.6846 54.5984 48.5186 54.1977 48.5186 53.78ZM49.0056 50.2072C48.227 50.0416 47.4649 50.5352 47.2992 51.312L46.509 55.0023C43.9657 56.154 41.2037 56.7433 38.4117 56.7298C35.6197 56.7164 32.8635 56.1006 30.3313 54.9245L29.5411 51.2342C29.3754 50.4557 28.6134 49.9621 27.8347 50.1294L24.576 50.8284C23.9705 50.2049 23.4076 49.5414 22.8911 48.8424H38.7457C38.9246 48.8424 39.0439 48.8093 39.0439 48.647V43.0403C39.0439 42.8746 38.9246 42.8448 38.7457 42.8448H34.107V39.2903H39.1218C39.579 39.2903 41.5687 39.4228 42.2065 41.9636L43.1426 46.1045C43.4408 47.0155 44.6551 48.8424 45.9474 48.8424H54.1314C53.5822 49.5769 52.9815 50.2716 52.3339 50.9211L49.0056 50.2072ZM57.8093 35.4029C57.9207 36.522 57.9346 37.6487 57.8507 38.7702H55.8627C55.6639 38.7702 55.5811 38.9027 55.5811 39.0965V40.0108C55.5811 42.164 54.3684 42.6278 53.3048 42.7487C52.2942 42.8647 51.1676 42.3247 51.0318 41.7052C50.4354 38.3462 49.4413 37.6306 47.884 36.3884C49.834 35.1494 51.8634 33.3242 51.8634 30.8777C51.8634 28.2375 50.0527 26.5746 48.8184 25.7596C47.0872 24.6168 45.1704 24.3899 44.6535 24.3899H24.0525C26.8981 21.2109 30.7127 19.0587 34.9055 18.2664L37.3325 20.8122C37.8793 21.3869 38.7904 21.4084 39.3637 20.8585L42.0806 18.2631C44.8482 18.7812 47.4698 19.8954 49.7634 21.5283C52.057 23.1612 53.9675 25.2737 55.3624 27.7191L53.5036 31.9163C53.3495 32.2649 53.3398 32.6604 53.4768 33.0162C53.6137 33.372 53.886 33.659 54.2342 33.8144L57.8093 35.4029ZM62.4448 35.4691L62.3818 34.8198L64.2969 33.0343C64.6863 32.6699 64.5405 31.9411 64.0435 31.7556L61.5965 30.8413L61.4043 30.2119L62.9285 28.0918C63.24 27.6611 62.9534 26.9737 62.4315 26.8876L59.8504 26.4686L59.5406 25.8888L60.6257 23.5087C60.8477 23.0234 60.4352 22.4039 59.9017 22.4238L57.2841 22.5149L56.87 22.013L57.4713 19.4622C57.5923 18.9438 57.0671 18.4187 56.5486 18.5397L53.9973 19.1409L53.4936 18.7268L53.5847 16.1098C53.6046 15.5798 52.985 15.1657 52.5013 15.386L50.1222 16.4709L49.5424 16.1595L49.1216 13.5789C49.0388 13.0555 48.3479 12.7706 47.9172 13.082L45.7966 14.6059L45.1671 14.4154L44.2526 11.969C44.067 11.4721 43.3364 11.3263 42.9736 11.7139L41.1877 13.6286L40.5383 13.5657L39.1599 11.3379C38.8816 10.8874 38.1327 10.8874 37.8561 11.3379L36.4777 13.5657L35.8283 13.6286L34.039 11.7106C33.6746 11.323 32.9456 11.4671 32.7601 11.9656L31.8456 14.4121L31.216 14.6025L29.0955 13.0787C28.6647 12.7673 27.9755 13.0539 27.891 13.5756L27.4702 16.1562L26.8904 16.4676L24.5114 15.3827C24.0276 15.1624 23.4064 15.5765 23.4279 16.1065L23.519 18.7235L23.0154 19.1376L20.4641 18.5363C19.9455 18.4154 19.4203 18.9405 19.5413 19.4589L20.1427 22.0097L19.7285 22.5116L17.1109 22.4205C16.5808 22.4039 16.1666 23.0201 16.3869 23.5054L17.4721 25.8855L17.1606 26.4653L14.5795 26.8843C14.056 26.9671 13.771 27.6578 14.0825 28.0885L15.6066 30.2086L15.4145 30.838L12.9675 31.7523C12.4705 31.9378 12.3247 32.6682 12.714 33.031L14.6292 34.8165L14.5662 35.4658L12.338 36.8439C11.8873 37.1221 11.8873 37.8708 12.338 38.1474L14.5662 39.5255L14.6292 40.1748L12.7091 41.9669C12.3214 42.3313 12.4655 43.0601 12.9625 43.2456L15.4095 44.1599L15.6017 44.7893L14.0775 46.9095C13.7677 47.3401 14.0526 48.0292 14.5745 48.1136L17.154 48.5327L17.4654 49.1124L16.3803 51.4909C16.16 51.9746 16.5758 52.5957 17.1043 52.5758L19.7219 52.4847L20.136 52.9882L19.5347 55.539C19.4137 56.0558 19.9389 56.5825 20.4574 56.4599L23.0087 55.8587L23.5124 56.2728L23.4213 58.8898C23.4014 59.4198 24.021 59.8339 24.5047 59.6136L26.8838 58.5287L27.4636 58.8401L27.8844 61.419C27.9672 61.9441 28.6581 62.2273 29.0888 61.9192L31.2094 60.3921L31.8389 60.5842L32.7534 63.0306C32.939 63.5275 33.6696 63.6733 34.0324 63.284L35.8183 61.3693L36.4678 61.4356L37.8461 63.6633C38.1244 64.1106 38.87 64.1139 39.1499 63.6633L40.5283 61.4356L41.1777 61.3693L42.9637 63.284C43.3281 63.6733 44.0571 63.5275 44.2426 63.0306L45.1571 60.5842L45.7867 60.3921L47.9072 61.9192C48.338 62.229 49.0272 61.9441 49.1117 61.419L49.5325 58.8401L50.1123 58.5287L52.4913 59.6136C52.9751 59.8339 53.5947 59.4215 53.5748 58.8898L53.4837 56.2728L53.9857 55.8587L56.537 56.4599C57.0555 56.5808 57.5807 56.0558 57.4598 55.539L56.8584 52.9882L57.2725 52.4847L59.8901 52.5758C60.4203 52.5973 60.8344 51.9746 60.6141 51.4909L59.529 49.1124L59.8388 48.5327L62.4199 48.1136C62.9451 48.0308 63.2317 47.3418 62.9169 46.9095L61.3927 44.7893L61.5849 44.1599L64.0319 43.2456C64.5289 43.0585 64.6747 42.3297 64.2853 41.9669L62.3702 40.1814L62.4332 39.5321L64.6614 38.154C65.112 37.8758 65.1137 37.1304 64.6614 36.8505L62.4448 35.4691Z" fill="black"/>
</svg>
