<svg width="42" height="42" viewBox="0 0 42 42" fill="none" xmlns="http://www.w3.org/2000/svg">
<path d="M33.0197 8.79239C31.487 6.66486 29.2157 5.18571 26.6501 4.64433C24.0894 4.107 21.4202 4.54929 19.1697 5.88389L11.2803 10.8078C10.2213 11.4526 9.3105 12.314 8.60778 13.3356C7.9024 14.3605 7.42005 15.5222 7.19194 16.7453C6.81674 18.7925 7.14799 20.9065 8.13141 22.7408C7.45708 23.7423 6.99688 24.8723 6.77967 26.0599C6.55557 27.3011 6.58584 28.5749 6.86865 29.804C7.15082 31.0315 7.68014 32.1887 8.4243 33.2049C9.95694 35.3329 12.2282 36.8128 14.7939 37.3552C17.3537 37.8934 20.0202 37.453 22.276 36.1184L30.1659 31.1961C31.2247 30.5509 32.1352 29.6893 32.8379 28.6678C33.5433 27.6428 34.0258 26.4812 34.2543 25.258C34.6318 23.2094 34.3005 21.0933 33.3148 19.2581C33.9899 18.2569 34.4505 17.1269 34.6677 15.939C34.892 14.6978 34.8611 13.4229 34.5776 12.1938C34.2949 10.9661 33.7648 9.80888 33.0197 8.79294" fill="#FF3E00"/>
<path d="M18.039 33.5066C16.7599 33.8301 15.4136 33.7674 14.17 33.3265C12.9315 32.8885 11.8524 32.0899 11.0714 31.0336C10.6071 30.4179 10.2754 29.7126 10.0971 28.9623C9.91965 28.2138 9.89989 27.4365 10.0391 26.68C10.085 26.4313 10.1496 26.1865 10.2325 25.9472L10.3873 25.4968L10.8062 25.7825C11.7804 26.4667 12.8618 26.9841 14.0059 27.3133L14.3043 27.4006L14.2739 27.6852C14.239 28.1 14.3563 28.5133 14.6038 28.8479C14.8382 29.1739 15.166 29.4209 15.5439 29.5564C15.9236 29.6931 16.3357 29.7123 16.7265 29.6117C16.9028 29.5664 17.0713 29.4956 17.2266 29.4017L25.3851 24.4125C25.5841 24.2937 25.7554 24.1351 25.888 23.9472C26.0212 23.7591 26.1129 23.5449 26.1572 23.3188C26.2015 23.0926 26.1973 22.8597 26.145 22.6353C26.0937 22.4094 25.9963 22.1966 25.8587 22.0102C25.6232 21.6916 25.2978 21.4506 24.9242 21.3183C24.5492 21.1851 24.1431 21.1658 23.7571 21.2631C23.5799 21.3083 23.4104 21.3796 23.2542 21.4747L20.1224 23.3763C19.6067 23.691 19.0467 23.9266 18.4612 24.0754C17.1811 24.3998 15.8336 24.3375 14.5889 23.8964C13.3494 23.458 12.2695 22.6587 11.4881 21.6013C11.0268 20.9836 10.6985 20.277 10.5238 19.5262C10.3496 18.7769 10.3332 17.9997 10.4757 17.2438C10.6201 16.4978 10.9211 15.7909 11.3588 15.1698C11.7984 14.5455 12.3642 14.0204 13.0195 13.6285L21.1873 8.63931C21.7032 8.32525 22.2631 8.09017 22.8486 7.94189C24.1289 7.61681 25.4768 7.67874 26.722 8.11984C27.9617 8.55786 29.0418 9.35701 29.8233 10.4144C30.2876 11.0301 30.6193 11.7354 30.7976 12.4856C30.975 13.235 30.9949 14.0114 30.8562 14.768C30.8098 15.0167 30.7451 15.262 30.6628 15.5013L30.508 15.9517L30.0891 15.6671C29.1153 14.9819 28.0336 14.4644 26.8888 14.1363L26.5904 14.0479L26.6208 13.7633C26.6556 13.3483 26.5377 12.9348 26.2892 12.6006C26.0545 12.2817 25.7296 12.0405 25.3564 11.9081C24.9814 11.7747 24.5751 11.7556 24.1892 11.8534C24.0124 11.8987 23.8438 11.9695 23.6886 12.0651L15.5041 17.0371C15.3051 17.1554 15.1338 17.3134 15.0012 17.5013C14.869 17.6889 14.7784 17.9026 14.7354 18.128C14.6901 18.3552 14.6932 18.5894 14.7444 18.8153C14.7957 19.0413 14.8939 19.2539 15.0327 19.4394C15.2684 19.7576 15.5938 19.9982 15.9672 20.1302C16.3422 20.2637 16.7484 20.2829 17.1343 20.1854C17.3112 20.1396 17.4808 20.0694 17.6372 19.9754L20.7568 18.0716C21.2722 17.7569 21.832 17.5216 22.4175 17.3737C23.6977 17.0492 25.0454 17.1113 26.2903 17.5522C27.5301 17.9903 28.6104 18.7894 29.3923 19.8467C29.8555 20.4631 30.186 21.1687 30.3632 21.919C30.5401 22.6673 30.5589 23.4443 30.4185 24.2003C30.2754 24.9472 29.9751 25.6551 29.5376 26.2771C29.0977 26.9019 28.5314 27.4272 27.8753 27.8189L19.7085 32.8081C19.1931 33.1232 18.6331 33.3585 18.0473 33.5061" fill="white"/>
</svg>
