<svg width="42" height="42" viewBox="0 0 42 42" fill="none" xmlns="http://www.w3.org/2000/svg">
<path d="M15.4737 37.579C16.9394 37.579 18.345 36.9967 19.3814 35.9603C20.4178 34.9239 21 33.5183 21 32.0526V26.5263H15.4737C14.008 26.5263 12.6024 27.1086 11.566 28.1449C10.5296 29.1813 9.94737 30.5869 9.94737 32.0526C9.94737 33.5183 10.5296 34.9239 11.566 35.9603C12.6024 36.9967 14.008 37.579 15.4737 37.579Z" fill="#0ACF83"/>
<path d="M9.94737 21C9.94737 19.5343 10.5296 18.1287 11.566 17.0923C12.6024 16.0559 14.008 15.4737 15.4737 15.4737H21V26.5263H15.4737C14.008 26.5263 12.6024 25.9441 11.566 24.9077C10.5296 23.8713 9.94737 22.4657 9.94737 21Z" fill="#A259FF"/>
<path d="M9.94737 9.94737C9.94737 8.48245 10.529 7.07744 11.5645 6.0412C12.5999 5.00493 14.0045 4.42219 15.4694 4.42105H20.9957V15.4737H15.4737C14.008 15.4737 12.6024 14.8914 11.566 13.8551C10.5296 12.8187 9.94737 11.4131 9.94737 9.94737Z" fill="#F24E1E"/>
<path d="M21 4.42105H26.5263C27.992 4.42105 29.3976 5.00329 30.434 6.03965C31.4704 7.07606 32.0526 8.48168 32.0526 9.94737C32.0526 11.4131 31.4704 12.8187 30.434 13.8551C29.3976 14.8914 27.992 15.4737 26.5263 15.4737H21V4.42105Z" fill="#FF7262"/>
<path d="M32.0526 21C32.0526 22.4657 31.4704 23.8713 30.434 24.9077C29.3976 25.9441 27.992 26.5263 26.5263 26.5263C25.0606 26.5263 23.655 25.9441 22.6186 24.9077C21.5823 23.8713 21 22.4657 21 21C21 19.5343 21.5823 18.1287 22.6186 17.0923C23.655 16.0559 25.0606 15.4737 26.5263 15.4737C27.992 15.4737 29.3976 16.0559 30.434 17.0923C31.4704 18.1287 32.0526 19.5343 32.0526 21Z" fill="#1ABCFE"/>
</svg>
