<svg width="42" height="42" viewBox="0 0 42 42" fill="none" xmlns="http://www.w3.org/2000/svg">
<path d="M11.7909 4.42108H30.1571C31.0507 4.42108 31.9189 4.56366 32.7606 4.86153C33.9901 5.30922 35.0772 6.0785 35.9083 7.08919C36.7521 8.10536 37.3027 9.33237 37.501 10.6382C37.5789 11.1173 37.5917 11.5964 37.5917 12.0761V29.9891C37.5917 30.5583 37.5662 31.1419 37.4496 31.6984C37.1872 32.9871 36.5833 34.1815 35.7011 35.1568C34.8268 36.1282 33.7087 36.8482 32.4627 37.2424C31.7111 37.4751 30.9347 37.579 30.1444 37.579C29.7946 37.579 11.739 37.579 11.4671 37.5663C10.1354 37.5 8.8465 37.0747 7.73684 36.3356C6.65665 35.605 5.78606 34.6048 5.21132 33.4342C4.71948 32.4367 4.473 31.3232 4.473 30.2091V11.791C4.44519 10.6936 4.68054 9.60554 5.15937 8.61777C5.71977 7.44205 6.58236 6.43624 7.65892 5.70319C8.7592 4.95094 10.0454 4.51633 11.3765 4.44706C11.5058 4.42108 11.6484 4.42108 11.7909 4.42108Z" fill="url(#paint0_linear_1_730)"/>
<path d="M32.398 31.5431C32.2802 31.3581 32.1504 31.1808 32.0095 31.0126C31.6862 30.6263 31.3113 30.2862 30.8954 30.0018C30.3776 29.652 29.7686 29.4321 29.1469 29.4061C28.7054 29.384 28.2641 29.4546 27.8515 29.6133C27.437 29.7559 27.0358 29.9632 26.6468 30.1704C26.1936 30.4036 25.7405 30.6363 25.2613 30.8308C24.6916 31.064 24.0953 31.2453 23.4868 31.3746C22.7226 31.5172 21.945 31.5691 21.1813 31.5564C19.7954 31.5321 18.419 31.323 17.0885 30.9347C15.9263 30.5874 14.8089 30.1048 13.7594 29.4967C12.8459 28.9685 11.9831 28.3571 11.1819 27.6703C10.5277 27.1046 9.91319 26.4945 9.34279 25.8444C8.95032 25.3865 8.57875 24.9112 8.22923 24.4197C8.08751 24.2247 7.9576 24.0213 7.84018 23.8107L4.42105 20.1191V11.7656C4.42105 7.7109 7.69816 4.42108 11.7523 4.42108H18.2932L23.137 9.34282C34.0686 16.7779 30.5329 24.9768 30.5329 24.9768C30.5329 24.9768 33.6414 28.4733 32.398 31.5431Z" fill="url(#paint1_linear_1_730)"/>
<path d="M23.163 9.34277C34.0946 16.7773 30.5589 24.9767 30.5589 24.9767C30.5589 24.9767 33.6674 28.4859 32.4107 31.5564C32.4107 31.5564 31.1286 29.4061 28.9789 29.4061C26.9065 29.4061 25.6885 31.5558 21.5184 31.5558C12.2314 31.5558 7.84074 23.798 7.84074 23.798C16.2076 29.3022 21.9196 25.4039 21.9196 25.4039C18.1506 23.2149 10.1331 12.7492 10.1331 12.7492C17.1145 18.6944 20.1324 20.2617 20.1324 20.2617C18.3319 18.7729 13.2797 11.4931 13.2797 11.4931C17.3211 15.5859 25.3514 21.2979 25.3514 21.2979C27.631 14.9774 23.163 9.34277 23.163 9.34277Z" fill="white"/>
<defs>
<linearGradient id="paint0_linear_1_730" x1="24.1461" y1="3.2379" x2="17.8815" y2="38.766" gradientUnits="userSpaceOnUse">
<stop stop-color="#FAAE42"/>
<stop offset="1" stop-color="#EF3E31"/>
</linearGradient>
<linearGradient id="paint1_linear_1_730" x1="21.3382" y1="4.95658" x2="16.7536" y2="30.9596" gradientUnits="userSpaceOnUse">
<stop stop-color="#E39F3A"/>
<stop offset="1" stop-color="#D33929"/>
</linearGradient>
</defs>
</svg>
