<svg width="42" height="42" viewBox="0 0 42 42" fill="none" xmlns="http://www.w3.org/2000/svg">
<path d="M18.002 7.37213C17.8179 7.18347 17.598 7.03355 17.3551 6.93118C17.1123 6.82882 16.8514 6.77608 16.5878 6.77608C16.3242 6.77608 16.0633 6.82882 15.8205 6.93118C15.5776 7.03355 15.3577 7.18347 15.1736 7.37213H15.1642C14.7885 7.75682 14.5794 8.27402 14.5823 8.81174C14.5803 9.07763 14.6308 9.3413 14.7309 9.58766C14.8309 9.83401 14.9785 10.0582 15.1653 10.2475L15.1753 10.2569C15.3583 10.4445 15.5773 10.5934 15.8191 10.6945C16.0609 10.7956 16.3207 10.847 16.5828 10.8454C16.8466 10.8466 17.108 10.7952 17.3517 10.6941C17.5954 10.593 17.8164 10.4444 18.002 10.2569L18.0064 10.2475C18.1929 10.0581 18.3403 9.83386 18.44 9.5875C18.5398 9.34114 18.59 9.07752 18.5878 8.81174C18.5914 8.27399 18.3824 7.75657 18.0064 7.37213H18.002ZM16.5828 35.2231C17.141 35.2231 17.6411 34.9927 18.002 34.6307L18.0064 34.6196C18.3821 34.2383 18.5912 33.7236 18.5878 33.1883C18.5918 32.6497 18.3828 32.1312 18.0064 31.7459H18.002C17.8179 31.5559 17.5973 31.4051 17.3534 31.3025C17.1095 31.1999 16.8474 31.1478 16.5828 31.1491C16.3197 31.1475 16.059 31.1996 15.8167 31.3022C15.5744 31.4049 15.3555 31.5558 15.1736 31.7459H15.1642C14.7883 32.1317 14.579 32.6497 14.5812 33.1883C14.5812 33.7492 14.8033 34.2593 15.1642 34.6196L15.1736 34.6307C15.3572 34.8183 15.5764 34.9674 15.8184 35.0691C16.0604 35.1709 16.3203 35.2232 16.5828 35.2231ZM27.484 29.0591C27.7401 28.9912 27.9799 28.8726 28.1892 28.7102C28.3985 28.5479 28.5731 28.3452 28.7026 28.1141L28.7396 28.0422C28.9761 27.5879 29.0325 27.0613 28.8971 26.5678C28.8314 26.3099 28.7151 26.0677 28.5549 25.8552C28.3948 25.6427 28.194 25.4641 27.9643 25.3299L27.9355 25.3106C27.4826 25.0555 26.9472 24.99 26.4462 25.1282C26.1897 25.1955 25.9496 25.3142 25.7404 25.4771C25.5312 25.64 25.3573 25.8438 25.2293 26.0759C24.9625 26.545 24.8901 27.0999 25.0276 27.6217C25.1657 28.1398 25.5 28.5838 25.9599 28.8596H25.9626C26.4407 29.1403 26.9811 29.1906 27.484 29.0591ZM18.6347 18.9155C18.3675 18.642 18.0485 18.4245 17.6963 18.2757C17.3441 18.1269 16.9657 18.0499 16.5834 18.049C15.7821 18.049 15.0592 18.3833 14.5353 18.9155C13.9906 19.4712 13.6868 20.2191 13.6898 20.9973C13.6876 21.7782 13.9911 22.5289 14.5353 23.089C14.8028 23.3612 15.1218 23.5774 15.4737 23.7249C15.8256 23.8725 16.2034 23.9485 16.585 23.9485C16.9666 23.9485 17.3444 23.8725 17.6963 23.7249C18.0483 23.5774 18.3673 23.3612 18.6347 23.089C19.1791 22.529 19.4826 21.7782 19.4803 20.9973C19.4838 20.219 19.18 19.4708 18.6347 18.9155ZM17.4814 15.4472C18.6458 15.6423 19.6919 16.2098 20.4905 17.0277H20.496C20.6231 17.1565 20.7469 17.2985 20.8618 17.4411L22.8596 16.2656C22.5964 15.4569 22.574 14.589 22.7949 13.7677C22.9386 13.2136 23.1902 12.6932 23.5354 12.2365C23.8806 11.7798 24.3126 11.3957 24.8065 11.1063L24.8408 11.0842C25.3258 10.8026 25.862 10.6202 26.4182 10.5477C26.9743 10.4752 27.5393 10.5141 28.0803 10.6619C28.6309 10.8132 29.146 11.072 29.5961 11.4233C30.0461 11.7746 30.4222 12.2115 30.7026 12.7089V12.7122C31.2757 13.7221 31.431 14.9161 31.1353 16.0391C30.9921 16.5937 30.7407 17.1146 30.3955 17.5718C30.0503 18.0289 29.618 18.4133 29.1237 18.7027L28.8501 18.8652H28.8225C27.8963 19.3128 26.8397 19.4115 25.8466 19.1432C25.0375 18.9208 24.3107 18.4676 23.7549 17.839L21.7599 19.0106C22.233 20.2941 22.233 21.7043 21.7599 22.9878L23.7549 24.1567C24.3077 23.5246 25.0357 23.0707 25.8466 22.8524C26.394 22.7007 26.9665 22.6616 27.5295 22.7374C28.0925 22.8132 28.6342 23.0023 29.122 23.2935L29.1883 23.3255V23.3283C30.1527 23.9214 30.8499 24.865 31.1336 25.961C31.429 27.0826 31.2738 28.2752 30.7014 29.284L30.6655 29.3575L30.6611 29.3503C30.0906 30.3205 29.1661 31.0317 28.082 31.3342C27.5342 31.4819 26.9624 31.5191 26.4001 31.4437C25.8378 31.3682 25.2961 31.1817 24.8065 30.8949V30.8866C23.8095 30.3009 23.0859 29.3432 22.7949 28.224C22.5747 27.4041 22.5972 26.5379 22.8596 25.7306L20.8618 24.559C20.7469 24.7004 20.6242 24.8358 20.4954 24.9652L20.4899 24.9723C19.6803 25.8036 18.6262 26.3543 17.4814 26.544V28.8916C18.3012 29.0683 19.0508 29.4825 19.6367 30.0825L19.6394 30.0881C20.452 30.9145 20.9058 32.0282 20.9022 33.1872C20.9022 34.3931 20.4181 35.4862 19.6394 36.2803L19.6367 36.2924C19.2385 36.6991 18.7634 37.0222 18.2389 37.2431C17.7145 37.464 17.1513 37.5782 16.5823 37.579C16.0144 37.5775 15.4526 37.4632 14.9293 37.2426C14.4061 37.022 13.932 36.6996 13.5345 36.2941H13.5317V36.2819C12.7195 35.4572 12.2649 34.3458 12.2662 33.1883C12.2662 31.9792 12.7503 30.8783 13.5317 30.0892V30.0836H13.5351C14.1207 29.4849 14.8691 29.0711 15.6876 28.8933V26.5457C14.5431 26.3565 13.4894 25.8055 12.6812 24.9734L12.6729 24.9668C11.6329 23.9068 11.051 22.4806 11.0526 20.9956C11.0526 19.4449 11.6771 18.0446 12.6735 17.0277H12.6818C13.4901 16.1942 14.5433 15.6405 15.6881 15.4472V13.1096C14.8701 12.9281 14.1223 12.5135 13.5351 11.9159H13.5323V11.9103C12.7195 11.0838 12.2649 9.97042 12.2668 8.81119C12.2668 7.60756 12.7509 6.50561 13.5323 5.71258L13.5356 5.70982C13.932 5.30261 14.4059 4.97882 14.9293 4.7575C15.4527 4.53617 16.0151 4.42179 16.5834 4.42108C17.7726 4.42108 18.8503 4.91127 19.6361 5.70871V5.71148H19.6394C20.4505 6.53869 20.9041 7.65155 20.9022 8.81008C20.9022 10.0203 20.4181 11.1134 19.6394 11.9092L19.6367 11.9159C19.0486 12.5136 18.3 12.9282 17.4814 13.1096V15.4472ZM28.7009 13.8877L28.6843 13.8617C28.4198 13.4087 27.9883 13.0774 27.4824 12.9388C27.2278 12.8688 26.9617 12.8505 26.6999 12.885C26.4381 12.9196 26.1859 13.0063 25.9582 13.1399H25.961C25.731 13.2742 25.5299 13.4527 25.3694 13.6652C25.2089 13.8777 25.0921 14.1199 25.0259 14.3778C24.8889 14.8998 24.9613 15.4547 25.2276 15.9241L25.237 15.9363C25.3667 16.1635 25.5402 16.3628 25.7474 16.5225C25.9547 16.6821 26.1917 16.799 26.4445 16.8663C26.6976 16.9384 26.9627 16.9579 27.2236 16.9237C27.4845 16.8895 27.7356 16.8023 27.9615 16.6674L27.988 16.6547C28.4376 16.3803 28.7629 15.942 28.8954 15.4323C29.0349 14.9118 28.9651 14.3573 28.7009 13.8877Z" fill="black"/>
</svg>
