<svg width="42" height="42" viewBox="0 0 42 42" fill="none" xmlns="http://www.w3.org/2000/svg">
<path d="M23.3432 30.9473H34.3848C34.7371 30.9473 35.0744 30.8235 35.3795 30.6489C35.6846 30.4743 35.9992 30.2551 36.1753 29.9526C36.3514 29.6501 36.4738 29.307 36.4737 28.9578C36.4736 28.6085 36.3517 28.2655 36.1753 27.9632L28.7148 15.1311C28.5387 14.8286 28.3235 14.6093 28.0185 14.4347C27.7134 14.2601 27.2765 14.1363 26.9242 14.1363C26.572 14.1363 26.2345 14.2601 25.9295 14.4347C25.6244 14.6093 25.4092 14.8286 25.2331 15.1311L23.3432 18.4137L19.5631 12.0471C19.3869 11.7448 19.172 11.4261 18.8669 11.2516C18.5617 11.077 18.2245 11.0526 17.8721 11.0526C17.5198 11.0526 17.1825 11.077 16.8774 11.2516C16.5723 11.4261 16.2579 11.7448 16.0816 12.0471L6.83054 27.9632C6.65417 28.2655 6.63175 28.6085 6.63159 28.9578C6.63144 29.307 6.65444 29.6501 6.83054 29.9526C7.00665 30.255 7.32119 30.4743 7.62633 30.6489C7.93147 30.8235 8.26871 30.9473 8.62107 30.9473H15.5842C18.3433 30.9473 20.3515 29.7097 21.7516 27.3663L25.1337 21.4973L26.9242 18.4137L32.3953 27.7642H25.1337L23.3432 30.9473ZM15.4848 27.7642H10.6105L17.8721 15.2305L21.5526 21.4973L19.1147 25.7473C18.1849 27.2678 17.1248 27.7642 15.4848 27.7642Z" fill="#00DC82"/>
</svg>
