<svg width="76" height="76" viewBox="0 0 76 76" fill="none" xmlns="http://www.w3.org/2000/svg">
<path d="M42.24 56H62.22C62.8576 56 63.4679 55.776 64.02 55.46C64.5722 55.144 65.1414 54.7473 65.46 54.1999C65.7787 53.6527 66.0003 53.0317 66 52.3998C65.9997 51.7679 65.7792 51.1471 65.46 50.6001L51.96 27.38C51.6414 26.8328 51.252 26.4359 50.7 26.1199C50.1479 25.8041 49.3574 25.58 48.72 25.58C48.0826 25.58 47.472 25.8041 46.92 26.1199C46.3679 26.4359 45.9786 26.8328 45.66 27.38L42.24 33.32L35.4 21.7996C35.0811 21.2524 34.6922 20.6759 34.14 20.36C33.5878 20.0441 32.9776 20 32.34 20C31.7025 20 31.0922 20.0441 30.54 20.36C29.9879 20.6759 29.419 21.2524 29.1 21.7996L12.36 50.6001C12.0409 51.1471 12.0003 51.7679 12 52.3998C11.9997 53.0317 12.0413 53.6525 12.36 54.1999C12.6787 54.7472 13.2478 55.144 13.8 55.46C14.3522 55.776 14.9624 56 15.6 56H28.2C33.1926 56 36.8265 53.7604 39.36 49.52L45.48 38.9L48.72 33.32L58.62 50.24H45.48L42.24 56ZM28.02 50.24H19.2L32.34 27.56L39 38.9L34.5884 46.5904C32.906 49.3417 30.9878 50.24 28.02 50.24Z" fill="#00DC82"/>
</svg>
