<svg width="42" height="42" viewBox="0 0 42 42" fill="none" xmlns="http://www.w3.org/2000/svg">
<path d="M25.7826 5.76735C26.042 6.08852 26.1743 6.52191 26.4388 7.38868L32.2184 26.3241C30.0815 25.2186 27.7585 24.4212 25.3086 23.991L21.5455 11.3082C21.484 11.1007 21.2928 10.9583 21.0759 10.9583C20.8583 10.9583 20.6669 11.1015 20.6058 11.3097L16.8883 23.9846C14.427 24.4129 12.0934 25.2117 9.94736 26.3213L15.7553 7.3843C16.0207 6.51902 16.1534 6.08637 16.4128 5.76579C16.6418 5.48277 16.9397 5.26297 17.2781 5.12733C17.6613 4.97369 18.115 4.97369 19.0223 4.97369H23.1706C24.079 4.97369 24.5332 4.97369 24.9169 5.12765C25.2555 5.26357 25.5536 5.48382 25.7826 5.76735Z" fill="black"/>
<path d="M26.4742 27.2253C25.5214 28.0378 23.6197 28.592 21.4292 28.592C18.7406 28.592 16.4872 27.7572 15.8892 26.6345C15.6754 27.278 15.6275 28.0143 15.6275 28.4848C15.6275 28.4848 15.4866 30.7947 17.0975 32.4013C17.0975 31.567 17.7756 30.8908 18.6121 30.8908C20.0457 30.8908 20.0441 32.1382 20.0428 33.1503C20.0428 33.1806 20.0428 33.2108 20.0428 33.2407C20.0428 34.7768 20.9841 36.0937 22.3229 36.6488C22.123 36.2386 22.0108 35.778 22.0108 35.2912C22.0108 33.8261 22.8732 33.2806 23.8756 32.6465C24.6731 32.1421 25.5592 31.5816 26.1699 30.4573C26.4885 29.8707 26.6694 29.1988 26.6694 28.4848C26.6694 28.0456 26.601 27.6225 26.4742 27.2253Z" fill="#FF5D01"/>
</svg>
