<svg width="76" height="76" viewBox="0 0 76 76" fill="none" xmlns="http://www.w3.org/2000/svg">
<path d="M46.6542 10.4361C47.1236 11.0173 47.363 11.8015 47.8417 13.37L58.3 47.6341C54.4333 45.6336 50.2297 44.1907 45.7966 43.4123L38.9872 20.4625C38.8758 20.087 38.5299 19.8294 38.1373 19.8294C37.7436 19.8294 37.3972 20.0883 37.2866 20.4651L30.5597 43.4007C26.106 44.1756 21.8833 45.6211 18 47.6289L28.5096 13.3621C28.9898 11.7963 29.2299 11.0134 29.6994 10.4333C30.1138 9.9212 30.6528 9.52346 31.2651 9.27802C31.9586 9 32.7795 9 34.4212 9H41.9277C43.5716 9 44.3935 9 45.0877 9.2786C45.7005 9.52455 46.2398 9.92309 46.6542 10.4361Z" fill="black"/>
<path d="M47.9057 49.2648C46.1816 50.7351 42.7404 51.7379 38.7766 51.7379C33.9115 51.7379 29.8339 50.2273 28.7519 48.1958C28.365 49.3601 28.2783 50.6926 28.2783 51.5438C28.2783 51.5438 28.0234 55.7237 30.9384 58.6309C30.9384 57.1213 32.1654 55.8976 33.679 55.8976C36.2732 55.8976 36.2703 58.1549 36.268 59.9863C36.2679 60.0412 36.2678 60.0957 36.2678 60.1498C36.2678 62.9295 37.9713 65.3124 40.3938 66.3168C40.032 65.5746 39.829 64.7411 39.829 63.8602C39.829 61.2091 41.3897 60.222 43.2034 59.0747C44.6465 58.1618 46.25 57.1477 47.355 55.1132C47.9315 54.0517 48.2589 52.8359 48.2589 51.5438C48.2589 50.7493 48.1351 49.9835 47.9057 49.2648Z" fill="#FF5D01"/>
</svg>
