<svg width="42" height="42" viewBox="0 0 42 42" fill="none" xmlns="http://www.w3.org/2000/svg">
<path d="M13.9871 6.07895C13.0918 6.08116 12.2154 6.58903 11.765 7.36437L4.75372 19.5433C4.30996 20.3208 4.30996 21.3371 4.75372 22.1147L11.7655 34.2924C12.2159 35.0678 13.0924 35.5762 13.9882 35.5784H28.0101C28.9054 35.5762 29.7819 35.0678 30.2328 34.2924L37.2435 22.1136C37.6872 21.3366 37.6872 20.3203 37.2435 19.5427L30.2322 7.36437C29.7813 6.58903 28.9048 6.08061 28.009 6.07895H13.9882H13.9871ZM14.1147 13.2035C14.1344 13.2015 14.1542 13.2015 14.1739 13.2035H16.5922C16.6459 13.2053 16.6982 13.2207 16.7444 13.2481C16.7906 13.2755 16.8291 13.3142 16.8564 13.3604L20.9591 20.6717C20.9797 20.708 20.9929 20.748 20.9978 20.7894C21.0029 20.748 21.0163 20.708 21.037 20.6717L25.1303 13.3604C25.1585 13.3127 25.1986 13.2732 25.2466 13.2457C25.2947 13.2182 25.3491 13.2036 25.4045 13.2035H27.8228C28.0372 13.2057 28.1975 13.4754 28.0969 13.6649L24.0925 20.8287L28.0969 27.9831C28.2074 28.1737 28.0427 28.4561 27.8228 28.4539H25.4045C25.3482 28.4527 25.2932 28.4367 25.2451 28.4075C25.1969 28.3783 25.1574 28.3369 25.1303 28.2876L21.037 20.9762C21.0164 20.94 21.0033 20.8999 20.9983 20.8585C20.9934 20.8999 20.9802 20.9399 20.9596 20.9762L16.8564 28.2876C16.8301 28.3355 16.7921 28.3759 16.7459 28.4051C16.6997 28.4342 16.6468 28.451 16.5922 28.4539H14.1733C13.9539 28.4561 13.7892 28.1737 13.8992 27.9831L17.9041 20.8287L13.8992 13.6649C13.8031 13.4919 13.9208 13.2405 14.1147 13.2035Z" fill="#3498DB"/>
</svg>
