<svg width="42" height="42" viewBox="0 0 42 42" fill="none" xmlns="http://www.w3.org/2000/svg">
<path fill-rule="evenodd" clip-rule="evenodd" d="M23.6454 8.21597L30.455 12.1479C30.6515 11.9398 30.8771 11.7611 31.1248 11.6174C31.8036 11.2272 32.6095 11.1221 33.3658 11.3251C34.122 11.5281 34.7669 12.0228 35.159 12.7006C35.549 13.3794 35.6541 14.1852 35.451 14.9413C35.248 15.6974 34.7534 16.3421 34.0758 16.7342C33.8301 16.8759 33.5652 16.9814 33.2894 17.0476V24.9137C33.5624 24.9801 33.8244 25.0851 34.0675 25.2249C34.4045 25.4176 34.7001 25.6752 34.9372 25.9827C35.1742 26.2902 35.3481 26.6415 35.4488 27.0165C35.5494 27.3915 35.5749 27.7827 35.5238 28.1676C35.4726 28.5525 35.3458 28.9234 35.1507 29.2591C34.3383 30.6711 32.5284 31.1529 31.1165 30.3411C30.8428 30.1842 30.5963 29.9842 30.3864 29.7487L23.6184 33.6553C23.7649 34.099 23.8041 34.5711 23.7328 35.0329C23.6616 35.4947 23.4818 35.933 23.2083 36.3118C22.9348 36.6907 22.5754 36.9993 22.1595 37.2124C21.7437 37.4254 21.2832 37.5369 20.816 37.5375C20.4283 37.5378 20.0444 37.4616 19.6862 37.3134C19.328 37.1652 19.0025 36.9478 18.7284 36.6736C18.4543 36.3995 18.237 36.074 18.0888 35.7157C17.9406 35.3575 17.8645 34.9736 17.8649 34.5859C17.8649 34.2958 17.9064 34.0156 17.9837 33.7509L11.1759 29.8206C10.9815 30.0243 10.7591 30.1994 10.5155 30.3406C9.0952 31.1529 7.29362 30.6705 6.48126 29.258C6.09116 28.5791 5.98612 27.7732 6.18915 27.017C6.39219 26.2608 6.88674 25.616 7.56441 25.2238C7.80757 25.0839 8.06897 24.9795 8.34197 24.9132V17.047C8.06624 16.9809 7.80141 16.8755 7.55557 16.7342C6.14305 15.9219 5.66115 14.1126 6.47297 12.7C7.28534 11.2881 9.09465 10.8056 10.5072 11.618C10.7531 11.7606 10.9775 11.9379 11.1737 12.1446L17.9848 8.21155C17.9046 7.93915 17.8641 7.65662 17.8644 7.37266C17.864 6.98499 17.9401 6.60106 18.0882 6.24283C18.2364 5.88459 18.4538 5.55909 18.7279 5.28494C19.002 5.0108 19.3274 4.79338 19.6856 4.64515C20.0438 4.49691 20.4277 4.42076 20.8154 4.42105C21.2031 4.42069 21.587 4.49677 21.9452 4.64494C22.3035 4.79311 22.629 5.01046 22.9031 5.28455C23.1773 5.55865 23.3947 5.88411 23.5429 6.24231C23.6912 6.60052 23.7673 6.98444 23.767 7.3721C23.767 7.66555 23.7245 7.94905 23.6454 8.21597ZM22.9359 9.42734L29.7614 13.3687C29.6528 13.7486 29.6216 14.1465 29.6699 14.5387C29.7181 14.9309 29.8447 15.3094 30.0421 15.6516C30.2397 15.9957 30.5049 16.2961 30.8217 16.5348C31.1386 16.7735 31.5005 16.9455 31.8857 17.0404V24.9165C31.847 24.9259 31.8095 24.9358 31.7713 24.9469L22.8568 9.50637C22.8845 9.48039 22.9104 9.45442 22.9364 9.42789L22.9359 9.42734ZM18.7768 9.50803L9.86226 24.9486C9.82378 24.9375 9.78509 24.9272 9.7462 24.9176V17.0404C10.1313 16.9454 10.4931 16.7734 10.8099 16.5347C11.1267 16.296 11.3918 15.9956 11.5892 15.6516C11.7871 15.3086 11.9139 14.9292 11.9619 14.5361C12.01 14.1431 11.9783 13.7443 11.8689 13.3637L18.6928 9.42458C18.7204 9.45276 18.748 9.48095 18.7768 9.50803ZM21.6405 10.2077L30.5533 25.6443C30.1444 26.0353 29.8562 26.5353 29.7227 27.085H11.9092C11.8429 26.8122 11.7381 26.5502 11.5981 26.3069C11.4571 26.0639 11.2824 25.8422 11.0792 25.6482L19.9937 10.2082C20.5316 10.3638 21.1026 10.3636 21.6405 10.2077ZM22.9983 32.5981L29.7802 28.6827C29.7598 28.6188 29.7415 28.5543 29.7255 28.4893H11.9053C11.896 28.5274 11.8859 28.5654 11.8749 28.6031L18.6894 32.5378C18.9646 32.2516 19.2949 32.0241 19.6604 31.8689C20.0258 31.7137 20.4189 31.6341 20.816 31.6348C21.2269 31.6342 21.6334 31.7195 22.0094 31.8854C22.3853 32.0513 22.7218 32.2941 22.9983 32.5981Z" fill="#E535AB"/>
</svg>
