<svg width="76" height="76" viewBox="0 0 76 76" fill="none" xmlns="http://www.w3.org/2000/svg">
<path d="M57.9 11H20.1C15.6265 11 12 14.6265 12 19.1V56.9C12 61.3735 15.6265 65 20.1 65H57.9C62.3735 65 66 61.3735 66 56.9V19.1C66 14.6265 62.3735 11 57.9 11Z" fill="#21759B"/>
<path d="M39 58.0391C50.0673 58.0391 59.0391 49.0673 59.0391 38C59.0391 26.9327 50.0673 17.9609 39 17.9609C27.9327 17.9609 18.9609 26.9327 18.9609 38C18.9609 49.0673 27.9327 58.0391 39 58.0391Z" stroke="white" stroke-width="2.5"/>
<path d="M33.5156 56.9844L39.4219 39.6875L45.5391 56.457L48.5977 54.7695L54.5039 37.6836C55.5586 34.9414 55.875 32.7266 55.875 30.8281C55.9805 27.3477 54.5039 24.2891 51.9727 23.9727C49.6523 23.7617 48.3867 25.9766 48.4922 27.3477C48.7031 30.5117 51.8672 32.3047 51.8672 36.6289C51.8672 39.793 49.8633 44.75 48.4922 49.4961L41.6367 29.0352C42.7969 28.9297 43.8516 28.9297 43.8516 28.9297C44.9062 28.8242 44.8008 27.2422 43.7461 27.3477C40.2656 27.6641 37.1016 27.5586 33.6211 27.3477C32.5664 27.2422 32.4609 28.8242 33.5156 28.9297C33.5156 28.9297 34.4648 28.9297 35.5195 29.0352L38.4727 37.1562L34.2539 49.707L27.3984 29.0352C28.5586 28.9297 29.5078 28.9297 29.5078 28.9297C30.5625 28.8242 30.457 27.2422 29.4023 27.3477C26.2383 27.5586 23.1797 27.7695 22.4414 27.2422L21.4922 29.8789L30.7734 55.5078L33.5156 56.9844Z" fill="white"/>
</svg>
