<svg width="42" height="42" viewBox="0 0 42 42" fill="none" xmlns="http://www.w3.org/2000/svg">
<path d="M31.9974 6.07898H11.1079C8.63569 6.07898 6.63158 8.08309 6.63158 10.5553V31.4448C6.63158 33.917 8.63569 35.9211 11.1079 35.9211H31.9974C34.4696 35.9211 36.4737 33.917 36.4737 31.4448V10.5553C36.4737 8.08309 34.4696 6.07898 31.9974 6.07898Z" fill="#21759B"/>
<path d="M21.5526 32.0742C27.6688 32.0742 32.6268 27.1161 32.6268 21C32.6268 14.8839 27.6688 9.92578 21.5526 9.92578C15.4365 9.92578 10.4784 14.8839 10.4784 21C10.4784 27.1161 15.4365 32.0742 21.5526 32.0742Z" stroke="white" stroke-width="1.5"/>
<path d="M18.5218 31.4914L21.7858 21.9326L25.1663 31.2L26.8566 30.2674L30.1206 20.8252C30.7034 19.3098 30.8783 18.0858 30.8783 17.0367C30.9366 15.1132 30.1206 13.423 28.7217 13.2481C27.4395 13.1315 26.74 14.3555 26.7983 15.1132C26.9149 16.8618 28.6634 17.8527 28.6634 20.2424C28.6634 21.9909 27.556 24.7303 26.7983 27.3532L23.0098 16.0458C23.6509 15.9875 24.2338 15.9875 24.2338 15.9875C24.8166 15.9292 24.7583 15.055 24.1755 15.1132C22.2521 15.2881 20.5035 15.2298 18.5801 15.1132C17.9972 15.055 17.9389 15.9292 18.5218 15.9875C18.5218 15.9875 19.0464 15.9875 19.6292 16.0458L21.2612 20.5338L18.9298 27.4697L15.1412 16.0458C15.7824 15.9875 16.3069 15.9875 16.3069 15.9875C16.8898 15.9292 16.8315 15.055 16.2487 15.1132C14.5001 15.2298 12.8098 15.3464 12.4018 15.055L11.8773 16.5121L17.0064 30.6754L18.5218 31.4914Z" fill="white"/>
</svg>
