<svg width="42" height="42" viewBox="0 0 42 42" fill="none" xmlns="http://www.w3.org/2000/svg">
<path d="M31.5276 6.07898H11.025C8.59858 6.07898 6.63158 8.04598 6.63158 10.4724V30.975C6.63158 33.4015 8.59858 35.3685 11.025 35.3685H31.5276C33.9541 35.3685 35.9211 33.4015 35.9211 30.975V10.4724C35.9211 8.04598 33.9541 6.07898 31.5276 6.07898Z" fill="#21759B"/>
<path d="M21.2763 31.5929C27.2792 31.5929 32.1454 26.7266 32.1454 20.7238C32.1454 14.7209 27.2792 9.85461 21.2763 9.85461C15.2734 9.85461 10.4072 14.7209 10.4072 20.7238C10.4072 26.7266 15.2734 31.5929 21.2763 31.5929Z" stroke="white"/>
<path d="M18.3016 31.0208L21.5051 21.639L24.8231 30.7347L26.4821 29.8194L29.6856 20.5521C30.2577 19.0647 30.4293 17.8634 30.4293 16.8337C30.4865 14.9459 29.6856 13.2869 28.3127 13.1153C27.0541 13.0009 26.3677 14.2022 26.4249 14.9459C26.5393 16.6621 28.2555 17.6346 28.2555 19.98C28.2555 21.6962 27.1685 24.3849 26.4249 26.9591L22.7065 15.8612C23.3357 15.804 23.9078 15.804 23.9078 15.804C24.4799 15.7468 24.4226 14.8887 23.8506 14.9459C21.9628 15.1175 20.2466 15.0603 18.3588 14.9459C17.7868 14.8887 17.7295 15.7468 18.3016 15.804C18.3016 15.804 18.8165 15.804 19.3885 15.8612L20.9903 20.266L18.702 27.0735L14.9837 15.8612C15.6129 15.804 16.1278 15.804 16.1278 15.804C16.6998 15.7468 16.6426 14.8887 16.0706 14.9459C14.3544 15.0603 12.6954 15.1747 12.295 14.8887L11.7801 16.3188L16.8142 30.2199L18.3016 31.0208Z" fill="white"/>
</svg>
