<svg width="76" height="76" viewBox="0 0 76 76" fill="none" xmlns="http://www.w3.org/2000/svg">
<path d="M57.05 11H19.95C15.5593 11 12 14.5593 12 18.95V56.05C12 60.4407 15.5593 64 19.95 64H57.05C61.4407 64 65 60.4407 65 56.05V18.95C65 14.5593 61.4407 11 57.05 11Z" fill="#21759B"/>
<path d="M38.5 57.168C49.3623 57.168 58.168 48.3623 58.168 37.5C58.168 26.6377 49.3623 17.832 38.5 17.832C27.6377 17.832 18.832 26.6377 18.832 37.5C18.832 48.3623 27.6377 57.168 38.5 57.168Z" stroke="white" stroke-width="2.5"/>
<path d="M33.1172 56.1328L38.9141 39.1562L44.918 55.6152L47.9199 53.959L53.7168 37.1894C54.752 34.498 55.0625 32.3242 55.0625 30.4609C55.166 27.0449 53.7168 24.043 51.2324 23.7324C48.9551 23.5254 47.7129 25.6992 47.8164 27.0449C48.0234 30.1504 51.1289 31.9101 51.1289 36.1543C51.1289 39.2597 49.1621 44.125 47.8164 48.7832L41.0879 28.7012C42.2266 28.5976 43.2617 28.5976 43.2617 28.5976C44.2969 28.4941 44.1934 26.9414 43.1582 27.0449C39.7422 27.3555 36.6367 27.2519 33.2207 27.0449C32.1855 26.9414 32.082 28.4941 33.1172 28.5976C33.1172 28.5976 34.0488 28.5976 35.084 28.7012L37.9824 36.6719L33.8418 48.9902L27.1133 28.7012C28.252 28.5976 29.1836 28.5976 29.1836 28.5976C30.2188 28.4941 30.1152 26.9414 29.0801 27.0449C25.9746 27.2519 22.9727 27.459 22.248 26.9414L21.3164 29.5293L30.4258 54.6836L33.1172 56.1328Z" fill="white"/>
</svg>
